<svg width="40" height="40" viewBox="-2015 -2000 248 248" xmlns="http://www.w3.org/2000/svg">
  <path fill="red" d="m-1894.063-1752.648 2.766-52.887a5.84 5.822 0 0 0-6.823-6.006l-52.803 9.254 7.13-19.61a3.996 3.983 0 0 0-1.23-4.474l-57.843-46.698 13.032-6.067a3.996 3.983 0 0 0 2.09-4.841l-11.434-35.054 33.317 7.047a3.996 3.983 0 0 0 4.488-2.328l6.454-15.137 26.002 27.822a3.996 3.983 0 0 0 6.823-3.493l-12.54-64.47 20.101 11.583a3.996 3.983 0 0 0 5.594-1.655l20.408-39.957 20.409 39.957a3.996 3.983 0 0 0 5.594 1.655l20.1-11.583-12.54 64.47a3.996 3.983 0 0 0 6.824 3.493l26.002-27.822 6.454 15.137a3.996 3.983 0 0 0 4.488 2.328l33.317-7.047-11.434 35.054a3.996 3.983 0 0 0 2.09 4.84l13.032 6.068-57.844 46.698a3.996 3.983 0 0 0-1.23 4.473l7.131 19.61-52.803-9.253a5.84 5.822 0 0 0-6.823 6.006l2.766 52.887z" style="stroke-width:.0613769"/>
</svg>
