<?xml version="1.0" encoding="UTF-8" standalone="no"?>
<svg
   xmlns:dc="http://purl.org/dc/elements/1.1/"
   xmlns:cc="http://creativecommons.org/ns#"
   xmlns:rdf="http://www.w3.org/1999/02/22-rdf-syntax-ns#"
   xmlns:svg="http://www.w3.org/2000/svg"
   xmlns="http://www.w3.org/2000/svg"
   xmlns:sodipodi="http://sodipodi.sourceforge.net/DTD/sodipodi-0.dtd"
   xmlns:inkscape="http://www.inkscape.org/namespaces/inkscape"
   height="256px"
   style="enable-background:new 0 0 256 256;"
   version="1.1"
   viewBox="0 0 256 256"
   width="256px"
   xml:space="preserve"
   id="svg20"
   sodipodi:docname="gsfc-logo-renren-1.svg"
   inkscape:version="0.92.1 r15371"
   inkscape:export-filename="C:\Users\t1tmbit\Desktop\GORDONSTEVENSCA\site2\img\gsfc-logo-renren-1-300x300.png"
   inkscape:export-xdpi="112.5"
   inkscape:export-ydpi="112.5"><metadata
     id="metadata26"><rdf:RDF><cc:Work
         rdf:about=""><dc:format>image/svg+xml</dc:format><dc:type
           rdf:resource="http://purl.org/dc/dcmitype/StillImage" /><dc:title /></cc:Work></rdf:RDF></metadata><defs
     id="defs24" /><sodipodi:namedview
     pagecolor="#ffffff"
     bordercolor="#666666"
     borderopacity="1"
     objecttolerance="10"
     gridtolerance="10"
     guidetolerance="10"
     inkscape:pageopacity="0"
     inkscape:pageshadow="2"
     inkscape:window-width="701"
     inkscape:window-height="706"
     id="namedview22"
     showgrid="false"
     inkscape:zoom="0.921875"
     inkscape:cx="-194.30946"
     inkscape:cy="128"
     inkscape:window-x="-7"
     inkscape:window-y="0"
     inkscape:window-maximized="0"
     inkscape:current-layer="svg20" /><g
     id="Shape_2_1_"
     style="enable-background:new"
     transform="matrix(1.2382833,0,0,1.111966,-28.642706,-13.295373)"><g
       id="Shape_2"><g
         id="g10"><path
           d="m 127.197,167.114 c 0,-0.008 -0.008,-0.02 -0.01,-0.029 -0.048,0.006 -0.102,0.014 -0.154,0.021 0.069,0.01 0.134,0.018 0.164,0.008 z M 72.114,126.616 c 0.626,-2.903 1.251,-5.807 1.877,-8.71 0.609,-2.625 0.375,-5.787 0.375,-8.859 V 93.505 c -0.025,-7.733 -0.05,-15.468 -0.075,-23.201 -1.774,-0.01 -3.556,0.555 -5.031,0.977 -4.575,1.307 -8.528,2.574 -12.313,4.505 -14.822,7.558 -25.884,20.038 -30.559,37.691 -4.396,16.601 -0.089,33.954 6.683,44.899 1.502,2.429 3.442,6.154 5.631,7.808 1.73,-0.251 3.482,-1.922 4.805,-2.777 2.808,-1.815 5.453,-3.671 7.959,-5.781 1.026,-0.977 2.052,-1.952 3.078,-2.929 8.072,-6.485 13.764,-17.237 17.57,-28.081 z m 54.755,40.498 c 0.03,0.01 0.095,0.002 0.165,-0.008 -0.053,-0.008 -0.106,-0.016 -0.155,-0.021 -0.003,0.009 -0.01,0.021 -0.01,0.029 z M 88.332,155.748 c -1.101,-2.453 -2.202,-4.906 -3.304,-7.358 -0.375,-1.126 -0.75,-2.253 -1.126,-3.379 h -0.15 c -1.126,2.127 -2.253,4.255 -3.379,6.382 -2.246,3.687 -4.575,7.343 -7.133,10.737 -3.233,4.29 -6.895,8.543 -10.887,12.088 -2.202,1.802 -4.405,3.604 -6.607,5.406 0.05,0.101 0.1,0.2 0.15,0.3 1.227,0.602 2.453,1.202 3.679,1.803 2.629,1.158 5.513,2.205 8.409,3.003 10.092,2.781 23.188,2.268 32.586,-0.676 2.277,-0.713 8.236,-2.487 9.46,-3.904 v -0.226 c -2.266,-1.169 -4.142,-3.252 -6.007,-4.88 -6.207,-5.418 -11.559,-11.815 -15.691,-19.296 z m 139.346,-42.271 c -4.675,-17.653 -15.736,-30.134 -30.559,-37.691 -3.785,-1.931 -7.738,-3.198 -12.313,-4.505 -1.476,-0.422 -3.257,-0.986 -5.03,-0.977 -0.025,7.733 -0.051,15.468 -0.075,23.201 v 15.542 c 0,3.072 -0.233,6.234 0.376,8.859 0.625,2.903 1.25,5.807 1.877,8.71 3.806,10.844 9.497,21.596 17.568,28.08 1.026,0.977 2.053,1.952 3.078,2.929 2.506,2.11 5.152,3.966 7.959,5.781 1.324,0.855 3.076,2.526 4.806,2.777 2.188,-1.653 4.128,-5.379 5.632,-7.808 6.769,-10.944 11.077,-28.298 6.681,-44.898 z m -46.852,48.653 c -2.559,-3.395 -4.887,-7.051 -7.133,-10.737 -1.126,-2.127 -2.252,-4.255 -3.379,-6.382 h -0.15 c -0.375,1.126 -0.75,2.253 -1.126,3.379 -1.101,2.452 -2.202,4.905 -3.304,7.358 -4.133,7.48 -9.484,13.878 -15.691,19.296 -1.865,1.628 -3.742,3.711 -6.007,4.88 v 0.226 c 1.224,1.417 7.183,3.191 9.46,3.904 9.398,2.943 22.494,3.457 32.586,0.676 2.896,-0.798 5.779,-1.845 8.409,-3.003 1.227,-0.601 2.452,-1.201 3.679,-1.803 0.051,-0.1 0.101,-0.199 0.15,-0.3 -2.202,-1.802 -4.404,-3.604 -6.607,-5.406 -3.992,-3.545 -7.654,-7.798 -10.887,-12.088 z m -21.174,-34.913 c 0.871,-2.463 1.246,-5.147 1.878,-7.809 0.64,-2.696 0.301,-6.198 0.3,-9.311 V 92.754 c -0.025,-7.433 -0.05,-14.867 -0.074,-22.3 -0.196,-0.097 -0.262,-0.134 -0.602,-0.15 -2.527,0.601 -4.176,0.652 -7.583,1.802 -4.561,1.298 -8.771,3.51 -12.614,5.632 -3.693,2.039 -6.781,4.956 -9.985,7.508 -1.241,0.988 -2.542,2.438 -3.938,4 0.039,0.044 0.077,0.085 0.116,0.129 -0.039,0.05 -0.078,0.101 -0.116,0.151 1.538,2.001 3.076,4.003 4.613,6.005 2.965,4.605 5.688,9.772 7.434,15.543 4.178,13.807 2.336,30.865 -3.003,41.896 -1.636,3.379 -3.565,6.683 -5.706,9.61 -1.102,1.377 -2.203,2.753 -3.304,4.13 0,0.026 -0.014,0.06 -0.034,0.097 0.05,0.092 0.135,0.202 0.154,0.278 0.044,-0.005 0.083,-0.007 0.105,0 5.055,-2.753 8.783,-7.349 13.139,-10.812 2.422,-1.925 4.543,-4.473 6.457,-6.907 5.17,-6.578 9.668,-13.389 12.763,-22.149 z m -32.653,39.493 c -1.101,-1.377 -2.203,-2.753 -3.304,-4.13 -2.141,-2.928 -4.07,-6.231 -5.706,-9.61 -5.339,-11.03 -7.18,-28.089 -3.003,-41.896 1.746,-5.771 4.469,-10.938 7.433,-15.543 1.538,-2.001 3.076,-4.004 4.614,-6.005 -0.039,-0.051 -0.078,-0.101 -0.116,-0.151 0.04,-0.044 0.077,-0.085 0.116,-0.129 -1.396,-1.562 -2.697,-3.013 -3.938,-4 -3.205,-2.552 -6.292,-5.469 -9.986,-7.508 -3.842,-2.122 -8.053,-4.334 -12.614,-5.632 -3.407,-1.149 -5.056,-1.201 -7.583,-1.802 -0.339,0.017 -0.405,0.054 -0.601,0.15 -0.025,7.433 -0.05,14.867 -0.075,22.3 v 17.344 c 0,3.112 -0.34,6.614 0.3,9.311 0.632,2.661 1.007,5.346 1.877,7.809 3.096,8.76 7.594,15.571 12.764,22.149 1.914,2.435 4.036,4.982 6.458,6.907 4.356,3.463 8.083,8.059 13.139,10.812 0.021,-0.007 0.06,-0.005 0.104,0 0.02,-0.076 0.104,-0.187 0.155,-0.278 -0.02,-0.038 -0.034,-0.072 -0.034,-0.098 z"
           style="clip-rule:evenodd;fill:#0267c1;fill-rule:evenodd"
           id="path8"
           inkscape:connector-curvature="0" /></g></g></g><g
     id="Shape_1_1_"
     style="enable-background:new"
     transform="matrix(1.2382833,0,0,1.111966,-28.642706,-13.295373)"><g
       id="Shape_1"><g
         id="g16"><path
           d="m 140.752,110.767 c -1.886,-5.852 -4.826,-11.091 -8.028,-15.761 -1.702,-2.081 -3.026,-4.164 -4.729,-6.245 0.01,2.219 10e-4,71.647 0,77.995 -0.001,-6.348 -0.01,-75.776 0,-77.995 -1.703,2.081 -3.026,4.164 -4.729,6.245 -3.202,4.67 -6.143,9.909 -8.028,15.761 -4.511,14.001 -2.522,31.3 3.244,42.486 1.766,3.426 3.851,6.776 6.163,9.745 1.189,1.396 2.162,2.826 3.351,4.222 1.189,-1.396 2.162,-2.825 3.352,-4.222 2.312,-2.969 4.396,-6.319 6.162,-9.745 5.763,-11.187 7.753,-28.485 3.242,-42.486 z"
           style="clip-rule:evenodd;fill:#e6392b;fill-rule:evenodd"
           id="path14"
           inkscape:connector-curvature="0" /></g></g></g></svg>