<?xml version="1.0" encoding="UTF-8" standalone="no"?>
<svg
   xmlns:dc="http://purl.org/dc/elements/1.1/"
   xmlns:cc="http://creativecommons.org/ns#"
   xmlns:rdf="http://www.w3.org/1999/02/22-rdf-syntax-ns#"
   xmlns:svg="http://www.w3.org/2000/svg"
   xmlns="http://www.w3.org/2000/svg"
   xmlns:sodipodi="http://sodipodi.sourceforge.net/DTD/sodipodi-0.dtd"
   xmlns:inkscape="http://www.inkscape.org/namespaces/inkscape"
   viewBox="0 0 320.61334 319.95999"
   height="319.95999"
   width="320.61334"
   xml:space="preserve"
   id="svg2"
   version="1.1"
   sodipodi:docname="gsfc-logo-youtube-1.svg"
   inkscape:export-filename="C:\Users\t1tmbit\Desktop\GORDONSTEVENSCA\Site2\img\gsfc-logo-youtube-1-300x300.png"
   inkscape:export-xdpi="89.827827"
   inkscape:export-ydpi="89.827827"
   inkscape:version="0.92.1 r15371"><sodipodi:namedview
     pagecolor="#ffffff"
     bordercolor="#666666"
     borderopacity="1"
     objecttolerance="10"
     gridtolerance="10"
     guidetolerance="10"
     inkscape:pageopacity="0"
     inkscape:pageshadow="2"
     inkscape:window-width="741"
     inkscape:window-height="480"
     id="namedview108"
     showgrid="false"
     inkscape:zoom="0.73759222"
     inkscape:cx="163.69608"
     inkscape:cy="159.98"
     inkscape:window-x="-8"
     inkscape:window-y="-8"
     inkscape:window-maximized="1"
     inkscape:current-layer="svg2" /><metadata
     id="metadata8"><rdf:RDF><cc:Work
         rdf:about=""><dc:format>image/svg+xml</dc:format><dc:type
           rdf:resource="http://purl.org/dc/dcmitype/StillImage" /></cc:Work></rdf:RDF></metadata><defs
     id="defs6"><clipPath
       id="clipPath20"
       clipPathUnits="userSpaceOnUse"><path
         id="path18"
         d="M 1918.98,0 H 490.484 C 222.719,0 4.87109,217.84 4.87109,485.602 V 1577.64 c 27.87111,-9.85 56.41021,-19.36 85.61331,-28.53 V 485.602 c 0,-220.5 179.4996,-400.0004 399.9996,-400.0004 H 1918.98 c 220.51,0 400,179.5004 400,400.0004 V 1552.2 c 27.5,8.74 54.43,17.81 80.73,27.18 v 328.73 c 0,267.76 -217.85,485.6 -485.6,485.6 H 485.609 c -150.582,0 -285.394,-68.91 -374.535,-176.83 89.059,111.37 226.047,182.83 379.41,182.83 H 1918.98 c 267.76,0 485.6,-217.84 485.6,-485.6 V 485.602 C 2404.58,217.84 2186.74,0 1918.98,0 m -28.5,164.102 H 518.98 c -193.496,0 -350,156.5 -350,350.007 V 1525.77 c 76.934,-21.66 157.836,-40.96 242.172,-57.66 v -18.56 c 0,-105.81 102.133,-191.59 228.129,-191.59 H 1779.93 c 125.99,0 228.13,85.78 228.13,191.59 v 22.48 c 80.89,16.51 158.5,35.41 232.42,56.5 V 514.109 c 0,-193.507 -156.5,-350.007 -350,-350.007" /></clipPath><radialGradient
       id="radialGradient28"
       spreadMethod="pad"
       gradientTransform="matrix(1199.85,0,0,-1199.85,1204.73,1199.85)"
       gradientUnits="userSpaceOnUse"
       r="1"
       cy="0"
       cx="0"
       fy="0"
       fx="0"><stop
         id="stop22"
         offset="0"
         style="stop-opacity:1;stop-color:#ed1c24" /><stop
         id="stop24"
         offset="0.202454"
         style="stop-opacity:1;stop-color:#ed1c24" /><stop
         id="stop26"
         offset="1"
         style="stop-opacity:1;stop-color:#981015" /></radialGradient><clipPath
       id="clipPath38"
       clipPathUnits="userSpaceOnUse"><path
         id="path36"
         d="M 1918.98,85.6016 H 490.484 c -220.5,0 -399.9996,179.5004 -399.9996,400.0004 V 1549.11 c 25.6606,-8.05 51.8556,-15.84 78.4956,-23.34 V 514.109 c 0,-193.507 156.504,-350.007 350,-350.007 h 1371.5 c 193.5,0 350,156.5 350,350.007 V 1528.53 c 26.66,7.61 52.84,15.5 78.5,23.67 V 485.602 c 0,-220.5 -179.49,-400.0004 -400,-400.0004" /></clipPath><linearGradient
       id="linearGradient46"
       spreadMethod="pad"
       gradientTransform="matrix(-9.31e-5,2130.43,2130.43,9.31e-5,1204.73,241.14)"
       gradientUnits="userSpaceOnUse"
       y2="0"
       x2="1"
       y1="0"
       x1="0"><stop
         id="stop40"
         offset="0"
         style="stop-opacity:1;stop-color:#ed1c24" /><stop
         id="stop42"
         offset="0.202454"
         style="stop-opacity:1;stop-color:#ed1c24" /><stop
         id="stop44"
         offset="1"
         style="stop-opacity:1;stop-color:#981015" /></linearGradient><clipPath
       id="clipPath58"
       clipPathUnits="userSpaceOnUse"><path
         id="path56"
         d="M 871.344,1346.94 H 742.117 v 71.17 c 42.508,-4.55 85.621,-8.48 129.227,-11.77 v -59.4" /></clipPath><linearGradient
       id="linearGradient68"
       spreadMethod="pad"
       gradientTransform="matrix(-2.99e-5,-682.93,-682.93,2.99e-5,805.063,2029.87)"
       gradientUnits="userSpaceOnUse"
       y2="0"
       x2="1"
       y1="0"
       x1="0"><stop
         id="stop60"
         offset="0"
         style="stop-opacity:1;stop-color:#444546" /><stop
         id="stop62"
         offset="0.97817366"
         style="stop-opacity:1;stop-color:#100f0d" /><stop
         id="stop64"
         offset="0.994382"
         style="stop-opacity:1;stop-color:#100f0d" /><stop
         id="stop66"
         offset="1"
         style="stop-opacity:1;stop-color:#100f0d" /></linearGradient><clipPath
       id="clipPath78"
       clipPathUnits="userSpaceOnUse"><path
         id="path76"
         d="m 1181.55,1334.21 c -50.19,0 -90.37,12.67 -120.49,38 -8.93,7.5 -16.54,15.78 -22.82,24.83 53.26,-1.94 107.17,-2.93 161.61,-2.93 42.84,0 85.34,0.61 127.46,1.82 -6.29,-9.16 -13.94,-17.46 -22.97,-24.9 -29.72,-24.54 -70.64,-36.82 -122.79,-36.82" /></clipPath><linearGradient
       id="linearGradient88"
       spreadMethod="pad"
       gradientTransform="matrix(-2.31e-5,-529.248,-529.248,2.31e-5,1182.42,1863.46)"
       gradientUnits="userSpaceOnUse"
       y2="0"
       x2="1"
       y1="0"
       x1="0"><stop
         id="stop80"
         offset="0"
         style="stop-opacity:1;stop-color:#444546" /><stop
         id="stop82"
         offset="0.97817366"
         style="stop-opacity:1;stop-color:#100f0d" /><stop
         id="stop84"
         offset="0.994382"
         style="stop-opacity:1;stop-color:#100f0d" /><stop
         id="stop86"
         offset="1"
         style="stop-opacity:1;stop-color:#100f0d" /></linearGradient><clipPath
       id="clipPath98"
       clipPathUnits="userSpaceOnUse"><path
         id="path96"
         d="m 1526.51,1339.67 c -26.53,0 -46.52,7.49 -59.97,22.49 -8.79,9.79 -14.7,22.77 -17.75,38.94 111.78,6.32 220.45,16.85 325.08,31.19 v -85.35 h -114.74 v 55.62 c -21.16,-20.49 -43.15,-36.12 -66.02,-46.83 -22.87,-10.69 -45.09,-16.06 -66.6,-16.06" /></clipPath><linearGradient
       id="linearGradient108"
       spreadMethod="pad"
       gradientTransform="matrix(-2.23e-5,-511.06,-511.06,2.23e-5,1610.11,1850.73)"
       gradientUnits="userSpaceOnUse"
       y2="0"
       x2="1"
       y1="0"
       x1="0"><stop
         id="stop100"
         offset="0"
         style="stop-opacity:1;stop-color:#444546" /><stop
         id="stop102"
         offset="0.97817366"
         style="stop-opacity:1;stop-color:#100f0d" /><stop
         id="stop104"
         offset="0.994382"
         style="stop-opacity:1;stop-color:#100f0d" /><stop
         id="stop106"
         offset="1"
         style="stop-opacity:1;stop-color:#100f0d" /></linearGradient><clipPath
       id="clipPath124"
       clipPathUnits="userSpaceOnUse"><path
         id="path122"
         d="m 411.152,1468.11 c -84.336,16.7 -165.238,36 -242.172,57.66 v 10.78 349.56 c 0,193 156.504,349.99 350,349.99 h 1371.5 c 193.5,0 350,-156.99 350,-349.99 v -348.52 -9.06 c -73.92,-21.09 -151.53,-39.99 -232.42,-56.5 v 456.49 c 0,105.81 -102.14,191.59 -228.13,191.59 H 639.281 c -125.996,0 -228.129,-85.78 -228.129,-191.59 v -460.41 m -320.6676,81 c -29.2031,9.17 -57.7422,18.68 -85.61331,28.53 v 336.47 c 0,114.39 39.76951,219.68 106.20291,302.77 89.141,107.92 223.953,176.83 374.535,176.83 H 1914.11 c 267.75,0 485.6,-217.84 485.6,-485.6 v -328.73 c -26.3,-9.37 -53.23,-18.44 -80.73,-27.18 v 6.97 354.94 c 0,220.49 -179.49,399.99 -400,399.99 H 490.484 c -220.5,0 -399.9996,-179.5 -399.9996,-399.99 v -355.41 -9.59" /></clipPath><radialGradient
       id="radialGradient132"
       spreadMethod="pad"
       gradientTransform="matrix(1199.85,0,0,-1199.85,1204.73,1199.85)"
       gradientUnits="userSpaceOnUse"
       r="1"
       cy="0"
       cx="0"
       fy="0"
       fx="0"><stop
         id="stop126"
         offset="0"
         style="stop-opacity:1;stop-color:#f14d3f" /><stop
         id="stop128"
         offset="0.202454"
         style="stop-opacity:1;stop-color:#f14d3f" /><stop
         id="stop130"
         offset="1"
         style="stop-opacity:1;stop-color:#b0372c" /></radialGradient><clipPath
       id="clipPath142"
       clipPathUnits="userSpaceOnUse"><path
         id="path140"
         d="m 168.98,1525.77 c -26.64,7.5 -52.835,15.29 -78.4956,23.34 v 9.59 355.41 c 0,220.49 179.4996,399.99 399.9996,399.99 H 1918.98 c 220.51,0 400,-179.5 400,-399.99 v -354.94 -6.97 c -25.66,-8.17 -51.84,-16.06 -78.5,-23.67 v 9.06 348.52 c 0,193 -156.5,349.99 -350,349.99 H 518.98 c -193.496,0 -350,-156.99 -350,-349.99 v -349.56 -10.78" /></clipPath><linearGradient
       id="linearGradient150"
       spreadMethod="pad"
       gradientTransform="matrix(-9.31e-5,2130.43,2130.43,9.31e-5,1204.73,241.14)"
       gradientUnits="userSpaceOnUse"
       y2="0"
       x2="1"
       y1="0"
       x1="0"><stop
         id="stop144"
         offset="0"
         style="stop-opacity:1;stop-color:#f14d3f" /><stop
         id="stop146"
         offset="0.202454"
         style="stop-opacity:1;stop-color:#f14d3f" /><stop
         id="stop148"
         offset="1"
         style="stop-opacity:1;stop-color:#b0372c" /></linearGradient><clipPath
       id="clipPath162"
       clipPathUnits="userSpaceOnUse"><path
         id="path160"
         d="m 871.344,1406.34 c -43.606,3.29 -86.719,7.22 -129.227,11.77 v 199.45 l -153.722,412.31 h 130.14 l 83.844,-272.98 h 8.113 l 79.946,272.98 H 1021.73 L 871.344,1630.32 v -223.98" /></clipPath><linearGradient
       id="linearGradient172"
       spreadMethod="pad"
       gradientTransform="matrix(-2.99e-5,-682.93,-682.93,2.99e-5,805.063,2029.87)"
       gradientUnits="userSpaceOnUse"
       y2="0"
       x2="1"
       y1="0"
       x1="0"><stop
         id="stop164"
         offset="0"
         style="stop-opacity:1;stop-color:#666263" /><stop
         id="stop166"
         offset="0.97817366"
         style="stop-opacity:1;stop-color:#322e2d" /><stop
         id="stop168"
         offset="0.994382"
         style="stop-opacity:1;stop-color:#322e2d" /><stop
         id="stop170"
         offset="1"
         style="stop-opacity:1;stop-color:#322e2d" /></linearGradient><clipPath
       id="clipPath182"
       clipPathUnits="userSpaceOnUse"><path
         id="path180"
         d="m 1199.85,1394.11 c -54.44,0 -108.35,0.99 -161.61,2.93 -14.91,21.46 -22.37,47.25 -22.37,77.35 v 261.16 c 0,39.02 15.44,70.08 46.35,93.21 30.89,23.13 72.4,34.7 124.55,34.7 47.49,0 86.39,-12.21 116.7,-36.58 30.32,-24.39 45.5,-55.78 45.5,-94.17 v -260.2 c 0,-30.04 -7.22,-55.56 -21.66,-76.58 -42.12,-1.21 -84.62,-1.82 -127.46,-1.82 m -18.63,382.05 c -14,0 -25.38,-3.4 -34.13,-10.16 -8.76,-6.77 -13.13,-15.66 -13.13,-26.67 v -274.37 c 0,-13.87 4.08,-24.57 12.26,-32.13 8.16,-7.56 19.81,-11.32 35,-11.32 15.55,0 27.91,3.85 37.05,11.56 9.16,7.72 13.72,18.34 13.72,31.89 v 274.37 c 0,11.01 -4.69,19.9 -14.01,26.67 -9.33,6.76 -21.59,10.16 -36.76,10.16" /></clipPath><linearGradient
       id="linearGradient192"
       spreadMethod="pad"
       gradientTransform="matrix(-2.31e-5,-529.248,-529.248,2.31e-5,1182.42,1863.46)"
       gradientUnits="userSpaceOnUse"
       y2="0"
       x2="1"
       y1="0"
       x1="0"><stop
         id="stop184"
         offset="0"
         style="stop-opacity:1;stop-color:#666263" /><stop
         id="stop186"
         offset="0.97817366"
         style="stop-opacity:1;stop-color:#322e2d" /><stop
         id="stop188"
         offset="0.994382"
         style="stop-opacity:1;stop-color:#322e2d" /><stop
         id="stop190"
         offset="1"
         style="stop-opacity:1;stop-color:#322e2d" /></linearGradient><clipPath
       id="clipPath202"
       clipPathUnits="userSpaceOnUse"><path
         id="path200"
         d="m 1448.79,1401.1 c -1.63,8.61 -2.44,18.13 -2.44,28.55 v 421.08 h 114.74 v -386.19 c 0,-11.94 2.41,-20.58 7.21,-25.92 4.8,-5.35 12.58,-8.02 23.37,-8.02 8.45,0 19.1,3.53 32,10.6 12.86,7.08 24.68,16.11 35.46,27.12 v 382.41 h 114.74 v -418.44 c -104.63,-14.34 -213.3,-24.87 -325.08,-31.19" /></clipPath><linearGradient
       id="linearGradient212"
       spreadMethod="pad"
       gradientTransform="matrix(-2.23e-5,-511.06,-511.06,2.23e-5,1610.11,1850.73)"
       gradientUnits="userSpaceOnUse"
       y2="0"
       x2="1"
       y1="0"
       x1="0"><stop
         id="stop204"
         offset="0"
         style="stop-opacity:1;stop-color:#666263" /><stop
         id="stop206"
         offset="0.97817366"
         style="stop-opacity:1;stop-color:#322e2d" /><stop
         id="stop208"
         offset="0.994382"
         style="stop-opacity:1;stop-color:#322e2d" /><stop
         id="stop210"
         offset="1"
         style="stop-opacity:1;stop-color:#322e2d" /></linearGradient></defs><g
     transform="matrix(1.3333333,0,0,-1.3333333,0,319.96)"
     id="g10"><g
       transform="scale(0.1)"
       id="g12"><g
         id="g14"><g
           clip-path="url(#clipPath20)"
           id="g16"><path
             id="path30"
             style="fill:url(#radialGradient28);fill-opacity:1;fill-rule:nonzero;stroke:none"
             d="M 1918.98,0 H 490.484 C 222.719,0 4.87109,217.84 4.87109,485.602 V 1577.64 c 27.87111,-9.85 56.41021,-19.36 85.61331,-28.53 V 485.602 c 0,-220.5 179.4996,-400.0004 399.9996,-400.0004 H 1918.98 c 220.51,0 400,179.5004 400,400.0004 V 1552.2 c 27.5,8.74 54.43,17.81 80.73,27.18 v 328.73 c 0,267.76 -217.85,485.6 -485.6,485.6 H 485.609 c -150.582,0 -285.394,-68.91 -374.535,-176.83 89.059,111.37 226.047,182.83 379.41,182.83 H 1918.98 c 267.76,0 485.6,-217.84 485.6,-485.6 V 485.602 C 2404.58,217.84 2186.74,0 1918.98,0 m -28.5,164.102 H 518.98 c -193.496,0 -350,156.5 -350,350.007 V 1525.77 c 76.934,-21.66 157.836,-40.96 242.172,-57.66 v -18.56 c 0,-105.81 102.133,-191.59 228.129,-191.59 H 1779.93 c 125.99,0 228.13,85.78 228.13,191.59 v 22.48 c 80.89,16.51 158.5,35.41 232.42,56.5 V 514.109 c 0,-193.507 -156.5,-350.007 -350,-350.007" /></g></g><g
         id="g32"><g
           clip-path="url(#clipPath38)"
           id="g34"><path
             id="path48"
             style="fill:url(#linearGradient46);fill-opacity:1;fill-rule:nonzero;stroke:none"
             d="M 1918.98,85.6016 H 490.484 c -220.5,0 -399.9996,179.5004 -399.9996,400.0004 V 1549.11 c 25.6606,-8.05 51.8556,-15.84 78.4956,-23.34 V 514.109 c 0,-193.507 156.504,-350.007 350,-350.007 h 1371.5 c 193.5,0 350,156.5 350,350.007 V 1528.53 c 26.66,7.61 52.84,15.5 78.5,23.67 V 485.602 c 0,-220.5 -179.49,-400.0004 -400,-400.0004" /></g></g><path
         id="path50"
         style="fill:#ffffff;fill-opacity:1;fill-rule:nonzero;stroke:none"
         d="m 2008.06,1449.55 c 0,-105.81 -102.14,-191.59 -228.13,-191.59 H 639.281 c -125.996,0 -228.129,85.78 -228.129,191.59 v 478.97 c 0,105.81 102.133,191.59 228.129,191.59 H 1779.93 c 125.99,0 228.13,-85.78 228.13,-191.59 v -478.97" /><g
         id="g52"><g
           clip-path="url(#clipPath58)"
           id="g54"><path
             id="path70"
             style="fill:url(#linearGradient68);fill-opacity:1;fill-rule:nonzero;stroke:none"
             d="M 871.344,1346.94 H 742.117 v 71.17 c 42.508,-4.55 85.621,-8.48 129.227,-11.77 v -59.4" /></g></g><g
         id="g72"><g
           clip-path="url(#clipPath78)"
           id="g74"><path
             id="path90"
             style="fill:url(#linearGradient88);fill-opacity:1;fill-rule:nonzero;stroke:none"
             d="m 1181.55,1334.21 c -50.19,0 -90.37,12.67 -120.49,38 -8.93,7.5 -16.54,15.78 -22.82,24.83 53.26,-1.94 107.17,-2.93 161.61,-2.93 42.84,0 85.34,0.61 127.46,1.82 -6.29,-9.16 -13.94,-17.46 -22.97,-24.9 -29.72,-24.54 -70.64,-36.82 -122.79,-36.82" /></g></g><g
         id="g92"><g
           clip-path="url(#clipPath98)"
           id="g94"><path
             id="path110"
             style="fill:url(#linearGradient108);fill-opacity:1;fill-rule:nonzero;stroke:none"
             d="m 1526.51,1339.67 c -26.53,0 -46.52,7.49 -59.97,22.49 -8.79,9.79 -14.7,22.77 -17.75,38.94 111.78,6.32 220.45,16.85 325.08,31.19 v -85.35 h -114.74 v 55.62 c -21.16,-20.49 -43.15,-36.12 -66.02,-46.83 -22.87,-10.69 -45.09,-16.06 -66.6,-16.06" /></g></g><path
         id="path112"
         style="fill:#100f0d;fill-opacity:1;fill-rule:nonzero;stroke:none"
         d="m 1779.41,799.281 c 0,25.438 3.91,43.699 11.77,54.719 7.84,11.02 20.75,16.539 38.75,16.539 17.21,0 29.75,-5.519 37.6,-16.539 7.85,-11.02 11.77,-29.281 11.77,-54.719 v -61.57 h -99.89 z m 216.27,-155.98 v 154.84 c 0,57.718 -13.9,101.961 -41.65,132.73 -27.78,30.77 -67.52,46.16 -119.25,46.16 -50.6,0 -91.87,-16.621 -123.81,-49.84 -31.95,-33.25 -47.93,-76.25 -47.93,-129.05 V 525.16 c 0,-58.539 14.55,-104.531 43.63,-137.98 29.11,-33.442 68.95,-50.168 119.56,-50.168 56.28,0 98.61,15.789 126.95,47.328 28.33,31.551 42.5,78.488 42.5,140.82 v 45.692 H 1879.3 v -42.274 c 0,-35.789 -3.73,-58.918 -11.19,-69.379 -7.46,-10.469 -20.58,-15.711 -39.32,-15.711 -18.01,0 -30.74,6.192 -38.19,18.571 -7.46,12.363 -11.19,34.55 -11.19,66.519 V 643.301 Z M 1461.38,496.02 c 0,-19.379 -3.28,-33.372 -9.79,-41.899 -6.52,-8.562 -16.69,-12.812 -30.5,-12.812 -9.61,0 -18.71,2.171 -27.35,6.55 -8.65,4.352 -17.57,11.481 -26.77,21.371 v 379 c 7.67,8.348 15.44,14.52 23.31,18.52 7.87,3.98 15.84,5.988 23.89,5.988 15.34,0 27.07,-5.34 35.11,-15.968 8.07,-10.641 12.1,-26.219 12.1,-46.719 z m 6.12,473.32 c -17.52,0 -34.85,-4.828 -51.99,-14.488 -17.13,-9.68 -33.31,-23.782 -48.54,-42.332 v 265.41 H 1252.8 V 353.48 h 114.17 v 46.75 c 14.85,-18.511 30.95,-32.218 48.27,-41.101 17.32,-8.891 37.03,-13.328 59.13,-13.328 33.5,0 59.1,11.449 76.81,34.398 17.7,22.949 26.57,56.051 26.57,99.289 v 337.391 c 0,49.68 -9.43,87.519 -28.29,113.492 -18.84,25.969 -46.17,38.969 -81.96,38.969 z M 1029.41,500.02 c -10.62,-13.29 -22.27,-24.211 -34.957,-32.75 -12.699,-8.54 -23.199,-12.801 -31.531,-12.801 -10.613,0 -18.289,3.23 -23.02,9.691 -4.73,6.43 -7.097,16.86 -7.097,31.301 V 961.66 H 819.727 V 453.328 c 0,-36.207 6.628,-63.367 19.886,-81.488 13.262,-18.102 32.969,-27.141 59.11,-27.141 21.199,0 43.09,6.481 65.625,19.391 22.547,12.941 44.212,31.801 65.062,56.531 V 353.48 h 113.08 V 961.66 H 1029.41 Z M 821.273,1177.93 H 430.461 v -119.67 h 131.73 V 353.48 h 127.344 v 704.78 h 131.738 v 119.67" /><path
         id="path114"
         style="fill:#ffffff;fill-opacity:1;fill-rule:nonzero;stroke:none"
         d="m 1779.41,790.488 c 0,25.461 3.91,43.711 11.77,54.731 7.84,11.019 20.75,16.543 38.75,16.543 17.21,0 29.75,-5.524 37.6,-16.543 7.85,-11.02 11.77,-29.27 11.77,-54.731 v -61.566 h -99.89 z M 1995.68,634.52 v 154.832 c 0,57.726 -13.9,101.968 -41.65,132.738 -27.78,30.769 -67.52,46.16 -119.25,46.16 -50.6,0 -91.87,-16.629 -123.81,-49.852 -31.95,-33.25 -47.93,-76.238 -47.93,-129.046 V 516.379 c 0,-58.539 14.55,-104.539 43.63,-137.981 29.11,-33.437 68.95,-50.168 119.56,-50.168 56.28,0 98.61,15.782 126.95,47.321 28.33,31.551 42.5,78.5 42.5,140.828 v 45.68 H 1879.3 v -42.27 c 0,-35.777 -3.73,-58.918 -11.19,-69.367 -7.46,-10.473 -20.58,-15.703 -39.32,-15.703 -18.01,0 -30.74,6.172 -38.19,18.551 -7.46,12.371 -11.19,34.55 -11.19,66.519 V 634.52 Z m -534.3,-147.282 c 0,-19.379 -3.28,-33.359 -9.79,-41.91 -6.52,-8.539 -16.69,-12.808 -30.5,-12.808 -9.61,0 -18.71,2.179 -27.35,6.55 -8.65,4.36 -17.57,11.481 -26.77,21.371 v 379 c 7.67,8.36 15.44,14.528 23.31,18.528 7.87,3.972 15.84,5.98 23.89,5.98 15.34,0 27.07,-5.328 35.11,-15.961 8.07,-10.636 12.1,-26.207 12.1,-46.726 z m 6.12,473.321 c -17.52,0 -34.85,-4.84 -51.99,-14.489 -17.13,-9.679 -33.31,-23.781 -48.54,-42.34 v 265.41 H 1252.8 V 344.699 h 114.17 v 46.75 c 14.85,-18.508 30.95,-32.219 48.27,-41.109 17.32,-8.891 37.03,-13.328 59.13,-13.328 33.5,0 59.1,11.449 76.81,34.398 17.7,22.961 26.57,56.051 26.57,99.301 v 337.391 c 0,49.679 -9.43,87.519 -28.29,113.488 -18.84,25.969 -46.17,38.969 -81.96,38.969 z M 1029.41,491.238 c -10.62,-13.297 -22.27,-24.207 -34.957,-32.75 -12.699,-8.547 -23.199,-12.797 -31.531,-12.797 -10.613,0 -18.289,3.231 -23.02,9.68 -4.73,6.449 -7.097,16.867 -7.097,31.301 V 952.879 H 819.727 V 444.551 c 0,-36.211 6.628,-63.371 19.886,-81.492 13.262,-18.098 32.969,-27.137 59.11,-27.137 21.199,0 43.09,6.476 65.625,19.387 22.547,12.929 44.212,31.793 65.062,56.523 v -67.133 h 113.08 v 608.18 H 1029.41 Z M 821.273,1169.14 H 430.461 v -119.66 h 131.73 V 344.699 h 127.344 v 704.781 h 131.738 v 119.66" /><path
         id="path116"
         style="fill:#ffffff;fill-opacity:1;fill-rule:nonzero;stroke:none"
         d="M 4.87109,1577.64 C 3.24219,1578.22 1.625,1578.8 0,1579.38 v 328.73 c 0,117.18 41.707,224.78 111.074,308.77 C 44.6406,2133.79 4.87109,2028.5 4.87109,1914.11 v -336.47" /><g
         id="g118"><g
           clip-path="url(#clipPath124)"
           id="g120"><path
             id="path134"
             style="fill:url(#radialGradient132);fill-opacity:1;fill-rule:nonzero;stroke:none"
             d="m 411.152,1468.11 c -84.336,16.7 -165.238,36 -242.172,57.66 v 360.34 c 0,193 156.504,349.99 350,349.99 h 1371.5 c 193.5,0 350,-156.99 350,-349.99 v -357.58 c -73.92,-21.09 -151.53,-39.99 -232.42,-56.5 v 456.49 c 0,105.81 -102.14,191.59 -228.13,191.59 H 639.281 c -125.996,0 -228.129,-85.78 -228.129,-191.59 v -460.41 m -320.6676,81 c -29.2031,9.17 -57.7422,18.68 -85.61331,28.53 v 336.47 c 0,114.39 39.76951,219.68 106.20291,302.77 89.141,107.92 223.953,176.83 374.535,176.83 H 1914.11 c 267.75,0 485.6,-217.84 485.6,-485.6 v -328.73 c -26.3,-9.37 -53.23,-18.44 -80.73,-27.18 v 361.91 c 0,220.49 -179.49,399.99 -400,399.99 H 490.484 c -220.5,0 -399.9996,-179.5 -399.9996,-399.99 v -365" /></g></g><g
         id="g136"><g
           clip-path="url(#clipPath142)"
           id="g138"><path
             id="path152"
             style="fill:url(#linearGradient150);fill-opacity:1;fill-rule:nonzero;stroke:none"
             d="m 168.98,1525.77 c -26.64,7.5 -52.835,15.29 -78.4956,23.34 v 365 c 0,220.49 179.4996,399.99 399.9996,399.99 H 1918.98 c 220.51,0 400,-179.5 400,-399.99 V 1552.2 c -25.66,-8.17 -51.84,-16.06 -78.5,-23.67 v 357.58 c 0,193 -156.5,349.99 -350,349.99 H 518.98 c -193.496,0 -350,-156.99 -350,-349.99 v -360.34" /></g></g><path
         id="path154"
         style="fill:#ffffff;fill-opacity:1;fill-rule:nonzero;stroke:none"
         d="m 1327.31,1395.93 c 14.44,21.02 21.66,46.54 21.66,76.58 v 260.2 c 0,38.39 -15.18,69.78 -45.5,94.17 -30.31,24.37 -69.21,36.58 -116.7,36.58 -52.15,0 -93.66,-11.57 -124.55,-34.7 -30.91,-23.13 -46.35,-54.19 -46.35,-93.21 v -261.16 c 0,-30.1 7.46,-55.89 22.37,-77.35 -56.396,2.05 -112.045,5.17 -166.896,9.3 v 223.98 l 150.386,399.55 H 890.438 l -79.946,-272.98 h -8.113 l -83.844,272.98 h -130.14 l 153.722,-412.31 v -199.45 c -114.922,12.3 -225.601,29.12 -330.965,50 v 460.41 c 0,105.81 102.133,191.59 228.129,191.59 H 1779.93 c 125.99,0 228.13,-85.78 228.13,-191.59 v -456.49 c -75.4,-15.39 -153.6,-28.7 -234.19,-39.74 v 418.44 h -114.74 v -382.41 c -10.78,-11.01 -22.6,-20.04 -35.46,-27.12 -12.9,-7.07 -23.55,-10.6 -32,-10.6 -10.79,0 -18.57,2.67 -23.37,8.02 -4.8,5.34 -7.21,13.98 -7.21,25.92 v 386.19 h -114.74 v -421.08 c 0,-10.42 0.81,-19.94 2.44,-28.55 -40.1,-2.27 -80.61,-4 -121.48,-5.17 m -146.09,25.58 c -15.19,0 -26.84,3.76 -35,11.32 -8.18,7.56 -12.26,18.26 -12.26,32.13 v 274.37 c 0,11.01 4.37,19.9 13.13,26.67 8.75,6.76 20.13,10.16 34.13,10.16 15.17,0 27.43,-3.4 36.76,-10.16 9.32,-6.77 14.01,-15.66 14.01,-26.67 v -274.37 c 0,-13.55 -4.56,-24.17 -13.72,-31.89 -9.14,-7.71 -21.5,-11.56 -37.05,-11.56" /><g
         id="g156"><g
           clip-path="url(#clipPath162)"
           id="g158"><path
             id="path174"
             style="fill:url(#linearGradient172);fill-opacity:1;fill-rule:nonzero;stroke:none"
             d="m 871.344,1406.34 c -43.606,3.29 -86.719,7.22 -129.227,11.77 v 199.45 l -153.722,412.31 h 130.14 l 83.844,-272.98 h 8.113 l 79.946,272.98 H 1021.73 L 871.344,1630.32 v -223.98" /></g></g><g
         id="g176"><g
           clip-path="url(#clipPath182)"
           id="g178"><path
             id="path194"
             style="fill:url(#linearGradient192);fill-opacity:1;fill-rule:nonzero;stroke:none"
             d="m 1199.85,1394.11 c -54.44,0 -108.35,0.99 -161.61,2.93 -14.91,21.46 -22.37,47.25 -22.37,77.35 v 261.16 c 0,39.02 15.44,70.08 46.35,93.21 30.89,23.13 72.4,34.7 124.55,34.7 47.49,0 86.39,-12.21 116.7,-36.58 30.32,-24.39 45.5,-55.78 45.5,-94.17 v -260.2 c 0,-30.04 -7.22,-55.56 -21.66,-76.58 -42.12,-1.21 -84.62,-1.82 -127.46,-1.82 m -18.63,382.05 c -14,0 -25.38,-3.4 -34.13,-10.16 -8.76,-6.77 -13.13,-15.66 -13.13,-26.67 v -274.37 c 0,-13.87 4.08,-24.57 12.26,-32.13 8.16,-7.56 19.81,-11.32 35,-11.32 15.55,0 27.91,3.85 37.05,11.56 9.16,7.72 13.72,18.34 13.72,31.89 v 274.37 c 0,11.01 -4.69,19.9 -14.01,26.67 -9.33,6.76 -21.59,10.16 -36.76,10.16" /></g></g><g
         id="g196"><g
           clip-path="url(#clipPath202)"
           id="g198"><path
             id="path214"
             style="fill:url(#linearGradient212);fill-opacity:1;fill-rule:nonzero;stroke:none"
             d="m 1448.79,1401.1 c -1.63,8.61 -2.44,18.13 -2.44,28.55 v 421.08 h 114.74 v -386.19 c 0,-11.94 2.41,-20.58 7.21,-25.92 4.8,-5.35 12.58,-8.02 23.37,-8.02 8.45,0 19.1,3.53 32,10.6 12.86,7.08 24.68,16.11 35.46,27.12 v 382.41 h 114.74 v -418.44 c -104.63,-14.34 -213.3,-24.87 -325.08,-31.19" /></g></g></g></g></svg>