<?xml version="1.0" encoding="UTF-8" standalone="no"?>
<!-- Svg Vector Icons : http://www.onlinewebfonts.com/icon -->

<svg
   xmlns:dc="http://purl.org/dc/elements/1.1/"
   xmlns:cc="http://creativecommons.org/ns#"
   xmlns:rdf="http://www.w3.org/1999/02/22-rdf-syntax-ns#"
   xmlns:svg="http://www.w3.org/2000/svg"
   xmlns="http://www.w3.org/2000/svg"
   xmlns:sodipodi="http://sodipodi.sourceforge.net/DTD/sodipodi-0.dtd"
   xmlns:inkscape="http://www.inkscape.org/namespaces/inkscape"
   version="1.1"
   x="0px"
   y="0px"
   viewBox="0 0 990 600"
   enable-background="new 0 0 1000 1000"
   xml:space="preserve"
   id="svg14"
   sodipodi:docname="gsfc-icon-research-1.svg"
   width="990"
   height="600"
   inkscape:version="0.92.1 r15371"><defs
   id="defs18" /><sodipodi:namedview
   pagecolor="#000000"
   bordercolor="#666666"
   borderopacity="1"
   objecttolerance="10"
   gridtolerance="10"
   guidetolerance="10"
   inkscape:pageopacity="0"
   inkscape:pageshadow="2"
   inkscape:window-width="1366"
   inkscape:window-height="715"
   id="namedview16"
   showgrid="false"
   inkscape:zoom="0.236"
   inkscape:cx="453.38983"
   inkscape:cy="500"
   inkscape:window-x="-8"
   inkscape:window-y="-8"
   inkscape:window-maximized="1"
   inkscape:current-layer="g12" />
<metadata
   id="metadata2"> Svg Vector Icons : http://www.onlinewebfonts.com/icon <rdf:RDF><cc:Work
     rdf:about=""><dc:format>image/svg+xml</dc:format><dc:type
       rdf:resource="http://purl.org/dc/dcmitype/StillImage" /><dc:title></dc:title></cc:Work></rdf:RDF></metadata>
<g
   id="g12"
   transform="translate(3.559319e-8,-200.84746)"><path
     d="M 660.6,687.8 H 22.7 L 10.4,736.1 H 10 v 56.5 h 663.3 v -56.5 h -0.4 z M 447.1,770.4 H 234.2 v -28.2 h 212.9 z"
     id="path4"
     inkscape:connector-curvature="0"
     style="fill:#ffffff"
     inkscape:export-xdpi="12.631579"
     inkscape:export-ydpi="12.631579" /><path
     d="M 618.8,662.9 C 579.5,661.7 541.7,647.4 510.1,623.3 H 105.4 V 258.4 h 428.5 c 25.7,-13.1 53.1,-19.9 81.6,-19.9 1.1,0 2.1,0.1 3.2,0.1 V 207.4 H 57.9 v 466.8 h 560.9 z"
     id="path6"
     inkscape:connector-curvature="0"
     style="fill:#ffffff"
     inkscape:export-xdpi="12.631579"
     inkscape:export-ydpi="12.631579" /><path
     d="M 971,651.8 803.7,522.4 c -3.8,-2.9 -8,-5.2 -12.2,-6.7 C 805.9,468 803.4,413.8 780.5,364.8 735.1,267.2 626,226.3 537.4,273.6 c -88.6,47.3 -123.7,165.2 -78.3,262.8 45.4,97.7 154.5,138.6 243.1,91.3 10.6,-5.6 20.3,-12.3 29.3,-19.8 2.5,3.2 5.3,6.2 8.6,8.7 L 907.5,746 c 20.5,15.9 49.4,11 64.2,-11.1 l 9.6,-14.3 C 996.2,698.5 991.5,667.7 971,651.8 Z M 676.6,572.6 C 616.2,604.8 542,576.4 510.7,509 c -31.4,-67.3 -7.9,-148 52.5,-180.2 60.3,-32.2 134.5,-3.6 165.9,63.6 31.3,67.4 7.8,148.1 -52.5,180.2 z"
     id="path8"
     inkscape:connector-curvature="0"
     style="fill:#ffffff"
     inkscape:export-xdpi="12.631579"
     inkscape:export-ydpi="12.631579" /><path
     d="m 347.6,314.2 17,15.9 -68,63.2 -34,-31.6 -101.9,95 17,15.9 84.9,-79.2 34,31.7 84.9,-79.2 17,15.9 v -47.5 h -50.9 z m 17,79.1 h 33.9 v 174.2 h -33.9 z m -67.9,47.6 h 33.9 v 126.6 h -33.9 z m -68,15.7 h 33.9 v 110.8 h -33.9 z m -68,31.7 h 33.9 v 79.1 h -33.9 z"
     id="path10"
     inkscape:connector-curvature="0"
     style="fill:#ffffff"
     inkscape:export-xdpi="12.631579"
     inkscape:export-ydpi="12.631579" /></g>
</svg>