<?xml version="1.0" encoding="UTF-8" standalone="no"?>
<svg
   xmlns:dc="http://purl.org/dc/elements/1.1/"
   xmlns:cc="http://creativecommons.org/ns#"
   xmlns:rdf="http://www.w3.org/1999/02/22-rdf-syntax-ns#"
   xmlns:svg="http://www.w3.org/2000/svg"
   xmlns="http://www.w3.org/2000/svg"
   xmlns:sodipodi="http://sodipodi.sourceforge.net/DTD/sodipodi-0.dtd"
   xmlns:inkscape="http://www.inkscape.org/namespaces/inkscape"
   height="6.82666in"
   style="shape-rendering:geometricPrecision; text-rendering:geometricPrecision; image-rendering:optimizeQuality; fill-rule:evenodd; clip-rule:evenodd"
   viewBox="0 0 6.82666 6.82666"
   width="6.82666in"
   xml:space="preserve"
   version="1.1"
   id="svg24"
   sodipodi:docname="gsfc-logo-soundcloud-1.svg"
   inkscape:export-filename="C:\Users\t1tmbit\Desktop\GORDONSTEVENSCA\Site2\img\gsfc-logo-soundcloud-1-300x300.png"
   inkscape:export-xdpi="43.945354"
   inkscape:export-ydpi="43.945354"
   inkscape:version="0.92.1 r15371"><metadata
     id="metadata28"><rdf:RDF><cc:Work
         rdf:about=""><dc:format>image/svg+xml</dc:format><dc:type
           rdf:resource="http://purl.org/dc/dcmitype/StillImage" /></cc:Work></rdf:RDF></metadata><sodipodi:namedview
     pagecolor="#ffffff"
     bordercolor="#666666"
     borderopacity="1"
     objecttolerance="10"
     gridtolerance="10"
     guidetolerance="10"
     inkscape:pageopacity="0"
     inkscape:pageshadow="2"
     inkscape:window-width="701"
     inkscape:window-height="480"
     id="namedview26"
     showgrid="false"
     inkscape:zoom="0.36010777"
     inkscape:cx="327.67969"
     inkscape:cy="327.67969"
     inkscape:window-x="0"
     inkscape:window-y="0"
     inkscape:window-maximized="0"
     inkscape:current-layer="svg24" /><defs
     id="defs4"><style
       type="text/css"
       id="style2">
   <![CDATA[
    .fil1 {fill:#F1F2F2}
    .fil0 {fill:#FF6A22}
   ]]>
  </style></defs><g
     id="Layer_x0020_1"><rect
       class="fil0"
       height="6.82667"
       rx="1.45635"
       ry="1.45635"
       width="6.82667"
       id="rect6" /><g
       id="_327692864"><path
         class="fil1"
         d="M4.92139 4.27945l-1.36385 0c-0.0295984,-0.00314173 -0.0526654,-0.0263898 -0.0531575,-0.0567165l0 -1.56141c0.000507874,-0.0285472 0.0103425,-0.0434961 0.0473858,-0.0576378 0.0954094,-0.0370433 0.203571,-0.058874 0.314803,-0.058874 0.4535,0 0.82528,0.347728 0.864709,0.791114 0.0583898,-0.0244882 0.122811,-0.0381929 0.19011,-0.0381929 0.271571,0 0.491941,0.220126 0.491941,0.491937 0,0.271795 -0.22037,0.48978 -0.491941,0.48978z"
         id="_327693872" /><path
         class="fil1"
         d="M3.45799 4.22495l0 -0.000488189c-0.000173228,0.0295236 -0.0247283,0.0538189 -0.0540079,0.0538189 -0.0295945,0 -0.0538386,-0.0242953 -0.0543268,-0.0535787l-0.0110748 -0.198531 -0.0110748 -0.203591 0.0221496 -1.1028 0 -0.00554331c0.0010315,-0.0706496 0.107047,-0.0715039 0.108583,-0.000244094l0.024063 1.10859 -0.024311 0.40237z"
         id="_327693776" /><path
         class="fil1"
         d="M3.28862 4.18981l-0.00195669 0.040374c-0.000507874,0.0139528 -0.00622835,0.0267008 -0.0153976,0.0358031 -0.0091063,0.00915354 -0.0218346,0.0147008 -0.0352992,0.0147008 -0.0156457,0 -0.0292992,-0.00701181 -0.0389606,-0.0185197 -0.00694094,-0.0081811 -0.011248,-0.0187638 -0.0117402,-0.0297717 0,-0.000748031 0,-0.00124016 0,-0.00197244 0,0 -0.0195118,-0.407843 -0.0195118,-0.408524l0.0192717 -1.00627 0.000240157 -0.00959449c0,-0.0659567 0.100437,-0.0672441 0.101382,0l0.0214134 1.01637 -0.0194409 0.367402z"
         id="_327693080" /><path
         class="fil1"
         d="M3.1144 4.23332l0 -0.000503937c-0.000488189,0.0266969 -0.0214173,0.0471378 -0.0471417,0.0471378 -0.0261929,0 -0.046878,-0.0204409 -0.0476102,-0.0466339l-0.0211024 -0.411173 0.0211024 -0.853882c0.000732283,-0.0264409 0.0214173,-0.047126 0.0476102,-0.047126 0.0257244,0 0.0468976,0.020685 0.0471417,0.047126l0.0239764 0.854142 -0.0239764 0.410913z"
         id="_327693272" /><path
         class="fil1"
         d="M2.94347 4.23571l0 -0.000244094c-0.000732283,0.024311 -0.0196693,0.0437362 -0.0439803,0.0437362 -0.0237559,0 -0.043252,-0.0194252 -0.0437402,-0.0434921l-0.0232638 -0.413563 0.0230197 -0.886114c0.000732283,-0.0247283 0.0202283,-0.0439843 0.0439843,-0.0439843 0.024311,-1.5748e-005 0.043248,0.0192559 0.0439803,0.0439843l0.0262165 0.886114 -0.0262165 0.413563z"
         id="_327693008" /><path
         class="fil1"
         d="M2.77404 4.23933c-0.000677165,0.0225827 -0.0184488,0.040374 -0.0403543,0.040374 -0.0220945,0 -0.039626,-0.0177913 -0.0406181,-0.0401299l-0.0252165 -0.417433 0.0252165 -0.909429c0.000992126,-0.0228307 0.0185236,-0.0403543 0.0406181,-0.0403543 0.0219055,0 0.0396772,0.0175236 0.0403543,0.0403543l0.0281142 0.909429 -0.0281142 0.417189z"
         id="_327693248" /><path
         class="fil1"
         d="M2.60584 4.24223l0 -0.000248031c-0.000976378,0.0206693 -0.0170394,0.0367992 -0.0372874,0.0367992 -0.0199331,0 -0.0362402,-0.0161299 -0.0369724,-0.0365512l-0.027185 -0.420087c0,0 0.027185,-0.879835 0.027185,-0.880079 0.000732283,-0.020437 0.0170394,-0.0367992 0.0369724,-0.0367992 0.020248,0 0.0365551,0.0163622 0.0372874,0.0367992l0.0307638 0.880079 -0.0307638 0.420087z"
         id="_327693224" /><path
         class="fil1"
         d="M2.43641 4.2487l0 -0.00026378c-0.000992126,0.0187638 -0.0158858,0.0334134 -0.0339016,0.0334134 -0.0180315,0 -0.0326811,-0.0146496 -0.0336575,-0.0334134l-0.0292795 -0.42413 0.0292795 -0.812291c0.000976378,-0.0185197 0.015626,-0.0334134 0.0336575,-0.0334134 0.0180157,0 0.0329094,0.0148937 0.0339016,0.0334134l0.0329094 0.812291 -0.0329094 0.424394z"
         id="_327693416" /><path
         class="fil1"
         d="M2.273 4.24894l0 -0.000244094c-0.000996063,0.0168465 -0.0142126,0.0300827 -0.0302795,0.0300827 -0.0161142,0 -0.0293504,-0.0132362 -0.0303268,-0.0298386l-0.0310079 -0.427047 0.0310079 -0.660878c0.000976378,-0.0168622 0.0142126,-0.0300827 0.0303268,-0.0300827 0.0160669,0 0.0295276,0.0132205 0.0302795,0.0298425l0.035315 0.661118 -0.035315 0.427047z"
         id="_327693680" /><path
         class="fil1"
         d="M2.10861 4.2487c-0.000748031,0.0151181 -0.012748,0.026437 -0.0267008,0.026437 -0.0144055,0 -0.0259646,-0.0113189 -0.0268898,-0.026437l-0.0334173 -0.427047 0.0334173 -0.406169c0.000925197,-0.0151378 0.0124843,-0.0264016 0.0268898,-0.0264016 0.0141969,0 0.0259528,0.0112638 0.0267008,0.0261575l0.0377087 0.406413 -0.0377087 0.427047z"
         id="_327693488" /><path
         class="fil1"
         d="M1.94564 4.24537c-0.00118898,0.0129213 -0.0112677,0.0230709 -0.0235079,0.0230709 -0.0124882,0 -0.0226378,-0.0101496 -0.023563,-0.0230709l-0.035315 -0.423717 0.035315 -0.437858c0.000925197,-0.0132205 0.0110748,-0.0230709 0.023563,-0.0230709 0.0122402,0 0.0223189,0.00985039 0.0234882,0.0230709l0.039937 0.437858 -0.0399173 0.423717z"
         id="_327693344" /><path
         class="fil1"
         d="M1.7837 4.23239c-0.00122047,0.011248 -0.00966142,0.0194252 -0.0199843,0.0194252 -0.0105197,0 -0.0189606,-0.00817717 -0.0201772,-0.0194252l-0.0372362 -0.41074 0.0372362 -0.426102c0.000972441,-0.0115118 0.00965748,-0.0199331 0.0201772,-0.0199331 0.0103228,0 0.0187638,0.00842126 0.0199843,0.0199331l0.0422717 0.426102 -0.0422717 0.41074z"
         id="_327693200" /><path
         class="fil1"
         d="M1.62313 4.17277c-0.00116929,0.00961024 -0.0081811,0.0161339 -0.0167953,0.0161339 -0.0081811,0 -0.0153819,-0.00652362 -0.0166181,-0.0161339l-0.0391181 -0.351354 0.0391181 -0.359295c0.00123622,-0.00910236 0.00843701,-0.0161142 0.0166181,-0.0161142 0.00861417,0 0.015626,0.00676772 0.0167953,0.0161142l0.0447323 0.359295 -0.0447323 0.351354z"
         id="_327692360" /><path
         class="fil1"
         d="M1.47461 4.04012c-0.00141339,0.00885827 -0.00793307,0.0153819 -0.0161181,0.0153819 -0.00836614,0 -0.0146496,-0.00652362 -0.0160591,-0.015626l-0.0291063 -0.218465 0.0291063 -0.222043c0.00116929,-0.00915748 0.00769291,-0.0156299 0.0160591,-0.0156299 0.00818504,0 0.0147047,0.00647244 0.0161181,0.0156299l0.0346339 0.222283 -0.0346339 0.218469z"
         id="_327692984" /></g></g></svg>