<?xml version="1.0" encoding="utf-8"?>
<!DOCTYPE svg PUBLIC "-//W3C//DTD SVG 1.1//EN" "http://www.w3.org/Graphics/SVG/1.1/DTD/svg11.dtd">
<svg version="1.1" id="Layer_1" xmlns="http://www.w3.org/2000/svg" xmlns:xlink="http://www.w3.org/1999/xlink" x="0px" y="0px"
width="429px" height="429px" viewBox="0 0 429 429" enable-background="new 0 0 429 429" xml:space="preserve">
<rect x="0" y="0" width="429" height="429" fill="rgb(27,27,31)" /><g transform="translate(26,26)"><g transform="translate(104,0) scale(0.13,0.13)"><g transform="" style="fill: rgb(255, 116, 48);">
<g>
	<path d="M100,34.375V0H34.375C24.87,0,16.764,3.353,10.059,10.059S0,24.87,0,34.375V100h100V34.375z"/>
</g>
</g></g><g transform="translate(117,0) scale(0.13,0.13)"><g transform="" style="fill: rgb(255, 116, 48);">
<rect width="100" height="100"/>
</g></g><g transform="translate(130,0) scale(0.13,0.13)"><g transform="" style="fill: rgb(255, 116, 48);">
<polygon points="0,100 100,50 100,50 0,0 "/>
</g></g><g transform="translate(182,0) scale(0.13,0.13)"><g transform="" style="fill: rgb(255, 116, 48);">
<polygon points="99.999,49.999 99.998,49.999 49.999,0 0,49.999 -0.001,49.999 -0.001,50 0,50 49.999,99.999 99.998,50 99.999,50 
	99.998,50 "/>
</g></g><g transform="translate(221,0) scale(0.13,0.13)"><g transform="" style="fill: rgb(255, 116, 48);">
<g>
	<path d="M100,34.375V0H34.375C24.87,0,16.764,3.353,10.059,10.059S0,24.87,0,34.375V100h100V34.375z"/>
</g>
</g></g><g transform="translate(234,0) scale(0.13,0.13)"><g transform="" style="fill: rgb(255, 116, 48);">
<rect width="100" height="100"/>
</g></g><g transform="translate(247,0) scale(0.13,0.13)"><g transform="" style="fill: rgb(255, 116, 48);">
<polygon points="0,100 100,50 100,50 0,0 "/>
</g></g><g transform="translate(104,13) scale(0.13,0.13)"><g transform="" style="fill: rgb(255, 116, 48);">
<polygon points="0,-0.001 50,99.999 50,99.999 100,-0.001 "/>
</g></g><g transform="translate(169,13) scale(0.13,0.13)"><g transform="" style="fill: rgb(255, 116, 48);">
<polygon points="100,100 50,0 50,0 0,100 "/>
</g></g><g transform="translate(208,13) scale(0.13,0.13)"><g transform="" style="fill: rgb(255, 116, 48);">
<g>
	<path d="M100,34.375V0H34.375C24.87,0,16.764,3.353,10.059,10.059S0,24.87,0,34.375V100h100V34.375z"/>
</g>
</g></g><g transform="translate(221,13) scale(0.13,0.13)"><g transform="" style="fill: rgb(255, 116, 48);">
<rect width="100" height="100"/>
</g></g><g transform="translate(234,13) scale(0.13,0.13)"><g transform="" style="fill: rgb(255, 116, 48);">
<rect width="100" height="100"/>
</g></g><g transform="translate(260,13) scale(0.13,0.13)"><g transform="" style="fill: rgb(255, 116, 48);">
<polygon points="99.999,49.999 99.998,49.999 49.999,0 0,49.999 -0.001,49.999 -0.001,50 0,50 49.999,99.999 99.998,50 99.999,50 
	99.998,50 "/>
</g></g><g transform="translate(130,26) scale(0.13,0.13)"><g transform="" style="fill: rgb(255, 116, 48);">
<polygon points="100,100 50,0 50,0 0,100 "/>
</g></g><g transform="translate(156,26) scale(0.13,0.13)"><g transform="" style="fill: rgb(255, 116, 48);">
<g>
	<path d="M100,34.375V0H34.375C24.87,0,16.764,3.353,10.059,10.059S0,24.87,0,34.375V100h100V34.375z"/>
</g>
</g></g><g transform="translate(169,26) scale(0.13,0.13)"><g transform="" style="fill: rgb(255, 116, 48);">
<g>
	<path d="M100,0H0v100h65.625c9.506,0,17.611-3.354,24.316-10.059S100,75.131,100,65.625V0z"/>
</g>
</g></g><g transform="translate(195,26) scale(0.13,0.13)"><g transform="" style="fill: rgb(255, 116, 48);">
<g>
	<path d="M100,34.375V0H34.375C24.87,0,16.764,3.353,10.059,10.059S0,24.87,0,34.375V100h100V34.375z"/>
</g>
</g></g><g transform="translate(208,26) scale(0.13,0.13)"><g transform="" style="fill: rgb(255, 116, 48);">
<rect width="100" height="100"/>
</g></g><g transform="translate(234,26) scale(0.13,0.13)"><g transform="" style="fill: rgb(255, 116, 48);">
<rect width="100" height="100"/>
</g></g><g transform="translate(247,26) scale(0.13,0.13)"><g transform="" style="fill: rgb(255, 116, 48);">
<polygon points="0,100 100,50 100,50 0,0 "/>
</g></g><g transform="translate(104,39) scale(0.13,0.13)"><g transform="" style="fill: rgb(255, 116, 48);">
<polygon points="100,100 0,50 0,50 100,0 "/>
</g></g><g transform="translate(117,39) scale(0.13,0.13)"><g transform="" style="fill: rgb(255, 116, 48);">
<rect width="100" height="100"/>
</g></g><g transform="translate(130,39) scale(0.13,0.13)"><g transform="" style="fill: rgb(255, 116, 48);">
<g>
	<path d="M100,0H0v100h65.625c9.506,0,17.611-3.354,24.316-10.059S100,75.131,100,65.625V0z"/>
</g>
</g></g><g transform="translate(156,39) scale(0.13,0.13)"><g transform="" style="fill: rgb(255, 116, 48);">
<polygon points="0,-0.001 50,99.999 50,99.999 100,-0.001 "/>
</g></g><g transform="translate(195,39) scale(0.13,0.13)"><g transform="" style="fill: rgb(255, 116, 48);">
<rect width="100" height="100"/>
</g></g><g transform="translate(208,39) scale(0.13,0.13)"><g transform="" style="fill: rgb(255, 116, 48);">
<rect width="100" height="100"/>
</g></g><g transform="translate(221,39) scale(0.13,0.13)"><g transform="" style="fill: rgb(255, 116, 48);">
<rect width="100" height="100"/>
</g></g><g transform="translate(234,39) scale(0.13,0.13)"><g transform="" style="fill: rgb(255, 116, 48);">
<rect width="100" height="100"/>
</g></g><g transform="translate(260,39) scale(0.13,0.13)"><g transform="" style="fill: rgb(255, 116, 48);">
<polygon points="100,100 50,0 50,0 0,100 "/>
</g></g><g transform="translate(117,52) scale(0.13,0.13)"><g transform="" style="fill: rgb(255, 116, 48);">
<rect width="100" height="100"/>
</g></g><g transform="translate(169,52) scale(0.13,0.13)"><g transform="" style="fill: rgb(255, 116, 48);">
<polygon points="100,100 0,50 0,50 100,0 "/>
</g></g><g transform="translate(182,52) scale(0.13,0.13)"><g transform="" style="fill: rgb(255, 116, 48);">
<rect width="100" height="100"/>
</g></g><g transform="translate(195,52) scale(0.13,0.13)"><g transform="" style="fill: rgb(255, 116, 48);">
<g>
	<path d="M100,0H0v100h65.625c9.506,0,17.611-3.354,24.316-10.059S100,75.131,100,65.625V0z"/>
</g>
</g></g><g transform="translate(221,52) scale(0.13,0.13)"><g transform="" style="fill: rgb(255, 116, 48);">
<g>
	<path d="M100,0H0v65.625c0,9.506,3.353,17.611,10.059,24.316S24.87,100,34.375,100H100V0z"/>
</g>
</g></g><g transform="translate(234,52) scale(0.13,0.13)"><g transform="" style="fill: rgb(255, 116, 48);">
<rect width="100" height="100"/>
</g></g><g transform="translate(247,52) scale(0.13,0.13)"><g transform="" style="fill: rgb(255, 116, 48);">
<rect width="100" height="100"/>
</g></g><g transform="translate(260,52) scale(0.13,0.13)"><g transform="" style="fill: rgb(255, 116, 48);">
<g>
	<path d="M100,0H0v100h65.625c9.506,0,17.611-3.354,24.316-10.059S100,75.131,100,65.625V0z"/>
</g>
</g></g><g transform="translate(117,65) scale(0.13,0.13)"><g transform="" style="fill: rgb(255, 116, 48);">
<polygon points="0,-0.001 50,99.999 50,99.999 100,-0.001 "/>
</g></g><g transform="translate(143,65) scale(0.13,0.13)"><g transform="" style="fill: rgb(255, 116, 48);">
<polygon points="100,100 0,50 0,50 100,0 "/>
</g></g><g transform="translate(156,65) scale(0.13,0.13)"><g transform="" style="fill: rgb(255, 116, 48);">
<g>
	<path d="M100,34.375c0-9.505-3.354-17.611-10.059-24.316S75.131,0,65.625,0H0v100h100V34.375z"/>
</g>
</g></g><g transform="translate(182,65) scale(0.13,0.13)"><g transform="" style="fill: rgb(255, 116, 48);">
<rect width="100" height="100"/>
</g></g><g transform="translate(208,65) scale(0.13,0.13)"><g transform="" style="fill: rgb(255, 116, 48);">
<polygon points="100,100 50,0 50,0 0,100 "/>
</g></g><g transform="translate(247,65) scale(0.13,0.13)"><g transform="" style="fill: rgb(255, 116, 48);">
<polygon points="0,-0.001 50,99.999 50,99.999 100,-0.001 "/>
</g></g><g transform="translate(104,78) scale(0.13,0.13)"><g transform="" style="fill: rgb(255, 116, 48);">
<polygon points="100,100 50,0 50,0 0,100 "/>
</g></g><g transform="translate(130,78) scale(0.13,0.13)"><g transform="" style="fill: rgb(255, 116, 48);">
<polygon points="99.999,49.999 99.998,49.999 49.999,0 0,49.999 -0.001,49.999 -0.001,50 0,50 49.999,99.999 99.998,50 99.999,50 
	99.998,50 "/>
</g></g><g transform="translate(156,78) scale(0.13,0.13)"><g transform="" style="fill: rgb(255, 116, 48);">
<rect width="100" height="100"/>
</g></g><g transform="translate(182,78) scale(0.13,0.13)"><g transform="" style="fill: rgb(255, 116, 48);">
<rect width="100" height="100"/>
</g></g><g transform="translate(208,78) scale(0.13,0.13)"><g transform="" style="fill: rgb(255, 116, 48);">
<polygon points="0,-0.001 50,99.999 50,99.999 100,-0.001 "/>
</g></g><g transform="translate(234,78) scale(0.13,0.13)"><g transform="" style="fill: rgb(255, 116, 48);">
<polygon points="99.999,49.999 99.998,49.999 49.999,0 0,49.999 -0.001,49.999 -0.001,50 0,50 49.999,99.999 99.998,50 99.999,50 
	99.998,50 "/>
</g></g><g transform="translate(260,78) scale(0.13,0.13)"><g transform="" style="fill: rgb(255, 116, 48);">
<polygon points="100,100 50,0 50,0 0,100 "/>
</g></g><g transform="translate(104,91) scale(0.13,0.13)"><g transform="" style="fill: rgb(255, 116, 48);">
<g>
	<path d="M100,0H0v65.625c0,9.506,3.353,17.611,10.059,24.316S24.87,100,34.375,100H100V0z"/>
</g>
</g></g><g transform="translate(117,91) scale(0.13,0.13)"><g transform="" style="fill: rgb(255, 116, 48);">
<polygon points="0,100 100,50 100,50 0,0 "/>
</g></g><g transform="translate(143,91) scale(0.13,0.13)"><g transform="" style="fill: rgb(255, 116, 48);">
<polygon points="100,100 0,50 0,50 100,0 "/>
</g></g><g transform="translate(156,91) scale(0.13,0.13)"><g transform="" style="fill: rgb(255, 116, 48);">
<rect width="100" height="100"/>
</g></g><g transform="translate(169,91) scale(0.13,0.13)"><g transform="" style="fill: rgb(255, 116, 48);">
<rect width="100" height="100"/>
</g></g><g transform="translate(182,91) scale(0.13,0.13)"><g transform="" style="fill: rgb(255, 116, 48);">
<rect width="100" height="100"/>
</g></g><g transform="translate(195,91) scale(0.13,0.13)"><g transform="" style="fill: rgb(255, 116, 48);">
<polygon points="0,100 100,50 100,50 0,0 "/>
</g></g><g transform="translate(221,91) scale(0.13,0.13)"><g transform="" style="fill: rgb(255, 116, 48);">
<polygon points="100,100 50,0 50,0 0,100 "/>
</g></g><g transform="translate(260,91) scale(0.13,0.13)"><g transform="" style="fill: rgb(255, 116, 48);">
<rect width="100" height="100"/>
</g></g><g transform="translate(0,104) scale(0.13,0.13)"><g transform="" style="fill: rgb(255, 116, 48);">
<polygon points="100,100 50,0 50,0 0,100 "/>
</g></g><g transform="translate(26,104) scale(0.13,0.13)"><g transform="" style="fill: rgb(255, 116, 48);">
<g>
	<path d="M100,34.375V0H34.375C24.87,0,16.764,3.353,10.059,10.059S0,24.87,0,34.375V100h100V34.375z"/>
</g>
</g></g><g transform="translate(39,104) scale(0.13,0.13)"><g transform="" style="fill: rgb(255, 116, 48);">
<polygon points="0,100 100,50 100,50 0,0 "/>
</g></g><g transform="translate(65,104) scale(0.13,0.13)"><g transform="" style="fill: rgb(255, 116, 48);">
<polygon points="100,100 0,50 0,50 100,0 "/>
</g></g><g transform="translate(78,104) scale(0.13,0.13)"><g transform="" style="fill: rgb(255, 116, 48);">
<rect width="100" height="100"/>
</g></g><g transform="translate(91,104) scale(0.13,0.13)"><g transform="" style="fill: rgb(255, 116, 48);">
<polygon points="0,100 100,50 100,50 0,0 "/>
</g></g><g transform="translate(130,104) scale(0.13,0.13)"><g transform="" style="fill: rgb(255, 116, 48);">
<polygon points="99.999,49.999 99.998,49.999 49.999,0 0,49.999 -0.001,49.999 -0.001,50 0,50 49.999,99.999 99.998,50 99.999,50 
	99.998,50 "/>
</g></g><g transform="translate(169,104) scale(0.13,0.13)"><g transform="" style="fill: rgb(255, 116, 48);">
<g>
	<path d="M100,0H0v65.625c0,9.506,3.353,17.611,10.059,24.316S24.87,100,34.375,100H100V0z"/>
</g>
</g></g><g transform="translate(182,104) scale(0.13,0.13)"><g transform="" style="fill: rgb(255, 116, 48);">
<g>
	<path d="M100,0H0v100h65.625c9.506,0,17.611-3.354,24.316-10.059S100,75.131,100,65.625V0z"/>
</g>
</g></g><g transform="translate(221,104) scale(0.13,0.13)"><g transform="" style="fill: rgb(255, 116, 48);">
<polygon points="0,-0.001 50,99.999 50,99.999 100,-0.001 "/>
</g></g><g transform="translate(247,104) scale(0.13,0.13)"><g transform="" style="fill: rgb(255, 116, 48);">
<g>
	<path d="M100,34.375V0H34.375C24.87,0,16.764,3.353,10.059,10.059S0,24.87,0,34.375V100h100V34.375z"/>
</g>
</g></g><g transform="translate(260,104) scale(0.13,0.13)"><g transform="" style="fill: rgb(255, 116, 48);">
<g>
	<path d="M100,0H0v100h65.625c9.506,0,17.611-3.354,24.316-10.059S100,75.131,100,65.625V0z"/>
</g>
</g></g><g transform="translate(286,104) scale(0.13,0.13)"><g transform="" style="fill: rgb(255, 116, 48);">
<polygon points="100,100 50,0 50,0 0,100 "/>
</g></g><g transform="translate(325,104) scale(0.13,0.13)"><g transform="" style="fill: rgb(255, 116, 48);">
<polygon points="99.999,49.999 99.998,49.999 49.999,0 0,49.999 -0.001,49.999 -0.001,50 0,50 49.999,99.999 99.998,50 99.999,50 
	99.998,50 "/>
</g></g><g transform="translate(351,104) scale(0.13,0.13)"><g transform="" style="fill: rgb(255, 116, 48);">
<polygon points="100,100 0,50 0,50 100,0 "/>
</g></g><g transform="translate(364,104) scale(0.13,0.13)"><g transform="" style="fill: rgb(255, 116, 48);">
<g>
	<path d="M100,34.375c0-9.505-3.354-17.611-10.059-24.316S75.131,0,65.625,0H0v100h100V34.375z"/>
</g>
</g></g><g transform="translate(0,117) scale(0.13,0.13)"><g transform="" style="fill: rgb(255, 116, 48);">
<rect width="100" height="100"/>
</g></g><g transform="translate(26,117) scale(0.13,0.13)"><g transform="" style="fill: rgb(255, 116, 48);">
<polygon points="0,-0.001 50,99.999 50,99.999 100,-0.001 "/>
</g></g><g transform="translate(117,117) scale(0.13,0.13)"><g transform="" style="fill: rgb(255, 116, 48);">
<polygon points="99.999,49.999 99.998,49.999 49.999,0 0,49.999 -0.001,49.999 -0.001,50 0,50 49.999,99.999 99.998,50 99.999,50 
	99.998,50 "/>
</g></g><g transform="translate(143,117) scale(0.13,0.13)"><g transform="" style="fill: rgb(255, 116, 48);">
<g>
	<path d="M100,34.375V0H34.375C24.87,0,16.764,3.353,10.059,10.059S0,24.87,0,34.375V100h100V34.375z"/>
</g>
</g></g><g transform="translate(156,117) scale(0.13,0.13)"><g transform="" style="fill: rgb(255, 116, 48);">
<polygon points="0,100 100,50 100,50 0,0 "/>
</g></g><g transform="translate(247,117) scale(0.13,0.13)"><g transform="" style="fill: rgb(255, 116, 48);">
<polygon points="0,-0.001 50,99.999 50,99.999 100,-0.001 "/>
</g></g><g transform="translate(273,117) scale(0.13,0.13)"><g transform="" style="fill: rgb(255, 116, 48);">
<g>
	<path d="M100,34.375V0H34.375C24.87,0,16.764,3.353,10.059,10.059S0,24.87,0,34.375V100h100V34.375z"/>
</g>
</g></g><g transform="translate(286,117) scale(0.13,0.13)"><g transform="" style="fill: rgb(255, 116, 48);">
<rect width="100" height="100"/>
</g></g><g transform="translate(299,117) scale(0.13,0.13)"><g transform="" style="fill: rgb(255, 116, 48);">
<rect width="100" height="100"/>
</g></g><g transform="translate(312,117) scale(0.13,0.13)"><g transform="" style="fill: rgb(255, 116, 48);">
<polygon points="0,100 100,50 100,50 0,0 "/>
</g></g><g transform="translate(364,117) scale(0.13,0.13)"><g transform="" style="fill: rgb(255, 116, 48);">
<polygon points="0,-0.001 50,99.999 50,99.999 100,-0.001 "/>
</g></g><g transform="translate(0,130) scale(0.13,0.13)"><g transform="" style="fill: rgb(255, 116, 48);">
<rect width="100" height="100"/>
</g></g><g transform="translate(13,130) scale(0.13,0.13)"><g transform="" style="fill: rgb(255, 116, 48);">
<polygon points="0,100 100,50 100,50 0,0 "/>
</g></g><g transform="translate(39,130) scale(0.13,0.13)"><g transform="" style="fill: rgb(255, 116, 48);">
<polygon points="100,100 0,50 0,50 100,0 "/>
</g></g><g transform="translate(52,130) scale(0.13,0.13)"><g transform="" style="fill: rgb(255, 116, 48);">
<rect width="100" height="100"/>
</g></g><g transform="translate(65,130) scale(0.13,0.13)"><g transform="" style="fill: rgb(255, 116, 48);">
<rect width="100" height="100"/>
</g></g><g transform="translate(78,130) scale(0.13,0.13)"><g transform="" style="fill: rgb(255, 116, 48);">
<polygon points="0,100 100,50 100,50 0,0 "/>
</g></g><g transform="translate(104,130) scale(0.13,0.13)"><g transform="" style="fill: rgb(255, 116, 48);">
<polygon points="100,100 50,0 50,0 0,100 "/>
</g></g><g transform="translate(143,130) scale(0.13,0.13)"><g transform="" style="fill: rgb(255, 116, 48);">
<rect width="100" height="100"/>
</g></g><g transform="translate(182,130) scale(0.13,0.13)"><g transform="" style="fill: rgb(255, 116, 48);">
<polygon points="100,100 50,0 50,0 0,100 "/>
</g></g><g transform="translate(208,130) scale(0.13,0.13)"><g transform="" style="fill: rgb(255, 116, 48);">
<g>
	<path d="M100,34.375V0H34.375C24.87,0,16.764,3.353,10.059,10.059S0,24.87,0,34.375V100h100V34.375z"/>
</g>
</g></g><g transform="translate(221,130) scale(0.13,0.13)"><g transform="" style="fill: rgb(255, 116, 48);">
<polygon points="0,100 100,50 100,50 0,0 "/>
</g></g><g transform="translate(260,130) scale(0.13,0.13)"><g transform="" style="fill: rgb(255, 116, 48);">
<polygon points="100,100 0,50 0,50 100,0 "/>
</g></g><g transform="translate(273,130) scale(0.13,0.13)"><g transform="" style="fill: rgb(255, 116, 48);">
<g>
	<path d="M100,0H0v100h65.625c9.506,0,17.611-3.354,24.316-10.059S100,75.131,100,65.625V0z"/>
</g>
</g></g><g transform="translate(338,130) scale(0.13,0.13)"><g transform="" style="fill: rgb(255, 116, 48);">
<polygon points="100,100 0,50 0,50 100,0 "/>
</g></g><g transform="translate(351,130) scale(0.13,0.13)"><g transform="" style="fill: rgb(255, 116, 48);">
<polygon points="0,100 100,50 100,50 0,0 "/>
</g></g><g transform="translate(0,143) scale(0.13,0.13)"><g transform="" style="fill: rgb(255, 116, 48);">
<polygon points="0,-0.001 50,99.999 50,99.999 100,-0.001 "/>
</g></g><g transform="translate(52,143) scale(0.13,0.13)"><g transform="" style="fill: rgb(255, 116, 48);">
<g>
	<path d="M100,0H0v65.625c0,9.506,3.353,17.611,10.059,24.316S24.87,100,34.375,100H100V0z"/>
</g>
</g></g><g transform="translate(65,143) scale(0.13,0.13)"><g transform="" style="fill: rgb(255, 116, 48);">
<rect width="100" height="100"/>
</g></g><g transform="translate(91,143) scale(0.13,0.13)"><g transform="" style="fill: rgb(255, 116, 48);">
<g>
	<path d="M100,34.375V0H34.375C24.87,0,16.764,3.353,10.059,10.059S0,24.87,0,34.375V100h100V34.375z"/>
</g>
</g></g><g transform="translate(104,143) scale(0.13,0.13)"><g transform="" style="fill: rgb(255, 116, 48);">
<rect width="100" height="100"/>
</g></g><g transform="translate(117,143) scale(0.13,0.13)"><g transform="" style="fill: rgb(255, 116, 48);">
<rect width="100" height="100"/>
</g></g><g transform="translate(130,143) scale(0.13,0.13)"><g transform="" style="fill: rgb(255, 116, 48);">
<rect width="100" height="100"/>
</g></g><g transform="translate(143,143) scale(0.13,0.13)"><g transform="" style="fill: rgb(255, 116, 48);">
<rect width="100" height="100"/>
</g></g><g transform="translate(156,143) scale(0.13,0.13)"><g transform="" style="fill: rgb(255, 116, 48);">
<rect width="100" height="100"/>
</g></g><g transform="translate(169,143) scale(0.13,0.13)"><g transform="" style="fill: rgb(255, 116, 48);">
<rect width="100" height="100"/>
</g></g><g transform="translate(182,143) scale(0.13,0.13)"><g transform="" style="fill: rgb(255, 116, 48);">
<g>
	<path d="M100,0H0v100h65.625c9.506,0,17.611-3.354,24.316-10.059S100,75.131,100,65.625V0z"/>
</g>
</g></g><g transform="translate(208,143) scale(0.13,0.13)"><g transform="" style="fill: rgb(255, 116, 48);">
<rect width="100" height="100"/>
</g></g><g transform="translate(247,143) scale(0.13,0.13)"><g transform="" style="fill: rgb(255, 116, 48);">
<polygon points="99.999,49.999 99.998,49.999 49.999,0 0,49.999 -0.001,49.999 -0.001,50 0,50 49.999,99.999 99.998,50 99.999,50 
	99.998,50 "/>
</g></g><g transform="translate(286,143) scale(0.13,0.13)"><g transform="" style="fill: rgb(255, 116, 48);">
<polygon points="99.999,49.999 99.998,49.999 49.999,0 0,49.999 -0.001,49.999 -0.001,50 0,50 49.999,99.999 99.998,50 99.999,50 
	99.998,50 "/>
</g></g><g transform="translate(312,143) scale(0.13,0.13)"><g transform="" style="fill: rgb(255, 116, 48);">
<polygon points="99.999,49.999 99.998,49.999 49.999,0 0,49.999 -0.001,49.999 -0.001,50 0,50 49.999,99.999 99.998,50 99.999,50 
	99.998,50 "/>
</g></g><g transform="translate(364,143) scale(0.13,0.13)"><g transform="" style="fill: rgb(255, 116, 48);">
<polygon points="99.999,49.999 99.998,49.999 49.999,0 0,49.999 -0.001,49.999 -0.001,50 0,50 49.999,99.999 99.998,50 99.999,50 
	99.998,50 "/>
</g></g><g transform="translate(39,156) scale(0.13,0.13)"><g transform="" style="fill: rgb(255, 116, 48);">
<polygon points="100,100 50,0 50,0 0,100 "/>
</g></g><g transform="translate(65,156) scale(0.13,0.13)"><g transform="" style="fill: rgb(255, 116, 48);">
<rect width="100" height="100"/>
</g></g><g transform="translate(78,156) scale(0.13,0.13)"><g transform="" style="fill: rgb(255, 116, 48);">
<rect width="100" height="100"/>
</g></g><g transform="translate(91,156) scale(0.13,0.13)"><g transform="" style="fill: rgb(255, 116, 48);">
<rect width="100" height="100"/>
</g></g><g transform="translate(104,156) scale(0.13,0.13)"><g transform="" style="fill: rgb(255, 116, 48);">
<g>
	<path d="M100,0H0v100h65.625c9.506,0,17.611-3.354,24.316-10.059S100,75.131,100,65.625V0z"/>
</g>
</g></g><g transform="translate(156,156) scale(0.13,0.13)"><g transform="" style="fill: rgb(255, 116, 48);">
<polygon points="0,-0.001 50,99.999 50,99.999 100,-0.001 "/>
</g></g><g transform="translate(208,156) scale(0.13,0.13)"><g transform="" style="fill: rgb(255, 116, 48);">
<g>
	<path d="M100,0H0v65.625c0,9.506,3.353,17.611,10.059,24.316S24.87,100,34.375,100H100V0z"/>
</g>
</g></g><g transform="translate(221,156) scale(0.13,0.13)"><g transform="" style="fill: rgb(255, 116, 48);">
<rect width="100" height="100"/>
</g></g><g transform="translate(234,156) scale(0.13,0.13)"><g transform="" style="fill: rgb(255, 116, 48);">
<g>
	<path d="M100,34.375c0-9.505-3.354-17.611-10.059-24.316S75.131,0,65.625,0H0v100h100V34.375z"/>
</g>
</g></g><g transform="translate(260,156) scale(0.13,0.13)"><g transform="" style="fill: rgb(255, 116, 48);">
<g>
	<path d="M100,34.375V0H34.375C24.87,0,16.764,3.353,10.059,10.059S0,24.87,0,34.375V100h100V34.375z"/>
</g>
</g></g><g transform="translate(273,156) scale(0.13,0.13)"><g transform="" style="fill: rgb(255, 116, 48);">
<polygon points="0,100 100,50 100,50 0,0 "/>
</g></g><g transform="translate(325,156) scale(0.13,0.13)"><g transform="" style="fill: rgb(255, 116, 48);">
<polygon points="100,100 0,50 0,50 100,0 "/>
</g></g><g transform="translate(338,156) scale(0.13,0.13)"><g transform="" style="fill: rgb(255, 116, 48);">
<g>
	<path d="M100,34.375c0-9.505-3.354-17.611-10.059-24.316S75.131,0,65.625,0H0v100h100V34.375z"/>
</g>
</g></g><g transform="translate(13,169) scale(0.13,0.13)"><g transform="" style="fill: rgb(255, 116, 48);">
<polygon points="100,100 50,0 50,0 0,100 "/>
</g></g><g transform="translate(39,169) scale(0.13,0.13)"><g transform="" style="fill: rgb(255, 116, 48);">
<rect width="100" height="100"/>
</g></g><g transform="translate(52,169) scale(0.13,0.13)"><g transform="" style="fill: rgb(255, 116, 48);">
<rect width="100" height="100"/>
</g></g><g transform="translate(65,169) scale(0.13,0.13)"><g transform="" style="fill: rgb(255, 116, 48);">
<rect width="100" height="100"/>
</g></g><g transform="translate(117,169) scale(0.13,0.13)"><g transform="" style="fill: rgb(255, 116, 48);">
<polygon points="99.999,49.999 99.998,49.999 49.999,0 0,49.999 -0.001,49.999 -0.001,50 0,50 49.999,99.999 99.998,50 99.999,50 
	99.998,50 "/>
</g></g><g transform="translate(169,169) scale(0.13,0.13)"><g transform="" style="fill: rgb(255, 116, 48);">
<polygon points="99.999,49.999 99.998,49.999 49.999,0 0,49.999 -0.001,49.999 -0.001,50 0,50 49.999,99.999 99.998,50 99.999,50 
	99.998,50 "/>
</g></g><g transform="translate(195,169) scale(0.13,0.13)"><g transform="" style="fill: rgb(255, 116, 48);">
<polygon points="99.999,49.999 99.998,49.999 49.999,0 0,49.999 -0.001,49.999 -0.001,50 0,50 49.999,99.999 99.998,50 99.999,50 
	99.998,50 "/>
</g></g><g transform="translate(221,169) scale(0.13,0.13)"><g transform="" style="fill: rgb(255, 116, 48);">
<g>
	<path d="M100,0H0v65.625c0,9.506,3.353,17.611,10.059,24.316S24.87,100,34.375,100H100V0z"/>
</g>
</g></g><g transform="translate(234,169) scale(0.13,0.13)"><g transform="" style="fill: rgb(255, 116, 48);">
<rect width="100" height="100"/>
</g></g><g transform="translate(247,169) scale(0.13,0.13)"><g transform="" style="fill: rgb(255, 116, 48);">
<rect width="100" height="100"/>
</g></g><g transform="translate(260,169) scale(0.13,0.13)"><g transform="" style="fill: rgb(255, 116, 48);">
<g>
	<path d="M100,0H0v100h65.625c9.506,0,17.611-3.354,24.316-10.059S100,75.131,100,65.625V0z"/>
</g>
</g></g><g transform="translate(286,169) scale(0.13,0.13)"><g transform="" style="fill: rgb(255, 116, 48);">
<polygon points="99.999,49.999 99.998,49.999 49.999,0 0,49.999 -0.001,49.999 -0.001,50 0,50 49.999,99.999 99.998,50 99.999,50 
	99.998,50 "/>
</g></g><g transform="translate(338,169) scale(0.13,0.13)"><g transform="" style="fill: rgb(255, 116, 48);">
<rect width="100" height="100"/>
</g></g><g transform="translate(351,169) scale(0.13,0.13)"><g transform="" style="fill: rgb(255, 116, 48);">
<rect width="100" height="100"/>
</g></g><g transform="translate(364,169) scale(0.13,0.13)"><g transform="" style="fill: rgb(255, 116, 48);">
<g>
	<path d="M100,34.375c0-9.505-3.354-17.611-10.059-24.316S75.131,0,65.625,0H0v100h100V34.375z"/>
</g>
</g></g><g transform="translate(0,182) scale(0.13,0.13)"><g transform="" style="fill: rgb(255, 116, 48);">
<polygon points="100,100 0,50 0,50 100,0 "/>
</g></g><g transform="translate(13,182) scale(0.13,0.13)"><g transform="" style="fill: rgb(255, 116, 48);">
<rect width="100" height="100"/>
</g></g><g transform="translate(26,182) scale(0.13,0.13)"><g transform="" style="fill: rgb(255, 116, 48);">
<rect width="100" height="100"/>
</g></g><g transform="translate(39,182) scale(0.13,0.13)"><g transform="" style="fill: rgb(255, 116, 48);">
<rect width="100" height="100"/>
</g></g><g transform="translate(52,182) scale(0.13,0.13)"><g transform="" style="fill: rgb(255, 116, 48);">
<rect width="100" height="100"/>
</g></g><g transform="translate(65,182) scale(0.13,0.13)"><g transform="" style="fill: rgb(255, 116, 48);">
<rect width="100" height="100"/>
</g></g><g transform="translate(78,182) scale(0.13,0.13)"><g transform="" style="fill: rgb(255, 116, 48);">
<polygon points="0,100 100,50 100,50 0,0 "/>
</g></g><g transform="translate(182,182) scale(0.13,0.13)"><g transform="" style="fill: rgb(255, 116, 48);">
<polygon points="99.999,49.999 99.998,49.999 49.999,0 0,49.999 -0.001,49.999 -0.001,50 0,50 49.999,99.999 99.998,50 99.999,50 
	99.998,50 "/>
</g></g><g transform="translate(247,182) scale(0.13,0.13)"><g transform="" style="fill: rgb(255, 116, 48);">
<polygon points="0,-0.001 50,99.999 50,99.999 100,-0.001 "/>
</g></g><g transform="translate(273,182) scale(0.13,0.13)"><g transform="" style="fill: rgb(255, 116, 48);">
<polygon points="100,100 50,0 50,0 0,100 "/>
</g></g><g transform="translate(299,182) scale(0.13,0.13)"><g transform="" style="fill: rgb(255, 116, 48);">
<polygon points="100,100 0,50 0,50 100,0 "/>
</g></g><g transform="translate(312,182) scale(0.13,0.13)"><g transform="" style="fill: rgb(255, 116, 48);">
<g>
	<path d="M100,34.375c0-9.505-3.354-17.611-10.059-24.316S75.131,0,65.625,0H0v100h100V34.375z"/>
</g>
</g></g><g transform="translate(338,182) scale(0.13,0.13)"><g transform="" style="fill: rgb(255, 116, 48);">
<g>
	<path d="M100,0H0v65.625c0,9.506,3.353,17.611,10.059,24.316S24.87,100,34.375,100H100V0z"/>
</g>
</g></g><g transform="translate(351,182) scale(0.13,0.13)"><g transform="" style="fill: rgb(255, 116, 48);">
<rect width="100" height="100"/>
</g></g><g transform="translate(364,182) scale(0.13,0.13)"><g transform="" style="fill: rgb(255, 116, 48);">
<g>
	<path d="M100,0H0v100h65.625c9.506,0,17.611-3.354,24.316-10.059S100,75.131,100,65.625V0z"/>
</g>
</g></g><g transform="translate(13,195) scale(0.13,0.13)"><g transform="" style="fill: rgb(255, 116, 48);">
<rect width="100" height="100"/>
</g></g><g transform="translate(39,195) scale(0.13,0.13)"><g transform="" style="fill: rgb(255, 116, 48);">
<rect width="100" height="100"/>
</g></g><g transform="translate(65,195) scale(0.13,0.13)"><g transform="" style="fill: rgb(255, 116, 48);">
<polygon points="0,-0.001 50,99.999 50,99.999 100,-0.001 "/>
</g></g><g transform="translate(91,195) scale(0.13,0.13)"><g transform="" style="fill: rgb(255, 116, 48);">
<g>
	<path d="M100,34.375V0H34.375C24.87,0,16.764,3.353,10.059,10.059S0,24.87,0,34.375V100h100V34.375z"/>
</g>
</g></g><g transform="translate(104,195) scale(0.13,0.13)"><g transform="" style="fill: rgb(255, 116, 48);">
<rect width="100" height="100"/>
</g></g><g transform="translate(117,195) scale(0.13,0.13)"><g transform="" style="fill: rgb(255, 116, 48);">
<g>
	<path d="M100,34.375c0-9.505-3.354-17.611-10.059-24.316S75.131,0,65.625,0H0v100h100V34.375z"/>
</g>
</g></g><g transform="translate(143,195) scale(0.13,0.13)"><g transform="" style="fill: rgb(255, 116, 48);">
<polygon points="100,100 50,0 50,0 0,100 "/>
</g></g><g transform="translate(169,195) scale(0.13,0.13)"><g transform="" style="fill: rgb(255, 116, 48);">
<polygon points="99.999,49.999 99.998,49.999 49.999,0 0,49.999 -0.001,49.999 -0.001,50 0,50 49.999,99.999 99.998,50 99.999,50 
	99.998,50 "/>
</g></g><g transform="translate(195,195) scale(0.13,0.13)"><g transform="" style="fill: rgb(255, 116, 48);">
<g>
	<path d="M100,34.375V0H34.375C24.87,0,16.764,3.353,10.059,10.059S0,24.87,0,34.375V100h100V34.375z"/>
</g>
</g></g><g transform="translate(208,195) scale(0.13,0.13)"><g transform="" style="fill: rgb(255, 116, 48);">
<polygon points="0,100 100,50 100,50 0,0 "/>
</g></g><g transform="translate(234,195) scale(0.13,0.13)"><g transform="" style="fill: rgb(255, 116, 48);">
<polygon points="99.999,49.999 99.998,49.999 49.999,0 0,49.999 -0.001,49.999 -0.001,50 0,50 49.999,99.999 99.998,50 99.999,50 
	99.998,50 "/>
</g></g><g transform="translate(273,195) scale(0.13,0.13)"><g transform="" style="fill: rgb(255, 116, 48);">
<rect width="100" height="100"/>
</g></g><g transform="translate(286,195) scale(0.13,0.13)"><g transform="" style="fill: rgb(255, 116, 48);">
<polygon points="0,100 100,50 100,50 0,0 "/>
</g></g><g transform="translate(312,195) scale(0.13,0.13)"><g transform="" style="fill: rgb(255, 116, 48);">
<rect width="100" height="100"/>
</g></g><g transform="translate(351,195) scale(0.13,0.13)"><g transform="" style="fill: rgb(255, 116, 48);">
<rect width="100" height="100"/>
</g></g><g transform="translate(13,208) scale(0.13,0.13)"><g transform="" style="fill: rgb(255, 116, 48);">
<rect width="100" height="100"/>
</g></g><g transform="translate(26,208) scale(0.13,0.13)"><g transform="" style="fill: rgb(255, 116, 48);">
<rect width="100" height="100"/>
</g></g><g transform="translate(39,208) scale(0.13,0.13)"><g transform="" style="fill: rgb(255, 116, 48);">
<rect width="100" height="100"/>
</g></g><g transform="translate(52,208) scale(0.13,0.13)"><g transform="" style="fill: rgb(255, 116, 48);">
<polygon points="0,100 100,50 100,50 0,0 "/>
</g></g><g transform="translate(78,208) scale(0.13,0.13)"><g transform="" style="fill: rgb(255, 116, 48);">
<polygon points="100,100 0,50 0,50 100,0 "/>
</g></g><g transform="translate(91,208) scale(0.13,0.13)"><g transform="" style="fill: rgb(255, 116, 48);">
<rect width="100" height="100"/>
</g></g><g transform="translate(104,208) scale(0.13,0.13)"><g transform="" style="fill: rgb(255, 116, 48);">
<rect width="100" height="100"/>
</g></g><g transform="translate(117,208) scale(0.13,0.13)"><g transform="" style="fill: rgb(255, 116, 48);">
<g>
	<path d="M100,0H0v100h65.625c9.506,0,17.611-3.354,24.316-10.059S100,75.131,100,65.625V0z"/>
</g>
</g></g><g transform="translate(143,208) scale(0.13,0.13)"><g transform="" style="fill: rgb(255, 116, 48);">
<rect width="100" height="100"/>
</g></g><g transform="translate(156,208) scale(0.13,0.13)"><g transform="" style="fill: rgb(255, 116, 48);">
<polygon points="0,100 100,50 100,50 0,0 "/>
</g></g><g transform="translate(195,208) scale(0.13,0.13)"><g transform="" style="fill: rgb(255, 116, 48);">
<rect width="100" height="100"/>
</g></g><g transform="translate(273,208) scale(0.13,0.13)"><g transform="" style="fill: rgb(255, 116, 48);">
<polygon points="0,-0.001 50,99.999 50,99.999 100,-0.001 "/>
</g></g><g transform="translate(299,208) scale(0.13,0.13)"><g transform="" style="fill: rgb(255, 116, 48);">
<g>
	<path d="M100,34.375V0H34.375C24.87,0,16.764,3.353,10.059,10.059S0,24.87,0,34.375V100h100V34.375z"/>
</g>
</g></g><g transform="translate(312,208) scale(0.13,0.13)"><g transform="" style="fill: rgb(255, 116, 48);">
<rect width="100" height="100"/>
</g></g><g transform="translate(325,208) scale(0.13,0.13)"><g transform="" style="fill: rgb(255, 116, 48);">
<g>
	<path d="M100,34.375c0-9.505-3.354-17.611-10.059-24.316S75.131,0,65.625,0H0v100h100V34.375z"/>
</g>
</g></g><g transform="translate(351,208) scale(0.13,0.13)"><g transform="" style="fill: rgb(255, 116, 48);">
<rect width="100" height="100"/>
</g></g><g transform="translate(13,221) scale(0.13,0.13)"><g transform="" style="fill: rgb(255, 116, 48);">
<g>
	<path d="M100,0H0v65.625c0,9.506,3.353,17.611,10.059,24.316S24.87,100,34.375,100H100V0z"/>
</g>
</g></g><g transform="translate(26,221) scale(0.13,0.13)"><g transform="" style="fill: rgb(255, 116, 48);">
<rect width="100" height="100"/>
</g></g><g transform="translate(39,221) scale(0.13,0.13)"><g transform="" style="fill: rgb(255, 116, 48);">
<rect width="100" height="100"/>
</g></g><g transform="translate(65,221) scale(0.13,0.13)"><g transform="" style="fill: rgb(255, 116, 48);">
<polygon points="99.999,49.999 99.998,49.999 49.999,0 0,49.999 -0.001,49.999 -0.001,50 0,50 49.999,99.999 99.998,50 99.999,50 
	99.998,50 "/>
</g></g><g transform="translate(91,221) scale(0.13,0.13)"><g transform="" style="fill: rgb(255, 116, 48);">
<rect width="100" height="100"/>
</g></g><g transform="translate(104,221) scale(0.13,0.13)"><g transform="" style="fill: rgb(255, 116, 48);">
<g>
	<path d="M100,0H0v100h65.625c9.506,0,17.611-3.354,24.316-10.059S100,75.131,100,65.625V0z"/>
</g>
</g></g><g transform="translate(130,221) scale(0.13,0.13)"><g transform="" style="fill: rgb(255, 116, 48);">
<polygon points="100,100 0,50 0,50 100,0 "/>
</g></g><g transform="translate(143,221) scale(0.13,0.13)"><g transform="" style="fill: rgb(255, 116, 48);">
<g>
	<path d="M100,0H0v100h65.625c9.506,0,17.611-3.354,24.316-10.059S100,75.131,100,65.625V0z"/>
</g>
</g></g><g transform="translate(169,221) scale(0.13,0.13)"><g transform="" style="fill: rgb(255, 116, 48);">
<polygon points="99.999,49.999 99.998,49.999 49.999,0 0,49.999 -0.001,49.999 -0.001,50 0,50 49.999,99.999 99.998,50 99.999,50 
	99.998,50 "/>
</g></g><g transform="translate(195,221) scale(0.13,0.13)"><g transform="" style="fill: rgb(255, 116, 48);">
<rect width="100" height="100"/>
</g></g><g transform="translate(208,221) scale(0.13,0.13)"><g transform="" style="fill: rgb(255, 116, 48);">
<polygon points="0,100 100,50 100,50 0,0 "/>
</g></g><g transform="translate(234,221) scale(0.13,0.13)"><g transform="" style="fill: rgb(255, 116, 48);">
<polygon points="100,100 50,0 50,0 0,100 "/>
</g></g><g transform="translate(299,221) scale(0.13,0.13)"><g transform="" style="fill: rgb(255, 116, 48);">
<polygon points="0,-0.001 50,99.999 50,99.999 100,-0.001 "/>
</g></g><g transform="translate(325,221) scale(0.13,0.13)"><g transform="" style="fill: rgb(255, 116, 48);">
<g>
	<path d="M100,0H0v65.625c0,9.506,3.353,17.611,10.059,24.316S24.87,100,34.375,100H100V0z"/>
</g>
</g></g><g transform="translate(338,221) scale(0.13,0.13)"><g transform="" style="fill: rgb(255, 116, 48);">
<rect width="100" height="100"/>
</g></g><g transform="translate(351,221) scale(0.13,0.13)"><g transform="" style="fill: rgb(255, 116, 48);">
<g>
	<path d="M100,0H0v100h65.625c9.506,0,17.611-3.354,24.316-10.059S100,75.131,100,65.625V0z"/>
</g>
</g></g><g transform="translate(0,234) scale(0.13,0.13)"><g transform="" style="fill: rgb(255, 116, 48);">
<polygon points="99.999,49.999 99.998,49.999 49.999,0 0,49.999 -0.001,49.999 -0.001,50 0,50 49.999,99.999 99.998,50 99.999,50 
	99.998,50 "/>
</g></g><g transform="translate(26,234) scale(0.13,0.13)"><g transform="" style="fill: rgb(255, 116, 48);">
<g>
	<path d="M100,0H0v65.625c0,9.506,3.353,17.611,10.059,24.316S24.87,100,34.375,100H100V0z"/>
</g>
</g></g><g transform="translate(39,234) scale(0.13,0.13)"><g transform="" style="fill: rgb(255, 116, 48);">
<rect width="100" height="100"/>
</g></g><g transform="translate(78,234) scale(0.13,0.13)"><g transform="" style="fill: rgb(255, 116, 48);">
<polygon points="100,100 0,50 0,50 100,0 "/>
</g></g><g transform="translate(91,234) scale(0.13,0.13)"><g transform="" style="fill: rgb(255, 116, 48);">
<g>
	<path d="M100,0H0v100h65.625c9.506,0,17.611-3.354,24.316-10.059S100,75.131,100,65.625V0z"/>
</g>
</g></g><g transform="translate(117,234) scale(0.13,0.13)"><g transform="" style="fill: rgb(255, 116, 48);">
<polygon points="100,100 50,0 50,0 0,100 "/>
</g></g><g transform="translate(195,234) scale(0.13,0.13)"><g transform="" style="fill: rgb(255, 116, 48);">
<rect width="100" height="100"/>
</g></g><g transform="translate(221,234) scale(0.13,0.13)"><g transform="" style="fill: rgb(255, 116, 48);">
<g>
	<path d="M100,34.375V0H34.375C24.87,0,16.764,3.353,10.059,10.059S0,24.87,0,34.375V100h100V34.375z"/>
</g>
</g></g><g transform="translate(234,234) scale(0.13,0.13)"><g transform="" style="fill: rgb(255, 116, 48);">
<g>
	<path d="M100,0H0v100h65.625c9.506,0,17.611-3.354,24.316-10.059S100,75.131,100,65.625V0z"/>
</g>
</g></g><g transform="translate(260,234) scale(0.13,0.13)"><g transform="" style="fill: rgb(255, 116, 48);">
<polygon points="99.999,49.999 99.998,49.999 49.999,0 0,49.999 -0.001,49.999 -0.001,50 0,50 49.999,99.999 99.998,50 99.999,50 
	99.998,50 "/>
</g></g><g transform="translate(286,234) scale(0.13,0.13)"><g transform="" style="fill: rgb(255, 116, 48);">
<polygon points="100,100 50,0 50,0 0,100 "/>
</g></g><g transform="translate(338,234) scale(0.13,0.13)"><g transform="" style="fill: rgb(255, 116, 48);">
<rect width="100" height="100"/>
</g></g><g transform="translate(39,247) scale(0.13,0.13)"><g transform="" style="fill: rgb(255, 116, 48);">
<rect width="100" height="100"/>
</g></g><g transform="translate(52,247) scale(0.13,0.13)"><g transform="" style="fill: rgb(255, 116, 48);">
<polygon points="0,100 100,50 100,50 0,0 "/>
</g></g><g transform="translate(104,247) scale(0.13,0.13)"><g transform="" style="fill: rgb(255, 116, 48);">
<g>
	<path d="M100,34.375V0H34.375C24.87,0,16.764,3.353,10.059,10.059S0,24.87,0,34.375V100h100V34.375z"/>
</g>
</g></g><g transform="translate(117,247) scale(0.13,0.13)"><g transform="" style="fill: rgb(255, 116, 48);">
<rect width="100" height="100"/>
</g></g><g transform="translate(130,247) scale(0.13,0.13)"><g transform="" style="fill: rgb(255, 116, 48);">
<rect width="100" height="100"/>
</g></g><g transform="translate(143,247) scale(0.13,0.13)"><g transform="" style="fill: rgb(255, 116, 48);">
<g>
	<path d="M100,34.375c0-9.505-3.354-17.611-10.059-24.316S75.131,0,65.625,0H0v100h100V34.375z"/>
</g>
</g></g><g transform="translate(195,247) scale(0.13,0.13)"><g transform="" style="fill: rgb(255, 116, 48);">
<g>
	<path d="M100,0H0v65.625c0,9.506,3.353,17.611,10.059,24.316S24.87,100,34.375,100H100V0z"/>
</g>
</g></g><g transform="translate(208,247) scale(0.13,0.13)"><g transform="" style="fill: rgb(255, 116, 48);">
<rect width="100" height="100"/>
</g></g><g transform="translate(221,247) scale(0.13,0.13)"><g transform="" style="fill: rgb(255, 116, 48);">
<rect width="100" height="100"/>
</g></g><g transform="translate(247,247) scale(0.13,0.13)"><g transform="" style="fill: rgb(255, 116, 48);">
<polygon points="99.999,49.999 99.998,49.999 49.999,0 0,49.999 -0.001,49.999 -0.001,50 0,50 49.999,99.999 99.998,50 99.999,50 
	99.998,50 "/>
</g></g><g transform="translate(273,247) scale(0.13,0.13)"><g transform="" style="fill: rgb(255, 116, 48);">
<g>
	<path d="M100,34.375V0H34.375C24.87,0,16.764,3.353,10.059,10.059S0,24.87,0,34.375V100h100V34.375z"/>
</g>
</g></g><g transform="translate(286,247) scale(0.13,0.13)"><g transform="" style="fill: rgb(255, 116, 48);">
<rect width="100" height="100"/>
</g></g><g transform="translate(299,247) scale(0.13,0.13)"><g transform="" style="fill: rgb(255, 116, 48);">
<g>
	<path d="M100,34.375c0-9.505-3.354-17.611-10.059-24.316S75.131,0,65.625,0H0v100h100V34.375z"/>
</g>
</g></g><g transform="translate(338,247) scale(0.13,0.13)"><g transform="" style="fill: rgb(255, 116, 48);">
<rect width="100" height="100"/>
</g></g><g transform="translate(13,260) scale(0.13,0.13)"><g transform="" style="fill: rgb(255, 116, 48);">
<polygon points="100,100 0,50 0,50 100,0 "/>
</g></g><g transform="translate(26,260) scale(0.13,0.13)"><g transform="" style="fill: rgb(255, 116, 48);">
<rect width="100" height="100"/>
</g></g><g transform="translate(39,260) scale(0.13,0.13)"><g transform="" style="fill: rgb(255, 116, 48);">
<g>
	<path d="M100,0H0v100h65.625c9.506,0,17.611-3.354,24.316-10.059S100,75.131,100,65.625V0z"/>
</g>
</g></g><g transform="translate(78,260) scale(0.13,0.13)"><g transform="" style="fill: rgb(255, 116, 48);">
<polygon points="99.999,49.999 99.998,49.999 49.999,0 0,49.999 -0.001,49.999 -0.001,50 0,50 49.999,99.999 99.998,50 99.999,50 
	99.998,50 "/>
</g></g><g transform="translate(104,260) scale(0.13,0.13)"><g transform="" style="fill: rgb(255, 116, 48);">
<rect width="100" height="100"/>
</g></g><g transform="translate(130,260) scale(0.13,0.13)"><g transform="" style="fill: rgb(255, 116, 48);">
<g>
	<path d="M100,0H0v65.625c0,9.506,3.353,17.611,10.059,24.316S24.87,100,34.375,100H100V0z"/>
</g>
</g></g><g transform="translate(143,260) scale(0.13,0.13)"><g transform="" style="fill: rgb(255, 116, 48);">
<rect width="100" height="100"/>
</g></g><g transform="translate(169,260) scale(0.13,0.13)"><g transform="" style="fill: rgb(255, 116, 48);">
<polygon points="100,100 50,0 50,0 0,100 "/>
</g></g><g transform="translate(221,260) scale(0.13,0.13)"><g transform="" style="fill: rgb(255, 116, 48);">
<rect width="100" height="100"/>
</g></g><g transform="translate(260,260) scale(0.13,0.13)"><g transform="" style="fill: rgb(255, 116, 48);">
<g>
	<path d="M100,34.375V0H34.375C24.87,0,16.764,3.353,10.059,10.059S0,24.87,0,34.375V100h100V34.375z"/>
</g>
</g></g><g transform="translate(273,260) scale(0.13,0.13)"><g transform="" style="fill: rgb(255, 116, 48);">
<rect width="100" height="100"/>
</g></g><g transform="translate(286,260) scale(0.13,0.13)"><g transform="" style="fill: rgb(255, 116, 48);">
<rect width="100" height="100"/>
</g></g><g transform="translate(299,260) scale(0.13,0.13)"><g transform="" style="fill: rgb(255, 116, 48);">
<rect width="100" height="100"/>
</g></g><g transform="translate(312,260) scale(0.13,0.13)"><g transform="" style="fill: rgb(255, 116, 48);">
<rect width="100" height="100"/>
</g></g><g transform="translate(325,260) scale(0.13,0.13)"><g transform="" style="fill: rgb(255, 116, 48);">
<rect width="100" height="100"/>
</g></g><g transform="translate(338,260) scale(0.13,0.13)"><g transform="" style="fill: rgb(255, 116, 48);">
<rect width="100" height="100"/>
</g></g><g transform="translate(104,273) scale(0.13,0.13)"><g transform="" style="fill: rgb(255, 116, 48);">
<rect width="100" height="100"/>
</g></g><g transform="translate(143,273) scale(0.13,0.13)"><g transform="" style="fill: rgb(255, 116, 48);">
<g>
	<path d="M100,0H0v65.625c0,9.506,3.353,17.611,10.059,24.316S24.87,100,34.375,100H100V0z"/>
</g>
</g></g><g transform="translate(156,273) scale(0.13,0.13)"><g transform="" style="fill: rgb(255, 116, 48);">
<rect width="100" height="100"/>
</g></g><g transform="translate(169,273) scale(0.13,0.13)"><g transform="" style="fill: rgb(255, 116, 48);">
<rect width="100" height="100"/>
</g></g><g transform="translate(182,273) scale(0.13,0.13)"><g transform="" style="fill: rgb(255, 116, 48);">
<polygon points="0,100 100,50 100,50 0,0 "/>
</g></g><g transform="translate(221,273) scale(0.13,0.13)"><g transform="" style="fill: rgb(255, 116, 48);">
<rect width="100" height="100"/>
</g></g><g transform="translate(234,273) scale(0.13,0.13)"><g transform="" style="fill: rgb(255, 116, 48);">
<g>
	<path d="M100,34.375c0-9.505-3.354-17.611-10.059-24.316S75.131,0,65.625,0H0v100h100V34.375z"/>
</g>
</g></g><g transform="translate(260,273) scale(0.13,0.13)"><g transform="" style="fill: rgb(255, 116, 48);">
<rect width="100" height="100"/>
</g></g><g transform="translate(312,273) scale(0.13,0.13)"><g transform="" style="fill: rgb(255, 116, 48);">
<rect width="100" height="100"/>
</g></g><g transform="translate(325,273) scale(0.13,0.13)"><g transform="" style="fill: rgb(255, 116, 48);">
<rect width="100" height="100"/>
</g></g><g transform="translate(338,273) scale(0.13,0.13)"><g transform="" style="fill: rgb(255, 116, 48);">
<rect width="100" height="100"/>
</g></g><g transform="translate(351,273) scale(0.13,0.13)"><g transform="" style="fill: rgb(255, 116, 48);">
<rect width="100" height="100"/>
</g></g><g transform="translate(364,273) scale(0.13,0.13)"><g transform="" style="fill: rgb(255, 116, 48);">
<polygon points="0,100 100,50 100,50 0,0 "/>
</g></g><g transform="translate(104,286) scale(0.13,0.13)"><g transform="" style="fill: rgb(255, 116, 48);">
<rect width="100" height="100"/>
</g></g><g transform="translate(169,286) scale(0.13,0.13)"><g transform="" style="fill: rgb(255, 116, 48);">
<polygon points="0,-0.001 50,99.999 50,99.999 100,-0.001 "/>
</g></g><g transform="translate(208,286) scale(0.13,0.13)"><g transform="" style="fill: rgb(255, 116, 48);">
<polygon points="100,100 0,50 0,50 100,0 "/>
</g></g><g transform="translate(221,286) scale(0.13,0.13)"><g transform="" style="fill: rgb(255, 116, 48);">
<rect width="100" height="100"/>
</g></g><g transform="translate(234,286) scale(0.13,0.13)"><g transform="" style="fill: rgb(255, 116, 48);">
<rect width="100" height="100"/>
</g></g><g transform="translate(247,286) scale(0.13,0.13)"><g transform="" style="fill: rgb(255, 116, 48);">
<rect width="100" height="100"/>
</g></g><g transform="translate(260,286) scale(0.13,0.13)"><g transform="" style="fill: rgb(255, 116, 48);">
<rect width="100" height="100"/>
</g></g><g transform="translate(286,286) scale(0.13,0.13)"><g transform="" style="fill: rgb(255, 116, 48);">
<polygon points="99.999,49.999 99.998,49.999 49.999,0 0,49.999 -0.001,49.999 -0.001,50 0,50 49.999,99.999 99.998,50 99.999,50 
	99.998,50 "/>
</g></g><g transform="translate(312,286) scale(0.13,0.13)"><g transform="" style="fill: rgb(255, 116, 48);">
<rect width="100" height="100"/>
</g></g><g transform="translate(325,286) scale(0.13,0.13)"><g transform="" style="fill: rgb(255, 116, 48);">
<rect width="100" height="100"/>
</g></g><g transform="translate(351,286) scale(0.13,0.13)"><g transform="" style="fill: rgb(255, 116, 48);">
<rect width="100" height="100"/>
</g></g><g transform="translate(104,299) scale(0.13,0.13)"><g transform="" style="fill: rgb(255, 116, 48);">
<polygon points="0,-0.001 50,99.999 50,99.999 100,-0.001 "/>
</g></g><g transform="translate(143,299) scale(0.13,0.13)"><g transform="" style="fill: rgb(255, 116, 48);">
<polygon points="100,100 50,0 50,0 0,100 "/>
</g></g><g transform="translate(195,299) scale(0.13,0.13)"><g transform="" style="fill: rgb(255, 116, 48);">
<polygon points="100,100 50,0 50,0 0,100 "/>
</g></g><g transform="translate(234,299) scale(0.13,0.13)"><g transform="" style="fill: rgb(255, 116, 48);">
<rect width="100" height="100"/>
</g></g><g transform="translate(247,299) scale(0.13,0.13)"><g transform="" style="fill: rgb(255, 116, 48);">
<rect width="100" height="100"/>
</g></g><g transform="translate(260,299) scale(0.13,0.13)"><g transform="" style="fill: rgb(255, 116, 48);">
<rect width="100" height="100"/>
</g></g><g transform="translate(312,299) scale(0.13,0.13)"><g transform="" style="fill: rgb(255, 116, 48);">
<rect width="100" height="100"/>
</g></g><g transform="translate(325,299) scale(0.13,0.13)"><g transform="" style="fill: rgb(255, 116, 48);">
<g>
	<path d="M100,0H0v100h65.625c9.506,0,17.611-3.354,24.316-10.059S100,75.131,100,65.625V0z"/>
</g>
</g></g><g transform="translate(351,299) scale(0.13,0.13)"><g transform="" style="fill: rgb(255, 116, 48);">
<g>
	<path d="M100,0H0v65.625c0,9.506,3.353,17.611,10.059,24.316S24.87,100,34.375,100H100V0z"/>
</g>
</g></g><g transform="translate(364,299) scale(0.13,0.13)"><g transform="" style="fill: rgb(255, 116, 48);">
<polygon points="0,100 100,50 100,50 0,0 "/>
</g></g><g transform="translate(143,312) scale(0.13,0.13)"><g transform="" style="fill: rgb(255, 116, 48);">
<g>
	<path d="M100,0H0v65.625c0,9.506,3.353,17.611,10.059,24.316S24.87,100,34.375,100H100V0z"/>
</g>
</g></g><g transform="translate(156,312) scale(0.13,0.13)"><g transform="" style="fill: rgb(255, 116, 48);">
<g>
	<path d="M100,34.375c0-9.505-3.354-17.611-10.059-24.316S75.131,0,65.625,0H0v100h100V34.375z"/>
</g>
</g></g><g transform="translate(182,312) scale(0.13,0.13)"><g transform="" style="fill: rgb(255, 116, 48);">
<g>
	<path d="M100,34.375V0H34.375C24.87,0,16.764,3.353,10.059,10.059S0,24.87,0,34.375V100h100V34.375z"/>
</g>
</g></g><g transform="translate(195,312) scale(0.13,0.13)"><g transform="" style="fill: rgb(255, 116, 48);">
<rect width="100" height="100"/>
</g></g><g transform="translate(208,312) scale(0.13,0.13)"><g transform="" style="fill: rgb(255, 116, 48);">
<rect width="100" height="100"/>
</g></g><g transform="translate(221,312) scale(0.13,0.13)"><g transform="" style="fill: rgb(255, 116, 48);">
<rect width="100" height="100"/>
</g></g><g transform="translate(234,312) scale(0.13,0.13)"><g transform="" style="fill: rgb(255, 116, 48);">
<rect width="100" height="100"/>
</g></g><g transform="translate(260,312) scale(0.13,0.13)"><g transform="" style="fill: rgb(255, 116, 48);">
<g>
	<path d="M100,0H0v65.625c0,9.506,3.353,17.611,10.059,24.316S24.87,100,34.375,100H100V0z"/>
</g>
</g></g><g transform="translate(273,312) scale(0.13,0.13)"><g transform="" style="fill: rgb(255, 116, 48);">
<rect width="100" height="100"/>
</g></g><g transform="translate(286,312) scale(0.13,0.13)"><g transform="" style="fill: rgb(255, 116, 48);">
<rect width="100" height="100"/>
</g></g><g transform="translate(299,312) scale(0.13,0.13)"><g transform="" style="fill: rgb(255, 116, 48);">
<rect width="100" height="100"/>
</g></g><g transform="translate(312,312) scale(0.13,0.13)"><g transform="" style="fill: rgb(255, 116, 48);">
<rect width="100" height="100"/>
</g></g><g transform="translate(338,312) scale(0.13,0.13)"><g transform="" style="fill: rgb(255, 116, 48);">
<polygon points="99.999,49.999 99.998,49.999 49.999,0 0,49.999 -0.001,49.999 -0.001,50 0,50 49.999,99.999 99.998,50 99.999,50 
	99.998,50 "/>
</g></g><g transform="translate(104,325) scale(0.13,0.13)"><g transform="" style="fill: rgb(255, 116, 48);">
<polygon points="100,100 50,0 50,0 0,100 "/>
</g></g><g transform="translate(156,325) scale(0.13,0.13)"><g transform="" style="fill: rgb(255, 116, 48);">
<rect width="100" height="100"/>
</g></g><g transform="translate(182,325) scale(0.13,0.13)"><g transform="" style="fill: rgb(255, 116, 48);">
<rect width="100" height="100"/>
</g></g><g transform="translate(195,325) scale(0.13,0.13)"><g transform="" style="fill: rgb(255, 116, 48);">
<g>
	<path d="M100,0H0v100h65.625c9.506,0,17.611-3.354,24.316-10.059S100,75.131,100,65.625V0z"/>
</g>
</g></g><g transform="translate(234,325) scale(0.13,0.13)"><g transform="" style="fill: rgb(255, 116, 48);">
<g>
	<path d="M100,0H0v65.625c0,9.506,3.353,17.611,10.059,24.316S24.87,100,34.375,100H100V0z"/>
</g>
</g></g><g transform="translate(247,325) scale(0.13,0.13)"><g transform="" style="fill: rgb(255, 116, 48);">
<polygon points="0,100 100,50 100,50 0,0 "/>
</g></g><g transform="translate(273,325) scale(0.13,0.13)"><g transform="" style="fill: rgb(255, 116, 48);">
<rect width="100" height="100"/>
</g></g><g transform="translate(312,325) scale(0.13,0.13)"><g transform="" style="fill: rgb(255, 116, 48);">
<g>
	<path d="M100,0H0v65.625c0,9.506,3.353,17.611,10.059,24.316S24.87,100,34.375,100H100V0z"/>
</g>
</g></g><g transform="translate(325,325) scale(0.13,0.13)"><g transform="" style="fill: rgb(255, 116, 48);">
<polygon points="0,100 100,50 100,50 0,0 "/>
</g></g><g transform="translate(364,325) scale(0.13,0.13)"><g transform="" style="fill: rgb(255, 116, 48);">
<polygon points="100,100 50,0 50,0 0,100 "/>
</g></g><g transform="translate(104,338) scale(0.13,0.13)"><g transform="" style="fill: rgb(255, 116, 48);">
<polygon points="0,-0.001 50,99.999 50,99.999 100,-0.001 "/>
</g></g><g transform="translate(156,338) scale(0.13,0.13)"><g transform="" style="fill: rgb(255, 116, 48);">
<rect width="100" height="100"/>
</g></g><g transform="translate(169,338) scale(0.13,0.13)"><g transform="" style="fill: rgb(255, 116, 48);">
<rect width="100" height="100"/>
</g></g><g transform="translate(182,338) scale(0.13,0.13)"><g transform="" style="fill: rgb(255, 116, 48);">
<rect width="100" height="100"/>
</g></g><g transform="translate(273,338) scale(0.13,0.13)"><g transform="" style="fill: rgb(255, 116, 48);">
<rect width="100" height="100"/>
</g></g><g transform="translate(299,338) scale(0.13,0.13)"><g transform="" style="fill: rgb(255, 116, 48);">
<polygon points="100,100 50,0 50,0 0,100 "/>
</g></g><g transform="translate(338,338) scale(0.13,0.13)"><g transform="" style="fill: rgb(255, 116, 48);">
<polygon points="99.999,49.999 99.998,49.999 49.999,0 0,49.999 -0.001,49.999 -0.001,50 0,50 49.999,99.999 99.998,50 99.999,50 
	99.998,50 "/>
</g></g><g transform="translate(364,338) scale(0.13,0.13)"><g transform="" style="fill: rgb(255, 116, 48);">
<polygon points="0,-0.001 50,99.999 50,99.999 100,-0.001 "/>
</g></g><g transform="translate(117,351) scale(0.13,0.13)"><g transform="" style="fill: rgb(255, 116, 48);">
<g>
	<path d="M100,34.375V0H34.375C24.87,0,16.764,3.353,10.059,10.059S0,24.87,0,34.375V100h100V34.375z"/>
</g>
</g></g><g transform="translate(130,351) scale(0.13,0.13)"><g transform="" style="fill: rgb(255, 116, 48);">
<polygon points="0,100 100,50 100,50 0,0 "/>
</g></g><g transform="translate(156,351) scale(0.13,0.13)"><g transform="" style="fill: rgb(255, 116, 48);">
<rect width="100" height="100"/>
</g></g><g transform="translate(169,351) scale(0.13,0.13)"><g transform="" style="fill: rgb(255, 116, 48);">
<rect width="100" height="100"/>
</g></g><g transform="translate(182,351) scale(0.13,0.13)"><g transform="" style="fill: rgb(255, 116, 48);">
<rect width="100" height="100"/>
</g></g><g transform="translate(195,351) scale(0.13,0.13)"><g transform="" style="fill: rgb(255, 116, 48);">
<g>
	<path d="M100,34.375c0-9.505-3.354-17.611-10.059-24.316S75.131,0,65.625,0H0v100h100V34.375z"/>
</g>
</g></g><g transform="translate(260,351) scale(0.13,0.13)"><g transform="" style="fill: rgb(255, 116, 48);">
<g>
	<path d="M100,34.375V0H34.375C24.87,0,16.764,3.353,10.059,10.059S0,24.87,0,34.375V100h100V34.375z"/>
</g>
</g></g><g transform="translate(273,351) scale(0.13,0.13)"><g transform="" style="fill: rgb(255, 116, 48);">
<g>
	<path d="M100,0H0v100h65.625c9.506,0,17.611-3.354,24.316-10.059S100,75.131,100,65.625V0z"/>
</g>
</g></g><g transform="translate(299,351) scale(0.13,0.13)"><g transform="" style="fill: rgb(255, 116, 48);">
<polygon points="0,-0.001 50,99.999 50,99.999 100,-0.001 "/>
</g></g><g transform="translate(325,351) scale(0.13,0.13)"><g transform="" style="fill: rgb(255, 116, 48);">
<polygon points="99.999,49.999 99.998,49.999 49.999,0 0,49.999 -0.001,49.999 -0.001,50 0,50 49.999,99.999 99.998,50 99.999,50 
	99.998,50 "/>
</g></g><g transform="translate(351,351) scale(0.13,0.13)"><g transform="" style="fill: rgb(255, 116, 48);">
<polygon points="100,100 50,0 50,0 0,100 "/>
</g></g><g transform="translate(104,364) scale(0.13,0.13)"><g transform="" style="fill: rgb(255, 116, 48);">
<polygon points="100,100 0,50 0,50 100,0 "/>
</g></g><g transform="translate(117,364) scale(0.13,0.13)"><g transform="" style="fill: rgb(255, 116, 48);">
<g>
	<path d="M100,0H0v100h65.625c9.506,0,17.611-3.354,24.316-10.059S100,75.131,100,65.625V0z"/>
</g>
</g></g><g transform="translate(156,364) scale(0.13,0.13)"><g transform="" style="fill: rgb(255, 116, 48);">
<polygon points="0,-0.001 50,99.999 50,99.999 100,-0.001 "/>
</g></g><g transform="translate(195,364) scale(0.13,0.13)"><g transform="" style="fill: rgb(255, 116, 48);">
<g>
	<path d="M100,0H0v65.625c0,9.506,3.353,17.611,10.059,24.316S24.87,100,34.375,100H100V0z"/>
</g>
</g></g><g transform="translate(208,364) scale(0.13,0.13)"><g transform="" style="fill: rgb(255, 116, 48);">
<polygon points="0,100 100,50 100,50 0,0 "/>
</g></g><g transform="translate(247,364) scale(0.13,0.13)"><g transform="" style="fill: rgb(255, 116, 48);">
<polygon points="100,100 0,50 0,50 100,0 "/>
</g></g><g transform="translate(260,364) scale(0.13,0.13)"><g transform="" style="fill: rgb(255, 116, 48);">
<g>
	<path d="M100,0H0v100h65.625c9.506,0,17.611-3.354,24.316-10.059S100,75.131,100,65.625V0z"/>
</g>
</g></g><g transform="translate(286,364) scale(0.13,0.13)"><g transform="" style="fill: rgb(255, 116, 48);">
<polygon points="99.999,49.999 99.998,49.999 49.999,0 0,49.999 -0.001,49.999 -0.001,50 0,50 49.999,99.999 99.998,50 99.999,50 
	99.998,50 "/>
</g></g><g transform="translate(312,364) scale(0.13,0.13)"><g transform="" style="fill: rgb(255, 116, 48);">
<polygon points="99.999,49.999 99.998,49.999 49.999,0 0,49.999 -0.001,49.999 -0.001,50 0,50 49.999,99.999 99.998,50 99.999,50 
	99.998,50 "/>
</g></g><g transform="translate(351,364) scale(0.13,0.13)"><g transform="" style="fill: rgb(255, 116, 48);">
<polygon points="0,-0.001 50,99.999 50,99.999 100,-0.001 "/>
</g></g><g transform="translate(0,0) scale(0.91, 0.91)"><g transform=" translate(100, 0) scale(-1,1) " style="fill: rgb(255, 116, 48);">
<g>
	<path style="fill:none;" d="M85,66.221V33.75C85,23.411,76.414,15,65.859,15H34.14C23.586,15,15,23.411,15,33.75v51.246
		l50.855-0.016C76.414,84.98,85,76.564,85,66.221z"/>
	<path d="M100,66.221V33.75C100,15.141,84.68,0,65.859,0H34.14C15.32,0,0,15.141,0,33.75V100l65.859-0.02
		C84.68,99.98,100,84.84,100,66.221z M85,66.221c0,10.344-8.586,18.76-19.145,18.76L15,84.996V33.75C15,23.411,23.586,15,34.14,15
		h31.719C76.414,15,85,23.411,85,33.75V66.221z"/>
</g>
</g></g><g transform="translate(286,0) scale(0.91, 0.91)"><g transform="" style="fill: rgb(255, 116, 48);">
<g>
	<path style="fill:none;" d="M85,66.221V33.75C85,23.411,76.414,15,65.859,15H34.14C23.586,15,15,23.411,15,33.75v51.246
		l50.855-0.016C76.414,84.98,85,76.564,85,66.221z"/>
	<path d="M100,66.221V33.75C100,15.141,84.68,0,65.859,0H34.14C15.32,0,0,15.141,0,33.75V100l65.859-0.02
		C84.68,99.98,100,84.84,100,66.221z M85,66.221c0,10.344-8.586,18.76-19.145,18.76L15,84.996V33.75C15,23.411,23.586,15,34.14,15
		h31.719C76.414,15,85,23.411,85,33.75V66.221z"/>
</g>
</g></g><g transform="translate(0,286) scale(0.91, 0.91)"><g transform=" translate(100, 0) scale(-1,1)  translate(0,100) scale(1,-1) " style="fill: rgb(255, 116, 48);">
<g>
	<path style="fill:none;" d="M85,66.221V33.75C85,23.411,76.414,15,65.859,15H34.14C23.586,15,15,23.411,15,33.75v51.246
		l50.855-0.016C76.414,84.98,85,76.564,85,66.221z"/>
	<path d="M100,66.221V33.75C100,15.141,84.68,0,65.859,0H34.14C15.32,0,0,15.141,0,33.75V100l65.859-0.02
		C84.68,99.98,100,84.84,100,66.221z M85,66.221c0,10.344-8.586,18.76-19.145,18.76L15,84.996V33.75C15,23.411,23.586,15,34.14,15
		h31.719C76.414,15,85,23.411,85,33.75V66.221z"/>
</g>
</g></g><g transform="translate(26,26) scale(0.39, 0.39)"><g transform="" style="fill: rgb(255, 116, 48);">
<polygon points="51.156,100 0,49.844 0,0 49.844,0 100,51.156 100,100 "/>
</g></g><g transform="translate(312,26) scale(0.39, 0.39)"><g transform=" translate(100, 0) scale(-1,1) " style="fill: rgb(255, 116, 48);">
<polygon points="51.156,100 0,49.844 0,0 49.844,0 100,51.156 100,100 "/>
</g></g><g transform="translate(26,312) scale(0.39, 0.39)"><g transform=" translate(0,100) scale(1,-1) " style="fill: rgb(255, 116, 48);">
<polygon points="51.156,100 0,49.844 0,0 49.844,0 100,51.156 100,100 "/>
</g></g></g></svg>