<?xml version="1.0" encoding="UTF-8" standalone="no"?>
<svg
   xmlns:dc="http://purl.org/dc/elements/1.1/"
   xmlns:cc="http://creativecommons.org/ns#"
   xmlns:rdf="http://www.w3.org/1999/02/22-rdf-syntax-ns#"
   xmlns:svg="http://www.w3.org/2000/svg"
   xmlns="http://www.w3.org/2000/svg"
   xmlns:sodipodi="http://sodipodi.sourceforge.net/DTD/sodipodi-0.dtd"
   xmlns:inkscape="http://www.inkscape.org/namespaces/inkscape"
   width="2500"
   height="2500"
   viewBox="0 0 377.764 377.764"
   version="1.1"
   id="svg8"
   sodipodi:docname="gordon-stevens-email-logo-0.svg"
   inkscape:export-filename="C:\Users\t1tmbit\Desktop\GORDONSTEVENSCA\Site2\img\gsfc-logo-linemessenger-1-300x300.png"
   inkscape:export-xdpi="11.52"
   inkscape:export-ydpi="11.52"
   inkscape:version="1.0.1 (3bc2e813f5, 2020-09-07)">
  <metadata
     id="metadata14">
    <rdf:RDF>
      <cc:Work
         rdf:about="">
        <dc:format>image/svg+xml</dc:format>
        <dc:type
           rdf:resource="http://purl.org/dc/dcmitype/StillImage" />
        <dc:title></dc:title>
      </cc:Work>
    </rdf:RDF>
  </metadata>
  <defs
     id="defs12">
    <rect
       x="265.71536"
       y="202.48791"
       width="22.809903"
       height="10.004343"
       id="rect21" />
    <rect
       x="136.85942"
       y="129.65629"
       width="74.832487"
       height="8.803822"
       id="rect15" />
  </defs>
  <sodipodi:namedview
     pagecolor="#ffffff"
     bordercolor="#666666"
     borderopacity="1"
     objecttolerance="10"
     gridtolerance="10"
     guidetolerance="10"
     inkscape:pageopacity="0"
     inkscape:pageshadow="2"
     inkscape:window-width="1920"
     inkscape:window-height="1027"
     id="namedview10"
     showgrid="false"
     inkscape:zoom="0.13350176"
     inkscape:cx="-1071.486"
     inkscape:cy="51.429874"
     inkscape:window-x="-8"
     inkscape:window-y="1077"
     inkscape:window-maximized="1"
     inkscape:current-layer="svg8"
     inkscape:document-rotation="0" />
  <path
     fill-rule="evenodd"
     clip-rule="evenodd"
     fill="#3ACE01"
     d="M77.315 0h223.133c42.523 0 77.315 34.792 77.315 77.315v223.133c0 42.523-34.792 77.315-77.315 77.315H77.315C34.792 377.764 0 342.972 0 300.448V77.315C0 34.792 34.792 0 77.315 0z"
     id="path2"
     style="fill:#552700;fill-opacity:1" />
  <path
     fill-rule="evenodd"
     clip-rule="evenodd"
     fill="#FFF"
     d="m 190.51587,62.175826 c 76.543,0 138.593,49.687004 138.593,110.979004 0,21.409 -7.576,41.398 -20.691,58.351 -0.649,0.965 -1.497,2.031 -2.566,3.209 l -0.081,0.088 c -4.48,5.36 -9.525,10.392 -15.072,15.037 -38.326,35.425 -101.41,77.601 -109.736,71.094 -7.238,-5.656 11.921,-33.321 -10.183,-37.925 -1.542,-0.177 -3.08,-0.367 -4.605,-0.583 l -0.029,-0.002 v -0.002 c -64.921,-9.223 -114.222001,-54.634 -114.222001,-109.267 -0.002,-61.292 62.049001,-110.979004 138.592001,-110.979004 z"
     id="path4"
     style="fill:#804515;fill-opacity:1" />
  <text
     xml:space="preserve"
     style="font-style:normal;font-weight:normal;font-size:83.4304px;line-height:1.15;font-family:sans-serif;fill:#ffd1aa;fill-opacity:1;stroke:none;stroke-width:0.434536"
     x="69.767937"
     y="201.14049"
     id="text11"
     transform="scale(1.0141389,0.98605823)"><tspan
       sodipodi:role="line"
       id="tspan9"
       x="69.767937"
       y="201.14049"
       style="font-style:normal;font-variant:normal;font-weight:normal;font-stretch:normal;font-size:83.4304px;font-family:Cambria;-inkscape-font-specification:Cambria;fill:#ffd1aa;fill-opacity:1;stroke-width:0.434536">E-mail</tspan></text>
  <text
     xml:space="preserve"
     id="text13"
     style="fill:black;fill-opacity:1;line-height:1.25;stroke:none;font-family:sans-serif;font-style:normal;font-weight:normal;font-size:6.044224px;white-space:pre;shape-inside:url(#rect15);" />
  <text
     xml:space="preserve"
     id="text19"
     style="fill:black;fill-opacity:1;line-height:1.25;stroke:none;font-family:sans-serif;font-style:normal;font-weight:normal;font-size:6.044224px;white-space:pre;shape-inside:url(#rect21);" />
</svg>
