<svg xmlns="http://www.w3.org/2000/svg" width="410" height="410" xml:space="preserve">
    <path fill="#1B1B1F" d="M0 0h410v410H0z"/>
    <path d="M100 100 50 0 0 100z" transform="matrix(.1 0 0 .1 120 20)" style="fill:#ff7430"/>
    <path d="M100 100 0 50 100 0z" transform="matrix(.1 0 0 .1 170 20)" style="fill:#ff7430"/>
    <path d="M100 34.375c0-9.505-3.354-17.611-10.059-24.316S75.131 0 65.625 0H0v100h100V34.375z" transform="matrix(.1 0 0 .1 180 20)" style="fill:#ff7430"/>
    <path d="M100 34.375V0H34.375C24.87 0 16.764 3.353 10.059 10.059S0 24.87 0 34.375V100h100V34.375z" transform="matrix(.1 0 0 .1 210 20)" style="fill:#ff7430"/>
    <path d="M100 34.375c0-9.505-3.354-17.611-10.059-24.316S75.131 0 65.625 0H0v100h100V34.375z" transform="matrix(.1 0 0 .1 220 20)" style="fill:#ff7430"/>
    <path d="M100 100 50 0 0 100z" transform="matrix(.1 0 0 .1 250 20)" style="fill:#ff7430"/>
    <path d="M99.999 49.999h-.001L49.999 0 0 49.999h-.001V50H0l49.999 49.999L99.998 50h.001-.001z" transform="matrix(.1 0 0 .1 300 20)" style="fill:#ff7430"/>
    <path d="m0-.001 50 100 50-100z" transform="matrix(.1 0 0 .1 120 30)" style="fill:#ff7430"/>
    <path d="M100 100 0 50 100 0z" transform="matrix(.1 0 0 .1 140 30)" style="fill:#ff7430"/>
    <path d="m0 100 100-50L0 0z" transform="matrix(.1 0 0 .1 150 30)" style="fill:#ff7430"/>
    <path d="M0 0h100v100H0z" transform="matrix(.1 0 0 .1 180 30)" style="fill:#ff7430"/>
    <path d="M100 34.375V0H34.375C24.87 0 16.764 3.353 10.059 10.059S0 24.87 0 34.375V100h100V34.375z" transform="matrix(.1 0 0 .1 200 30)" style="fill:#ff7430"/>
    <path d="M0 0h100v100H0z" transform="matrix(.1 0 0 .1 210 30)" style="fill:#ff7430"/>
    <path d="M0 0h100v100H0z" transform="matrix(.1 0 0 .1 220 30)" style="fill:#ff7430"/>
    <path d="M0 0h100v100H0z" transform="matrix(.1 0 0 .1 230 30)" style="fill:#ff7430"/>
    <path d="M0 0h100v100H0z" transform="matrix(.1 0 0 .1 240 30)" style="fill:#ff7430"/>
    <path d="M0 0h100v100H0z" transform="matrix(.1 0 0 .1 250 30)" style="fill:#ff7430"/>
    <path d="M0 0h100v100H0z" transform="matrix(.1 0 0 .1 260 30)" style="fill:#ff7430"/>
    <path d="M100 34.375c0-9.505-3.354-17.611-10.059-24.316S75.131 0 65.625 0H0v100h100V34.375z" transform="matrix(.1 0 0 .1 270 30)" style="fill:#ff7430"/>
    <path d="M100 100 50 0 0 100z" transform="matrix(.1 0 0 .1 130 40)" style="fill:#ff7430"/>
    <path d="M100 34.375V0H34.375C24.87 0 16.764 3.353 10.059 10.059S0 24.87 0 34.375V100h100V34.375z" transform="matrix(.1 0 0 .1 160 40)" style="fill:#ff7430"/>
    <path d="M0 0h100v100H0z" transform="matrix(.1 0 0 .1 170 40)" style="fill:#ff7430"/>
    <path d="M0 0h100v100H0z" transform="matrix(.1 0 0 .1 180 40)" style="fill:#ff7430"/>
    <path d="M0 0h100v100H0z" transform="matrix(.1 0 0 .1 190 40)" style="fill:#ff7430"/>
    <path d="M0 0h100v100H0z" transform="matrix(.1 0 0 .1 200 40)" style="fill:#ff7430"/>
    <path d="M0 0h100v100H0z" transform="matrix(.1 0 0 .1 210 40)" style="fill:#ff7430"/>
    <path d="M0 0h100v100H0z" transform="matrix(.1 0 0 .1 220 40)" style="fill:#ff7430"/>
    <path d="M0 0h100v100H0z" transform="matrix(.1 0 0 .1 230 40)" style="fill:#ff7430"/>
    <path d="M0 0h100v100H0z" transform="matrix(.1 0 0 .1 240 40)" style="fill:#ff7430"/>
    <path d="M0 0h100v100H0z" transform="matrix(.1 0 0 .1 250 40)" style="fill:#ff7430"/>
    <path d="M0 0h100v100H0z" transform="matrix(.1 0 0 .1 260 40)" style="fill:#ff7430"/>
    <path d="M0 0h100v100H0z" transform="matrix(.1 0 0 .1 270 40)" style="fill:#ff7430"/>
    <path d="M100 34.375c0-9.505-3.354-17.611-10.059-24.316S75.131 0 65.625 0H0v100h100V34.375z" transform="matrix(.1 0 0 .1 280 40)" style="fill:#ff7430"/>
    <path d="M100 100 0 50 100 0z" transform="matrix(.1 0 0 .1 110 50)" style="fill:#ff7430"/>
    <path d="M0 0h100v100H0z" transform="matrix(.1 0 0 .1 120 50)" style="fill:#ff7430"/>
    <path d="M0 0h100v100H0z" transform="matrix(.1 0 0 .1 130 50)" style="fill:#ff7430"/>
    <path d="M100 34.375V0H34.375C24.87 0 16.764 3.353 10.059 10.059S0 24.87 0 34.375V100h100V34.375z" transform="matrix(.1 0 0 .1 150 50)" style="fill:#ff7430"/>
    <path d="M0 0h100v100H0z" transform="matrix(.1 0 0 .1 160 50)" style="fill:#ff7430"/>
    <path d="m0-.001 50 100 50-100z" transform="matrix(.1 0 0 .1 200 50)" style="fill:#ff7430"/>
    <path d="M100 0H0v65.625c0 9.506 3.353 17.611 10.059 24.316S24.87 100 34.375 100H100V0z" transform="matrix(.1 0 0 .1 240 50)" style="fill:#ff7430"/>
    <path d="M0 0h100v100H0z" transform="matrix(.1 0 0 .1 250 50)" style="fill:#ff7430"/>
    <path d="M0 0h100v100H0z" transform="matrix(.1 0 0 .1 260 50)" style="fill:#ff7430"/>
    <path d="M0 0h100v100H0z" transform="matrix(.1 0 0 .1 270 50)" style="fill:#ff7430"/>
    <path d="M0 0h100v100H0z" transform="matrix(.1 0 0 .1 280 50)" style="fill:#ff7430"/>
    <path d="M100 34.375c0-9.505-3.354-17.611-10.059-24.316S75.131 0 65.625 0H0v100h100V34.375z" transform="matrix(.1 0 0 .1 290 50)" style="fill:#ff7430"/>
    <path d="M99.999 49.999h-.001L49.999 0 0 49.999h-.001V50H0l49.999 49.999L99.998 50h.001-.001z" transform="matrix(.1 0 0 .1 100 60)" style="fill:#ff7430"/>
    <path d="M100 0H0v65.625c0 9.506 3.353 17.611 10.059 24.316S24.87 100 34.375 100H100V0z" transform="matrix(.1 0 0 .1 120 60)" style="fill:#ff7430"/>
    <path d="M100 0H0v100h65.625c9.506 0 17.611-3.354 24.316-10.059S100 75.131 100 65.625V0z" transform="matrix(.1 0 0 .1 130 60)" style="fill:#ff7430"/>
    <path d="M100 0H0v65.625c0 9.506 3.353 17.611 10.059 24.316S24.87 100 34.375 100H100V0z" transform="matrix(.1 0 0 .1 150 60)" style="fill:#ff7430"/>
    <path d="M0 0h100v100H0z" transform="matrix(.1 0 0 .1 160 60)" style="fill:#ff7430"/>
    <path d="M100 100 50 0 0 100z" transform="matrix(.1 0 0 .1 180 60)" style="fill:#ff7430"/>
    <path d="M100 100 0 50 100 0z" transform="matrix(.1 0 0 .1 220 60)" style="fill:#ff7430"/>
    <path d="M100 34.375c0-9.505-3.354-17.611-10.059-24.316S75.131 0 65.625 0H0v100h100V34.375z" transform="matrix(.1 0 0 .1 230 60)" style="fill:#ff7430"/>
    <path d="M100 0H0v65.625c0 9.506 3.353 17.611 10.059 24.316S24.87 100 34.375 100H100V0z" transform="matrix(.1 0 0 .1 250 60)" style="fill:#ff7430"/>
    <path d="M0 0h100v100H0z" transform="matrix(.1 0 0 .1 260 60)" style="fill:#ff7430"/>
    <path d="M100 0H0v65.625c0 9.506 3.353 17.611 10.059 24.316S24.87 100 34.375 100H100V0z" transform="matrix(.1 0 0 .1 280 60)" style="fill:#ff7430"/>
    <path d="M100 0H0v100h65.625c9.506 0 17.611-3.354 24.316-10.059S100 75.131 100 65.625V0z" transform="matrix(.1 0 0 .1 290 60)" style="fill:#ff7430"/>
    <path d="M99.999 49.999h-.001L49.999 0 0 49.999h-.001V50H0l49.999 49.999L99.998 50h.001-.001z" transform="matrix(.1 0 0 .1 110 70)" style="fill:#ff7430"/>
    <path d="M0 0h100v100H0z" transform="matrix(.1 0 0 .1 160 70)" style="fill:#ff7430"/>
    <path d="M0 0h100v100H0z" transform="matrix(.1 0 0 .1 180 70)" style="fill:#ff7430"/>
    <path d="M100 100 50 0 0 100z" transform="matrix(.1 0 0 .1 200 70)" style="fill:#ff7430"/>
    <path d="M100 0H0v65.625c0 9.506 3.353 17.611 10.059 24.316S24.87 100 34.375 100H100V0z" transform="matrix(.1 0 0 .1 230 70)" style="fill:#ff7430"/>
    <path d="M100 34.375c0-9.505-3.354-17.611-10.059-24.316S75.131 0 65.625 0H0v100h100V34.375z" transform="matrix(.1 0 0 .1 240 70)" style="fill:#ff7430"/>
    <path d="M0 0h100v100H0z" transform="matrix(.1 0 0 .1 260 70)" style="fill:#ff7430"/>
    <path d="M100 100 50 0 0 100z" transform="matrix(.1 0 0 .1 100 80)" style="fill:#ff7430"/>
    <path d="M100 100 50 0 0 100z" transform="matrix(.1 0 0 .1 120 80)" style="fill:#ff7430"/>
    <path d="M99.999 49.999h-.001L49.999 0 0 49.999h-.001V50H0l49.999 49.999L99.998 50h.001-.001z" transform="matrix(.1 0 0 .1 140 80)" style="fill:#ff7430"/>
    <path d="m0-.001 50 100 50-100z" transform="matrix(.1 0 0 .1 160 80)" style="fill:#ff7430"/>
    <path d="M0 0h100v100H0z" transform="matrix(.1 0 0 .1 180 80)" style="fill:#ff7430"/>
    <path d="M0 0h100v100H0z" transform="matrix(.1 0 0 .1 200 80)" style="fill:#ff7430"/>
    <path d="M99.999 49.999h-.001L49.999 0 0 49.999h-.001V50H0l49.999 49.999L99.998 50h.001-.001z" transform="matrix(.1 0 0 .1 220 80)" style="fill:#ff7430"/>
    <path d="M0 0h100v100H0z" transform="matrix(.1 0 0 .1 240 80)" style="fill:#ff7430"/>
    <path d="M0 0h100v100H0z" transform="matrix(.1 0 0 .1 260 80)" style="fill:#ff7430"/>
    <path d="M99.999 49.999h-.001L49.999 0 0 49.999h-.001V50H0l49.999 49.999L99.998 50h.001-.001z" transform="matrix(.1 0 0 .1 280 80)" style="fill:#ff7430"/>
    <path d="M100 100 50 0 0 100z" transform="matrix(.1 0 0 .1 300 80)" style="fill:#ff7430"/>
    <path d="M0 0h100v100H0z" transform="matrix(.1 0 0 .1 100 90)" style="fill:#ff7430"/>
    <path d="M0 0h100v100H0z" transform="matrix(.1 0 0 .1 110 90)" style="fill:#ff7430"/>
    <path d="M0 0h100v100H0z" transform="matrix(.1 0 0 .1 120 90)" style="fill:#ff7430"/>
    <path d="m0 100 100-50L0 0z" transform="matrix(.1 0 0 .1 130 90)" style="fill:#ff7430"/>
    <path d="M99.999 49.999h-.001L49.999 0 0 49.999h-.001V50H0l49.999 49.999L99.998 50h.001-.001z" transform="matrix(.1 0 0 .1 150 90)" style="fill:#ff7430"/>
    <path d="m0-.001 50 100 50-100z" transform="matrix(.1 0 0 .1 180 90)" style="fill:#ff7430"/>
    <path d="M0 0h100v100H0z" transform="matrix(.1 0 0 .1 200 90)" style="fill:#ff7430"/>
    <path d="M100 34.375V0H34.375C24.87 0 16.764 3.353 10.059 10.059S0 24.87 0 34.375V100h100V34.375z" transform="matrix(.1 0 0 .1 230 90)" style="fill:#ff7430"/>
    <path d="M100 0H0v100h65.625c9.506 0 17.611-3.354 24.316-10.059S100 75.131 100 65.625V0z" transform="matrix(.1 0 0 .1 240 90)" style="fill:#ff7430"/>
    <path d="M0 0h100v100H0z" transform="matrix(.1 0 0 .1 260 90)" style="fill:#ff7430"/>
    <path d="M100 34.375V0H34.375C24.87 0 16.764 3.353 10.059 10.059S0 24.87 0 34.375V100h100V34.375z" transform="matrix(.1 0 0 .1 290 90)" style="fill:#ff7430"/>
    <path d="M100 0H0v100h65.625c9.506 0 17.611-3.354 24.316-10.059S100 75.131 100 65.625V0z" transform="matrix(.1 0 0 .1 300 90)" style="fill:#ff7430"/>
    <path d="M100 100 0 50 100 0z" transform="matrix(.1 0 0 .1 40 100)" style="fill:#ff7430"/>
    <path d="M100 34.375c0-9.505-3.354-17.611-10.059-24.316S75.131 0 65.625 0H0v100h100V34.375z" transform="matrix(.1 0 0 .1 50 100)" style="fill:#ff7430"/>
    <path d="M100 100 0 50 100 0z" transform="matrix(.1 0 0 .1 80 100)" style="fill:#ff7430"/>
    <path d="M0 0h100v100H0z" transform="matrix(.1 0 0 .1 90 100)" style="fill:#ff7430"/>
    <path d="M0 0h100v100H0z" transform="matrix(.1 0 0 .1 100 100)" style="fill:#ff7430"/>
    <path d="M99.999 49.999h-.001L49.999 0 0 49.999h-.001V50H0l49.999 49.999L99.998 50h.001-.001z" transform="matrix(.1 0 0 .1 140 100)" style="fill:#ff7430"/>
    <path d="M100 100 50 0 0 100z" transform="matrix(.1 0 0 .1 170 100)" style="fill:#ff7430"/>
    <path d="M100 100 0 50 100 0z" transform="matrix(.1 0 0 .1 190 100)" style="fill:#ff7430"/>
    <path d="M100 0H0v100h65.625c9.506 0 17.611-3.354 24.316-10.059S100 75.131 100 65.625V0z" transform="matrix(.1 0 0 .1 200 100)" style="fill:#ff7430"/>
    <path d="M0 0h100v100H0z" transform="matrix(.1 0 0 .1 230 100)" style="fill:#ff7430"/>
    <path d="M0 0h100v100H0z" transform="matrix(.1 0 0 .1 260 100)" style="fill:#ff7430"/>
    <path d="m0-.001 50 100 50-100z" transform="matrix(.1 0 0 .1 290 100)" style="fill:#ff7430"/>
    <path d="M100 34.375V0H34.375C24.87 0 16.764 3.353 10.059 10.059S0 24.87 0 34.375V100h100V34.375z" transform="matrix(.1 0 0 .1 310 100)" style="fill:#ff7430"/>
    <path d="m0 100 100-50L0 0z" transform="matrix(.1 0 0 .1 320 100)" style="fill:#ff7430"/>
    <path d="M99.999 49.999h-.001L49.999 0 0 49.999h-.001V50H0l49.999 49.999L99.998 50h.001-.001z" transform="matrix(.1 0 0 .1 340 100)" style="fill:#ff7430"/>
    <path d="M99.999 49.999h-.001L49.999 0 0 49.999h-.001V50H0l49.999 49.999L99.998 50h.001-.001z" transform="matrix(.1 0 0 .1 20 110)" style="fill:#ff7430"/>
    <path d="m0-.001 50 100 50-100z" transform="matrix(.1 0 0 .1 50 110)" style="fill:#ff7430"/>
    <path d="M99.999 49.999h-.001L49.999 0 0 49.999h-.001V50H0l49.999 49.999L99.998 50h.001-.001z" transform="matrix(.1 0 0 .1 70 110)" style="fill:#ff7430"/>
    <path d="m0-.001 50 100 50-100z" transform="matrix(.1 0 0 .1 100 110)" style="fill:#ff7430"/>
    <path d="M100 100 50 0 0 100z" transform="matrix(.1 0 0 .1 130 110)" style="fill:#ff7430"/>
    <path d="M99.999 49.999h-.001L49.999 0 0 49.999h-.001V50H0l49.999 49.999L99.998 50h.001-.001z" transform="matrix(.1 0 0 .1 150 110)" style="fill:#ff7430"/>
    <path d="m0-.001 50 100 50-100z" transform="matrix(.1 0 0 .1 170 110)" style="fill:#ff7430"/>
    <path d="M100 100 0 50 100 0z" transform="matrix(.1 0 0 .1 210 110)" style="fill:#ff7430"/>
    <path d="M0 0h100v100H0z" transform="matrix(.1 0 0 .1 220 110)" style="fill:#ff7430"/>
    <path d="M0 0h100v100H0z" transform="matrix(.1 0 0 .1 230 110)" style="fill:#ff7430"/>
    <path d="M0 0h100v100H0z" transform="matrix(.1 0 0 .1 260 110)" style="fill:#ff7430"/>
    <path d="M100 34.375c0-9.505-3.354-17.611-10.059-24.316S75.131 0 65.625 0H0v100h100V34.375z" transform="matrix(.1 0 0 .1 270 110)" style="fill:#ff7430"/>
    <path d="M100 100 0 50 100 0z" transform="matrix(.1 0 0 .1 300 110)" style="fill:#ff7430"/>
    <path d="M0 0h100v100H0z" transform="matrix(.1 0 0 .1 310 110)" style="fill:#ff7430"/>
    <path d="M100 100 50 0 0 100z" transform="matrix(.1 0 0 .1 330 110)" style="fill:#ff7430"/>
    <path d="M100 100 50 0 0 100z" transform="matrix(.1 0 0 .1 360 110)" style="fill:#ff7430"/>
    <path d="M100 100 50 0 0 100z" transform="matrix(.1 0 0 .1 30 120)" style="fill:#ff7430"/>
    <path d="M100 100 0 50 100 0z" transform="matrix(.1 0 0 .1 80 120)" style="fill:#ff7430"/>
    <path d="M100 34.375c0-9.505-3.354-17.611-10.059-24.316S75.131 0 65.625 0H0v100h100V34.375z" transform="matrix(.1 0 0 .1 90 120)" style="fill:#ff7430"/>
    <path d="M99.999 49.999h-.001L49.999 0 0 49.999h-.001V50H0l49.999 49.999L99.998 50h.001-.001z" transform="matrix(.1 0 0 .1 110 120)" style="fill:#ff7430"/>
    <path d="m0-.001 50 100 50-100z" transform="matrix(.1 0 0 .1 130 120)" style="fill:#ff7430"/>
    <path d="M100 100 50 0 0 100z" transform="matrix(.1 0 0 .1 190 120)" style="fill:#ff7430"/>
    <path d="M100 0H0v65.625c0 9.506 3.353 17.611 10.059 24.316S24.87 100 34.375 100H100V0z" transform="matrix(.1 0 0 .1 230 120)" style="fill:#ff7430"/>
    <path d="M0 0h100v100H0z" transform="matrix(.1 0 0 .1 240 120)" style="fill:#ff7430"/>
    <path d="M0 0h100v100H0z" transform="matrix(.1 0 0 .1 250 120)" style="fill:#ff7430"/>
    <path d="M0 0h100v100H0z" transform="matrix(.1 0 0 .1 260 120)" style="fill:#ff7430"/>
    <path d="M0 0h100v100H0z" transform="matrix(.1 0 0 .1 270 120)" style="fill:#ff7430"/>
    <path d="m0-.001 50 100 50-100z" transform="matrix(.1 0 0 .1 310 120)" style="fill:#ff7430"/>
    <path d="M100 0H0v65.625c0 9.506 3.353 17.611 10.059 24.316S24.87 100 34.375 100H100V0z" transform="matrix(.1 0 0 .1 330 120)" style="fill:#ff7430"/>
    <path d="m0 100 100-50L0 0z" transform="matrix(.1 0 0 .1 340 120)" style="fill:#ff7430"/>
    <path d="M0 0h100v100H0z" transform="matrix(.1 0 0 .1 360 120)" style="fill:#ff7430"/>
    <path d="M100 34.375V0H34.375C24.87 0 16.764 3.353 10.059 10.059S0 24.87 0 34.375V100h100V34.375z" transform="matrix(.1 0 0 .1 20 130)" style="fill:#ff7430"/>
    <path d="M0 0h100v100H0z" transform="matrix(.1 0 0 .1 30 130)" style="fill:#ff7430"/>
    <path d="M100 34.375c0-9.505-3.354-17.611-10.059-24.316S75.131 0 65.625 0H0v100h100V34.375z" transform="matrix(.1 0 0 .1 40 130)" style="fill:#ff7430"/>
    <path d="M100 34.375V0H34.375C24.87 0 16.764 3.353 10.059 10.059S0 24.87 0 34.375V100h100V34.375z" transform="matrix(.1 0 0 .1 60 130)" style="fill:#ff7430"/>
    <path d="M100 34.375c0-9.505-3.354-17.611-10.059-24.316S75.131 0 65.625 0H0v100h100V34.375z" transform="matrix(.1 0 0 .1 70 130)" style="fill:#ff7430"/>
    <path d="m0-.001 50 100 50-100z" transform="matrix(.1 0 0 .1 90 130)" style="fill:#ff7430"/>
    <path d="M99.999 49.999h-.001L49.999 0 0 49.999h-.001V50H0l49.999 49.999L99.998 50h.001-.001z" transform="matrix(.1 0 0 .1 120 130)" style="fill:#ff7430"/>
    <path d="M100 100 0 50 100 0z" transform="matrix(.1 0 0 .1 140 130)" style="fill:#ff7430"/>
    <path d="m0 100 100-50L0 0z" transform="matrix(.1 0 0 .1 150 130)" style="fill:#ff7430"/>
    <path d="M100 100 0 50 100 0z" transform="matrix(.1 0 0 .1 180 130)" style="fill:#ff7430"/>
    <path d="M100 0H0v100h65.625c9.506 0 17.611-3.354 24.316-10.059S100 75.131 100 65.625V0z" transform="matrix(.1 0 0 .1 190 130)" style="fill:#ff7430"/>
    <path d="M100 100 50 0 0 100z" transform="matrix(.1 0 0 .1 210 130)" style="fill:#ff7430"/>
    <path d="M0 0h100v100H0z" transform="matrix(.1 0 0 .1 240 130)" style="fill:#ff7430"/>
    <path d="M0 0h100v100H0z" transform="matrix(.1 0 0 .1 270 130)" style="fill:#ff7430"/>
    <path d="M0 0h100v100H0z" transform="matrix(.1 0 0 .1 280 130)" style="fill:#ff7430"/>
    <path d="m0 100 100-50L0 0z" transform="matrix(.1 0 0 .1 290 130)" style="fill:#ff7430"/>
    <path d="M100 100 0 50 100 0z" transform="matrix(.1 0 0 .1 350 130)" style="fill:#ff7430"/>
    <path d="M0 0h100v100H0z" transform="matrix(.1 0 0 .1 360 130)" style="fill:#ff7430"/>
    <path d="M0 0h100v100H0z" transform="matrix(.1 0 0 .1 370 130)" style="fill:#ff7430"/>
    <path d="M100 34.375c0-9.505-3.354-17.611-10.059-24.316S75.131 0 65.625 0H0v100h100V34.375z" transform="matrix(.1 0 0 .1 380 130)" style="fill:#ff7430"/>
    <path d="M100 0H0v65.625c0 9.506 3.353 17.611 10.059 24.316S24.87 100 34.375 100H100V0z" transform="matrix(.1 0 0 .1 20 140)" style="fill:#ff7430"/>
    <path d="M0 0h100v100H0z" transform="matrix(.1 0 0 .1 30 140)" style="fill:#ff7430"/>
    <path d="M0 0h100v100H0z" transform="matrix(.1 0 0 .1 40 140)" style="fill:#ff7430"/>
    <path d="M0 0h100v100H0z" transform="matrix(.1 0 0 .1 50 140)" style="fill:#ff7430"/>
    <path d="M0 0h100v100H0z" transform="matrix(.1 0 0 .1 60 140)" style="fill:#ff7430"/>
    <path d="M0 0h100v100H0z" transform="matrix(.1 0 0 .1 70 140)" style="fill:#ff7430"/>
    <path d="m0 100 100-50L0 0z" transform="matrix(.1 0 0 .1 80 140)" style="fill:#ff7430"/>
    <path d="M100 34.375V0H34.375C24.87 0 16.764 3.353 10.059 10.059S0 24.87 0 34.375V100h100V34.375z" transform="matrix(.1 0 0 .1 100 140)" style="fill:#ff7430"/>
    <path d="M100 34.375c0-9.505-3.354-17.611-10.059-24.316S75.131 0 65.625 0H0v100h100V34.375z" transform="matrix(.1 0 0 .1 110 140)" style="fill:#ff7430"/>
    <path d="M99.999 49.999h-.001L49.999 0 0 49.999h-.001V50H0l49.999 49.999L99.998 50h.001-.001z" transform="matrix(.1 0 0 .1 130 140)" style="fill:#ff7430"/>
    <path d="M100 100 0 50 100 0z" transform="matrix(.1 0 0 .1 160 140)" style="fill:#ff7430"/>
    <path d="m0 100 100-50L0 0z" transform="matrix(.1 0 0 .1 170 140)" style="fill:#ff7430"/>
    <path d="M100 100 0 50 100 0z" transform="matrix(.1 0 0 .1 200 140)" style="fill:#ff7430"/>
    <path d="M0 0h100v100H0z" transform="matrix(.1 0 0 .1 210 140)" style="fill:#ff7430"/>
    <path d="m0 100 100-50L0 0z" transform="matrix(.1 0 0 .1 220 140)" style="fill:#ff7430"/>
    <path d="m0-.001 50 100 50-100z" transform="matrix(.1 0 0 .1 240 140)" style="fill:#ff7430"/>
    <path d="M0 0h100v100H0z" transform="matrix(.1 0 0 .1 270 140)" style="fill:#ff7430"/>
    <path d="M100 0H0v100h65.625c9.506 0 17.611-3.354 24.316-10.059S100 75.131 100 65.625V0z" transform="matrix(.1 0 0 .1 280 140)" style="fill:#ff7430"/>
    <path d="M100 100 0 50 100 0z" transform="matrix(.1 0 0 .1 310 140)" style="fill:#ff7430"/>
    <path d="M100 34.375c0-9.505-3.354-17.611-10.059-24.316S75.131 0 65.625 0H0v100h100V34.375z" transform="matrix(.1 0 0 .1 320 140)" style="fill:#ff7430"/>
    <path d="M100 100 50 0 0 100z" transform="matrix(.1 0 0 .1 340 140)" style="fill:#ff7430"/>
    <path d="M0 0h100v100H0z" transform="matrix(.1 0 0 .1 360 140)" style="fill:#ff7430"/>
    <path d="M0 0h100v100H0z" transform="matrix(.1 0 0 .1 380 140)" style="fill:#ff7430"/>
    <path d="M0 0h100v100H0z" transform="matrix(.1 0 0 .1 30 150)" style="fill:#ff7430"/>
    <path d="M0 0h100v100H0z" transform="matrix(.1 0 0 .1 50 150)" style="fill:#ff7430"/>
    <path d="m0-.001 50 100 50-100z" transform="matrix(.1 0 0 .1 70 150)" style="fill:#ff7430"/>
    <path d="M100 0H0v65.625c0 9.506 3.353 17.611 10.059 24.316S24.87 100 34.375 100H100V0z" transform="matrix(.1 0 0 .1 100 150)" style="fill:#ff7430"/>
    <path d="M0 0h100v100H0z" transform="matrix(.1 0 0 .1 110 150)" style="fill:#ff7430"/>
    <path d="M100 34.375c0-9.505-3.354-17.611-10.059-24.316S75.131 0 65.625 0H0v100h100V34.375z" transform="matrix(.1 0 0 .1 120 150)" style="fill:#ff7430"/>
    <path d="M0 0h100v100H0z" transform="matrix(.1 0 0 .1 270 150)" style="fill:#ff7430"/>
    <path d="M100 100 0 50 100 0z" transform="matrix(.1 0 0 .1 290 150)" style="fill:#ff7430"/>
    <path d="m0 100 100-50L0 0z" transform="matrix(.1 0 0 .1 300 150)" style="fill:#ff7430"/>
    <path d="M0 0h100v100H0z" transform="matrix(.1 0 0 .1 320 150)" style="fill:#ff7430"/>
    <path d="M0 0h100v100H0z" transform="matrix(.1 0 0 .1 330 150)" style="fill:#ff7430"/>
    <path d="M0 0h100v100H0z" transform="matrix(.1 0 0 .1 340 150)" style="fill:#ff7430"/>
    <path d="M0 0h100v100H0z" transform="matrix(.1 0 0 .1 360 150)" style="fill:#ff7430"/>
    <path d="M0 0h100v100H0z" transform="matrix(.1 0 0 .1 370 150)" style="fill:#ff7430"/>
    <path d="M100 0H0v100h65.625c9.506 0 17.611-3.354 24.316-10.059S100 75.131 100 65.625V0z" transform="matrix(.1 0 0 .1 380 150)" style="fill:#ff7430"/>
    <path d="M0 0h100v100H0z" transform="matrix(.1 0 0 .1 30 160)" style="fill:#ff7430"/>
    <path d="M0 0h100v100H0z" transform="matrix(.1 0 0 .1 40 160)" style="fill:#ff7430"/>
    <path d="M0 0h100v100H0z" transform="matrix(.1 0 0 .1 50 160)" style="fill:#ff7430"/>
    <path d="m0 100 100-50L0 0z" transform="matrix(.1 0 0 .1 60 160)" style="fill:#ff7430"/>
    <path d="M99.999 49.999h-.001L49.999 0 0 49.999h-.001V50H0l49.999 49.999L99.998 50h.001-.001z" transform="matrix(.1 0 0 .1 80 160)" style="fill:#ff7430"/>
    <path d="M100 0H0v65.625c0 9.506 3.353 17.611 10.059 24.316S24.87 100 34.375 100H100V0z" transform="matrix(.1 0 0 .1 110 160)" style="fill:#ff7430"/>
    <path d="M0 0h100v100H0z" transform="matrix(.1 0 0 .1 120 160)" style="fill:#ff7430"/>
    <path d="M0 0h100v100H0z" transform="matrix(.1 0 0 .1 130 160)" style="fill:#ff7430"/>
    <path d="m0 100 100-50L0 0z" transform="matrix(.1 0 0 .1 140 160)" style="fill:#ff7430"/>
    <path d="M100 34.375V0H34.375C24.87 0 16.764 3.353 10.059 10.059S0 24.87 0 34.375V100h100V34.375z" transform="matrix(.1 0 0 .1 260 160)" style="fill:#ff7430"/>
    <path d="M100 0H0v100h65.625c9.506 0 17.611-3.354 24.316-10.059S100 75.131 100 65.625V0z" transform="matrix(.1 0 0 .1 270 160)" style="fill:#ff7430"/>
    <path d="M100 100 0 50 100 0z" transform="matrix(.1 0 0 .1 310 160)" style="fill:#ff7430"/>
    <path d="M100 0H0v100h65.625c9.506 0 17.611-3.354 24.316-10.059S100 75.131 100 65.625V0z" transform="matrix(.1 0 0 .1 320 160)" style="fill:#ff7430"/>
    <path d="M0 0h100v100H0z" transform="matrix(.1 0 0 .1 340 160)" style="fill:#ff7430"/>
    <path d="m0-.001 50 100 50-100z" transform="matrix(.1 0 0 .1 360 160)" style="fill:#ff7430"/>
    <path d="M0 0h100v100H0z" transform="matrix(.1 0 0 .1 30 170)" style="fill:#ff7430"/>
    <path d="M0 0h100v100H0z" transform="matrix(.1 0 0 .1 40 170)" style="fill:#ff7430"/>
    <path d="M100 100 50 0 0 100z" transform="matrix(.1 0 0 .1 70 170)" style="fill:#ff7430"/>
    <path d="M99.999 49.999h-.001L49.999 0 0 49.999h-.001V50H0l49.999 49.999L99.998 50h.001-.001z" transform="matrix(.1 0 0 .1 90 170)" style="fill:#ff7430"/>
    <path d="m0-.001 50 100 50-100z" transform="matrix(.1 0 0 .1 120 170)" style="fill:#ff7430"/>
    <path d="M0 0h100v100H0z" transform="matrix(.1 0 0 .1 260 170)" style="fill:#ff7430"/>
    <path d="M99.999 49.999h-.001L49.999 0 0 49.999h-.001V50H0l49.999 49.999L99.998 50h.001-.001z" transform="matrix(.1 0 0 .1 280 170)" style="fill:#ff7430"/>
    <path d="M99.999 49.999h-.001L49.999 0 0 49.999h-.001V50H0l49.999 49.999L99.998 50h.001-.001z" transform="matrix(.1 0 0 .1 300 170)" style="fill:#ff7430"/>
    <path d="M100 100 0 50 100 0z" transform="matrix(.1 0 0 .1 330 170)" style="fill:#ff7430"/>
    <path d="M100 0H0v100h65.625c9.506 0 17.611-3.354 24.316-10.059S100 75.131 100 65.625V0z" transform="matrix(.1 0 0 .1 340 170)" style="fill:#ff7430"/>
    <path d="M99.999 49.999h-.001L49.999 0 0 49.999h-.001V50H0l49.999 49.999L99.998 50h.001-.001z" transform="matrix(.1 0 0 .1 370 170)" style="fill:#ff7430"/>
    <path d="M100 34.375V0H34.375C24.87 0 16.764 3.353 10.059 10.059S0 24.87 0 34.375V100h100V34.375z" transform="matrix(.1 0 0 .1 20 180)" style="fill:#ff7430"/>
    <path d="M0 0h100v100H0z" transform="matrix(.1 0 0 .1 30 180)" style="fill:#ff7430"/>
    <path d="M0 0h100v100H0z" transform="matrix(.1 0 0 .1 40 180)" style="fill:#ff7430"/>
    <path d="M0 0h100v100H0z" transform="matrix(.1 0 0 .1 50 180)" style="fill:#ff7430"/>
    <path d="M0 0h100v100H0z" transform="matrix(.1 0 0 .1 60 180)" style="fill:#ff7430"/>
    <path d="M0 0h100v100H0z" transform="matrix(.1 0 0 .1 70 180)" style="fill:#ff7430"/>
    <path d="m0 100 100-50L0 0z" transform="matrix(.1 0 0 .1 80 180)" style="fill:#ff7430"/>
    <path d="M100 100 0 50 100 0z" transform="matrix(.1 0 0 .1 100 180)" style="fill:#ff7430"/>
    <path d="M100 34.375c0-9.505-3.354-17.611-10.059-24.316S75.131 0 65.625 0H0v100h100V34.375z" transform="matrix(.1 0 0 .1 110 180)" style="fill:#ff7430"/>
    <path d="M0 0h100v100H0z" transform="matrix(.1 0 0 .1 260 180)" style="fill:#ff7430"/>
    <path d="m0 100 100-50L0 0z" transform="matrix(.1 0 0 .1 270 180)" style="fill:#ff7430"/>
    <path d="M100 100 50 0 0 100z" transform="matrix(.1 0 0 .1 290 180)" style="fill:#ff7430"/>
    <path d="M100 34.375V0H34.375C24.87 0 16.764 3.353 10.059 10.059S0 24.87 0 34.375V100h100V34.375z" transform="matrix(.1 0 0 .1 350 180)" style="fill:#ff7430"/>
    <path d="m0 100 100-50L0 0z" transform="matrix(.1 0 0 .1 360 180)" style="fill:#ff7430"/>
    <path d="m0-.001 50 100 50-100z" transform="matrix(.1 0 0 .1 20 190)" style="fill:#ff7430"/>
    <path d="M100 100 50 0 0 100z" transform="matrix(.1 0 0 .1 90 190)" style="fill:#ff7430"/>
    <path d="m0-.001 50 100 50-100z" transform="matrix(.1 0 0 .1 110 190)" style="fill:#ff7430"/>
    <path d="M100 100 50 0 0 100z" transform="matrix(.1 0 0 .1 130 190)" style="fill:#ff7430"/>
    <path d="m0-.001 50 100 50-100z" transform="matrix(.1 0 0 .1 260 190)" style="fill:#ff7430"/>
    <path d="M0 0h100v100H0z" transform="matrix(.1 0 0 .1 290 190)" style="fill:#ff7430"/>
    <path d="M99.999 49.999h-.001L49.999 0 0 49.999h-.001V50H0l49.999 49.999L99.998 50h.001-.001z" transform="matrix(.1 0 0 .1 320 190)" style="fill:#ff7430"/>
    <path d="M0 0h100v100H0z" transform="matrix(.1 0 0 .1 350 190)" style="fill:#ff7430"/>
    <path d="M100 100 50 0 0 100z" transform="matrix(.1 0 0 .1 380 190)" style="fill:#ff7430"/>
    <path d="M100 100 0 50 100 0z" transform="matrix(.1 0 0 .1 30 200)" style="fill:#ff7430"/>
    <path d="m0 100 100-50L0 0z" transform="matrix(.1 0 0 .1 40 200)" style="fill:#ff7430"/>
    <path d="M100 100 50 0 0 100z" transform="matrix(.1 0 0 .1 60 200)" style="fill:#ff7430"/>
    <path d="M100 100 0 50 100 0z" transform="matrix(.1 0 0 .1 80 200)" style="fill:#ff7430"/>
    <path d="M0 0h100v100H0z" transform="matrix(.1 0 0 .1 90 200)" style="fill:#ff7430"/>
    <path d="M100 100 0 50 100 0z" transform="matrix(.1 0 0 .1 120 200)" style="fill:#ff7430"/>
    <path d="M0 0h100v100H0z" transform="matrix(.1 0 0 .1 130 200)" style="fill:#ff7430"/>
    <path d="M100 100 0 50 100 0z" transform="matrix(.1 0 0 .1 270 200)" style="fill:#ff7430"/>
    <path d="M0 0h100v100H0z" transform="matrix(.1 0 0 .1 280 200)" style="fill:#ff7430"/>
    <path d="M0 0h100v100H0z" transform="matrix(.1 0 0 .1 290 200)" style="fill:#ff7430"/>
    <path d="M100 34.375c0-9.505-3.354-17.611-10.059-24.316S75.131 0 65.625 0H0v100h100V34.375z" transform="matrix(.1 0 0 .1 300 200)" style="fill:#ff7430"/>
    <path d="M99.999 49.999h-.001L49.999 0 0 49.999h-.001V50H0l49.999 49.999L99.998 50h.001-.001z" transform="matrix(.1 0 0 .1 330 200)" style="fill:#ff7430"/>
    <path d="M0 0h100v100H0z" transform="matrix(.1 0 0 .1 350 200)" style="fill:#ff7430"/>
    <path d="M0 0h100v100H0z" transform="matrix(.1 0 0 .1 360 200)" style="fill:#ff7430"/>
    <path d="M0 0h100v100H0z" transform="matrix(.1 0 0 .1 370 200)" style="fill:#ff7430"/>
    <path d="M0 0h100v100H0z" transform="matrix(.1 0 0 .1 380 200)" style="fill:#ff7430"/>
    <path d="M99.999 49.999h-.001L49.999 0 0 49.999h-.001V50H0l49.999 49.999L99.998 50h.001-.001z" transform="matrix(.1 0 0 .1 20 210)" style="fill:#ff7430"/>
    <path d="M100 0H0v65.625c0 9.506 3.353 17.611 10.059 24.316S24.87 100 34.375 100H100V0z" transform="matrix(.1 0 0 .1 60 210)" style="fill:#ff7430"/>
    <path d="M100 34.375c0-9.505-3.354-17.611-10.059-24.316S75.131 0 65.625 0H0v100h100V34.375z" transform="matrix(.1 0 0 .1 70 210)" style="fill:#ff7430"/>
    <path d="M0 0h100v100H0z" transform="matrix(.1 0 0 .1 90 210)" style="fill:#ff7430"/>
    <path d="m0-.001 50 100 50-100z" transform="matrix(.1 0 0 .1 130 210)" style="fill:#ff7430"/>
    <path d="M99.999 49.999h-.001L49.999 0 0 49.999h-.001V50H0l49.999 49.999L99.998 50h.001-.001z" transform="matrix(.1 0 0 .1 260 210)" style="fill:#ff7430"/>
    <path d="M0 0h100v100H0z" transform="matrix(.1 0 0 .1 300 210)" style="fill:#ff7430"/>
    <path d="m0-.001 50 100 50-100z" transform="matrix(.1 0 0 .1 350 210)" style="fill:#ff7430"/>
    <path d="M100 0H0v65.625c0 9.506 3.353 17.611 10.059 24.316S24.87 100 34.375 100H100V0z" transform="matrix(.1 0 0 .1 370 210)" style="fill:#ff7430"/>
    <path d="M0 0h100v100H0z" transform="matrix(.1 0 0 .1 380 210)" style="fill:#ff7430"/>
    <path d="M99.999 49.999h-.001L49.999 0 0 49.999h-.001V50H0l49.999 49.999L99.998 50h.001-.001z" transform="matrix(.1 0 0 .1 40 220)" style="fill:#ff7430"/>
    <path d="M0 0h100v100H0z" transform="matrix(.1 0 0 .1 70 220)" style="fill:#ff7430"/>
    <path d="M0 0h100v100H0z" transform="matrix(.1 0 0 .1 80 220)" style="fill:#ff7430"/>
    <path d="M0 0h100v100H0z" transform="matrix(.1 0 0 .1 90 220)" style="fill:#ff7430"/>
    <path d="M0 0h100v100H0z" transform="matrix(.1 0 0 .1 100 220)" style="fill:#ff7430"/>
    <path d="M100 34.375c0-9.505-3.354-17.611-10.059-24.316S75.131 0 65.625 0H0v100h100V34.375z" transform="matrix(.1 0 0 .1 110 220)" style="fill:#ff7430"/>
    <path d="M99.999 49.999h-.001L49.999 0 0 49.999h-.001V50H0l49.999 49.999L99.998 50h.001-.001z" transform="matrix(.1 0 0 .1 140 220)" style="fill:#ff7430"/>
    <path d="M100 100 50 0 0 100z" transform="matrix(.1 0 0 .1 280 220)" style="fill:#ff7430"/>
    <path d="M100 0H0v65.625c0 9.506 3.353 17.611 10.059 24.316S24.87 100 34.375 100H100V0z" transform="matrix(.1 0 0 .1 300 220)" style="fill:#ff7430"/>
    <path d="m0 100 100-50L0 0z" transform="matrix(.1 0 0 .1 310 220)" style="fill:#ff7430"/>
    <path d="M99.999 49.999h-.001L49.999 0 0 49.999h-.001V50H0l49.999 49.999L99.998 50h.001-.001z" transform="matrix(.1 0 0 .1 340 220)" style="fill:#ff7430"/>
    <path d="m0-.001 50 100 50-100z" transform="matrix(.1 0 0 .1 380 220)" style="fill:#ff7430"/>
    <path d="M100 100 50 0 0 100z" transform="matrix(.1 0 0 .1 30 230)" style="fill:#ff7430"/>
    <path d="M0 0h100v100H0z" transform="matrix(.1 0 0 .1 70 230)" style="fill:#ff7430"/>
    <path d="m0-.001 50 100 50-100z" transform="matrix(.1 0 0 .1 110 230)" style="fill:#ff7430"/>
    <path d="M100 100 50 0 0 100z" transform="matrix(.1 0 0 .1 130 230)" style="fill:#ff7430"/>
    <path d="M100 34.375V0H34.375C24.87 0 16.764 3.353 10.059 10.059S0 24.87 0 34.375V100h100V34.375z" transform="matrix(.1 0 0 .1 270 230)" style="fill:#ff7430"/>
    <path d="M100 0H0v100h65.625c9.506 0 17.611-3.354 24.316-10.059S100 75.131 100 65.625V0z" transform="matrix(.1 0 0 .1 280 230)" style="fill:#ff7430"/>
    <path d="M99.999 49.999h-.001L49.999 0 0 49.999h-.001V50H0l49.999 49.999L99.998 50h.001-.001z" transform="matrix(.1 0 0 .1 330 230)" style="fill:#ff7430"/>
    <path d="M100 100 50 0 0 100z" transform="matrix(.1 0 0 .1 360 230)" style="fill:#ff7430"/>
    <path d="M0 0h100v100H0z" transform="matrix(.1 0 0 .1 30 240)" style="fill:#ff7430"/>
    <path d="M100 34.375c0-9.505-3.354-17.611-10.059-24.316S75.131 0 65.625 0H0v100h100V34.375z" transform="matrix(.1 0 0 .1 40 240)" style="fill:#ff7430"/>
    <path d="M0 0h100v100H0z" transform="matrix(.1 0 0 .1 70 240)" style="fill:#ff7430"/>
    <path d="m0 100 100-50L0 0z" transform="matrix(.1 0 0 .1 80 240)" style="fill:#ff7430"/>
    <path d="M100 100 50 0 0 100z" transform="matrix(.1 0 0 .1 100 240)" style="fill:#ff7430"/>
    <path d="M0 0h100v100H0z" transform="matrix(.1 0 0 .1 130 240)" style="fill:#ff7430"/>
    <path d="m0 100 100-50L0 0z" transform="matrix(.1 0 0 .1 140 240)" style="fill:#ff7430"/>
    <path d="M100 34.375V0H34.375C24.87 0 16.764 3.353 10.059 10.059S0 24.87 0 34.375V100h100V34.375z" transform="matrix(.1 0 0 .1 260 240)" style="fill:#ff7430"/>
    <path d="M0 0h100v100H0z" transform="matrix(.1 0 0 .1 270 240)" style="fill:#ff7430"/>
    <path d="M100 100 0 50 100 0z" transform="matrix(.1 0 0 .1 340 240)" style="fill:#ff7430"/>
    <path d="M0 0h100v100H0z" transform="matrix(.1 0 0 .1 350 240)" style="fill:#ff7430"/>
    <path d="M0 0h100v100H0z" transform="matrix(.1 0 0 .1 360 240)" style="fill:#ff7430"/>
    <path d="M0 0h100v100H0z" transform="matrix(.1 0 0 .1 30 250)" style="fill:#ff7430"/>
    <path d="M0 0h100v100H0z" transform="matrix(.1 0 0 .1 40 250)" style="fill:#ff7430"/>
    <path d="m0 100 100-50L0 0z" transform="matrix(.1 0 0 .1 50 250)" style="fill:#ff7430"/>
    <path d="M0 0h100v100H0z" transform="matrix(.1 0 0 .1 70 250)" style="fill:#ff7430"/>
    <path d="m0-.001 50 100 50-100z" transform="matrix(.1 0 0 .1 100 250)" style="fill:#ff7430"/>
    <path d="M100 34.375V0H34.375C24.87 0 16.764 3.353 10.059 10.059S0 24.87 0 34.375V100h100V34.375z" transform="matrix(.1 0 0 .1 120 250)" style="fill:#ff7430"/>
    <path d="M0 0h100v100H0z" transform="matrix(.1 0 0 .1 130 250)" style="fill:#ff7430"/>
    <path d="M100 0H0v65.625c0 9.506 3.353 17.611 10.059 24.316S24.87 100 34.375 100H100V0z" transform="matrix(.1 0 0 .1 260 250)" style="fill:#ff7430"/>
    <path d="M0 0h100v100H0z" transform="matrix(.1 0 0 .1 270 250)" style="fill:#ff7430"/>
    <path d="M0 0h100v100H0z" transform="matrix(.1 0 0 .1 280 250)" style="fill:#ff7430"/>
    <path d="M0 0h100v100H0z" transform="matrix(.1 0 0 .1 290 250)" style="fill:#ff7430"/>
    <path d="m0 100 100-50L0 0z" transform="matrix(.1 0 0 .1 300 250)" style="fill:#ff7430"/>
    <path d="M100 100 50 0 0 100z" transform="matrix(.1 0 0 .1 320 250)" style="fill:#ff7430"/>
    <path d="M0 0h100v100H0z" transform="matrix(.1 0 0 .1 350 250)" style="fill:#ff7430"/>
    <path d="M0 0h100v100H0z" transform="matrix(.1 0 0 .1 360 250)" style="fill:#ff7430"/>
    <path d="M0 0h100v100H0z" transform="matrix(.1 0 0 .1 370 250)" style="fill:#ff7430"/>
    <path d="m0 100 100-50L0 0z" transform="matrix(.1 0 0 .1 380 250)" style="fill:#ff7430"/>
    <path d="M100 100 0 50 100 0z" transform="matrix(.1 0 0 .1 20 260)" style="fill:#ff7430"/>
    <path d="M0 0h100v100H0z" transform="matrix(.1 0 0 .1 30 260)" style="fill:#ff7430"/>
    <path d="M100 0H0v65.625c0 9.506 3.353 17.611 10.059 24.316S24.87 100 34.375 100H100V0z" transform="matrix(.1 0 0 .1 70 260)" style="fill:#ff7430"/>
    <path d="m0 100 100-50L0 0z" transform="matrix(.1 0 0 .1 80 260)" style="fill:#ff7430"/>
    <path d="M0 0h100v100H0z" transform="matrix(.1 0 0 .1 120 260)" style="fill:#ff7430"/>
    <path d="M100 0H0v100h65.625c9.506 0 17.611-3.354 24.316-10.059S100 75.131 100 65.625V0z" transform="matrix(.1 0 0 .1 130 260)" style="fill:#ff7430"/>
    <path d="M99.999 49.999h-.001L49.999 0 0 49.999h-.001V50H0l49.999 49.999L99.998 50h.001-.001z" transform="matrix(.1 0 0 .1 160 260)" style="fill:#ff7430"/>
    <path d="M99.999 49.999h-.001L49.999 0 0 49.999h-.001V50H0l49.999 49.999L99.998 50h.001-.001z" transform="matrix(.1 0 0 .1 190 260)" style="fill:#ff7430"/>
    <path d="M100 100 0 50 100 0z" transform="matrix(.1 0 0 .1 210 260)" style="fill:#ff7430"/>
    <path d="M0 0h100v100H0z" transform="matrix(.1 0 0 .1 220 260)" style="fill:#ff7430"/>
    <path d="m0 100 100-50L0 0z" transform="matrix(.1 0 0 .1 230 260)" style="fill:#ff7430"/>
    <path d="M100 34.375V0H34.375C24.87 0 16.764 3.353 10.059 10.059S0 24.87 0 34.375V100h100V34.375z" transform="matrix(.1 0 0 .1 310 260)" style="fill:#ff7430"/>
    <path d="M0 0h100v100H0z" transform="matrix(.1 0 0 .1 320 260)" style="fill:#ff7430"/>
    <path d="M100 34.375V0H34.375C24.87 0 16.764 3.353 10.059 10.059S0 24.87 0 34.375V100h100V34.375z" transform="matrix(.1 0 0 .1 340 260)" style="fill:#ff7430"/>
    <path d="M0 0h100v100H0z" transform="matrix(.1 0 0 .1 350 260)" style="fill:#ff7430"/>
    <path d="M0 0h100v100H0z" transform="matrix(.1 0 0 .1 360 260)" style="fill:#ff7430"/>
    <path d="M0 0h100v100H0z" transform="matrix(.1 0 0 .1 370 260)" style="fill:#ff7430"/>
    <path d="M0 0h100v100H0z" transform="matrix(.1 0 0 .1 30 270)" style="fill:#ff7430"/>
    <path d="m0 100 100-50L0 0z" transform="matrix(.1 0 0 .1 40 270)" style="fill:#ff7430"/>
    <path d="M100 34.375V0H34.375C24.87 0 16.764 3.353 10.059 10.059S0 24.87 0 34.375V100h100V34.375z" transform="matrix(.1 0 0 .1 90 270)" style="fill:#ff7430"/>
    <path d="M0 0h100v100H0z" transform="matrix(.1 0 0 .1 100 270)" style="fill:#ff7430"/>
    <path d="M0 0h100v100H0z" transform="matrix(.1 0 0 .1 110 270)" style="fill:#ff7430"/>
    <path d="M100 0H0v100h65.625c9.506 0 17.611-3.354 24.316-10.059S100 75.131 100 65.625V0z" transform="matrix(.1 0 0 .1 120 270)" style="fill:#ff7430"/>
    <path d="M99.999 49.999h-.001L49.999 0 0 49.999h-.001V50H0l49.999 49.999L99.998 50h.001-.001z" transform="matrix(.1 0 0 .1 150 270)" style="fill:#ff7430"/>
    <path d="M99.999 49.999h-.001L49.999 0 0 49.999h-.001V50H0l49.999 49.999L99.998 50h.001-.001z" transform="matrix(.1 0 0 .1 180 270)" style="fill:#ff7430"/>
    <path d="M99.999 49.999h-.001L49.999 0 0 49.999h-.001V50H0l49.999 49.999L99.998 50h.001-.001z" transform="matrix(.1 0 0 .1 200 270)" style="fill:#ff7430"/>
    <path d="M99.999 49.999h-.001L49.999 0 0 49.999h-.001V50H0l49.999 49.999L99.998 50h.001-.001z" transform="matrix(.1 0 0 .1 250 270)" style="fill:#ff7430"/>
    <path d="M100 34.375V0H34.375C24.87 0 16.764 3.353 10.059 10.059S0 24.87 0 34.375V100h100V34.375z" transform="matrix(.1 0 0 .1 280 270)" style="fill:#ff7430"/>
    <path d="M0 0h100v100H0z" transform="matrix(.1 0 0 .1 290 270)" style="fill:#ff7430"/>
    <path d="M0 0h100v100H0z" transform="matrix(.1 0 0 .1 300 270)" style="fill:#ff7430"/>
    <path d="M0 0h100v100H0z" transform="matrix(.1 0 0 .1 310 270)" style="fill:#ff7430"/>
    <path d="M0 0h100v100H0z" transform="matrix(.1 0 0 .1 320 270)" style="fill:#ff7430"/>
    <path d="M0 0h100v100H0z" transform="matrix(.1 0 0 .1 330 270)" style="fill:#ff7430"/>
    <path d="M100 0H0v100h65.625c9.506 0 17.611-3.354 24.316-10.059S100 75.131 100 65.625V0z" transform="matrix(.1 0 0 .1 340 270)" style="fill:#ff7430"/>
    <path d="M0 0h100v100H0z" transform="matrix(.1 0 0 .1 370 270)" style="fill:#ff7430"/>
    <path d="m0 100 100-50L0 0z" transform="matrix(.1 0 0 .1 380 270)" style="fill:#ff7430"/>
    <path d="m0-.001 50 100 50-100z" transform="matrix(.1 0 0 .1 30 280)" style="fill:#ff7430"/>
    <path d="M99.999 49.999h-.001L49.999 0 0 49.999h-.001V50H0l49.999 49.999L99.998 50h.001-.001z" transform="matrix(.1 0 0 .1 50 280)" style="fill:#ff7430"/>
    <path d="M100 100 0 50 100 0z" transform="matrix(.1 0 0 .1 80 280)" style="fill:#ff7430"/>
    <path d="M0 0h100v100H0z" transform="matrix(.1 0 0 .1 90 280)" style="fill:#ff7430"/>
    <path d="M100 34.375V0H34.375C24.87 0 16.764 3.353 10.059 10.059S0 24.87 0 34.375V100h100V34.375z" transform="matrix(.1 0 0 .1 130 280)" style="fill:#ff7430"/>
    <path d="M100 34.375c0-9.505-3.354-17.611-10.059-24.316S75.131 0 65.625 0H0v100h100V34.375z" transform="matrix(.1 0 0 .1 140 280)" style="fill:#ff7430"/>
    <path d="M100 100 50 0 0 100z" transform="matrix(.1 0 0 .1 170 280)" style="fill:#ff7430"/>
    <path d="M100 100 50 0 0 100z" transform="matrix(.1 0 0 .1 190 280)" style="fill:#ff7430"/>
    <path d="M100 100 50 0 0 100z" transform="matrix(.1 0 0 .1 220 280)" style="fill:#ff7430"/>
    <path d="M100 100 50 0 0 100z" transform="matrix(.1 0 0 .1 260 280)" style="fill:#ff7430"/>
    <path d="M0 0h100v100H0z" transform="matrix(.1 0 0 .1 280 280)" style="fill:#ff7430"/>
    <path d="M0 0h100v100H0z" transform="matrix(.1 0 0 .1 330 280)" style="fill:#ff7430"/>
    <path d="M99.999 49.999h-.001L49.999 0 0 49.999h-.001V50H0l49.999 49.999L99.998 50h.001-.001z" transform="matrix(.1 0 0 .1 350 280)" style="fill:#ff7430"/>
    <path d="m0-.001 50 100 50-100z" transform="matrix(.1 0 0 .1 370 280)" style="fill:#ff7430"/>
    <path d="M99.999 49.999h-.001L49.999 0 0 49.999h-.001V50H0l49.999 49.999L99.998 50h.001-.001z" transform="matrix(.1 0 0 .1 20 290)" style="fill:#ff7430"/>
    <path d="M100 100 50 0 0 100z" transform="matrix(.1 0 0 .1 70 290)" style="fill:#ff7430"/>
    <path d="M100 0H0v65.625c0 9.506 3.353 17.611 10.059 24.316S24.87 100 34.375 100H100V0z" transform="matrix(.1 0 0 .1 90 290)" style="fill:#ff7430"/>
    <path d="m0 100 100-50L0 0z" transform="matrix(.1 0 0 .1 100 290)" style="fill:#ff7430"/>
    <path d="M100 0H0v65.625c0 9.506 3.353 17.611 10.059 24.316S24.87 100 34.375 100H100V0z" transform="matrix(.1 0 0 .1 130 290)" style="fill:#ff7430"/>
    <path d="M100 0H0v100h65.625c9.506 0 17.611-3.354 24.316-10.059S100 75.131 100 65.625V0z" transform="matrix(.1 0 0 .1 140 290)" style="fill:#ff7430"/>
    <path d="M100 34.375V0H34.375C24.87 0 16.764 3.353 10.059 10.059S0 24.87 0 34.375V100h100V34.375z" transform="matrix(.1 0 0 .1 160 290)" style="fill:#ff7430"/>
    <path d="M0 0h100v100H0z" transform="matrix(.1 0 0 .1 170 290)" style="fill:#ff7430"/>
    <path d="M0 0h100v100H0z" transform="matrix(.1 0 0 .1 180 290)" style="fill:#ff7430"/>
    <path d="M0 0h100v100H0z" transform="matrix(.1 0 0 .1 190 290)" style="fill:#ff7430"/>
    <path d="m0 100 100-50L0 0z" transform="matrix(.1 0 0 .1 200 290)" style="fill:#ff7430"/>
    <path d="m0-.001 50 100 50-100z" transform="matrix(.1 0 0 .1 220 290)" style="fill:#ff7430"/>
    <path d="M100 100 50 0 0 100z" transform="matrix(.1 0 0 .1 240 290)" style="fill:#ff7430"/>
    <path d="m0-.001 50 100 50-100z" transform="matrix(.1 0 0 .1 260 290)" style="fill:#ff7430"/>
    <path d="M100 0H0v65.625c0 9.506 3.353 17.611 10.059 24.316S24.87 100 34.375 100H100V0z" transform="matrix(.1 0 0 .1 280 290)" style="fill:#ff7430"/>
    <path d="M0 0h100v100H0z" transform="matrix(.1 0 0 .1 290 290)" style="fill:#ff7430"/>
    <path d="M0 0h100v100H0z" transform="matrix(.1 0 0 .1 300 290)" style="fill:#ff7430"/>
    <path d="M100 34.375c0-9.505-3.354-17.611-10.059-24.316S75.131 0 65.625 0H0v100h100V34.375z" transform="matrix(.1 0 0 .1 310 290)" style="fill:#ff7430"/>
    <path d="M0 0h100v100H0z" transform="matrix(.1 0 0 .1 330 290)" style="fill:#ff7430"/>
    <path d="M99.999 49.999h-.001L49.999 0 0 49.999h-.001V50H0l49.999 49.999L99.998 50h.001-.001z" transform="matrix(.1 0 0 .1 50 300)" style="fill:#ff7430"/>
    <path d="M100 0H0v65.625c0 9.506 3.353 17.611 10.059 24.316S24.87 100 34.375 100H100V0z" transform="matrix(.1 0 0 .1 70 300)" style="fill:#ff7430"/>
    <path d="m0 100 100-50L0 0z" transform="matrix(.1 0 0 .1 80 300)" style="fill:#ff7430"/>
    <path d="M100 34.375V0H34.375C24.87 0 16.764 3.353 10.059 10.059S0 24.87 0 34.375V100h100V34.375z" transform="matrix(.1 0 0 .1 110 300)" style="fill:#ff7430"/>
    <path d="m0 100 100-50L0 0z" transform="matrix(.1 0 0 .1 120 300)" style="fill:#ff7430"/>
    <path d="M0 0h100v100H0z" transform="matrix(.1 0 0 .1 160 300)" style="fill:#ff7430"/>
    <path d="M0 0h100v100H0z" transform="matrix(.1 0 0 .1 180 300)" style="fill:#ff7430"/>
    <path d="M100 100 0 50 100 0z" transform="matrix(.1 0 0 .1 230 300)" style="fill:#ff7430"/>
    <path d="M0 0h100v100H0z" transform="matrix(.1 0 0 .1 240 300)" style="fill:#ff7430"/>
    <path d="M100 34.375c0-9.505-3.354-17.611-10.059-24.316S75.131 0 65.625 0H0v100h100V34.375z" transform="matrix(.1 0 0 .1 250 300)" style="fill:#ff7430"/>
    <path d="M99.999 49.999h-.001L49.999 0 0 49.999h-.001V50H0l49.999 49.999L99.998 50h.001-.001z" transform="matrix(.1 0 0 .1 270 300)" style="fill:#ff7430"/>
    <path d="M0 0h100v100H0z" transform="matrix(.1 0 0 .1 300 300)" style="fill:#ff7430"/>
    <path d="M0 0h100v100H0z" transform="matrix(.1 0 0 .1 310 300)" style="fill:#ff7430"/>
    <path d="M0 0h100v100H0z" transform="matrix(.1 0 0 .1 320 300)" style="fill:#ff7430"/>
    <path d="M0 0h100v100H0z" transform="matrix(.1 0 0 .1 330 300)" style="fill:#ff7430"/>
    <path d="M0 0h100v100H0z" transform="matrix(.1 0 0 .1 340 300)" style="fill:#ff7430"/>
    <path d="M0 0h100v100H0z" transform="matrix(.1 0 0 .1 350 300)" style="fill:#ff7430"/>
    <path d="M100 34.375c0-9.505-3.354-17.611-10.059-24.316S75.131 0 65.625 0H0v100h100V34.375z" transform="matrix(.1 0 0 .1 360 300)" style="fill:#ff7430"/>
    <path d="M100 100 50 0 0 100z" transform="matrix(.1 0 0 .1 380 300)" style="fill:#ff7430"/>
    <path d="M100 34.375V0H34.375C24.87 0 16.764 3.353 10.059 10.059S0 24.87 0 34.375V100h100V34.375z" transform="matrix(.1 0 0 .1 100 310)" style="fill:#ff7430"/>
    <path d="M0 0h100v100H0z" transform="matrix(.1 0 0 .1 110 310)" style="fill:#ff7430"/>
    <path d="M100 100 0 50 100 0z" transform="matrix(.1 0 0 .1 130 310)" style="fill:#ff7430"/>
    <path d="M0 0h100v100H0z" transform="matrix(.1 0 0 .1 140 310)" style="fill:#ff7430"/>
    <path d="M0 0h100v100H0z" transform="matrix(.1 0 0 .1 150 310)" style="fill:#ff7430"/>
    <path d="M0 0h100v100H0z" transform="matrix(.1 0 0 .1 160 310)" style="fill:#ff7430"/>
    <path d="M0 0h100v100H0z" transform="matrix(.1 0 0 .1 170 310)" style="fill:#ff7430"/>
    <path d="M100 0H0v100h65.625c9.506 0 17.611-3.354 24.316-10.059S100 75.131 100 65.625V0z" transform="matrix(.1 0 0 .1 180 310)" style="fill:#ff7430"/>
    <path d="M99.999 49.999h-.001L49.999 0 0 49.999h-.001V50H0l49.999 49.999L99.998 50h.001-.001z" transform="matrix(.1 0 0 .1 210 310)" style="fill:#ff7430"/>
    <path d="M100 0H0v65.625c0 9.506 3.353 17.611 10.059 24.316S24.87 100 34.375 100H100V0z" transform="matrix(.1 0 0 .1 240 310)" style="fill:#ff7430"/>
    <path d="M0 0h100v100H0z" transform="matrix(.1 0 0 .1 250 310)" style="fill:#ff7430"/>
    <path d="M100 34.375c0-9.505-3.354-17.611-10.059-24.316S75.131 0 65.625 0H0v100h100V34.375z" transform="matrix(.1 0 0 .1 260 310)" style="fill:#ff7430"/>
    <path d="M100 100 50 0 0 100z" transform="matrix(.1 0 0 .1 280 310)" style="fill:#ff7430"/>
    <path d="M0 0h100v100H0z" transform="matrix(.1 0 0 .1 300 310)" style="fill:#ff7430"/>
    <path d="M0 0h100v100H0z" transform="matrix(.1 0 0 .1 340 310)" style="fill:#ff7430"/>
    <path d="M0 0h100v100H0z" transform="matrix(.1 0 0 .1 350 310)" style="fill:#ff7430"/>
    <path d="M0 0h100v100H0z" transform="matrix(.1 0 0 .1 360 310)" style="fill:#ff7430"/>
    <path d="M0 0h100v100H0z" transform="matrix(.1 0 0 .1 370 310)" style="fill:#ff7430"/>
    <path d="M0 0h100v100H0z" transform="matrix(.1 0 0 .1 380 310)" style="fill:#ff7430"/>
    <path d="M100 0H0v65.625c0 9.506 3.353 17.611 10.059 24.316S24.87 100 34.375 100H100V0z" transform="matrix(.1 0 0 .1 100 320)" style="fill:#ff7430"/>
    <path d="M100 0H0v100h65.625c9.506 0 17.611-3.354 24.316-10.059S100 75.131 100 65.625V0z" transform="matrix(.1 0 0 .1 110 320)" style="fill:#ff7430"/>
    <path d="M0 0h100v100H0z" transform="matrix(.1 0 0 .1 140 320)" style="fill:#ff7430"/>
    <path d="M0 0h100v100H0z" transform="matrix(.1 0 0 .1 160 320)" style="fill:#ff7430"/>
    <path d="M100 0H0v100h65.625c9.506 0 17.611-3.354 24.316-10.059S100 75.131 100 65.625V0z" transform="matrix(.1 0 0 .1 170 320)" style="fill:#ff7430"/>
    <path d="M100 100 50 0 0 100z" transform="matrix(.1 0 0 .1 190 320)" style="fill:#ff7430"/>
    <path d="M0 0h100v100H0z" transform="matrix(.1 0 0 .1 260 320)" style="fill:#ff7430"/>
    <path d="M0 0h100v100H0z" transform="matrix(.1 0 0 .1 270 320)" style="fill:#ff7430"/>
    <path d="M0 0h100v100H0z" transform="matrix(.1 0 0 .1 280 320)" style="fill:#ff7430"/>
    <path d="M0 0h100v100H0z" transform="matrix(.1 0 0 .1 300 320)" style="fill:#ff7430"/>
    <path d="M99.999 49.999h-.001L49.999 0 0 49.999h-.001V50H0l49.999 49.999L99.998 50h.001-.001z" transform="matrix(.1 0 0 .1 320 320)" style="fill:#ff7430"/>
    <path d="M0 0h100v100H0z" transform="matrix(.1 0 0 .1 340 320)" style="fill:#ff7430"/>
    <path d="M0 0h100v100H0z" transform="matrix(.1 0 0 .1 350 320)" style="fill:#ff7430"/>
    <path d="M100 0H0v65.625c0 9.506 3.353 17.611 10.059 24.316S24.87 100 34.375 100H100V0z" transform="matrix(.1 0 0 .1 370 320)" style="fill:#ff7430"/>
    <path d="M0 0h100v100H0z" transform="matrix(.1 0 0 .1 380 320)" style="fill:#ff7430"/>
    <path d="M100 34.375V0H34.375C24.87 0 16.764 3.353 10.059 10.059S0 24.87 0 34.375V100h100V34.375z" transform="matrix(.1 0 0 .1 130 330)" style="fill:#ff7430"/>
    <path d="M0 0h100v100H0z" transform="matrix(.1 0 0 .1 140 330)" style="fill:#ff7430"/>
    <path d="M0 0h100v100H0z" transform="matrix(.1 0 0 .1 150 330)" style="fill:#ff7430"/>
    <path d="M0 0h100v100H0z" transform="matrix(.1 0 0 .1 160 330)" style="fill:#ff7430"/>
    <path d="m0-.001 50 100 50-100z" transform="matrix(.1 0 0 .1 190 330)" style="fill:#ff7430"/>
    <path d="M100 100 50 0 0 100z" transform="matrix(.1 0 0 .1 220 330)" style="fill:#ff7430"/>
    <path d="M100 34.375V0H34.375C24.87 0 16.764 3.353 10.059 10.059S0 24.87 0 34.375V100h100V34.375z" transform="matrix(.1 0 0 .1 240 330)" style="fill:#ff7430"/>
    <path d="M0 0h100v100H0z" transform="matrix(.1 0 0 .1 250 330)" style="fill:#ff7430"/>
    <path d="M100 0H0v100h65.625c9.506 0 17.611-3.354 24.316-10.059S100 75.131 100 65.625V0z" transform="matrix(.1 0 0 .1 260 330)" style="fill:#ff7430"/>
    <path d="m0-.001 50 100 50-100z" transform="matrix(.1 0 0 .1 280 330)" style="fill:#ff7430"/>
    <path d="M0 0h100v100H0z" transform="matrix(.1 0 0 .1 300 330)" style="fill:#ff7430"/>
    <path d="M0 0h100v100H0z" transform="matrix(.1 0 0 .1 340 330)" style="fill:#ff7430"/>
    <path d="M0 0h100v100H0z" transform="matrix(.1 0 0 .1 350 330)" style="fill:#ff7430"/>
    <path d="m0-.001 50 100 50-100z" transform="matrix(.1 0 0 .1 380 330)" style="fill:#ff7430"/>
    <path d="M99.999 49.999h-.001L49.999 0 0 49.999h-.001V50H0l49.999 49.999L99.998 50h.001-.001z" transform="matrix(.1 0 0 .1 110 340)" style="fill:#ff7430"/>
    <path d="m0-.001 50 100 50-100z" transform="matrix(.1 0 0 .1 130 340)" style="fill:#ff7430"/>
    <path d="M100 0H0v65.625c0 9.506 3.353 17.611 10.059 24.316S24.87 100 34.375 100H100V0z" transform="matrix(.1 0 0 .1 150 340)" style="fill:#ff7430"/>
    <path d="M100 0H0v100h65.625c9.506 0 17.611-3.354 24.316-10.059S100 75.131 100 65.625V0z" transform="matrix(.1 0 0 .1 160 340)" style="fill:#ff7430"/>
    <path d="M100 34.375V0H34.375C24.87 0 16.764 3.353 10.059 10.059S0 24.87 0 34.375V100h100V34.375z" transform="matrix(.1 0 0 .1 200 340)" style="fill:#ff7430"/>
    <path d="M0 0h100v100H0z" transform="matrix(.1 0 0 .1 210 340)" style="fill:#ff7430"/>
    <path d="M0 0h100v100H0z" transform="matrix(.1 0 0 .1 220 340)" style="fill:#ff7430"/>
    <path d="m0-.001 50 100 50-100z" transform="matrix(.1 0 0 .1 240 340)" style="fill:#ff7430"/>
    <path d="M0 0h100v100H0z" transform="matrix(.1 0 0 .1 300 340)" style="fill:#ff7430"/>
    <path d="M0 0h100v100H0z" transform="matrix(.1 0 0 .1 310 340)" style="fill:#ff7430"/>
    <path d="M0 0h100v100H0z" transform="matrix(.1 0 0 .1 320 340)" style="fill:#ff7430"/>
    <path d="M0 0h100v100H0z" transform="matrix(.1 0 0 .1 330 340)" style="fill:#ff7430"/>
    <path d="M0 0h100v100H0z" transform="matrix(.1 0 0 .1 340 340)" style="fill:#ff7430"/>
    <path d="M100 0H0v100h65.625c9.506 0 17.611-3.354 24.316-10.059S100 75.131 100 65.625V0z" transform="matrix(.1 0 0 .1 350 340)" style="fill:#ff7430"/>
    <path d="M99.999 49.999h-.001L49.999 0 0 49.999h-.001V50H0l49.999 49.999L99.998 50h.001-.001z" transform="matrix(.1 0 0 .1 370 340)" style="fill:#ff7430"/>
    <path d="M100 100 50 0 0 100z" transform="matrix(.1 0 0 .1 100 350)" style="fill:#ff7430"/>
    <path d="M99.999 49.999h-.001L49.999 0 0 49.999h-.001V50H0l49.999 49.999L99.998 50h.001-.001z" transform="matrix(.1 0 0 .1 120 350)" style="fill:#ff7430"/>
    <path d="M99.999 49.999h-.001L49.999 0 0 49.999h-.001V50H0l49.999 49.999L99.998 50h.001-.001z" transform="matrix(.1 0 0 .1 140 350)" style="fill:#ff7430"/>
    <path d="M99.999 49.999h-.001L49.999 0 0 49.999h-.001V50H0l49.999 49.999L99.998 50h.001-.001z" transform="matrix(.1 0 0 .1 170 350)" style="fill:#ff7430"/>
    <path d="M100 0H0v65.625c0 9.506 3.353 17.611 10.059 24.316S24.87 100 34.375 100H100V0z" transform="matrix(.1 0 0 .1 200 350)" style="fill:#ff7430"/>
    <path d="M0 0h100v100H0z" transform="matrix(.1 0 0 .1 210 350)" style="fill:#ff7430"/>
    <path d="M100 0H0v100h65.625c9.506 0 17.611-3.354 24.316-10.059S100 75.131 100 65.625V0z" transform="matrix(.1 0 0 .1 220 350)" style="fill:#ff7430"/>
    <path d="M100 34.375V0H34.375C24.87 0 16.764 3.353 10.059 10.059S0 24.87 0 34.375V100h100V34.375z" transform="matrix(.1 0 0 .1 290 350)" style="fill:#ff7430"/>
    <path d="M0 0h100v100H0z" transform="matrix(.1 0 0 .1 300 350)" style="fill:#ff7430"/>
    <path d="M0 0h100v100H0z" transform="matrix(.1 0 0 .1 320 350)" style="fill:#ff7430"/>
    <path d="M0 0h100v100H0z" transform="matrix(.1 0 0 .1 340 350)" style="fill:#ff7430"/>
    <path d="M99.999 49.999h-.001L49.999 0 0 49.999h-.001V50H0l49.999 49.999L99.998 50h.001-.001z" transform="matrix(.1 0 0 .1 360 350)" style="fill:#ff7430"/>
    <path d="M100 0H0v65.625c0 9.506 3.353 17.611 10.059 24.316S24.87 100 34.375 100H100V0z" transform="matrix(.1 0 0 .1 100 360)" style="fill:#ff7430"/>
    <path d="M100 34.375c0-9.505-3.354-17.611-10.059-24.316S75.131 0 65.625 0H0v100h100V34.375z" transform="matrix(.1 0 0 .1 110 360)" style="fill:#ff7430"/>
    <path d="M99.999 49.999h-.001L49.999 0 0 49.999h-.001V50H0l49.999 49.999L99.998 50h.001-.001z" transform="matrix(.1 0 0 .1 160 360)" style="fill:#ff7430"/>
    <path d="M100 100 0 50 100 0z" transform="matrix(.1 0 0 .1 180 360)" style="fill:#ff7430"/>
    <path d="m0 100 100-50L0 0z" transform="matrix(.1 0 0 .1 190 360)" style="fill:#ff7430"/>
    <path d="M100 34.375V0H34.375C24.87 0 16.764 3.353 10.059 10.059S0 24.87 0 34.375V100h100V34.375z" transform="matrix(.1 0 0 .1 270 360)" style="fill:#ff7430"/>
    <path d="M0 0h100v100H0z" transform="matrix(.1 0 0 .1 280 360)" style="fill:#ff7430"/>
    <path d="M0 0h100v100H0z" transform="matrix(.1 0 0 .1 290 360)" style="fill:#ff7430"/>
    <path d="M100 0H0v100h65.625c9.506 0 17.611-3.354 24.316-10.059S100 75.131 100 65.625V0z" transform="matrix(.1 0 0 .1 300 360)" style="fill:#ff7430"/>
    <path d="M0 0h100v100H0z" transform="matrix(.1 0 0 .1 320 360)" style="fill:#ff7430"/>
    <path d="m0-.001 50 100 50-100z" transform="matrix(.1 0 0 .1 340 360)" style="fill:#ff7430"/>
    <path d="M99.999 49.999h-.001L49.999 0 0 49.999h-.001V50H0l49.999 49.999L99.998 50h.001-.001z" transform="matrix(.1 0 0 .1 370 360)" style="fill:#ff7430"/>
    <path d="M100 0H0v65.625c0 9.506 3.353 17.611 10.059 24.316S24.87 100 34.375 100H100V0z" transform="matrix(.1 0 0 .1 110 370)" style="fill:#ff7430"/>
    <path d="M0 0h100v100H0z" transform="matrix(.1 0 0 .1 120 370)" style="fill:#ff7430"/>
    <path d="M100 34.375c0-9.505-3.354-17.611-10.059-24.316S75.131 0 65.625 0H0v100h100V34.375z" transform="matrix(.1 0 0 .1 130 370)" style="fill:#ff7430"/>
    <path d="M100 100 50 0 0 100z" transform="matrix(.1 0 0 .1 150 370)" style="fill:#ff7430"/>
    <path d="M100 34.375V0H34.375C24.87 0 16.764 3.353 10.059 10.059S0 24.87 0 34.375V100h100V34.375z" transform="matrix(.1 0 0 .1 200 370)" style="fill:#ff7430"/>
    <path d="M0 0h100v100H0z" transform="matrix(.1 0 0 .1 210 370)" style="fill:#ff7430"/>
    <path d="m0 100 100-50L0 0z" transform="matrix(.1 0 0 .1 220 370)" style="fill:#ff7430"/>
    <path d="M100 34.375V0H34.375C24.87 0 16.764 3.353 10.059 10.059S0 24.87 0 34.375V100h100V34.375z" transform="matrix(.1 0 0 .1 250 370)" style="fill:#ff7430"/>
    <path d="M0 0h100v100H0z" transform="matrix(.1 0 0 .1 260 370)" style="fill:#ff7430"/>
    <path d="M0 0h100v100H0z" transform="matrix(.1 0 0 .1 270 370)" style="fill:#ff7430"/>
    <path d="m0-.001 50 100 50-100z" transform="matrix(.1 0 0 .1 320 370)" style="fill:#ff7430"/>
    <path d="M100 34.375V0H34.375C24.87 0 16.764 3.353 10.059 10.059S0 24.87 0 34.375V100h100V34.375z" transform="matrix(.1 0 0 .1 350 370)" style="fill:#ff7430"/>
    <path d="M100 34.375c0-9.505-3.354-17.611-10.059-24.316S75.131 0 65.625 0H0v100h100V34.375z" transform="matrix(.1 0 0 .1 360 370)" style="fill:#ff7430"/>
    <path d="M100 0H0v65.625c0 9.506 3.353 17.611 10.059 24.316S24.87 100 34.375 100H100V0z" transform="matrix(.1 0 0 .1 120 380)" style="fill:#ff7430"/>
    <path d="M100 0H0v100h65.625c9.506 0 17.611-3.354 24.316-10.059S100 75.131 100 65.625V0z" transform="matrix(.1 0 0 .1 130 380)" style="fill:#ff7430"/>
    <path d="m0-.001 50 100 50-100z" transform="matrix(.1 0 0 .1 150 380)" style="fill:#ff7430"/>
    <path d="M100 100 0 50 100 0z" transform="matrix(.1 0 0 .1 180 380)" style="fill:#ff7430"/>
    <path d="M0 0h100v100H0z" transform="matrix(.1 0 0 .1 190 380)" style="fill:#ff7430"/>
    <path d="M0 0h100v100H0z" transform="matrix(.1 0 0 .1 200 380)" style="fill:#ff7430"/>
    <path d="M100 0H0v100h65.625c9.506 0 17.611-3.354 24.316-10.059S100 75.131 100 65.625V0z" transform="matrix(.1 0 0 .1 210 380)" style="fill:#ff7430"/>
    <path d="M100 100 0 50 100 0z" transform="matrix(.1 0 0 .1 230 380)" style="fill:#ff7430"/>
    <path d="M0 0h100v100H0z" transform="matrix(.1 0 0 .1 240 380)" style="fill:#ff7430"/>
    <path d="M0 0h100v100H0z" transform="matrix(.1 0 0 .1 250 380)" style="fill:#ff7430"/>
    <path d="M0 0h100v100H0z" transform="matrix(.1 0 0 .1 260 380)" style="fill:#ff7430"/>
    <path d="M0 0h100v100H0z" transform="matrix(.1 0 0 .1 270 380)" style="fill:#ff7430"/>
    <path d="m0 100 100-50L0 0z" transform="matrix(.1 0 0 .1 280 380)" style="fill:#ff7430"/>
    <path d="M99.999 49.999h-.001L49.999 0 0 49.999h-.001V50H0l49.999 49.999L99.998 50h.001-.001z" transform="matrix(.1 0 0 .1 310 380)" style="fill:#ff7430"/>
    <path d="M100 100 0 50 100 0z" transform="matrix(.1 0 0 .1 330 380)" style="fill:#ff7430"/>
    <path d="M0 0h100v100H0z" transform="matrix(.1 0 0 .1 340 380)" style="fill:#ff7430"/>
    <path d="M0 0h100v100H0z" transform="matrix(.1 0 0 .1 350 380)" style="fill:#ff7430"/>
    <path d="M0 0h100v100H0z" transform="matrix(.1 0 0 .1 360 380)" style="fill:#ff7430"/>
    <path d="M0 0h100v100H0z" transform="matrix(.1 0 0 .1 370 380)" style="fill:#ff7430"/>
    <path d="m0 100 100-50L0 0z" transform="matrix(.1 0 0 .1 380 380)" style="fill:#ff7430"/>
    <g style="fill:#ff7430">
        <path style="fill:none" d="M85 66.221V33.75C85 23.411 76.414 15 65.859 15H34.14C23.586 15 15 23.411 15 33.75v51.246l50.855-.016C76.414 84.98 85 76.564 85 66.221z" transform="matrix(-.7 0 0 .7 90 20)"/>
        <path d="M20 66.355v-22.73C20 30.599 30.724 20 43.899 20h22.203C79.276 20 90 30.599 90 43.625V90l-46.101-.014C30.724 89.986 20 79.388 20 66.355zm10.5 0c0 7.24 6.01 13.132 13.402 13.132l35.598.01V43.625c0-7.237-6.01-13.125-13.398-13.125H43.899C36.51 30.5 30.5 36.388 30.5 43.625v22.73z"/>
    </g>
    <g style="fill:#ff7430">
        <path style="fill:none" d="M85 66.221V33.75C85 23.411 76.414 15 65.859 15H34.14C23.586 15 15 23.411 15 33.75v51.246l50.855-.016C76.414 84.98 85 76.564 85 66.221z" transform="matrix(.7 0 0 .7 320 20)"/>
        <path d="M390 66.355v-22.73C390 30.599 379.276 20 366.101 20h-22.203C330.724 20 320 30.599 320 43.625V90l46.101-.014c13.175 0 23.899-10.598 23.899-23.631zm-10.5 0c0 7.24-6.01 13.132-13.401 13.132l-35.599.01V43.625c0-7.237 6.01-13.125 13.398-13.125h22.203c7.389 0 13.399 5.888 13.399 13.125v22.73z"/>
    </g>
    <g style="fill:#ff7430">
        <path style="fill:none" d="M85 66.221V33.75C85 23.411 76.414 15 65.859 15H34.14C23.586 15 15 23.411 15 33.75v51.246l50.855-.016C76.414 84.98 85 76.564 85 66.221z" transform="matrix(-.7 0 0 -.7 90 390)"/>
        <path d="M20 343.645v22.73C20 379.401 30.724 390 43.899 390h22.203C79.276 390 90 379.401 90 366.375V320l-46.101.014C30.724 320.014 20 330.612 20 343.645zm10.5 0c0-7.24 6.01-13.132 13.402-13.132l35.598-.01v35.872c0 7.237-6.01 13.125-13.398 13.125H43.899c-7.389 0-13.399-5.888-13.399-13.125v-22.73z"/>
    </g>
    <path d="M51.156 100 0 49.844V0h49.844L100 51.156V100z" transform="matrix(.3 0 0 .3 40 40)" style="fill:#ff7430"/>
    <path d="M51.156 100 0 49.844V0h49.844L100 51.156V100z" transform="matrix(-.3 0 0 .3 370 40)" style="fill:#ff7430"/>
    <path d="M51.156 100 0 49.844V0h49.844L100 51.156V100z" transform="matrix(.3 0 0 -.3 40 370)" style="fill:#ff7430"/>
    <svg xmlns:svg="http://www.w3.org/2000/svg" xmlns="http://www.w3.org/2000/svg" width="1000" height="1000" viewBox="0 0 1000 1000" transform="matrix(.11 0 0 .11 150 150)">
        <path d="M339.459 756.362c0-37.855 30.687-68.541 68.541-68.541s68.541 30.686 68.541 68.541c0 37.854-30.687 68.541-68.541 68.541s-68.541-30.687-68.541-68.54" style="fill:#005983;fill-opacity:1;fill-rule:nonzero;stroke:none" transform="matrix(7.29488 0 0 7.29488 -2476.31 -5017.57)"/>
        <path d="M374.551 789.112h15.813v-47.57H374.55v47.57zm8.01-70.5c-5.411 0-8.95 3.551-8.95 8.218 0 4.567 3.438 8.22 8.743 8.22h.102c5.518 0 8.948-3.653 8.948-8.22-.105-4.667-3.43-8.218-8.843-8.218zm64.828 43.22v27.28h-15.816v-25.45c0-6.392-2.284-10.756-8.01-10.756-4.37 0-6.967 2.939-8.113 5.784-.416 1.016-.524 2.428-.524 3.855v26.567H399.11s.212-43.106 0-47.57h15.817v6.741l-.105.157h.105v-.157c2.103-3.235 5.852-7.857 14.254-7.857 10.408 0 18.209 6.797 18.209 21.406" style="fill:#f1f2f2;fill-opacity:1;fill-rule:nonzero;stroke:none" transform="matrix(7.29488 0 0 7.29488 -2476.31 -5017.57)"/>
    </svg>
</svg>
