<?xml version="1.0" encoding="utf-8"?>
<!DOCTYPE svg PUBLIC "-//W3C//DTD SVG 1.1//EN" "http://www.w3.org/Graphics/SVG/1.1/DTD/svg11.dtd">
<svg version="1.1" id="Layer_1" xmlns="http://www.w3.org/2000/svg" xmlns:xlink="http://www.w3.org/1999/xlink" x="0px" y="0px"
width="410px" height="410px" viewBox="0 0 410 410" enable-background="new 0 0 410 410" xml:space="preserve">
<rect x="0" y="0" width="410" height="410" fill="rgb(27,27,31)" /><g transform="translate(20,20)"><g transform="translate(100,0) scale(0.1,0.1)"><g transform="" style="fill: rgb(255, 116, 48);">
<polygon points="100,100 50,0 50,0 0,100 "/>
</g></g><g transform="translate(150,0) scale(0.1,0.1)"><g transform="" style="fill: rgb(255, 116, 48);">
<polygon points="100,100 0,50 0,50 100,0 "/>
</g></g><g transform="translate(160,0) scale(0.1,0.1)"><g transform="" style="fill: rgb(255, 116, 48);">
<g>
	<path d="M100,34.375c0-9.505-3.354-17.611-10.059-24.316S75.131,0,65.625,0H0v100h100V34.375z"/>
</g>
</g></g><g transform="translate(190,0) scale(0.1,0.1)"><g transform="" style="fill: rgb(255, 116, 48);">
<g>
	<path d="M100,34.375V0H34.375C24.87,0,16.764,3.353,10.059,10.059S0,24.87,0,34.375V100h100V34.375z"/>
</g>
</g></g><g transform="translate(200,0) scale(0.1,0.1)"><g transform="" style="fill: rgb(255, 116, 48);">
<g>
	<path d="M100,34.375c0-9.505-3.354-17.611-10.059-24.316S75.131,0,65.625,0H0v100h100V34.375z"/>
</g>
</g></g><g transform="translate(230,0) scale(0.1,0.1)"><g transform="" style="fill: rgb(255, 116, 48);">
<polygon points="100,100 50,0 50,0 0,100 "/>
</g></g><g transform="translate(280,0) scale(0.1,0.1)"><g transform="" style="fill: rgb(255, 116, 48);">
<polygon points="99.999,49.999 99.998,49.999 49.999,0 0,49.999 -0.001,49.999 -0.001,50 0,50 49.999,99.999 99.998,50 99.999,50 
	99.998,50 "/>
</g></g><g transform="translate(100,10) scale(0.1,0.1)"><g transform="" style="fill: rgb(255, 116, 48);">
<polygon points="0,-0.001 50,99.999 50,99.999 100,-0.001 "/>
</g></g><g transform="translate(120,10) scale(0.1,0.1)"><g transform="" style="fill: rgb(255, 116, 48);">
<polygon points="100,100 0,50 0,50 100,0 "/>
</g></g><g transform="translate(130,10) scale(0.1,0.1)"><g transform="" style="fill: rgb(255, 116, 48);">
<polygon points="0,100 100,50 100,50 0,0 "/>
</g></g><g transform="translate(160,10) scale(0.1,0.1)"><g transform="" style="fill: rgb(255, 116, 48);">
<rect width="100" height="100"/>
</g></g><g transform="translate(180,10) scale(0.1,0.1)"><g transform="" style="fill: rgb(255, 116, 48);">
<g>
	<path d="M100,34.375V0H34.375C24.87,0,16.764,3.353,10.059,10.059S0,24.87,0,34.375V100h100V34.375z"/>
</g>
</g></g><g transform="translate(190,10) scale(0.1,0.1)"><g transform="" style="fill: rgb(255, 116, 48);">
<rect width="100" height="100"/>
</g></g><g transform="translate(200,10) scale(0.1,0.1)"><g transform="" style="fill: rgb(255, 116, 48);">
<rect width="100" height="100"/>
</g></g><g transform="translate(210,10) scale(0.1,0.1)"><g transform="" style="fill: rgb(255, 116, 48);">
<rect width="100" height="100"/>
</g></g><g transform="translate(220,10) scale(0.1,0.1)"><g transform="" style="fill: rgb(255, 116, 48);">
<rect width="100" height="100"/>
</g></g><g transform="translate(230,10) scale(0.1,0.1)"><g transform="" style="fill: rgb(255, 116, 48);">
<rect width="100" height="100"/>
</g></g><g transform="translate(240,10) scale(0.1,0.1)"><g transform="" style="fill: rgb(255, 116, 48);">
<rect width="100" height="100"/>
</g></g><g transform="translate(250,10) scale(0.1,0.1)"><g transform="" style="fill: rgb(255, 116, 48);">
<g>
	<path d="M100,34.375c0-9.505-3.354-17.611-10.059-24.316S75.131,0,65.625,0H0v100h100V34.375z"/>
</g>
</g></g><g transform="translate(110,20) scale(0.1,0.1)"><g transform="" style="fill: rgb(255, 116, 48);">
<polygon points="100,100 50,0 50,0 0,100 "/>
</g></g><g transform="translate(140,20) scale(0.1,0.1)"><g transform="" style="fill: rgb(255, 116, 48);">
<g>
	<path d="M100,34.375V0H34.375C24.87,0,16.764,3.353,10.059,10.059S0,24.87,0,34.375V100h100V34.375z"/>
</g>
</g></g><g transform="translate(150,20) scale(0.1,0.1)"><g transform="" style="fill: rgb(255, 116, 48);">
<rect width="100" height="100"/>
</g></g><g transform="translate(160,20) scale(0.1,0.1)"><g transform="" style="fill: rgb(255, 116, 48);">
<rect width="100" height="100"/>
</g></g><g transform="translate(170,20) scale(0.1,0.1)"><g transform="" style="fill: rgb(255, 116, 48);">
<rect width="100" height="100"/>
</g></g><g transform="translate(180,20) scale(0.1,0.1)"><g transform="" style="fill: rgb(255, 116, 48);">
<rect width="100" height="100"/>
</g></g><g transform="translate(190,20) scale(0.1,0.1)"><g transform="" style="fill: rgb(255, 116, 48);">
<rect width="100" height="100"/>
</g></g><g transform="translate(200,20) scale(0.1,0.1)"><g transform="" style="fill: rgb(255, 116, 48);">
<rect width="100" height="100"/>
</g></g><g transform="translate(210,20) scale(0.1,0.1)"><g transform="" style="fill: rgb(255, 116, 48);">
<rect width="100" height="100"/>
</g></g><g transform="translate(220,20) scale(0.1,0.1)"><g transform="" style="fill: rgb(255, 116, 48);">
<rect width="100" height="100"/>
</g></g><g transform="translate(230,20) scale(0.1,0.1)"><g transform="" style="fill: rgb(255, 116, 48);">
<rect width="100" height="100"/>
</g></g><g transform="translate(240,20) scale(0.1,0.1)"><g transform="" style="fill: rgb(255, 116, 48);">
<rect width="100" height="100"/>
</g></g><g transform="translate(250,20) scale(0.1,0.1)"><g transform="" style="fill: rgb(255, 116, 48);">
<rect width="100" height="100"/>
</g></g><g transform="translate(260,20) scale(0.1,0.1)"><g transform="" style="fill: rgb(255, 116, 48);">
<g>
	<path d="M100,34.375c0-9.505-3.354-17.611-10.059-24.316S75.131,0,65.625,0H0v100h100V34.375z"/>
</g>
</g></g><g transform="translate(90,30) scale(0.1,0.1)"><g transform="" style="fill: rgb(255, 116, 48);">
<polygon points="100,100 0,50 0,50 100,0 "/>
</g></g><g transform="translate(100,30) scale(0.1,0.1)"><g transform="" style="fill: rgb(255, 116, 48);">
<rect width="100" height="100"/>
</g></g><g transform="translate(110,30) scale(0.1,0.1)"><g transform="" style="fill: rgb(255, 116, 48);">
<rect width="100" height="100"/>
</g></g><g transform="translate(130,30) scale(0.1,0.1)"><g transform="" style="fill: rgb(255, 116, 48);">
<g>
	<path d="M100,34.375V0H34.375C24.87,0,16.764,3.353,10.059,10.059S0,24.87,0,34.375V100h100V34.375z"/>
</g>
</g></g><g transform="translate(140,30) scale(0.1,0.1)"><g transform="" style="fill: rgb(255, 116, 48);">
<rect width="100" height="100"/>
</g></g><g transform="translate(180,30) scale(0.1,0.1)"><g transform="" style="fill: rgb(255, 116, 48);">
<polygon points="0,-0.001 50,99.999 50,99.999 100,-0.001 "/>
</g></g><g transform="translate(220,30) scale(0.1,0.1)"><g transform="" style="fill: rgb(255, 116, 48);">
<g>
	<path d="M100,0H0v65.625c0,9.506,3.353,17.611,10.059,24.316S24.87,100,34.375,100H100V0z"/>
</g>
</g></g><g transform="translate(230,30) scale(0.1,0.1)"><g transform="" style="fill: rgb(255, 116, 48);">
<rect width="100" height="100"/>
</g></g><g transform="translate(240,30) scale(0.1,0.1)"><g transform="" style="fill: rgb(255, 116, 48);">
<rect width="100" height="100"/>
</g></g><g transform="translate(250,30) scale(0.1,0.1)"><g transform="" style="fill: rgb(255, 116, 48);">
<rect width="100" height="100"/>
</g></g><g transform="translate(260,30) scale(0.1,0.1)"><g transform="" style="fill: rgb(255, 116, 48);">
<rect width="100" height="100"/>
</g></g><g transform="translate(270,30) scale(0.1,0.1)"><g transform="" style="fill: rgb(255, 116, 48);">
<g>
	<path d="M100,34.375c0-9.505-3.354-17.611-10.059-24.316S75.131,0,65.625,0H0v100h100V34.375z"/>
</g>
</g></g><g transform="translate(80,40) scale(0.1,0.1)"><g transform="" style="fill: rgb(255, 116, 48);">
<polygon points="99.999,49.999 99.998,49.999 49.999,0 0,49.999 -0.001,49.999 -0.001,50 0,50 49.999,99.999 99.998,50 99.999,50 
	99.998,50 "/>
</g></g><g transform="translate(100,40) scale(0.1,0.1)"><g transform="" style="fill: rgb(255, 116, 48);">
<g>
	<path d="M100,0H0v65.625c0,9.506,3.353,17.611,10.059,24.316S24.87,100,34.375,100H100V0z"/>
</g>
</g></g><g transform="translate(110,40) scale(0.1,0.1)"><g transform="" style="fill: rgb(255, 116, 48);">
<g>
	<path d="M100,0H0v100h65.625c9.506,0,17.611-3.354,24.316-10.059S100,75.131,100,65.625V0z"/>
</g>
</g></g><g transform="translate(130,40) scale(0.1,0.1)"><g transform="" style="fill: rgb(255, 116, 48);">
<g>
	<path d="M100,0H0v65.625c0,9.506,3.353,17.611,10.059,24.316S24.87,100,34.375,100H100V0z"/>
</g>
</g></g><g transform="translate(140,40) scale(0.1,0.1)"><g transform="" style="fill: rgb(255, 116, 48);">
<rect width="100" height="100"/>
</g></g><g transform="translate(160,40) scale(0.1,0.1)"><g transform="" style="fill: rgb(255, 116, 48);">
<polygon points="100,100 50,0 50,0 0,100 "/>
</g></g><g transform="translate(200,40) scale(0.1,0.1)"><g transform="" style="fill: rgb(255, 116, 48);">
<polygon points="100,100 0,50 0,50 100,0 "/>
</g></g><g transform="translate(210,40) scale(0.1,0.1)"><g transform="" style="fill: rgb(255, 116, 48);">
<g>
	<path d="M100,34.375c0-9.505-3.354-17.611-10.059-24.316S75.131,0,65.625,0H0v100h100V34.375z"/>
</g>
</g></g><g transform="translate(230,40) scale(0.1,0.1)"><g transform="" style="fill: rgb(255, 116, 48);">
<g>
	<path d="M100,0H0v65.625c0,9.506,3.353,17.611,10.059,24.316S24.87,100,34.375,100H100V0z"/>
</g>
</g></g><g transform="translate(240,40) scale(0.1,0.1)"><g transform="" style="fill: rgb(255, 116, 48);">
<rect width="100" height="100"/>
</g></g><g transform="translate(260,40) scale(0.1,0.1)"><g transform="" style="fill: rgb(255, 116, 48);">
<g>
	<path d="M100,0H0v65.625c0,9.506,3.353,17.611,10.059,24.316S24.87,100,34.375,100H100V0z"/>
</g>
</g></g><g transform="translate(270,40) scale(0.1,0.1)"><g transform="" style="fill: rgb(255, 116, 48);">
<g>
	<path d="M100,0H0v100h65.625c9.506,0,17.611-3.354,24.316-10.059S100,75.131,100,65.625V0z"/>
</g>
</g></g><g transform="translate(90,50) scale(0.1,0.1)"><g transform="" style="fill: rgb(255, 116, 48);">
<polygon points="99.999,49.999 99.998,49.999 49.999,0 0,49.999 -0.001,49.999 -0.001,50 0,50 49.999,99.999 99.998,50 99.999,50 
	99.998,50 "/>
</g></g><g transform="translate(140,50) scale(0.1,0.1)"><g transform="" style="fill: rgb(255, 116, 48);">
<rect width="100" height="100"/>
</g></g><g transform="translate(160,50) scale(0.1,0.1)"><g transform="" style="fill: rgb(255, 116, 48);">
<rect width="100" height="100"/>
</g></g><g transform="translate(180,50) scale(0.1,0.1)"><g transform="" style="fill: rgb(255, 116, 48);">
<polygon points="100,100 50,0 50,0 0,100 "/>
</g></g><g transform="translate(210,50) scale(0.1,0.1)"><g transform="" style="fill: rgb(255, 116, 48);">
<g>
	<path d="M100,0H0v65.625c0,9.506,3.353,17.611,10.059,24.316S24.87,100,34.375,100H100V0z"/>
</g>
</g></g><g transform="translate(220,50) scale(0.1,0.1)"><g transform="" style="fill: rgb(255, 116, 48);">
<g>
	<path d="M100,34.375c0-9.505-3.354-17.611-10.059-24.316S75.131,0,65.625,0H0v100h100V34.375z"/>
</g>
</g></g><g transform="translate(240,50) scale(0.1,0.1)"><g transform="" style="fill: rgb(255, 116, 48);">
<rect width="100" height="100"/>
</g></g><g transform="translate(80,60) scale(0.1,0.1)"><g transform="" style="fill: rgb(255, 116, 48);">
<polygon points="100,100 50,0 50,0 0,100 "/>
</g></g><g transform="translate(100,60) scale(0.1,0.1)"><g transform="" style="fill: rgb(255, 116, 48);">
<polygon points="100,100 50,0 50,0 0,100 "/>
</g></g><g transform="translate(120,60) scale(0.1,0.1)"><g transform="" style="fill: rgb(255, 116, 48);">
<polygon points="99.999,49.999 99.998,49.999 49.999,0 0,49.999 -0.001,49.999 -0.001,50 0,50 49.999,99.999 99.998,50 99.999,50 
	99.998,50 "/>
</g></g><g transform="translate(140,60) scale(0.1,0.1)"><g transform="" style="fill: rgb(255, 116, 48);">
<polygon points="0,-0.001 50,99.999 50,99.999 100,-0.001 "/>
</g></g><g transform="translate(160,60) scale(0.1,0.1)"><g transform="" style="fill: rgb(255, 116, 48);">
<rect width="100" height="100"/>
</g></g><g transform="translate(180,60) scale(0.1,0.1)"><g transform="" style="fill: rgb(255, 116, 48);">
<rect width="100" height="100"/>
</g></g><g transform="translate(200,60) scale(0.1,0.1)"><g transform="" style="fill: rgb(255, 116, 48);">
<polygon points="99.999,49.999 99.998,49.999 49.999,0 0,49.999 -0.001,49.999 -0.001,50 0,50 49.999,99.999 99.998,50 99.999,50 
	99.998,50 "/>
</g></g><g transform="translate(220,60) scale(0.1,0.1)"><g transform="" style="fill: rgb(255, 116, 48);">
<rect width="100" height="100"/>
</g></g><g transform="translate(240,60) scale(0.1,0.1)"><g transform="" style="fill: rgb(255, 116, 48);">
<rect width="100" height="100"/>
</g></g><g transform="translate(260,60) scale(0.1,0.1)"><g transform="" style="fill: rgb(255, 116, 48);">
<polygon points="99.999,49.999 99.998,49.999 49.999,0 0,49.999 -0.001,49.999 -0.001,50 0,50 49.999,99.999 99.998,50 99.999,50 
	99.998,50 "/>
</g></g><g transform="translate(280,60) scale(0.1,0.1)"><g transform="" style="fill: rgb(255, 116, 48);">
<polygon points="100,100 50,0 50,0 0,100 "/>
</g></g><g transform="translate(80,70) scale(0.1,0.1)"><g transform="" style="fill: rgb(255, 116, 48);">
<rect width="100" height="100"/>
</g></g><g transform="translate(90,70) scale(0.1,0.1)"><g transform="" style="fill: rgb(255, 116, 48);">
<rect width="100" height="100"/>
</g></g><g transform="translate(100,70) scale(0.1,0.1)"><g transform="" style="fill: rgb(255, 116, 48);">
<rect width="100" height="100"/>
</g></g><g transform="translate(110,70) scale(0.1,0.1)"><g transform="" style="fill: rgb(255, 116, 48);">
<polygon points="0,100 100,50 100,50 0,0 "/>
</g></g><g transform="translate(130,70) scale(0.1,0.1)"><g transform="" style="fill: rgb(255, 116, 48);">
<polygon points="99.999,49.999 99.998,49.999 49.999,0 0,49.999 -0.001,49.999 -0.001,50 0,50 49.999,99.999 99.998,50 99.999,50 
	99.998,50 "/>
</g></g><g transform="translate(160,70) scale(0.1,0.1)"><g transform="" style="fill: rgb(255, 116, 48);">
<polygon points="0,-0.001 50,99.999 50,99.999 100,-0.001 "/>
</g></g><g transform="translate(180,70) scale(0.1,0.1)"><g transform="" style="fill: rgb(255, 116, 48);">
<rect width="100" height="100"/>
</g></g><g transform="translate(210,70) scale(0.1,0.1)"><g transform="" style="fill: rgb(255, 116, 48);">
<g>
	<path d="M100,34.375V0H34.375C24.87,0,16.764,3.353,10.059,10.059S0,24.87,0,34.375V100h100V34.375z"/>
</g>
</g></g><g transform="translate(220,70) scale(0.1,0.1)"><g transform="" style="fill: rgb(255, 116, 48);">
<g>
	<path d="M100,0H0v100h65.625c9.506,0,17.611-3.354,24.316-10.059S100,75.131,100,65.625V0z"/>
</g>
</g></g><g transform="translate(240,70) scale(0.1,0.1)"><g transform="" style="fill: rgb(255, 116, 48);">
<rect width="100" height="100"/>
</g></g><g transform="translate(270,70) scale(0.1,0.1)"><g transform="" style="fill: rgb(255, 116, 48);">
<g>
	<path d="M100,34.375V0H34.375C24.87,0,16.764,3.353,10.059,10.059S0,24.87,0,34.375V100h100V34.375z"/>
</g>
</g></g><g transform="translate(280,70) scale(0.1,0.1)"><g transform="" style="fill: rgb(255, 116, 48);">
<g>
	<path d="M100,0H0v100h65.625c9.506,0,17.611-3.354,24.316-10.059S100,75.131,100,65.625V0z"/>
</g>
</g></g><g transform="translate(20,80) scale(0.1,0.1)"><g transform="" style="fill: rgb(255, 116, 48);">
<polygon points="100,100 0,50 0,50 100,0 "/>
</g></g><g transform="translate(30,80) scale(0.1,0.1)"><g transform="" style="fill: rgb(255, 116, 48);">
<g>
	<path d="M100,34.375c0-9.505-3.354-17.611-10.059-24.316S75.131,0,65.625,0H0v100h100V34.375z"/>
</g>
</g></g><g transform="translate(60,80) scale(0.1,0.1)"><g transform="" style="fill: rgb(255, 116, 48);">
<polygon points="100,100 0,50 0,50 100,0 "/>
</g></g><g transform="translate(70,80) scale(0.1,0.1)"><g transform="" style="fill: rgb(255, 116, 48);">
<rect width="100" height="100"/>
</g></g><g transform="translate(80,80) scale(0.1,0.1)"><g transform="" style="fill: rgb(255, 116, 48);">
<rect width="100" height="100"/>
</g></g><g transform="translate(120,80) scale(0.1,0.1)"><g transform="" style="fill: rgb(255, 116, 48);">
<polygon points="99.999,49.999 99.998,49.999 49.999,0 0,49.999 -0.001,49.999 -0.001,50 0,50 49.999,99.999 99.998,50 99.999,50 
	99.998,50 "/>
</g></g><g transform="translate(150,80) scale(0.1,0.1)"><g transform="" style="fill: rgb(255, 116, 48);">
<polygon points="100,100 50,0 50,0 0,100 "/>
</g></g><g transform="translate(170,80) scale(0.1,0.1)"><g transform="" style="fill: rgb(255, 116, 48);">
<polygon points="100,100 0,50 0,50 100,0 "/>
</g></g><g transform="translate(180,80) scale(0.1,0.1)"><g transform="" style="fill: rgb(255, 116, 48);">
<g>
	<path d="M100,0H0v100h65.625c9.506,0,17.611-3.354,24.316-10.059S100,75.131,100,65.625V0z"/>
</g>
</g></g><g transform="translate(210,80) scale(0.1,0.1)"><g transform="" style="fill: rgb(255, 116, 48);">
<rect width="100" height="100"/>
</g></g><g transform="translate(240,80) scale(0.1,0.1)"><g transform="" style="fill: rgb(255, 116, 48);">
<rect width="100" height="100"/>
</g></g><g transform="translate(270,80) scale(0.1,0.1)"><g transform="" style="fill: rgb(255, 116, 48);">
<polygon points="0,-0.001 50,99.999 50,99.999 100,-0.001 "/>
</g></g><g transform="translate(290,80) scale(0.1,0.1)"><g transform="" style="fill: rgb(255, 116, 48);">
<g>
	<path d="M100,34.375V0H34.375C24.87,0,16.764,3.353,10.059,10.059S0,24.87,0,34.375V100h100V34.375z"/>
</g>
</g></g><g transform="translate(300,80) scale(0.1,0.1)"><g transform="" style="fill: rgb(255, 116, 48);">
<polygon points="0,100 100,50 100,50 0,0 "/>
</g></g><g transform="translate(320,80) scale(0.1,0.1)"><g transform="" style="fill: rgb(255, 116, 48);">
<polygon points="99.999,49.999 99.998,49.999 49.999,0 0,49.999 -0.001,49.999 -0.001,50 0,50 49.999,99.999 99.998,50 99.999,50 
	99.998,50 "/>
</g></g><g transform="translate(0,90) scale(0.1,0.1)"><g transform="" style="fill: rgb(255, 116, 48);">
<polygon points="99.999,49.999 99.998,49.999 49.999,0 0,49.999 -0.001,49.999 -0.001,50 0,50 49.999,99.999 99.998,50 99.999,50 
	99.998,50 "/>
</g></g><g transform="translate(30,90) scale(0.1,0.1)"><g transform="" style="fill: rgb(255, 116, 48);">
<polygon points="0,-0.001 50,99.999 50,99.999 100,-0.001 "/>
</g></g><g transform="translate(50,90) scale(0.1,0.1)"><g transform="" style="fill: rgb(255, 116, 48);">
<polygon points="99.999,49.999 99.998,49.999 49.999,0 0,49.999 -0.001,49.999 -0.001,50 0,50 49.999,99.999 99.998,50 99.999,50 
	99.998,50 "/>
</g></g><g transform="translate(80,90) scale(0.1,0.1)"><g transform="" style="fill: rgb(255, 116, 48);">
<polygon points="0,-0.001 50,99.999 50,99.999 100,-0.001 "/>
</g></g><g transform="translate(110,90) scale(0.1,0.1)"><g transform="" style="fill: rgb(255, 116, 48);">
<polygon points="100,100 50,0 50,0 0,100 "/>
</g></g><g transform="translate(130,90) scale(0.1,0.1)"><g transform="" style="fill: rgb(255, 116, 48);">
<polygon points="99.999,49.999 99.998,49.999 49.999,0 0,49.999 -0.001,49.999 -0.001,50 0,50 49.999,99.999 99.998,50 99.999,50 
	99.998,50 "/>
</g></g><g transform="translate(150,90) scale(0.1,0.1)"><g transform="" style="fill: rgb(255, 116, 48);">
<polygon points="0,-0.001 50,99.999 50,99.999 100,-0.001 "/>
</g></g><g transform="translate(190,90) scale(0.1,0.1)"><g transform="" style="fill: rgb(255, 116, 48);">
<polygon points="100,100 0,50 0,50 100,0 "/>
</g></g><g transform="translate(200,90) scale(0.1,0.1)"><g transform="" style="fill: rgb(255, 116, 48);">
<rect width="100" height="100"/>
</g></g><g transform="translate(210,90) scale(0.1,0.1)"><g transform="" style="fill: rgb(255, 116, 48);">
<rect width="100" height="100"/>
</g></g><g transform="translate(240,90) scale(0.1,0.1)"><g transform="" style="fill: rgb(255, 116, 48);">
<rect width="100" height="100"/>
</g></g><g transform="translate(250,90) scale(0.1,0.1)"><g transform="" style="fill: rgb(255, 116, 48);">
<g>
	<path d="M100,34.375c0-9.505-3.354-17.611-10.059-24.316S75.131,0,65.625,0H0v100h100V34.375z"/>
</g>
</g></g><g transform="translate(280,90) scale(0.1,0.1)"><g transform="" style="fill: rgb(255, 116, 48);">
<polygon points="100,100 0,50 0,50 100,0 "/>
</g></g><g transform="translate(290,90) scale(0.1,0.1)"><g transform="" style="fill: rgb(255, 116, 48);">
<rect width="100" height="100"/>
</g></g><g transform="translate(310,90) scale(0.1,0.1)"><g transform="" style="fill: rgb(255, 116, 48);">
<polygon points="100,100 50,0 50,0 0,100 "/>
</g></g><g transform="translate(340,90) scale(0.1,0.1)"><g transform="" style="fill: rgb(255, 116, 48);">
<polygon points="100,100 50,0 50,0 0,100 "/>
</g></g><g transform="translate(10,100) scale(0.1,0.1)"><g transform="" style="fill: rgb(255, 116, 48);">
<polygon points="100,100 50,0 50,0 0,100 "/>
</g></g><g transform="translate(60,100) scale(0.1,0.1)"><g transform="" style="fill: rgb(255, 116, 48);">
<polygon points="100,100 0,50 0,50 100,0 "/>
</g></g><g transform="translate(70,100) scale(0.1,0.1)"><g transform="" style="fill: rgb(255, 116, 48);">
<g>
	<path d="M100,34.375c0-9.505-3.354-17.611-10.059-24.316S75.131,0,65.625,0H0v100h100V34.375z"/>
</g>
</g></g><g transform="translate(90,100) scale(0.1,0.1)"><g transform="" style="fill: rgb(255, 116, 48);">
<polygon points="99.999,49.999 99.998,49.999 49.999,0 0,49.999 -0.001,49.999 -0.001,50 0,50 49.999,99.999 99.998,50 99.999,50 
	99.998,50 "/>
</g></g><g transform="translate(110,100) scale(0.1,0.1)"><g transform="" style="fill: rgb(255, 116, 48);">
<polygon points="0,-0.001 50,99.999 50,99.999 100,-0.001 "/>
</g></g><g transform="translate(170,100) scale(0.1,0.1)"><g transform="" style="fill: rgb(255, 116, 48);">
<polygon points="100,100 50,0 50,0 0,100 "/>
</g></g><g transform="translate(210,100) scale(0.1,0.1)"><g transform="" style="fill: rgb(255, 116, 48);">
<g>
	<path d="M100,0H0v65.625c0,9.506,3.353,17.611,10.059,24.316S24.87,100,34.375,100H100V0z"/>
</g>
</g></g><g transform="translate(220,100) scale(0.1,0.1)"><g transform="" style="fill: rgb(255, 116, 48);">
<rect width="100" height="100"/>
</g></g><g transform="translate(230,100) scale(0.1,0.1)"><g transform="" style="fill: rgb(255, 116, 48);">
<rect width="100" height="100"/>
</g></g><g transform="translate(240,100) scale(0.1,0.1)"><g transform="" style="fill: rgb(255, 116, 48);">
<rect width="100" height="100"/>
</g></g><g transform="translate(250,100) scale(0.1,0.1)"><g transform="" style="fill: rgb(255, 116, 48);">
<rect width="100" height="100"/>
</g></g><g transform="translate(290,100) scale(0.1,0.1)"><g transform="" style="fill: rgb(255, 116, 48);">
<polygon points="0,-0.001 50,99.999 50,99.999 100,-0.001 "/>
</g></g><g transform="translate(310,100) scale(0.1,0.1)"><g transform="" style="fill: rgb(255, 116, 48);">
<g>
	<path d="M100,0H0v65.625c0,9.506,3.353,17.611,10.059,24.316S24.87,100,34.375,100H100V0z"/>
</g>
</g></g><g transform="translate(320,100) scale(0.1,0.1)"><g transform="" style="fill: rgb(255, 116, 48);">
<polygon points="0,100 100,50 100,50 0,0 "/>
</g></g><g transform="translate(340,100) scale(0.1,0.1)"><g transform="" style="fill: rgb(255, 116, 48);">
<rect width="100" height="100"/>
</g></g><g transform="translate(0,110) scale(0.1,0.1)"><g transform="" style="fill: rgb(255, 116, 48);">
<g>
	<path d="M100,34.375V0H34.375C24.87,0,16.764,3.353,10.059,10.059S0,24.87,0,34.375V100h100V34.375z"/>
</g>
</g></g><g transform="translate(10,110) scale(0.1,0.1)"><g transform="" style="fill: rgb(255, 116, 48);">
<rect width="100" height="100"/>
</g></g><g transform="translate(20,110) scale(0.1,0.1)"><g transform="" style="fill: rgb(255, 116, 48);">
<g>
	<path d="M100,34.375c0-9.505-3.354-17.611-10.059-24.316S75.131,0,65.625,0H0v100h100V34.375z"/>
</g>
</g></g><g transform="translate(40,110) scale(0.1,0.1)"><g transform="" style="fill: rgb(255, 116, 48);">
<g>
	<path d="M100,34.375V0H34.375C24.87,0,16.764,3.353,10.059,10.059S0,24.87,0,34.375V100h100V34.375z"/>
</g>
</g></g><g transform="translate(50,110) scale(0.1,0.1)"><g transform="" style="fill: rgb(255, 116, 48);">
<g>
	<path d="M100,34.375c0-9.505-3.354-17.611-10.059-24.316S75.131,0,65.625,0H0v100h100V34.375z"/>
</g>
</g></g><g transform="translate(70,110) scale(0.1,0.1)"><g transform="" style="fill: rgb(255, 116, 48);">
<polygon points="0,-0.001 50,99.999 50,99.999 100,-0.001 "/>
</g></g><g transform="translate(100,110) scale(0.1,0.1)"><g transform="" style="fill: rgb(255, 116, 48);">
<polygon points="99.999,49.999 99.998,49.999 49.999,0 0,49.999 -0.001,49.999 -0.001,50 0,50 49.999,99.999 99.998,50 99.999,50 
	99.998,50 "/>
</g></g><g transform="translate(120,110) scale(0.1,0.1)"><g transform="" style="fill: rgb(255, 116, 48);">
<polygon points="100,100 0,50 0,50 100,0 "/>
</g></g><g transform="translate(130,110) scale(0.1,0.1)"><g transform="" style="fill: rgb(255, 116, 48);">
<polygon points="0,100 100,50 100,50 0,0 "/>
</g></g><g transform="translate(160,110) scale(0.1,0.1)"><g transform="" style="fill: rgb(255, 116, 48);">
<polygon points="100,100 0,50 0,50 100,0 "/>
</g></g><g transform="translate(170,110) scale(0.1,0.1)"><g transform="" style="fill: rgb(255, 116, 48);">
<g>
	<path d="M100,0H0v100h65.625c9.506,0,17.611-3.354,24.316-10.059S100,75.131,100,65.625V0z"/>
</g>
</g></g><g transform="translate(190,110) scale(0.1,0.1)"><g transform="" style="fill: rgb(255, 116, 48);">
<polygon points="100,100 50,0 50,0 0,100 "/>
</g></g><g transform="translate(220,110) scale(0.1,0.1)"><g transform="" style="fill: rgb(255, 116, 48);">
<rect width="100" height="100"/>
</g></g><g transform="translate(250,110) scale(0.1,0.1)"><g transform="" style="fill: rgb(255, 116, 48);">
<rect width="100" height="100"/>
</g></g><g transform="translate(260,110) scale(0.1,0.1)"><g transform="" style="fill: rgb(255, 116, 48);">
<rect width="100" height="100"/>
</g></g><g transform="translate(270,110) scale(0.1,0.1)"><g transform="" style="fill: rgb(255, 116, 48);">
<polygon points="0,100 100,50 100,50 0,0 "/>
</g></g><g transform="translate(330,110) scale(0.1,0.1)"><g transform="" style="fill: rgb(255, 116, 48);">
<polygon points="100,100 0,50 0,50 100,0 "/>
</g></g><g transform="translate(340,110) scale(0.1,0.1)"><g transform="" style="fill: rgb(255, 116, 48);">
<rect width="100" height="100"/>
</g></g><g transform="translate(350,110) scale(0.1,0.1)"><g transform="" style="fill: rgb(255, 116, 48);">
<rect width="100" height="100"/>
</g></g><g transform="translate(360,110) scale(0.1,0.1)"><g transform="" style="fill: rgb(255, 116, 48);">
<g>
	<path d="M100,34.375c0-9.505-3.354-17.611-10.059-24.316S75.131,0,65.625,0H0v100h100V34.375z"/>
</g>
</g></g><g transform="translate(0,120) scale(0.1,0.1)"><g transform="" style="fill: rgb(255, 116, 48);">
<g>
	<path d="M100,0H0v65.625c0,9.506,3.353,17.611,10.059,24.316S24.87,100,34.375,100H100V0z"/>
</g>
</g></g><g transform="translate(10,120) scale(0.1,0.1)"><g transform="" style="fill: rgb(255, 116, 48);">
<rect width="100" height="100"/>
</g></g><g transform="translate(20,120) scale(0.1,0.1)"><g transform="" style="fill: rgb(255, 116, 48);">
<rect width="100" height="100"/>
</g></g><g transform="translate(30,120) scale(0.1,0.1)"><g transform="" style="fill: rgb(255, 116, 48);">
<rect width="100" height="100"/>
</g></g><g transform="translate(40,120) scale(0.1,0.1)"><g transform="" style="fill: rgb(255, 116, 48);">
<rect width="100" height="100"/>
</g></g><g transform="translate(50,120) scale(0.1,0.1)"><g transform="" style="fill: rgb(255, 116, 48);">
<rect width="100" height="100"/>
</g></g><g transform="translate(60,120) scale(0.1,0.1)"><g transform="" style="fill: rgb(255, 116, 48);">
<polygon points="0,100 100,50 100,50 0,0 "/>
</g></g><g transform="translate(80,120) scale(0.1,0.1)"><g transform="" style="fill: rgb(255, 116, 48);">
<g>
	<path d="M100,34.375V0H34.375C24.87,0,16.764,3.353,10.059,10.059S0,24.87,0,34.375V100h100V34.375z"/>
</g>
</g></g><g transform="translate(90,120) scale(0.1,0.1)"><g transform="" style="fill: rgb(255, 116, 48);">
<g>
	<path d="M100,34.375c0-9.505-3.354-17.611-10.059-24.316S75.131,0,65.625,0H0v100h100V34.375z"/>
</g>
</g></g><g transform="translate(110,120) scale(0.1,0.1)"><g transform="" style="fill: rgb(255, 116, 48);">
<polygon points="99.999,49.999 99.998,49.999 49.999,0 0,49.999 -0.001,49.999 -0.001,50 0,50 49.999,99.999 99.998,50 99.999,50 
	99.998,50 "/>
</g></g><g transform="translate(140,120) scale(0.1,0.1)"><g transform="" style="fill: rgb(255, 116, 48);">
<polygon points="100,100 0,50 0,50 100,0 "/>
</g></g><g transform="translate(150,120) scale(0.1,0.1)"><g transform="" style="fill: rgb(255, 116, 48);">
<polygon points="0,100 100,50 100,50 0,0 "/>
</g></g><g transform="translate(180,120) scale(0.1,0.1)"><g transform="" style="fill: rgb(255, 116, 48);">
<polygon points="100,100 0,50 0,50 100,0 "/>
</g></g><g transform="translate(190,120) scale(0.1,0.1)"><g transform="" style="fill: rgb(255, 116, 48);">
<rect width="100" height="100"/>
</g></g><g transform="translate(200,120) scale(0.1,0.1)"><g transform="" style="fill: rgb(255, 116, 48);">
<polygon points="0,100 100,50 100,50 0,0 "/>
</g></g><g transform="translate(220,120) scale(0.1,0.1)"><g transform="" style="fill: rgb(255, 116, 48);">
<polygon points="0,-0.001 50,99.999 50,99.999 100,-0.001 "/>
</g></g><g transform="translate(250,120) scale(0.1,0.1)"><g transform="" style="fill: rgb(255, 116, 48);">
<rect width="100" height="100"/>
</g></g><g transform="translate(260,120) scale(0.1,0.1)"><g transform="" style="fill: rgb(255, 116, 48);">
<g>
	<path d="M100,0H0v100h65.625c9.506,0,17.611-3.354,24.316-10.059S100,75.131,100,65.625V0z"/>
</g>
</g></g><g transform="translate(290,120) scale(0.1,0.1)"><g transform="" style="fill: rgb(255, 116, 48);">
<polygon points="100,100 0,50 0,50 100,0 "/>
</g></g><g transform="translate(300,120) scale(0.1,0.1)"><g transform="" style="fill: rgb(255, 116, 48);">
<g>
	<path d="M100,34.375c0-9.505-3.354-17.611-10.059-24.316S75.131,0,65.625,0H0v100h100V34.375z"/>
</g>
</g></g><g transform="translate(320,120) scale(0.1,0.1)"><g transform="" style="fill: rgb(255, 116, 48);">
<polygon points="100,100 50,0 50,0 0,100 "/>
</g></g><g transform="translate(340,120) scale(0.1,0.1)"><g transform="" style="fill: rgb(255, 116, 48);">
<rect width="100" height="100"/>
</g></g><g transform="translate(360,120) scale(0.1,0.1)"><g transform="" style="fill: rgb(255, 116, 48);">
<rect width="100" height="100"/>
</g></g><g transform="translate(10,130) scale(0.1,0.1)"><g transform="" style="fill: rgb(255, 116, 48);">
<rect width="100" height="100"/>
</g></g><g transform="translate(30,130) scale(0.1,0.1)"><g transform="" style="fill: rgb(255, 116, 48);">
<rect width="100" height="100"/>
</g></g><g transform="translate(50,130) scale(0.1,0.1)"><g transform="" style="fill: rgb(255, 116, 48);">
<polygon points="0,-0.001 50,99.999 50,99.999 100,-0.001 "/>
</g></g><g transform="translate(80,130) scale(0.1,0.1)"><g transform="" style="fill: rgb(255, 116, 48);">
<g>
	<path d="M100,0H0v65.625c0,9.506,3.353,17.611,10.059,24.316S24.87,100,34.375,100H100V0z"/>
</g>
</g></g><g transform="translate(90,130) scale(0.1,0.1)"><g transform="" style="fill: rgb(255, 116, 48);">
<rect width="100" height="100"/>
</g></g><g transform="translate(100,130) scale(0.1,0.1)"><g transform="" style="fill: rgb(255, 116, 48);">
<g>
	<path d="M100,34.375c0-9.505-3.354-17.611-10.059-24.316S75.131,0,65.625,0H0v100h100V34.375z"/>
</g>
</g></g><g transform="translate(250,130) scale(0.1,0.1)"><g transform="" style="fill: rgb(255, 116, 48);">
<rect width="100" height="100"/>
</g></g><g transform="translate(270,130) scale(0.1,0.1)"><g transform="" style="fill: rgb(255, 116, 48);">
<polygon points="100,100 0,50 0,50 100,0 "/>
</g></g><g transform="translate(280,130) scale(0.1,0.1)"><g transform="" style="fill: rgb(255, 116, 48);">
<polygon points="0,100 100,50 100,50 0,0 "/>
</g></g><g transform="translate(300,130) scale(0.1,0.1)"><g transform="" style="fill: rgb(255, 116, 48);">
<rect width="100" height="100"/>
</g></g><g transform="translate(310,130) scale(0.1,0.1)"><g transform="" style="fill: rgb(255, 116, 48);">
<rect width="100" height="100"/>
</g></g><g transform="translate(320,130) scale(0.1,0.1)"><g transform="" style="fill: rgb(255, 116, 48);">
<rect width="100" height="100"/>
</g></g><g transform="translate(340,130) scale(0.1,0.1)"><g transform="" style="fill: rgb(255, 116, 48);">
<rect width="100" height="100"/>
</g></g><g transform="translate(350,130) scale(0.1,0.1)"><g transform="" style="fill: rgb(255, 116, 48);">
<rect width="100" height="100"/>
</g></g><g transform="translate(360,130) scale(0.1,0.1)"><g transform="" style="fill: rgb(255, 116, 48);">
<g>
	<path d="M100,0H0v100h65.625c9.506,0,17.611-3.354,24.316-10.059S100,75.131,100,65.625V0z"/>
</g>
</g></g><g transform="translate(10,140) scale(0.1,0.1)"><g transform="" style="fill: rgb(255, 116, 48);">
<rect width="100" height="100"/>
</g></g><g transform="translate(20,140) scale(0.1,0.1)"><g transform="" style="fill: rgb(255, 116, 48);">
<rect width="100" height="100"/>
</g></g><g transform="translate(30,140) scale(0.1,0.1)"><g transform="" style="fill: rgb(255, 116, 48);">
<rect width="100" height="100"/>
</g></g><g transform="translate(40,140) scale(0.1,0.1)"><g transform="" style="fill: rgb(255, 116, 48);">
<polygon points="0,100 100,50 100,50 0,0 "/>
</g></g><g transform="translate(60,140) scale(0.1,0.1)"><g transform="" style="fill: rgb(255, 116, 48);">
<polygon points="99.999,49.999 99.998,49.999 49.999,0 0,49.999 -0.001,49.999 -0.001,50 0,50 49.999,99.999 99.998,50 99.999,50 
	99.998,50 "/>
</g></g><g transform="translate(90,140) scale(0.1,0.1)"><g transform="" style="fill: rgb(255, 116, 48);">
<g>
	<path d="M100,0H0v65.625c0,9.506,3.353,17.611,10.059,24.316S24.87,100,34.375,100H100V0z"/>
</g>
</g></g><g transform="translate(100,140) scale(0.1,0.1)"><g transform="" style="fill: rgb(255, 116, 48);">
<rect width="100" height="100"/>
</g></g><g transform="translate(110,140) scale(0.1,0.1)"><g transform="" style="fill: rgb(255, 116, 48);">
<rect width="100" height="100"/>
</g></g><g transform="translate(120,140) scale(0.1,0.1)"><g transform="" style="fill: rgb(255, 116, 48);">
<polygon points="0,100 100,50 100,50 0,0 "/>
</g></g><g transform="translate(240,140) scale(0.1,0.1)"><g transform="" style="fill: rgb(255, 116, 48);">
<g>
	<path d="M100,34.375V0H34.375C24.87,0,16.764,3.353,10.059,10.059S0,24.87,0,34.375V100h100V34.375z"/>
</g>
</g></g><g transform="translate(250,140) scale(0.1,0.1)"><g transform="" style="fill: rgb(255, 116, 48);">
<g>
	<path d="M100,0H0v100h65.625c9.506,0,17.611-3.354,24.316-10.059S100,75.131,100,65.625V0z"/>
</g>
</g></g><g transform="translate(290,140) scale(0.1,0.1)"><g transform="" style="fill: rgb(255, 116, 48);">
<polygon points="100,100 0,50 0,50 100,0 "/>
</g></g><g transform="translate(300,140) scale(0.1,0.1)"><g transform="" style="fill: rgb(255, 116, 48);">
<g>
	<path d="M100,0H0v100h65.625c9.506,0,17.611-3.354,24.316-10.059S100,75.131,100,65.625V0z"/>
</g>
</g></g><g transform="translate(320,140) scale(0.1,0.1)"><g transform="" style="fill: rgb(255, 116, 48);">
<rect width="100" height="100"/>
</g></g><g transform="translate(340,140) scale(0.1,0.1)"><g transform="" style="fill: rgb(255, 116, 48);">
<polygon points="0,-0.001 50,99.999 50,99.999 100,-0.001 "/>
</g></g><g transform="translate(10,150) scale(0.1,0.1)"><g transform="" style="fill: rgb(255, 116, 48);">
<rect width="100" height="100"/>
</g></g><g transform="translate(20,150) scale(0.1,0.1)"><g transform="" style="fill: rgb(255, 116, 48);">
<rect width="100" height="100"/>
</g></g><g transform="translate(50,150) scale(0.1,0.1)"><g transform="" style="fill: rgb(255, 116, 48);">
<polygon points="100,100 50,0 50,0 0,100 "/>
</g></g><g transform="translate(70,150) scale(0.1,0.1)"><g transform="" style="fill: rgb(255, 116, 48);">
<polygon points="99.999,49.999 99.998,49.999 49.999,0 0,49.999 -0.001,49.999 -0.001,50 0,50 49.999,99.999 99.998,50 99.999,50 
	99.998,50 "/>
</g></g><g transform="translate(100,150) scale(0.1,0.1)"><g transform="" style="fill: rgb(255, 116, 48);">
<polygon points="0,-0.001 50,99.999 50,99.999 100,-0.001 "/>
</g></g><g transform="translate(240,150) scale(0.1,0.1)"><g transform="" style="fill: rgb(255, 116, 48);">
<rect width="100" height="100"/>
</g></g><g transform="translate(260,150) scale(0.1,0.1)"><g transform="" style="fill: rgb(255, 116, 48);">
<polygon points="99.999,49.999 99.998,49.999 49.999,0 0,49.999 -0.001,49.999 -0.001,50 0,50 49.999,99.999 99.998,50 99.999,50 
	99.998,50 "/>
</g></g><g transform="translate(280,150) scale(0.1,0.1)"><g transform="" style="fill: rgb(255, 116, 48);">
<polygon points="99.999,49.999 99.998,49.999 49.999,0 0,49.999 -0.001,49.999 -0.001,50 0,50 49.999,99.999 99.998,50 99.999,50 
	99.998,50 "/>
</g></g><g transform="translate(310,150) scale(0.1,0.1)"><g transform="" style="fill: rgb(255, 116, 48);">
<polygon points="100,100 0,50 0,50 100,0 "/>
</g></g><g transform="translate(320,150) scale(0.1,0.1)"><g transform="" style="fill: rgb(255, 116, 48);">
<g>
	<path d="M100,0H0v100h65.625c9.506,0,17.611-3.354,24.316-10.059S100,75.131,100,65.625V0z"/>
</g>
</g></g><g transform="translate(350,150) scale(0.1,0.1)"><g transform="" style="fill: rgb(255, 116, 48);">
<polygon points="99.999,49.999 99.998,49.999 49.999,0 0,49.999 -0.001,49.999 -0.001,50 0,50 49.999,99.999 99.998,50 99.999,50 
	99.998,50 "/>
</g></g><g transform="translate(0,160) scale(0.1,0.1)"><g transform="" style="fill: rgb(255, 116, 48);">
<g>
	<path d="M100,34.375V0H34.375C24.87,0,16.764,3.353,10.059,10.059S0,24.87,0,34.375V100h100V34.375z"/>
</g>
</g></g><g transform="translate(10,160) scale(0.1,0.1)"><g transform="" style="fill: rgb(255, 116, 48);">
<rect width="100" height="100"/>
</g></g><g transform="translate(20,160) scale(0.1,0.1)"><g transform="" style="fill: rgb(255, 116, 48);">
<rect width="100" height="100"/>
</g></g><g transform="translate(30,160) scale(0.1,0.1)"><g transform="" style="fill: rgb(255, 116, 48);">
<rect width="100" height="100"/>
</g></g><g transform="translate(40,160) scale(0.1,0.1)"><g transform="" style="fill: rgb(255, 116, 48);">
<rect width="100" height="100"/>
</g></g><g transform="translate(50,160) scale(0.1,0.1)"><g transform="" style="fill: rgb(255, 116, 48);">
<rect width="100" height="100"/>
</g></g><g transform="translate(60,160) scale(0.1,0.1)"><g transform="" style="fill: rgb(255, 116, 48);">
<polygon points="0,100 100,50 100,50 0,0 "/>
</g></g><g transform="translate(80,160) scale(0.1,0.1)"><g transform="" style="fill: rgb(255, 116, 48);">
<polygon points="100,100 0,50 0,50 100,0 "/>
</g></g><g transform="translate(90,160) scale(0.1,0.1)"><g transform="" style="fill: rgb(255, 116, 48);">
<g>
	<path d="M100,34.375c0-9.505-3.354-17.611-10.059-24.316S75.131,0,65.625,0H0v100h100V34.375z"/>
</g>
</g></g><g transform="translate(240,160) scale(0.1,0.1)"><g transform="" style="fill: rgb(255, 116, 48);">
<rect width="100" height="100"/>
</g></g><g transform="translate(250,160) scale(0.1,0.1)"><g transform="" style="fill: rgb(255, 116, 48);">
<polygon points="0,100 100,50 100,50 0,0 "/>
</g></g><g transform="translate(270,160) scale(0.1,0.1)"><g transform="" style="fill: rgb(255, 116, 48);">
<polygon points="100,100 50,0 50,0 0,100 "/>
</g></g><g transform="translate(330,160) scale(0.1,0.1)"><g transform="" style="fill: rgb(255, 116, 48);">
<g>
	<path d="M100,34.375V0H34.375C24.87,0,16.764,3.353,10.059,10.059S0,24.87,0,34.375V100h100V34.375z"/>
</g>
</g></g><g transform="translate(340,160) scale(0.1,0.1)"><g transform="" style="fill: rgb(255, 116, 48);">
<polygon points="0,100 100,50 100,50 0,0 "/>
</g></g><g transform="translate(0,170) scale(0.1,0.1)"><g transform="" style="fill: rgb(255, 116, 48);">
<polygon points="0,-0.001 50,99.999 50,99.999 100,-0.001 "/>
</g></g><g transform="translate(70,170) scale(0.1,0.1)"><g transform="" style="fill: rgb(255, 116, 48);">
<polygon points="100,100 50,0 50,0 0,100 "/>
</g></g><g transform="translate(90,170) scale(0.1,0.1)"><g transform="" style="fill: rgb(255, 116, 48);">
<polygon points="0,-0.001 50,99.999 50,99.999 100,-0.001 "/>
</g></g><g transform="translate(110,170) scale(0.1,0.1)"><g transform="" style="fill: rgb(255, 116, 48);">
<polygon points="100,100 50,0 50,0 0,100 "/>
</g></g><g transform="translate(240,170) scale(0.1,0.1)"><g transform="" style="fill: rgb(255, 116, 48);">
<polygon points="0,-0.001 50,99.999 50,99.999 100,-0.001 "/>
</g></g><g transform="translate(270,170) scale(0.1,0.1)"><g transform="" style="fill: rgb(255, 116, 48);">
<rect width="100" height="100"/>
</g></g><g transform="translate(300,170) scale(0.1,0.1)"><g transform="" style="fill: rgb(255, 116, 48);">
<polygon points="99.999,49.999 99.998,49.999 49.999,0 0,49.999 -0.001,49.999 -0.001,50 0,50 49.999,99.999 99.998,50 99.999,50 
	99.998,50 "/>
</g></g><g transform="translate(330,170) scale(0.1,0.1)"><g transform="" style="fill: rgb(255, 116, 48);">
<rect width="100" height="100"/>
</g></g><g transform="translate(360,170) scale(0.1,0.1)"><g transform="" style="fill: rgb(255, 116, 48);">
<polygon points="100,100 50,0 50,0 0,100 "/>
</g></g><g transform="translate(10,180) scale(0.1,0.1)"><g transform="" style="fill: rgb(255, 116, 48);">
<polygon points="100,100 0,50 0,50 100,0 "/>
</g></g><g transform="translate(20,180) scale(0.1,0.1)"><g transform="" style="fill: rgb(255, 116, 48);">
<polygon points="0,100 100,50 100,50 0,0 "/>
</g></g><g transform="translate(40,180) scale(0.1,0.1)"><g transform="" style="fill: rgb(255, 116, 48);">
<polygon points="100,100 50,0 50,0 0,100 "/>
</g></g><g transform="translate(60,180) scale(0.1,0.1)"><g transform="" style="fill: rgb(255, 116, 48);">
<polygon points="100,100 0,50 0,50 100,0 "/>
</g></g><g transform="translate(70,180) scale(0.1,0.1)"><g transform="" style="fill: rgb(255, 116, 48);">
<rect width="100" height="100"/>
</g></g><g transform="translate(100,180) scale(0.1,0.1)"><g transform="" style="fill: rgb(255, 116, 48);">
<polygon points="100,100 0,50 0,50 100,0 "/>
</g></g><g transform="translate(110,180) scale(0.1,0.1)"><g transform="" style="fill: rgb(255, 116, 48);">
<rect width="100" height="100"/>
</g></g><g transform="translate(250,180) scale(0.1,0.1)"><g transform="" style="fill: rgb(255, 116, 48);">
<polygon points="100,100 0,50 0,50 100,0 "/>
</g></g><g transform="translate(260,180) scale(0.1,0.1)"><g transform="" style="fill: rgb(255, 116, 48);">
<rect width="100" height="100"/>
</g></g><g transform="translate(270,180) scale(0.1,0.1)"><g transform="" style="fill: rgb(255, 116, 48);">
<rect width="100" height="100"/>
</g></g><g transform="translate(280,180) scale(0.1,0.1)"><g transform="" style="fill: rgb(255, 116, 48);">
<g>
	<path d="M100,34.375c0-9.505-3.354-17.611-10.059-24.316S75.131,0,65.625,0H0v100h100V34.375z"/>
</g>
</g></g><g transform="translate(310,180) scale(0.1,0.1)"><g transform="" style="fill: rgb(255, 116, 48);">
<polygon points="99.999,49.999 99.998,49.999 49.999,0 0,49.999 -0.001,49.999 -0.001,50 0,50 49.999,99.999 99.998,50 99.999,50 
	99.998,50 "/>
</g></g><g transform="translate(330,180) scale(0.1,0.1)"><g transform="" style="fill: rgb(255, 116, 48);">
<rect width="100" height="100"/>
</g></g><g transform="translate(340,180) scale(0.1,0.1)"><g transform="" style="fill: rgb(255, 116, 48);">
<rect width="100" height="100"/>
</g></g><g transform="translate(350,180) scale(0.1,0.1)"><g transform="" style="fill: rgb(255, 116, 48);">
<rect width="100" height="100"/>
</g></g><g transform="translate(360,180) scale(0.1,0.1)"><g transform="" style="fill: rgb(255, 116, 48);">
<rect width="100" height="100"/>
</g></g><g transform="translate(0,190) scale(0.1,0.1)"><g transform="" style="fill: rgb(255, 116, 48);">
<polygon points="99.999,49.999 99.998,49.999 49.999,0 0,49.999 -0.001,49.999 -0.001,50 0,50 49.999,99.999 99.998,50 99.999,50 
	99.998,50 "/>
</g></g><g transform="translate(40,190) scale(0.1,0.1)"><g transform="" style="fill: rgb(255, 116, 48);">
<g>
	<path d="M100,0H0v65.625c0,9.506,3.353,17.611,10.059,24.316S24.87,100,34.375,100H100V0z"/>
</g>
</g></g><g transform="translate(50,190) scale(0.1,0.1)"><g transform="" style="fill: rgb(255, 116, 48);">
<g>
	<path d="M100,34.375c0-9.505-3.354-17.611-10.059-24.316S75.131,0,65.625,0H0v100h100V34.375z"/>
</g>
</g></g><g transform="translate(70,190) scale(0.1,0.1)"><g transform="" style="fill: rgb(255, 116, 48);">
<rect width="100" height="100"/>
</g></g><g transform="translate(110,190) scale(0.1,0.1)"><g transform="" style="fill: rgb(255, 116, 48);">
<polygon points="0,-0.001 50,99.999 50,99.999 100,-0.001 "/>
</g></g><g transform="translate(240,190) scale(0.1,0.1)"><g transform="" style="fill: rgb(255, 116, 48);">
<polygon points="99.999,49.999 99.998,49.999 49.999,0 0,49.999 -0.001,49.999 -0.001,50 0,50 49.999,99.999 99.998,50 99.999,50 
	99.998,50 "/>
</g></g><g transform="translate(280,190) scale(0.1,0.1)"><g transform="" style="fill: rgb(255, 116, 48);">
<rect width="100" height="100"/>
</g></g><g transform="translate(330,190) scale(0.1,0.1)"><g transform="" style="fill: rgb(255, 116, 48);">
<polygon points="0,-0.001 50,99.999 50,99.999 100,-0.001 "/>
</g></g><g transform="translate(350,190) scale(0.1,0.1)"><g transform="" style="fill: rgb(255, 116, 48);">
<g>
	<path d="M100,0H0v65.625c0,9.506,3.353,17.611,10.059,24.316S24.87,100,34.375,100H100V0z"/>
</g>
</g></g><g transform="translate(360,190) scale(0.1,0.1)"><g transform="" style="fill: rgb(255, 116, 48);">
<rect width="100" height="100"/>
</g></g><g transform="translate(20,200) scale(0.1,0.1)"><g transform="" style="fill: rgb(255, 116, 48);">
<polygon points="99.999,49.999 99.998,49.999 49.999,0 0,49.999 -0.001,49.999 -0.001,50 0,50 49.999,99.999 99.998,50 99.999,50 
	99.998,50 "/>
</g></g><g transform="translate(50,200) scale(0.1,0.1)"><g transform="" style="fill: rgb(255, 116, 48);">
<rect width="100" height="100"/>
</g></g><g transform="translate(60,200) scale(0.1,0.1)"><g transform="" style="fill: rgb(255, 116, 48);">
<rect width="100" height="100"/>
</g></g><g transform="translate(70,200) scale(0.1,0.1)"><g transform="" style="fill: rgb(255, 116, 48);">
<rect width="100" height="100"/>
</g></g><g transform="translate(80,200) scale(0.1,0.1)"><g transform="" style="fill: rgb(255, 116, 48);">
<rect width="100" height="100"/>
</g></g><g transform="translate(90,200) scale(0.1,0.1)"><g transform="" style="fill: rgb(255, 116, 48);">
<g>
	<path d="M100,34.375c0-9.505-3.354-17.611-10.059-24.316S75.131,0,65.625,0H0v100h100V34.375z"/>
</g>
</g></g><g transform="translate(120,200) scale(0.1,0.1)"><g transform="" style="fill: rgb(255, 116, 48);">
<polygon points="99.999,49.999 99.998,49.999 49.999,0 0,49.999 -0.001,49.999 -0.001,50 0,50 49.999,99.999 99.998,50 99.999,50 
	99.998,50 "/>
</g></g><g transform="translate(260,200) scale(0.1,0.1)"><g transform="" style="fill: rgb(255, 116, 48);">
<polygon points="100,100 50,0 50,0 0,100 "/>
</g></g><g transform="translate(280,200) scale(0.1,0.1)"><g transform="" style="fill: rgb(255, 116, 48);">
<g>
	<path d="M100,0H0v65.625c0,9.506,3.353,17.611,10.059,24.316S24.87,100,34.375,100H100V0z"/>
</g>
</g></g><g transform="translate(290,200) scale(0.1,0.1)"><g transform="" style="fill: rgb(255, 116, 48);">
<polygon points="0,100 100,50 100,50 0,0 "/>
</g></g><g transform="translate(320,200) scale(0.1,0.1)"><g transform="" style="fill: rgb(255, 116, 48);">
<polygon points="99.999,49.999 99.998,49.999 49.999,0 0,49.999 -0.001,49.999 -0.001,50 0,50 49.999,99.999 99.998,50 99.999,50 
	99.998,50 "/>
</g></g><g transform="translate(360,200) scale(0.1,0.1)"><g transform="" style="fill: rgb(255, 116, 48);">
<polygon points="0,-0.001 50,99.999 50,99.999 100,-0.001 "/>
</g></g><g transform="translate(10,210) scale(0.1,0.1)"><g transform="" style="fill: rgb(255, 116, 48);">
<polygon points="100,100 50,0 50,0 0,100 "/>
</g></g><g transform="translate(50,210) scale(0.1,0.1)"><g transform="" style="fill: rgb(255, 116, 48);">
<rect width="100" height="100"/>
</g></g><g transform="translate(90,210) scale(0.1,0.1)"><g transform="" style="fill: rgb(255, 116, 48);">
<polygon points="0,-0.001 50,99.999 50,99.999 100,-0.001 "/>
</g></g><g transform="translate(110,210) scale(0.1,0.1)"><g transform="" style="fill: rgb(255, 116, 48);">
<polygon points="100,100 50,0 50,0 0,100 "/>
</g></g><g transform="translate(250,210) scale(0.1,0.1)"><g transform="" style="fill: rgb(255, 116, 48);">
<g>
	<path d="M100,34.375V0H34.375C24.87,0,16.764,3.353,10.059,10.059S0,24.87,0,34.375V100h100V34.375z"/>
</g>
</g></g><g transform="translate(260,210) scale(0.1,0.1)"><g transform="" style="fill: rgb(255, 116, 48);">
<g>
	<path d="M100,0H0v100h65.625c9.506,0,17.611-3.354,24.316-10.059S100,75.131,100,65.625V0z"/>
</g>
</g></g><g transform="translate(310,210) scale(0.1,0.1)"><g transform="" style="fill: rgb(255, 116, 48);">
<polygon points="99.999,49.999 99.998,49.999 49.999,0 0,49.999 -0.001,49.999 -0.001,50 0,50 49.999,99.999 99.998,50 99.999,50 
	99.998,50 "/>
</g></g><g transform="translate(340,210) scale(0.1,0.1)"><g transform="" style="fill: rgb(255, 116, 48);">
<polygon points="100,100 50,0 50,0 0,100 "/>
</g></g><g transform="translate(10,220) scale(0.1,0.1)"><g transform="" style="fill: rgb(255, 116, 48);">
<rect width="100" height="100"/>
</g></g><g transform="translate(20,220) scale(0.1,0.1)"><g transform="" style="fill: rgb(255, 116, 48);">
<g>
	<path d="M100,34.375c0-9.505-3.354-17.611-10.059-24.316S75.131,0,65.625,0H0v100h100V34.375z"/>
</g>
</g></g><g transform="translate(50,220) scale(0.1,0.1)"><g transform="" style="fill: rgb(255, 116, 48);">
<rect width="100" height="100"/>
</g></g><g transform="translate(60,220) scale(0.1,0.1)"><g transform="" style="fill: rgb(255, 116, 48);">
<polygon points="0,100 100,50 100,50 0,0 "/>
</g></g><g transform="translate(80,220) scale(0.1,0.1)"><g transform="" style="fill: rgb(255, 116, 48);">
<polygon points="100,100 50,0 50,0 0,100 "/>
</g></g><g transform="translate(110,220) scale(0.1,0.1)"><g transform="" style="fill: rgb(255, 116, 48);">
<rect width="100" height="100"/>
</g></g><g transform="translate(120,220) scale(0.1,0.1)"><g transform="" style="fill: rgb(255, 116, 48);">
<polygon points="0,100 100,50 100,50 0,0 "/>
</g></g><g transform="translate(240,220) scale(0.1,0.1)"><g transform="" style="fill: rgb(255, 116, 48);">
<g>
	<path d="M100,34.375V0H34.375C24.87,0,16.764,3.353,10.059,10.059S0,24.87,0,34.375V100h100V34.375z"/>
</g>
</g></g><g transform="translate(250,220) scale(0.1,0.1)"><g transform="" style="fill: rgb(255, 116, 48);">
<rect width="100" height="100"/>
</g></g><g transform="translate(320,220) scale(0.1,0.1)"><g transform="" style="fill: rgb(255, 116, 48);">
<polygon points="100,100 0,50 0,50 100,0 "/>
</g></g><g transform="translate(330,220) scale(0.1,0.1)"><g transform="" style="fill: rgb(255, 116, 48);">
<rect width="100" height="100"/>
</g></g><g transform="translate(340,220) scale(0.1,0.1)"><g transform="" style="fill: rgb(255, 116, 48);">
<rect width="100" height="100"/>
</g></g><g transform="translate(10,230) scale(0.1,0.1)"><g transform="" style="fill: rgb(255, 116, 48);">
<rect width="100" height="100"/>
</g></g><g transform="translate(20,230) scale(0.1,0.1)"><g transform="" style="fill: rgb(255, 116, 48);">
<rect width="100" height="100"/>
</g></g><g transform="translate(30,230) scale(0.1,0.1)"><g transform="" style="fill: rgb(255, 116, 48);">
<polygon points="0,100 100,50 100,50 0,0 "/>
</g></g><g transform="translate(50,230) scale(0.1,0.1)"><g transform="" style="fill: rgb(255, 116, 48);">
<rect width="100" height="100"/>
</g></g><g transform="translate(80,230) scale(0.1,0.1)"><g transform="" style="fill: rgb(255, 116, 48);">
<polygon points="0,-0.001 50,99.999 50,99.999 100,-0.001 "/>
</g></g><g transform="translate(100,230) scale(0.1,0.1)"><g transform="" style="fill: rgb(255, 116, 48);">
<g>
	<path d="M100,34.375V0H34.375C24.87,0,16.764,3.353,10.059,10.059S0,24.87,0,34.375V100h100V34.375z"/>
</g>
</g></g><g transform="translate(110,230) scale(0.1,0.1)"><g transform="" style="fill: rgb(255, 116, 48);">
<rect width="100" height="100"/>
</g></g><g transform="translate(240,230) scale(0.1,0.1)"><g transform="" style="fill: rgb(255, 116, 48);">
<g>
	<path d="M100,0H0v65.625c0,9.506,3.353,17.611,10.059,24.316S24.87,100,34.375,100H100V0z"/>
</g>
</g></g><g transform="translate(250,230) scale(0.1,0.1)"><g transform="" style="fill: rgb(255, 116, 48);">
<rect width="100" height="100"/>
</g></g><g transform="translate(260,230) scale(0.1,0.1)"><g transform="" style="fill: rgb(255, 116, 48);">
<rect width="100" height="100"/>
</g></g><g transform="translate(270,230) scale(0.1,0.1)"><g transform="" style="fill: rgb(255, 116, 48);">
<rect width="100" height="100"/>
</g></g><g transform="translate(280,230) scale(0.1,0.1)"><g transform="" style="fill: rgb(255, 116, 48);">
<polygon points="0,100 100,50 100,50 0,0 "/>
</g></g><g transform="translate(300,230) scale(0.1,0.1)"><g transform="" style="fill: rgb(255, 116, 48);">
<polygon points="100,100 50,0 50,0 0,100 "/>
</g></g><g transform="translate(330,230) scale(0.1,0.1)"><g transform="" style="fill: rgb(255, 116, 48);">
<rect width="100" height="100"/>
</g></g><g transform="translate(340,230) scale(0.1,0.1)"><g transform="" style="fill: rgb(255, 116, 48);">
<rect width="100" height="100"/>
</g></g><g transform="translate(350,230) scale(0.1,0.1)"><g transform="" style="fill: rgb(255, 116, 48);">
<rect width="100" height="100"/>
</g></g><g transform="translate(360,230) scale(0.1,0.1)"><g transform="" style="fill: rgb(255, 116, 48);">
<polygon points="0,100 100,50 100,50 0,0 "/>
</g></g><g transform="translate(0,240) scale(0.1,0.1)"><g transform="" style="fill: rgb(255, 116, 48);">
<polygon points="100,100 0,50 0,50 100,0 "/>
</g></g><g transform="translate(10,240) scale(0.1,0.1)"><g transform="" style="fill: rgb(255, 116, 48);">
<rect width="100" height="100"/>
</g></g><g transform="translate(50,240) scale(0.1,0.1)"><g transform="" style="fill: rgb(255, 116, 48);">
<g>
	<path d="M100,0H0v65.625c0,9.506,3.353,17.611,10.059,24.316S24.87,100,34.375,100H100V0z"/>
</g>
</g></g><g transform="translate(60,240) scale(0.1,0.1)"><g transform="" style="fill: rgb(255, 116, 48);">
<polygon points="0,100 100,50 100,50 0,0 "/>
</g></g><g transform="translate(100,240) scale(0.1,0.1)"><g transform="" style="fill: rgb(255, 116, 48);">
<rect width="100" height="100"/>
</g></g><g transform="translate(110,240) scale(0.1,0.1)"><g transform="" style="fill: rgb(255, 116, 48);">
<g>
	<path d="M100,0H0v100h65.625c9.506,0,17.611-3.354,24.316-10.059S100,75.131,100,65.625V0z"/>
</g>
</g></g><g transform="translate(140,240) scale(0.1,0.1)"><g transform="" style="fill: rgb(255, 116, 48);">
<polygon points="99.999,49.999 99.998,49.999 49.999,0 0,49.999 -0.001,49.999 -0.001,50 0,50 49.999,99.999 99.998,50 99.999,50 
	99.998,50 "/>
</g></g><g transform="translate(170,240) scale(0.1,0.1)"><g transform="" style="fill: rgb(255, 116, 48);">
<polygon points="99.999,49.999 99.998,49.999 49.999,0 0,49.999 -0.001,49.999 -0.001,50 0,50 49.999,99.999 99.998,50 99.999,50 
	99.998,50 "/>
</g></g><g transform="translate(190,240) scale(0.1,0.1)"><g transform="" style="fill: rgb(255, 116, 48);">
<polygon points="100,100 0,50 0,50 100,0 "/>
</g></g><g transform="translate(200,240) scale(0.1,0.1)"><g transform="" style="fill: rgb(255, 116, 48);">
<rect width="100" height="100"/>
</g></g><g transform="translate(210,240) scale(0.1,0.1)"><g transform="" style="fill: rgb(255, 116, 48);">
<polygon points="0,100 100,50 100,50 0,0 "/>
</g></g><g transform="translate(290,240) scale(0.1,0.1)"><g transform="" style="fill: rgb(255, 116, 48);">
<g>
	<path d="M100,34.375V0H34.375C24.87,0,16.764,3.353,10.059,10.059S0,24.87,0,34.375V100h100V34.375z"/>
</g>
</g></g><g transform="translate(300,240) scale(0.1,0.1)"><g transform="" style="fill: rgb(255, 116, 48);">
<rect width="100" height="100"/>
</g></g><g transform="translate(320,240) scale(0.1,0.1)"><g transform="" style="fill: rgb(255, 116, 48);">
<g>
	<path d="M100,34.375V0H34.375C24.87,0,16.764,3.353,10.059,10.059S0,24.87,0,34.375V100h100V34.375z"/>
</g>
</g></g><g transform="translate(330,240) scale(0.1,0.1)"><g transform="" style="fill: rgb(255, 116, 48);">
<rect width="100" height="100"/>
</g></g><g transform="translate(340,240) scale(0.1,0.1)"><g transform="" style="fill: rgb(255, 116, 48);">
<rect width="100" height="100"/>
</g></g><g transform="translate(350,240) scale(0.1,0.1)"><g transform="" style="fill: rgb(255, 116, 48);">
<rect width="100" height="100"/>
</g></g><g transform="translate(10,250) scale(0.1,0.1)"><g transform="" style="fill: rgb(255, 116, 48);">
<rect width="100" height="100"/>
</g></g><g transform="translate(20,250) scale(0.1,0.1)"><g transform="" style="fill: rgb(255, 116, 48);">
<polygon points="0,100 100,50 100,50 0,0 "/>
</g></g><g transform="translate(70,250) scale(0.1,0.1)"><g transform="" style="fill: rgb(255, 116, 48);">
<g>
	<path d="M100,34.375V0H34.375C24.87,0,16.764,3.353,10.059,10.059S0,24.87,0,34.375V100h100V34.375z"/>
</g>
</g></g><g transform="translate(80,250) scale(0.1,0.1)"><g transform="" style="fill: rgb(255, 116, 48);">
<rect width="100" height="100"/>
</g></g><g transform="translate(90,250) scale(0.1,0.1)"><g transform="" style="fill: rgb(255, 116, 48);">
<rect width="100" height="100"/>
</g></g><g transform="translate(100,250) scale(0.1,0.1)"><g transform="" style="fill: rgb(255, 116, 48);">
<g>
	<path d="M100,0H0v100h65.625c9.506,0,17.611-3.354,24.316-10.059S100,75.131,100,65.625V0z"/>
</g>
</g></g><g transform="translate(130,250) scale(0.1,0.1)"><g transform="" style="fill: rgb(255, 116, 48);">
<polygon points="99.999,49.999 99.998,49.999 49.999,0 0,49.999 -0.001,49.999 -0.001,50 0,50 49.999,99.999 99.998,50 99.999,50 
	99.998,50 "/>
</g></g><g transform="translate(160,250) scale(0.1,0.1)"><g transform="" style="fill: rgb(255, 116, 48);">
<polygon points="99.999,49.999 99.998,49.999 49.999,0 0,49.999 -0.001,49.999 -0.001,50 0,50 49.999,99.999 99.998,50 99.999,50 
	99.998,50 "/>
</g></g><g transform="translate(180,250) scale(0.1,0.1)"><g transform="" style="fill: rgb(255, 116, 48);">
<polygon points="99.999,49.999 99.998,49.999 49.999,0 0,49.999 -0.001,49.999 -0.001,50 0,50 49.999,99.999 99.998,50 99.999,50 
	99.998,50 "/>
</g></g><g transform="translate(230,250) scale(0.1,0.1)"><g transform="" style="fill: rgb(255, 116, 48);">
<polygon points="99.999,49.999 99.998,49.999 49.999,0 0,49.999 -0.001,49.999 -0.001,50 0,50 49.999,99.999 99.998,50 99.999,50 
	99.998,50 "/>
</g></g><g transform="translate(260,250) scale(0.1,0.1)"><g transform="" style="fill: rgb(255, 116, 48);">
<g>
	<path d="M100,34.375V0H34.375C24.87,0,16.764,3.353,10.059,10.059S0,24.87,0,34.375V100h100V34.375z"/>
</g>
</g></g><g transform="translate(270,250) scale(0.1,0.1)"><g transform="" style="fill: rgb(255, 116, 48);">
<rect width="100" height="100"/>
</g></g><g transform="translate(280,250) scale(0.1,0.1)"><g transform="" style="fill: rgb(255, 116, 48);">
<rect width="100" height="100"/>
</g></g><g transform="translate(290,250) scale(0.1,0.1)"><g transform="" style="fill: rgb(255, 116, 48);">
<rect width="100" height="100"/>
</g></g><g transform="translate(300,250) scale(0.1,0.1)"><g transform="" style="fill: rgb(255, 116, 48);">
<rect width="100" height="100"/>
</g></g><g transform="translate(310,250) scale(0.1,0.1)"><g transform="" style="fill: rgb(255, 116, 48);">
<rect width="100" height="100"/>
</g></g><g transform="translate(320,250) scale(0.1,0.1)"><g transform="" style="fill: rgb(255, 116, 48);">
<g>
	<path d="M100,0H0v100h65.625c9.506,0,17.611-3.354,24.316-10.059S100,75.131,100,65.625V0z"/>
</g>
</g></g><g transform="translate(350,250) scale(0.1,0.1)"><g transform="" style="fill: rgb(255, 116, 48);">
<rect width="100" height="100"/>
</g></g><g transform="translate(360,250) scale(0.1,0.1)"><g transform="" style="fill: rgb(255, 116, 48);">
<polygon points="0,100 100,50 100,50 0,0 "/>
</g></g><g transform="translate(10,260) scale(0.1,0.1)"><g transform="" style="fill: rgb(255, 116, 48);">
<polygon points="0,-0.001 50,99.999 50,99.999 100,-0.001 "/>
</g></g><g transform="translate(30,260) scale(0.1,0.1)"><g transform="" style="fill: rgb(255, 116, 48);">
<polygon points="99.999,49.999 99.998,49.999 49.999,0 0,49.999 -0.001,49.999 -0.001,50 0,50 49.999,99.999 99.998,50 99.999,50 
	99.998,50 "/>
</g></g><g transform="translate(60,260) scale(0.1,0.1)"><g transform="" style="fill: rgb(255, 116, 48);">
<polygon points="100,100 0,50 0,50 100,0 "/>
</g></g><g transform="translate(70,260) scale(0.1,0.1)"><g transform="" style="fill: rgb(255, 116, 48);">
<rect width="100" height="100"/>
</g></g><g transform="translate(110,260) scale(0.1,0.1)"><g transform="" style="fill: rgb(255, 116, 48);">
<g>
	<path d="M100,34.375V0H34.375C24.87,0,16.764,3.353,10.059,10.059S0,24.87,0,34.375V100h100V34.375z"/>
</g>
</g></g><g transform="translate(120,260) scale(0.1,0.1)"><g transform="" style="fill: rgb(255, 116, 48);">
<g>
	<path d="M100,34.375c0-9.505-3.354-17.611-10.059-24.316S75.131,0,65.625,0H0v100h100V34.375z"/>
</g>
</g></g><g transform="translate(150,260) scale(0.1,0.1)"><g transform="" style="fill: rgb(255, 116, 48);">
<polygon points="100,100 50,0 50,0 0,100 "/>
</g></g><g transform="translate(170,260) scale(0.1,0.1)"><g transform="" style="fill: rgb(255, 116, 48);">
<polygon points="100,100 50,0 50,0 0,100 "/>
</g></g><g transform="translate(200,260) scale(0.1,0.1)"><g transform="" style="fill: rgb(255, 116, 48);">
<polygon points="100,100 50,0 50,0 0,100 "/>
</g></g><g transform="translate(240,260) scale(0.1,0.1)"><g transform="" style="fill: rgb(255, 116, 48);">
<polygon points="100,100 50,0 50,0 0,100 "/>
</g></g><g transform="translate(260,260) scale(0.1,0.1)"><g transform="" style="fill: rgb(255, 116, 48);">
<rect width="100" height="100"/>
</g></g><g transform="translate(310,260) scale(0.1,0.1)"><g transform="" style="fill: rgb(255, 116, 48);">
<rect width="100" height="100"/>
</g></g><g transform="translate(330,260) scale(0.1,0.1)"><g transform="" style="fill: rgb(255, 116, 48);">
<polygon points="99.999,49.999 99.998,49.999 49.999,0 0,49.999 -0.001,49.999 -0.001,50 0,50 49.999,99.999 99.998,50 99.999,50 
	99.998,50 "/>
</g></g><g transform="translate(350,260) scale(0.1,0.1)"><g transform="" style="fill: rgb(255, 116, 48);">
<polygon points="0,-0.001 50,99.999 50,99.999 100,-0.001 "/>
</g></g><g transform="translate(0,270) scale(0.1,0.1)"><g transform="" style="fill: rgb(255, 116, 48);">
<polygon points="99.999,49.999 99.998,49.999 49.999,0 0,49.999 -0.001,49.999 -0.001,50 0,50 49.999,99.999 99.998,50 99.999,50 
	99.998,50 "/>
</g></g><g transform="translate(50,270) scale(0.1,0.1)"><g transform="" style="fill: rgb(255, 116, 48);">
<polygon points="100,100 50,0 50,0 0,100 "/>
</g></g><g transform="translate(70,270) scale(0.1,0.1)"><g transform="" style="fill: rgb(255, 116, 48);">
<g>
	<path d="M100,0H0v65.625c0,9.506,3.353,17.611,10.059,24.316S24.87,100,34.375,100H100V0z"/>
</g>
</g></g><g transform="translate(80,270) scale(0.1,0.1)"><g transform="" style="fill: rgb(255, 116, 48);">
<polygon points="0,100 100,50 100,50 0,0 "/>
</g></g><g transform="translate(110,270) scale(0.1,0.1)"><g transform="" style="fill: rgb(255, 116, 48);">
<g>
	<path d="M100,0H0v65.625c0,9.506,3.353,17.611,10.059,24.316S24.87,100,34.375,100H100V0z"/>
</g>
</g></g><g transform="translate(120,270) scale(0.1,0.1)"><g transform="" style="fill: rgb(255, 116, 48);">
<g>
	<path d="M100,0H0v100h65.625c9.506,0,17.611-3.354,24.316-10.059S100,75.131,100,65.625V0z"/>
</g>
</g></g><g transform="translate(140,270) scale(0.1,0.1)"><g transform="" style="fill: rgb(255, 116, 48);">
<g>
	<path d="M100,34.375V0H34.375C24.87,0,16.764,3.353,10.059,10.059S0,24.87,0,34.375V100h100V34.375z"/>
</g>
</g></g><g transform="translate(150,270) scale(0.1,0.1)"><g transform="" style="fill: rgb(255, 116, 48);">
<rect width="100" height="100"/>
</g></g><g transform="translate(160,270) scale(0.1,0.1)"><g transform="" style="fill: rgb(255, 116, 48);">
<rect width="100" height="100"/>
</g></g><g transform="translate(170,270) scale(0.1,0.1)"><g transform="" style="fill: rgb(255, 116, 48);">
<rect width="100" height="100"/>
</g></g><g transform="translate(180,270) scale(0.1,0.1)"><g transform="" style="fill: rgb(255, 116, 48);">
<polygon points="0,100 100,50 100,50 0,0 "/>
</g></g><g transform="translate(200,270) scale(0.1,0.1)"><g transform="" style="fill: rgb(255, 116, 48);">
<polygon points="0,-0.001 50,99.999 50,99.999 100,-0.001 "/>
</g></g><g transform="translate(220,270) scale(0.1,0.1)"><g transform="" style="fill: rgb(255, 116, 48);">
<polygon points="100,100 50,0 50,0 0,100 "/>
</g></g><g transform="translate(240,270) scale(0.1,0.1)"><g transform="" style="fill: rgb(255, 116, 48);">
<polygon points="0,-0.001 50,99.999 50,99.999 100,-0.001 "/>
</g></g><g transform="translate(260,270) scale(0.1,0.1)"><g transform="" style="fill: rgb(255, 116, 48);">
<g>
	<path d="M100,0H0v65.625c0,9.506,3.353,17.611,10.059,24.316S24.87,100,34.375,100H100V0z"/>
</g>
</g></g><g transform="translate(270,270) scale(0.1,0.1)"><g transform="" style="fill: rgb(255, 116, 48);">
<rect width="100" height="100"/>
</g></g><g transform="translate(280,270) scale(0.1,0.1)"><g transform="" style="fill: rgb(255, 116, 48);">
<rect width="100" height="100"/>
</g></g><g transform="translate(290,270) scale(0.1,0.1)"><g transform="" style="fill: rgb(255, 116, 48);">
<g>
	<path d="M100,34.375c0-9.505-3.354-17.611-10.059-24.316S75.131,0,65.625,0H0v100h100V34.375z"/>
</g>
</g></g><g transform="translate(310,270) scale(0.1,0.1)"><g transform="" style="fill: rgb(255, 116, 48);">
<rect width="100" height="100"/>
</g></g><g transform="translate(30,280) scale(0.1,0.1)"><g transform="" style="fill: rgb(255, 116, 48);">
<polygon points="99.999,49.999 99.998,49.999 49.999,0 0,49.999 -0.001,49.999 -0.001,50 0,50 49.999,99.999 99.998,50 99.999,50 
	99.998,50 "/>
</g></g><g transform="translate(50,280) scale(0.1,0.1)"><g transform="" style="fill: rgb(255, 116, 48);">
<g>
	<path d="M100,0H0v65.625c0,9.506,3.353,17.611,10.059,24.316S24.87,100,34.375,100H100V0z"/>
</g>
</g></g><g transform="translate(60,280) scale(0.1,0.1)"><g transform="" style="fill: rgb(255, 116, 48);">
<polygon points="0,100 100,50 100,50 0,0 "/>
</g></g><g transform="translate(90,280) scale(0.1,0.1)"><g transform="" style="fill: rgb(255, 116, 48);">
<g>
	<path d="M100,34.375V0H34.375C24.87,0,16.764,3.353,10.059,10.059S0,24.87,0,34.375V100h100V34.375z"/>
</g>
</g></g><g transform="translate(100,280) scale(0.1,0.1)"><g transform="" style="fill: rgb(255, 116, 48);">
<polygon points="0,100 100,50 100,50 0,0 "/>
</g></g><g transform="translate(140,280) scale(0.1,0.1)"><g transform="" style="fill: rgb(255, 116, 48);">
<rect width="100" height="100"/>
</g></g><g transform="translate(160,280) scale(0.1,0.1)"><g transform="" style="fill: rgb(255, 116, 48);">
<rect width="100" height="100"/>
</g></g><g transform="translate(210,280) scale(0.1,0.1)"><g transform="" style="fill: rgb(255, 116, 48);">
<polygon points="100,100 0,50 0,50 100,0 "/>
</g></g><g transform="translate(220,280) scale(0.1,0.1)"><g transform="" style="fill: rgb(255, 116, 48);">
<rect width="100" height="100"/>
</g></g><g transform="translate(230,280) scale(0.1,0.1)"><g transform="" style="fill: rgb(255, 116, 48);">
<g>
	<path d="M100,34.375c0-9.505-3.354-17.611-10.059-24.316S75.131,0,65.625,0H0v100h100V34.375z"/>
</g>
</g></g><g transform="translate(250,280) scale(0.1,0.1)"><g transform="" style="fill: rgb(255, 116, 48);">
<polygon points="99.999,49.999 99.998,49.999 49.999,0 0,49.999 -0.001,49.999 -0.001,50 0,50 49.999,99.999 99.998,50 99.999,50 
	99.998,50 "/>
</g></g><g transform="translate(280,280) scale(0.1,0.1)"><g transform="" style="fill: rgb(255, 116, 48);">
<rect width="100" height="100"/>
</g></g><g transform="translate(290,280) scale(0.1,0.1)"><g transform="" style="fill: rgb(255, 116, 48);">
<rect width="100" height="100"/>
</g></g><g transform="translate(300,280) scale(0.1,0.1)"><g transform="" style="fill: rgb(255, 116, 48);">
<rect width="100" height="100"/>
</g></g><g transform="translate(310,280) scale(0.1,0.1)"><g transform="" style="fill: rgb(255, 116, 48);">
<rect width="100" height="100"/>
</g></g><g transform="translate(320,280) scale(0.1,0.1)"><g transform="" style="fill: rgb(255, 116, 48);">
<rect width="100" height="100"/>
</g></g><g transform="translate(330,280) scale(0.1,0.1)"><g transform="" style="fill: rgb(255, 116, 48);">
<rect width="100" height="100"/>
</g></g><g transform="translate(340,280) scale(0.1,0.1)"><g transform="" style="fill: rgb(255, 116, 48);">
<g>
	<path d="M100,34.375c0-9.505-3.354-17.611-10.059-24.316S75.131,0,65.625,0H0v100h100V34.375z"/>
</g>
</g></g><g transform="translate(360,280) scale(0.1,0.1)"><g transform="" style="fill: rgb(255, 116, 48);">
<polygon points="100,100 50,0 50,0 0,100 "/>
</g></g><g transform="translate(80,290) scale(0.1,0.1)"><g transform="" style="fill: rgb(255, 116, 48);">
<g>
	<path d="M100,34.375V0H34.375C24.87,0,16.764,3.353,10.059,10.059S0,24.87,0,34.375V100h100V34.375z"/>
</g>
</g></g><g transform="translate(90,290) scale(0.1,0.1)"><g transform="" style="fill: rgb(255, 116, 48);">
<rect width="100" height="100"/>
</g></g><g transform="translate(110,290) scale(0.1,0.1)"><g transform="" style="fill: rgb(255, 116, 48);">
<polygon points="100,100 0,50 0,50 100,0 "/>
</g></g><g transform="translate(120,290) scale(0.1,0.1)"><g transform="" style="fill: rgb(255, 116, 48);">
<rect width="100" height="100"/>
</g></g><g transform="translate(130,290) scale(0.1,0.1)"><g transform="" style="fill: rgb(255, 116, 48);">
<rect width="100" height="100"/>
</g></g><g transform="translate(140,290) scale(0.1,0.1)"><g transform="" style="fill: rgb(255, 116, 48);">
<rect width="100" height="100"/>
</g></g><g transform="translate(150,290) scale(0.1,0.1)"><g transform="" style="fill: rgb(255, 116, 48);">
<rect width="100" height="100"/>
</g></g><g transform="translate(160,290) scale(0.1,0.1)"><g transform="" style="fill: rgb(255, 116, 48);">
<g>
	<path d="M100,0H0v100h65.625c9.506,0,17.611-3.354,24.316-10.059S100,75.131,100,65.625V0z"/>
</g>
</g></g><g transform="translate(190,290) scale(0.1,0.1)"><g transform="" style="fill: rgb(255, 116, 48);">
<polygon points="99.999,49.999 99.998,49.999 49.999,0 0,49.999 -0.001,49.999 -0.001,50 0,50 49.999,99.999 99.998,50 99.999,50 
	99.998,50 "/>
</g></g><g transform="translate(220,290) scale(0.1,0.1)"><g transform="" style="fill: rgb(255, 116, 48);">
<g>
	<path d="M100,0H0v65.625c0,9.506,3.353,17.611,10.059,24.316S24.87,100,34.375,100H100V0z"/>
</g>
</g></g><g transform="translate(230,290) scale(0.1,0.1)"><g transform="" style="fill: rgb(255, 116, 48);">
<rect width="100" height="100"/>
</g></g><g transform="translate(240,290) scale(0.1,0.1)"><g transform="" style="fill: rgb(255, 116, 48);">
<g>
	<path d="M100,34.375c0-9.505-3.354-17.611-10.059-24.316S75.131,0,65.625,0H0v100h100V34.375z"/>
</g>
</g></g><g transform="translate(260,290) scale(0.1,0.1)"><g transform="" style="fill: rgb(255, 116, 48);">
<polygon points="100,100 50,0 50,0 0,100 "/>
</g></g><g transform="translate(280,290) scale(0.1,0.1)"><g transform="" style="fill: rgb(255, 116, 48);">
<rect width="100" height="100"/>
</g></g><g transform="translate(320,290) scale(0.1,0.1)"><g transform="" style="fill: rgb(255, 116, 48);">
<rect width="100" height="100"/>
</g></g><g transform="translate(330,290) scale(0.1,0.1)"><g transform="" style="fill: rgb(255, 116, 48);">
<rect width="100" height="100"/>
</g></g><g transform="translate(340,290) scale(0.1,0.1)"><g transform="" style="fill: rgb(255, 116, 48);">
<rect width="100" height="100"/>
</g></g><g transform="translate(350,290) scale(0.1,0.1)"><g transform="" style="fill: rgb(255, 116, 48);">
<rect width="100" height="100"/>
</g></g><g transform="translate(360,290) scale(0.1,0.1)"><g transform="" style="fill: rgb(255, 116, 48);">
<rect width="100" height="100"/>
</g></g><g transform="translate(80,300) scale(0.1,0.1)"><g transform="" style="fill: rgb(255, 116, 48);">
<g>
	<path d="M100,0H0v65.625c0,9.506,3.353,17.611,10.059,24.316S24.87,100,34.375,100H100V0z"/>
</g>
</g></g><g transform="translate(90,300) scale(0.1,0.1)"><g transform="" style="fill: rgb(255, 116, 48);">
<g>
	<path d="M100,0H0v100h65.625c9.506,0,17.611-3.354,24.316-10.059S100,75.131,100,65.625V0z"/>
</g>
</g></g><g transform="translate(120,300) scale(0.1,0.1)"><g transform="" style="fill: rgb(255, 116, 48);">
<rect width="100" height="100"/>
</g></g><g transform="translate(140,300) scale(0.1,0.1)"><g transform="" style="fill: rgb(255, 116, 48);">
<rect width="100" height="100"/>
</g></g><g transform="translate(150,300) scale(0.1,0.1)"><g transform="" style="fill: rgb(255, 116, 48);">
<g>
	<path d="M100,0H0v100h65.625c9.506,0,17.611-3.354,24.316-10.059S100,75.131,100,65.625V0z"/>
</g>
</g></g><g transform="translate(170,300) scale(0.1,0.1)"><g transform="" style="fill: rgb(255, 116, 48);">
<polygon points="100,100 50,0 50,0 0,100 "/>
</g></g><g transform="translate(240,300) scale(0.1,0.1)"><g transform="" style="fill: rgb(255, 116, 48);">
<rect width="100" height="100"/>
</g></g><g transform="translate(250,300) scale(0.1,0.1)"><g transform="" style="fill: rgb(255, 116, 48);">
<rect width="100" height="100"/>
</g></g><g transform="translate(260,300) scale(0.1,0.1)"><g transform="" style="fill: rgb(255, 116, 48);">
<rect width="100" height="100"/>
</g></g><g transform="translate(280,300) scale(0.1,0.1)"><g transform="" style="fill: rgb(255, 116, 48);">
<rect width="100" height="100"/>
</g></g><g transform="translate(300,300) scale(0.1,0.1)"><g transform="" style="fill: rgb(255, 116, 48);">
<polygon points="99.999,49.999 99.998,49.999 49.999,0 0,49.999 -0.001,49.999 -0.001,50 0,50 49.999,99.999 99.998,50 99.999,50 
	99.998,50 "/>
</g></g><g transform="translate(320,300) scale(0.1,0.1)"><g transform="" style="fill: rgb(255, 116, 48);">
<rect width="100" height="100"/>
</g></g><g transform="translate(330,300) scale(0.1,0.1)"><g transform="" style="fill: rgb(255, 116, 48);">
<rect width="100" height="100"/>
</g></g><g transform="translate(350,300) scale(0.1,0.1)"><g transform="" style="fill: rgb(255, 116, 48);">
<g>
	<path d="M100,0H0v65.625c0,9.506,3.353,17.611,10.059,24.316S24.87,100,34.375,100H100V0z"/>
</g>
</g></g><g transform="translate(360,300) scale(0.1,0.1)"><g transform="" style="fill: rgb(255, 116, 48);">
<rect width="100" height="100"/>
</g></g><g transform="translate(110,310) scale(0.1,0.1)"><g transform="" style="fill: rgb(255, 116, 48);">
<g>
	<path d="M100,34.375V0H34.375C24.87,0,16.764,3.353,10.059,10.059S0,24.87,0,34.375V100h100V34.375z"/>
</g>
</g></g><g transform="translate(120,310) scale(0.1,0.1)"><g transform="" style="fill: rgb(255, 116, 48);">
<rect width="100" height="100"/>
</g></g><g transform="translate(130,310) scale(0.1,0.1)"><g transform="" style="fill: rgb(255, 116, 48);">
<rect width="100" height="100"/>
</g></g><g transform="translate(140,310) scale(0.1,0.1)"><g transform="" style="fill: rgb(255, 116, 48);">
<rect width="100" height="100"/>
</g></g><g transform="translate(170,310) scale(0.1,0.1)"><g transform="" style="fill: rgb(255, 116, 48);">
<polygon points="0,-0.001 50,99.999 50,99.999 100,-0.001 "/>
</g></g><g transform="translate(200,310) scale(0.1,0.1)"><g transform="" style="fill: rgb(255, 116, 48);">
<polygon points="100,100 50,0 50,0 0,100 "/>
</g></g><g transform="translate(220,310) scale(0.1,0.1)"><g transform="" style="fill: rgb(255, 116, 48);">
<g>
	<path d="M100,34.375V0H34.375C24.87,0,16.764,3.353,10.059,10.059S0,24.87,0,34.375V100h100V34.375z"/>
</g>
</g></g><g transform="translate(230,310) scale(0.1,0.1)"><g transform="" style="fill: rgb(255, 116, 48);">
<rect width="100" height="100"/>
</g></g><g transform="translate(240,310) scale(0.1,0.1)"><g transform="" style="fill: rgb(255, 116, 48);">
<g>
	<path d="M100,0H0v100h65.625c9.506,0,17.611-3.354,24.316-10.059S100,75.131,100,65.625V0z"/>
</g>
</g></g><g transform="translate(260,310) scale(0.1,0.1)"><g transform="" style="fill: rgb(255, 116, 48);">
<polygon points="0,-0.001 50,99.999 50,99.999 100,-0.001 "/>
</g></g><g transform="translate(280,310) scale(0.1,0.1)"><g transform="" style="fill: rgb(255, 116, 48);">
<rect width="100" height="100"/>
</g></g><g transform="translate(320,310) scale(0.1,0.1)"><g transform="" style="fill: rgb(255, 116, 48);">
<rect width="100" height="100"/>
</g></g><g transform="translate(330,310) scale(0.1,0.1)"><g transform="" style="fill: rgb(255, 116, 48);">
<rect width="100" height="100"/>
</g></g><g transform="translate(360,310) scale(0.1,0.1)"><g transform="" style="fill: rgb(255, 116, 48);">
<polygon points="0,-0.001 50,99.999 50,99.999 100,-0.001 "/>
</g></g><g transform="translate(90,320) scale(0.1,0.1)"><g transform="" style="fill: rgb(255, 116, 48);">
<polygon points="99.999,49.999 99.998,49.999 49.999,0 0,49.999 -0.001,49.999 -0.001,50 0,50 49.999,99.999 99.998,50 99.999,50 
	99.998,50 "/>
</g></g><g transform="translate(110,320) scale(0.1,0.1)"><g transform="" style="fill: rgb(255, 116, 48);">
<polygon points="0,-0.001 50,99.999 50,99.999 100,-0.001 "/>
</g></g><g transform="translate(130,320) scale(0.1,0.1)"><g transform="" style="fill: rgb(255, 116, 48);">
<g>
	<path d="M100,0H0v65.625c0,9.506,3.353,17.611,10.059,24.316S24.87,100,34.375,100H100V0z"/>
</g>
</g></g><g transform="translate(140,320) scale(0.1,0.1)"><g transform="" style="fill: rgb(255, 116, 48);">
<g>
	<path d="M100,0H0v100h65.625c9.506,0,17.611-3.354,24.316-10.059S100,75.131,100,65.625V0z"/>
</g>
</g></g><g transform="translate(180,320) scale(0.1,0.1)"><g transform="" style="fill: rgb(255, 116, 48);">
<g>
	<path d="M100,34.375V0H34.375C24.87,0,16.764,3.353,10.059,10.059S0,24.87,0,34.375V100h100V34.375z"/>
</g>
</g></g><g transform="translate(190,320) scale(0.1,0.1)"><g transform="" style="fill: rgb(255, 116, 48);">
<rect width="100" height="100"/>
</g></g><g transform="translate(200,320) scale(0.1,0.1)"><g transform="" style="fill: rgb(255, 116, 48);">
<rect width="100" height="100"/>
</g></g><g transform="translate(220,320) scale(0.1,0.1)"><g transform="" style="fill: rgb(255, 116, 48);">
<polygon points="0,-0.001 50,99.999 50,99.999 100,-0.001 "/>
</g></g><g transform="translate(280,320) scale(0.1,0.1)"><g transform="" style="fill: rgb(255, 116, 48);">
<rect width="100" height="100"/>
</g></g><g transform="translate(290,320) scale(0.1,0.1)"><g transform="" style="fill: rgb(255, 116, 48);">
<rect width="100" height="100"/>
</g></g><g transform="translate(300,320) scale(0.1,0.1)"><g transform="" style="fill: rgb(255, 116, 48);">
<rect width="100" height="100"/>
</g></g><g transform="translate(310,320) scale(0.1,0.1)"><g transform="" style="fill: rgb(255, 116, 48);">
<rect width="100" height="100"/>
</g></g><g transform="translate(320,320) scale(0.1,0.1)"><g transform="" style="fill: rgb(255, 116, 48);">
<rect width="100" height="100"/>
</g></g><g transform="translate(330,320) scale(0.1,0.1)"><g transform="" style="fill: rgb(255, 116, 48);">
<g>
	<path d="M100,0H0v100h65.625c9.506,0,17.611-3.354,24.316-10.059S100,75.131,100,65.625V0z"/>
</g>
</g></g><g transform="translate(350,320) scale(0.1,0.1)"><g transform="" style="fill: rgb(255, 116, 48);">
<polygon points="99.999,49.999 99.998,49.999 49.999,0 0,49.999 -0.001,49.999 -0.001,50 0,50 49.999,99.999 99.998,50 99.999,50 
	99.998,50 "/>
</g></g><g transform="translate(80,330) scale(0.1,0.1)"><g transform="" style="fill: rgb(255, 116, 48);">
<polygon points="100,100 50,0 50,0 0,100 "/>
</g></g><g transform="translate(100,330) scale(0.1,0.1)"><g transform="" style="fill: rgb(255, 116, 48);">
<polygon points="99.999,49.999 99.998,49.999 49.999,0 0,49.999 -0.001,49.999 -0.001,50 0,50 49.999,99.999 99.998,50 99.999,50 
	99.998,50 "/>
</g></g><g transform="translate(120,330) scale(0.1,0.1)"><g transform="" style="fill: rgb(255, 116, 48);">
<polygon points="99.999,49.999 99.998,49.999 49.999,0 0,49.999 -0.001,49.999 -0.001,50 0,50 49.999,99.999 99.998,50 99.999,50 
	99.998,50 "/>
</g></g><g transform="translate(150,330) scale(0.1,0.1)"><g transform="" style="fill: rgb(255, 116, 48);">
<polygon points="99.999,49.999 99.998,49.999 49.999,0 0,49.999 -0.001,49.999 -0.001,50 0,50 49.999,99.999 99.998,50 99.999,50 
	99.998,50 "/>
</g></g><g transform="translate(180,330) scale(0.1,0.1)"><g transform="" style="fill: rgb(255, 116, 48);">
<g>
	<path d="M100,0H0v65.625c0,9.506,3.353,17.611,10.059,24.316S24.87,100,34.375,100H100V0z"/>
</g>
</g></g><g transform="translate(190,330) scale(0.1,0.1)"><g transform="" style="fill: rgb(255, 116, 48);">
<rect width="100" height="100"/>
</g></g><g transform="translate(200,330) scale(0.1,0.1)"><g transform="" style="fill: rgb(255, 116, 48);">
<g>
	<path d="M100,0H0v100h65.625c9.506,0,17.611-3.354,24.316-10.059S100,75.131,100,65.625V0z"/>
</g>
</g></g><g transform="translate(270,330) scale(0.1,0.1)"><g transform="" style="fill: rgb(255, 116, 48);">
<g>
	<path d="M100,34.375V0H34.375C24.87,0,16.764,3.353,10.059,10.059S0,24.87,0,34.375V100h100V34.375z"/>
</g>
</g></g><g transform="translate(280,330) scale(0.1,0.1)"><g transform="" style="fill: rgb(255, 116, 48);">
<rect width="100" height="100"/>
</g></g><g transform="translate(300,330) scale(0.1,0.1)"><g transform="" style="fill: rgb(255, 116, 48);">
<rect width="100" height="100"/>
</g></g><g transform="translate(320,330) scale(0.1,0.1)"><g transform="" style="fill: rgb(255, 116, 48);">
<rect width="100" height="100"/>
</g></g><g transform="translate(340,330) scale(0.1,0.1)"><g transform="" style="fill: rgb(255, 116, 48);">
<polygon points="99.999,49.999 99.998,49.999 49.999,0 0,49.999 -0.001,49.999 -0.001,50 0,50 49.999,99.999 99.998,50 99.999,50 
	99.998,50 "/>
</g></g><g transform="translate(80,340) scale(0.1,0.1)"><g transform="" style="fill: rgb(255, 116, 48);">
<g>
	<path d="M100,0H0v65.625c0,9.506,3.353,17.611,10.059,24.316S24.87,100,34.375,100H100V0z"/>
</g>
</g></g><g transform="translate(90,340) scale(0.1,0.1)"><g transform="" style="fill: rgb(255, 116, 48);">
<g>
	<path d="M100,34.375c0-9.505-3.354-17.611-10.059-24.316S75.131,0,65.625,0H0v100h100V34.375z"/>
</g>
</g></g><g transform="translate(140,340) scale(0.1,0.1)"><g transform="" style="fill: rgb(255, 116, 48);">
<polygon points="99.999,49.999 99.998,49.999 49.999,0 0,49.999 -0.001,49.999 -0.001,50 0,50 49.999,99.999 99.998,50 99.999,50 
	99.998,50 "/>
</g></g><g transform="translate(160,340) scale(0.1,0.1)"><g transform="" style="fill: rgb(255, 116, 48);">
<polygon points="100,100 0,50 0,50 100,0 "/>
</g></g><g transform="translate(170,340) scale(0.1,0.1)"><g transform="" style="fill: rgb(255, 116, 48);">
<polygon points="0,100 100,50 100,50 0,0 "/>
</g></g><g transform="translate(250,340) scale(0.1,0.1)"><g transform="" style="fill: rgb(255, 116, 48);">
<g>
	<path d="M100,34.375V0H34.375C24.87,0,16.764,3.353,10.059,10.059S0,24.87,0,34.375V100h100V34.375z"/>
</g>
</g></g><g transform="translate(260,340) scale(0.1,0.1)"><g transform="" style="fill: rgb(255, 116, 48);">
<rect width="100" height="100"/>
</g></g><g transform="translate(270,340) scale(0.1,0.1)"><g transform="" style="fill: rgb(255, 116, 48);">
<rect width="100" height="100"/>
</g></g><g transform="translate(280,340) scale(0.1,0.1)"><g transform="" style="fill: rgb(255, 116, 48);">
<g>
	<path d="M100,0H0v100h65.625c9.506,0,17.611-3.354,24.316-10.059S100,75.131,100,65.625V0z"/>
</g>
</g></g><g transform="translate(300,340) scale(0.1,0.1)"><g transform="" style="fill: rgb(255, 116, 48);">
<rect width="100" height="100"/>
</g></g><g transform="translate(320,340) scale(0.1,0.1)"><g transform="" style="fill: rgb(255, 116, 48);">
<polygon points="0,-0.001 50,99.999 50,99.999 100,-0.001 "/>
</g></g><g transform="translate(350,340) scale(0.1,0.1)"><g transform="" style="fill: rgb(255, 116, 48);">
<polygon points="99.999,49.999 99.998,49.999 49.999,0 0,49.999 -0.001,49.999 -0.001,50 0,50 49.999,99.999 99.998,50 99.999,50 
	99.998,50 "/>
</g></g><g transform="translate(90,350) scale(0.1,0.1)"><g transform="" style="fill: rgb(255, 116, 48);">
<g>
	<path d="M100,0H0v65.625c0,9.506,3.353,17.611,10.059,24.316S24.87,100,34.375,100H100V0z"/>
</g>
</g></g><g transform="translate(100,350) scale(0.1,0.1)"><g transform="" style="fill: rgb(255, 116, 48);">
<rect width="100" height="100"/>
</g></g><g transform="translate(110,350) scale(0.1,0.1)"><g transform="" style="fill: rgb(255, 116, 48);">
<g>
	<path d="M100,34.375c0-9.505-3.354-17.611-10.059-24.316S75.131,0,65.625,0H0v100h100V34.375z"/>
</g>
</g></g><g transform="translate(130,350) scale(0.1,0.1)"><g transform="" style="fill: rgb(255, 116, 48);">
<polygon points="100,100 50,0 50,0 0,100 "/>
</g></g><g transform="translate(180,350) scale(0.1,0.1)"><g transform="" style="fill: rgb(255, 116, 48);">
<g>
	<path d="M100,34.375V0H34.375C24.87,0,16.764,3.353,10.059,10.059S0,24.87,0,34.375V100h100V34.375z"/>
</g>
</g></g><g transform="translate(190,350) scale(0.1,0.1)"><g transform="" style="fill: rgb(255, 116, 48);">
<rect width="100" height="100"/>
</g></g><g transform="translate(200,350) scale(0.1,0.1)"><g transform="" style="fill: rgb(255, 116, 48);">
<polygon points="0,100 100,50 100,50 0,0 "/>
</g></g><g transform="translate(230,350) scale(0.1,0.1)"><g transform="" style="fill: rgb(255, 116, 48);">
<g>
	<path d="M100,34.375V0H34.375C24.87,0,16.764,3.353,10.059,10.059S0,24.87,0,34.375V100h100V34.375z"/>
</g>
</g></g><g transform="translate(240,350) scale(0.1,0.1)"><g transform="" style="fill: rgb(255, 116, 48);">
<rect width="100" height="100"/>
</g></g><g transform="translate(250,350) scale(0.1,0.1)"><g transform="" style="fill: rgb(255, 116, 48);">
<rect width="100" height="100"/>
</g></g><g transform="translate(300,350) scale(0.1,0.1)"><g transform="" style="fill: rgb(255, 116, 48);">
<polygon points="0,-0.001 50,99.999 50,99.999 100,-0.001 "/>
</g></g><g transform="translate(330,350) scale(0.1,0.1)"><g transform="" style="fill: rgb(255, 116, 48);">
<g>
	<path d="M100,34.375V0H34.375C24.87,0,16.764,3.353,10.059,10.059S0,24.87,0,34.375V100h100V34.375z"/>
</g>
</g></g><g transform="translate(340,350) scale(0.1,0.1)"><g transform="" style="fill: rgb(255, 116, 48);">
<g>
	<path d="M100,34.375c0-9.505-3.354-17.611-10.059-24.316S75.131,0,65.625,0H0v100h100V34.375z"/>
</g>
</g></g><g transform="translate(100,360) scale(0.1,0.1)"><g transform="" style="fill: rgb(255, 116, 48);">
<g>
	<path d="M100,0H0v65.625c0,9.506,3.353,17.611,10.059,24.316S24.87,100,34.375,100H100V0z"/>
</g>
</g></g><g transform="translate(110,360) scale(0.1,0.1)"><g transform="" style="fill: rgb(255, 116, 48);">
<g>
	<path d="M100,0H0v100h65.625c9.506,0,17.611-3.354,24.316-10.059S100,75.131,100,65.625V0z"/>
</g>
</g></g><g transform="translate(130,360) scale(0.1,0.1)"><g transform="" style="fill: rgb(255, 116, 48);">
<polygon points="0,-0.001 50,99.999 50,99.999 100,-0.001 "/>
</g></g><g transform="translate(160,360) scale(0.1,0.1)"><g transform="" style="fill: rgb(255, 116, 48);">
<polygon points="100,100 0,50 0,50 100,0 "/>
</g></g><g transform="translate(170,360) scale(0.1,0.1)"><g transform="" style="fill: rgb(255, 116, 48);">
<rect width="100" height="100"/>
</g></g><g transform="translate(180,360) scale(0.1,0.1)"><g transform="" style="fill: rgb(255, 116, 48);">
<rect width="100" height="100"/>
</g></g><g transform="translate(190,360) scale(0.1,0.1)"><g transform="" style="fill: rgb(255, 116, 48);">
<g>
	<path d="M100,0H0v100h65.625c9.506,0,17.611-3.354,24.316-10.059S100,75.131,100,65.625V0z"/>
</g>
</g></g><g transform="translate(210,360) scale(0.1,0.1)"><g transform="" style="fill: rgb(255, 116, 48);">
<polygon points="100,100 0,50 0,50 100,0 "/>
</g></g><g transform="translate(220,360) scale(0.1,0.1)"><g transform="" style="fill: rgb(255, 116, 48);">
<rect width="100" height="100"/>
</g></g><g transform="translate(230,360) scale(0.1,0.1)"><g transform="" style="fill: rgb(255, 116, 48);">
<rect width="100" height="100"/>
</g></g><g transform="translate(240,360) scale(0.1,0.1)"><g transform="" style="fill: rgb(255, 116, 48);">
<rect width="100" height="100"/>
</g></g><g transform="translate(250,360) scale(0.1,0.1)"><g transform="" style="fill: rgb(255, 116, 48);">
<rect width="100" height="100"/>
</g></g><g transform="translate(260,360) scale(0.1,0.1)"><g transform="" style="fill: rgb(255, 116, 48);">
<polygon points="0,100 100,50 100,50 0,0 "/>
</g></g><g transform="translate(290,360) scale(0.1,0.1)"><g transform="" style="fill: rgb(255, 116, 48);">
<polygon points="99.999,49.999 99.998,49.999 49.999,0 0,49.999 -0.001,49.999 -0.001,50 0,50 49.999,99.999 99.998,50 99.999,50 
	99.998,50 "/>
</g></g><g transform="translate(310,360) scale(0.1,0.1)"><g transform="" style="fill: rgb(255, 116, 48);">
<polygon points="100,100 0,50 0,50 100,0 "/>
</g></g><g transform="translate(320,360) scale(0.1,0.1)"><g transform="" style="fill: rgb(255, 116, 48);">
<rect width="100" height="100"/>
</g></g><g transform="translate(330,360) scale(0.1,0.1)"><g transform="" style="fill: rgb(255, 116, 48);">
<rect width="100" height="100"/>
</g></g><g transform="translate(340,360) scale(0.1,0.1)"><g transform="" style="fill: rgb(255, 116, 48);">
<rect width="100" height="100"/>
</g></g><g transform="translate(350,360) scale(0.1,0.1)"><g transform="" style="fill: rgb(255, 116, 48);">
<rect width="100" height="100"/>
</g></g><g transform="translate(360,360) scale(0.1,0.1)"><g transform="" style="fill: rgb(255, 116, 48);">
<polygon points="0,100 100,50 100,50 0,0 "/>
</g></g><g transform="translate(0,0) scale(0.7, 0.7)"><g transform=" translate(100, 0) scale(-1,1) " style="fill: rgb(255, 116, 48);">
<g>
	<path style="fill:none;" d="M85,66.221V33.75C85,23.411,76.414,15,65.859,15H34.14C23.586,15,15,23.411,15,33.75v51.246
		l50.855-0.016C76.414,84.98,85,76.564,85,66.221z"/>
	<path d="M100,66.221V33.75C100,15.141,84.68,0,65.859,0H34.14C15.32,0,0,15.141,0,33.75V100l65.859-0.02
		C84.68,99.98,100,84.84,100,66.221z M85,66.221c0,10.344-8.586,18.76-19.145,18.76L15,84.996V33.75C15,23.411,23.586,15,34.14,15
		h31.719C76.414,15,85,23.411,85,33.75V66.221z"/>
</g>
</g></g><g transform="translate(300,0) scale(0.7, 0.7)"><g transform="" style="fill: rgb(255, 116, 48);">
<g>
	<path style="fill:none;" d="M85,66.221V33.75C85,23.411,76.414,15,65.859,15H34.14C23.586,15,15,23.411,15,33.75v51.246
		l50.855-0.016C76.414,84.98,85,76.564,85,66.221z"/>
	<path d="M100,66.221V33.75C100,15.141,84.68,0,65.859,0H34.14C15.32,0,0,15.141,0,33.75V100l65.859-0.02
		C84.68,99.98,100,84.84,100,66.221z M85,66.221c0,10.344-8.586,18.76-19.145,18.76L15,84.996V33.75C15,23.411,23.586,15,34.14,15
		h31.719C76.414,15,85,23.411,85,33.75V66.221z"/>
</g>
</g></g><g transform="translate(0,300) scale(0.7, 0.7)"><g transform=" translate(100, 0) scale(-1,1)  translate(0,100) scale(1,-1) " style="fill: rgb(255, 116, 48);">
<g>
	<path style="fill:none;" d="M85,66.221V33.75C85,23.411,76.414,15,65.859,15H34.14C23.586,15,15,23.411,15,33.75v51.246
		l50.855-0.016C76.414,84.98,85,76.564,85,66.221z"/>
	<path d="M100,66.221V33.75C100,15.141,84.68,0,65.859,0H34.14C15.32,0,0,15.141,0,33.75V100l65.859-0.02
		C84.68,99.98,100,84.84,100,66.221z M85,66.221c0,10.344-8.586,18.76-19.145,18.76L15,84.996V33.75C15,23.411,23.586,15,34.14,15
		h31.719C76.414,15,85,23.411,85,33.75V66.221z"/>
</g>
</g></g><g transform="translate(20,20) scale(0.3, 0.3)"><g transform="" style="fill: rgb(255, 116, 48);">
<polygon points="51.156,100 0,49.844 0,0 49.844,0 100,51.156 100,100 "/>
</g></g><g transform="translate(320,20) scale(0.3, 0.3)"><g transform=" translate(100, 0) scale(-1,1) " style="fill: rgb(255, 116, 48);">
<polygon points="51.156,100 0,49.844 0,0 49.844,0 100,51.156 100,100 "/>
</g></g><g transform="translate(20,320) scale(0.3, 0.3)"><g transform=" translate(0,100) scale(1,-1) " style="fill: rgb(255, 116, 48);">
<polygon points="51.156,100 0,49.844 0,0 49.844,0 100,51.156 100,100 "/>
</g></g><g transform="translate(130,130) scale(0.11,0.11)" width="110" height="110"><svg
   xmlns:dc="http://purl.org/dc/elements/1.1/"
   xmlns:cc="http://creativecommons.org/ns#"
   xmlns:rdf="http://www.w3.org/1999/02/22-rdf-syntax-ns#"
   xmlns:svg="http://www.w3.org/2000/svg"
   xmlns="http://www.w3.org/2000/svg"
   version="1.1"
   width="1000"
   height="1000"
   viewBox="0 0 1000 1000"
   id="svg6742">
  <defs
     id="defs6744" />
  <metadata
     id="metadata6747">
    <rdf:RDF>
      <cc:Work
         rdf:about="">
        <dc:format>image/svg+xml</dc:format>
        <dc:type
           rdf:resource="http://purl.org/dc/dcmitype/StillImage" />
        <dc:title></dc:title>
      </cc:Work>
    </rdf:RDF>
  </metadata>
  <g
     transform="translate(0,-52.362183)"
     id="layer1">
    <g
       transform="matrix(7.2948777,0,0,7.2948777,-2476.3101,-4965.2075)"
       id="g6799">
      <path
         d="m 339.45875,756.36219 c 0,-37.855 30.6875,-68.54125 68.54125,-68.54125 37.85375,0 68.54124,30.68625 68.54124,68.54125 0,37.85374 -30.68749,68.54124 -68.54124,68.54124 -37.85375,0 -68.54125,-30.6875 -68.54125,-68.54124"
         id="path3850"
         style="fill:#005983;fill-opacity:1;fill-rule:nonzero;stroke:none" />
      <path
         d="m 374.55125,789.11218 15.8125,0 0,-47.56999 -15.8125,0 0,47.56999 z m 8.01001,-70.49999 c -5.41126,0 -8.95,3.55125 -8.95,8.2175 0,4.5675 3.4375,8.22125 8.74249,8.22125 l 0.1025,0 c 5.5175,0 8.9475,-3.65375 8.9475,-8.22125 -0.10499,-4.66625 -3.43,-8.2175 -8.84249,-8.2175 z m 64.82749,43.21999 0,27.28 -15.81625,0 0,-25.45 c 0,-6.3925 -2.28374,-10.75624 -8.01,-10.75624 -4.37,0 -6.96625,2.93875 -8.11249,5.78374 -0.41626,1.01625 -0.52376,2.42875 -0.52376,3.855 l 0,26.5675 -15.8175,0 c 0,0 0.2125,-43.10624 0,-47.56999 l 15.8175,0 0,6.74125 -0.105,0.15625 0.105,0 0,-0.15625 c 2.1025,-3.235 5.85126,-7.8575 14.25375,-7.8575 10.4075,0 18.20875,6.7975 18.20875,21.40624"
         id="path3852"
         style="fill:#f1f2f2;fill-opacity:1;fill-rule:nonzero;stroke:none" />
    </g>
  </g>
</svg>
</g></g></svg>