<?xml version="1.0" encoding="utf-8"?>
<!DOCTYPE svg PUBLIC "-//W3C//DTD SVG 1.1//EN" "http://www.w3.org/Graphics/SVG/1.1/DTD/svg11.dtd">
<svg version="1.1" id="Layer_1" xmlns="http://www.w3.org/2000/svg" xmlns:xlink="http://www.w3.org/1999/xlink" x="0px" y="0px"
width="410px" height="410px" viewBox="0 0 410 410" enable-background="new 0 0 410 410" xml:space="preserve">
<rect x="0" y="0" width="410" height="410" fill="rgb(27,27,31)" /><g transform="translate(20,20)"><g transform="translate(80,0) scale(0.1,0.1)"><g transform="" style="fill: rgb(255, 116, 48);">
<g>
	<path d="M100,34.375V0H34.375C24.87,0,16.764,3.353,10.059,10.059S0,24.87,0,34.375V100h100V34.375z"/>
</g>
</g></g><g transform="translate(90,0) scale(0.1,0.1)"><g transform="" style="fill: rgb(255, 116, 48);">
<rect width="100" height="100"/>
</g></g><g transform="translate(100,0) scale(0.1,0.1)"><g transform="" style="fill: rgb(255, 116, 48);">
<rect width="100" height="100"/>
</g></g><g transform="translate(110,0) scale(0.1,0.1)"><g transform="" style="fill: rgb(255, 116, 48);">
<rect width="100" height="100"/>
</g></g><g transform="translate(120,0) scale(0.1,0.1)"><g transform="" style="fill: rgb(255, 116, 48);">
<rect width="100" height="100"/>
</g></g><g transform="translate(130,0) scale(0.1,0.1)"><g transform="" style="fill: rgb(255, 116, 48);">
<polygon points="0,100 100,50 100,50 0,0 "/>
</g></g><g transform="translate(150,0) scale(0.1,0.1)"><g transform="" style="fill: rgb(255, 116, 48);">
<g>
	<path d="M100,34.375V0H34.375C24.87,0,16.764,3.353,10.059,10.059S0,24.87,0,34.375V100h100V34.375z"/>
</g>
</g></g><g transform="translate(160,0) scale(0.1,0.1)"><g transform="" style="fill: rgb(255, 116, 48);">
<rect width="100" height="100"/>
</g></g><g transform="translate(170,0) scale(0.1,0.1)"><g transform="" style="fill: rgb(255, 116, 48);">
<rect width="100" height="100"/>
</g></g><g transform="translate(180,0) scale(0.1,0.1)"><g transform="" style="fill: rgb(255, 116, 48);">
<polygon points="0,100 100,50 100,50 0,0 "/>
</g></g><g transform="translate(200,0) scale(0.1,0.1)"><g transform="" style="fill: rgb(255, 116, 48);">
<polygon points="100,100 0,50 0,50 100,0 "/>
</g></g><g transform="translate(210,0) scale(0.1,0.1)"><g transform="" style="fill: rgb(255, 116, 48);">
<g>
	<path d="M100,34.375c0-9.505-3.354-17.611-10.059-24.316S75.131,0,65.625,0H0v100h100V34.375z"/>
</g>
</g></g><g transform="translate(230,0) scale(0.1,0.1)"><g transform="" style="fill: rgb(255, 116, 48);">
<polygon points="100,100 50,0 50,0 0,100 "/>
</g></g><g transform="translate(250,0) scale(0.1,0.1)"><g transform="" style="fill: rgb(255, 116, 48);">
<g>
	<path d="M100,34.375V0H34.375C24.87,0,16.764,3.353,10.059,10.059S0,24.87,0,34.375V100h100V34.375z"/>
</g>
</g></g><g transform="translate(260,0) scale(0.1,0.1)"><g transform="" style="fill: rgb(255, 116, 48);">
<g>
	<path d="M100,34.375c0-9.505-3.354-17.611-10.059-24.316S75.131,0,65.625,0H0v100h100V34.375z"/>
</g>
</g></g><g transform="translate(280,0) scale(0.1,0.1)"><g transform="" style="fill: rgb(255, 116, 48);">
<polygon points="100,100 50,0 50,0 0,100 "/>
</g></g><g transform="translate(80,10) scale(0.1,0.1)"><g transform="" style="fill: rgb(255, 116, 48);">
<rect width="100" height="100"/>
</g></g><g transform="translate(110,10) scale(0.1,0.1)"><g transform="" style="fill: rgb(255, 116, 48);">
<polygon points="0,-0.001 50,99.999 50,99.999 100,-0.001 "/>
</g></g><g transform="translate(140,10) scale(0.1,0.1)"><g transform="" style="fill: rgb(255, 116, 48);">
<polygon points="100,100 0,50 0,50 100,0 "/>
</g></g><g transform="translate(150,10) scale(0.1,0.1)"><g transform="" style="fill: rgb(255, 116, 48);">
<rect width="100" height="100"/>
</g></g><g transform="translate(160,10) scale(0.1,0.1)"><g transform="" style="fill: rgb(255, 116, 48);">
<rect width="100" height="100"/>
</g></g><g transform="translate(190,10) scale(0.1,0.1)"><g transform="" style="fill: rgb(255, 116, 48);">
<polygon points="99.999,49.999 99.998,49.999 49.999,0 0,49.999 -0.001,49.999 -0.001,50 0,50 49.999,99.999 99.998,50 99.999,50 
	99.998,50 "/>
</g></g><g transform="translate(210,10) scale(0.1,0.1)"><g transform="" style="fill: rgb(255, 116, 48);">
<polygon points="0,-0.001 50,99.999 50,99.999 100,-0.001 "/>
</g></g><g transform="translate(230,10) scale(0.1,0.1)"><g transform="" style="fill: rgb(255, 116, 48);">
<rect width="100" height="100"/>
</g></g><g transform="translate(250,10) scale(0.1,0.1)"><g transform="" style="fill: rgb(255, 116, 48);">
<g>
	<path d="M100,0H0v65.625c0,9.506,3.353,17.611,10.059,24.316S24.87,100,34.375,100H100V0z"/>
</g>
</g></g><g transform="translate(260,10) scale(0.1,0.1)"><g transform="" style="fill: rgb(255, 116, 48);">
<rect width="100" height="100"/>
</g></g><g transform="translate(270,10) scale(0.1,0.1)"><g transform="" style="fill: rgb(255, 116, 48);">
<rect width="100" height="100"/>
</g></g><g transform="translate(280,10) scale(0.1,0.1)"><g transform="" style="fill: rgb(255, 116, 48);">
<rect width="100" height="100"/>
</g></g><g transform="translate(80,20) scale(0.1,0.1)"><g transform="" style="fill: rgb(255, 116, 48);">
<g>
	<path d="M100,0H0v65.625c0,9.506,3.353,17.611,10.059,24.316S24.87,100,34.375,100H100V0z"/>
</g>
</g></g><g transform="translate(90,20) scale(0.1,0.1)"><g transform="" style="fill: rgb(255, 116, 48);">
<g>
	<path d="M100,34.375c0-9.505-3.354-17.611-10.059-24.316S75.131,0,65.625,0H0v100h100V34.375z"/>
</g>
</g></g><g transform="translate(130,20) scale(0.1,0.1)"><g transform="" style="fill: rgb(255, 116, 48);">
<polygon points="100,100 50,0 50,0 0,100 "/>
</g></g><g transform="translate(160,20) scale(0.1,0.1)"><g transform="" style="fill: rgb(255, 116, 48);">
<g>
	<path d="M100,0H0v65.625c0,9.506,3.353,17.611,10.059,24.316S24.87,100,34.375,100H100V0z"/>
</g>
</g></g><g transform="translate(170,20) scale(0.1,0.1)"><g transform="" style="fill: rgb(255, 116, 48);">
<g>
	<path d="M100,34.375c0-9.505-3.354-17.611-10.059-24.316S75.131,0,65.625,0H0v100h100V34.375z"/>
</g>
</g></g><g transform="translate(200,20) scale(0.1,0.1)"><g transform="" style="fill: rgb(255, 116, 48);">
<polygon points="99.999,49.999 99.998,49.999 49.999,0 0,49.999 -0.001,49.999 -0.001,50 0,50 49.999,99.999 99.998,50 99.999,50 
	99.998,50 "/>
</g></g><g transform="translate(220,20) scale(0.1,0.1)"><g transform="" style="fill: rgb(255, 116, 48);">
<g>
	<path d="M100,34.375V0H34.375C24.87,0,16.764,3.353,10.059,10.059S0,24.87,0,34.375V100h100V34.375z"/>
</g>
</g></g><g transform="translate(230,20) scale(0.1,0.1)"><g transform="" style="fill: rgb(255, 116, 48);">
<rect width="100" height="100"/>
</g></g><g transform="translate(280,20) scale(0.1,0.1)"><g transform="" style="fill: rgb(255, 116, 48);">
<polygon points="0,-0.001 50,99.999 50,99.999 100,-0.001 "/>
</g></g><g transform="translate(90,30) scale(0.1,0.1)"><g transform="" style="fill: rgb(255, 116, 48);">
<g>
	<path d="M100,0H0v65.625c0,9.506,3.353,17.611,10.059,24.316S24.87,100,34.375,100H100V0z"/>
</g>
</g></g><g transform="translate(100,30) scale(0.1,0.1)"><g transform="" style="fill: rgb(255, 116, 48);">
<g>
	<path d="M100,34.375c0-9.505-3.354-17.611-10.059-24.316S75.131,0,65.625,0H0v100h100V34.375z"/>
</g>
</g></g><g transform="translate(120,30) scale(0.1,0.1)"><g transform="" style="fill: rgb(255, 116, 48);">
<polygon points="100,100 0,50 0,50 100,0 "/>
</g></g><g transform="translate(130,30) scale(0.1,0.1)"><g transform="" style="fill: rgb(255, 116, 48);">
<g>
	<path d="M100,0H0v100h65.625c9.506,0,17.611-3.354,24.316-10.059S100,75.131,100,65.625V0z"/>
</g>
</g></g><g transform="translate(150,30) scale(0.1,0.1)"><g transform="" style="fill: rgb(255, 116, 48);">
<polygon points="100,100 50,0 50,0 0,100 "/>
</g></g><g transform="translate(170,30) scale(0.1,0.1)"><g transform="" style="fill: rgb(255, 116, 48);">
<g>
	<path d="M100,0H0v65.625c0,9.506,3.353,17.611,10.059,24.316S24.87,100,34.375,100H100V0z"/>
</g>
</g></g><g transform="translate(180,30) scale(0.1,0.1)"><g transform="" style="fill: rgb(255, 116, 48);">
<polygon points="0,100 100,50 100,50 0,0 "/>
</g></g><g transform="translate(210,30) scale(0.1,0.1)"><g transform="" style="fill: rgb(255, 116, 48);">
<polygon points="100,100 0,50 0,50 100,0 "/>
</g></g><g transform="translate(220,30) scale(0.1,0.1)"><g transform="" style="fill: rgb(255, 116, 48);">
<rect width="100" height="100"/>
</g></g><g transform="translate(230,30) scale(0.1,0.1)"><g transform="" style="fill: rgb(255, 116, 48);">
<g>
	<path d="M100,0H0v100h65.625c9.506,0,17.611-3.354,24.316-10.059S100,75.131,100,65.625V0z"/>
</g>
</g></g><g transform="translate(250,30) scale(0.1,0.1)"><g transform="" style="fill: rgb(255, 116, 48);">
<g>
	<path d="M100,34.375V0H34.375C24.87,0,16.764,3.353,10.059,10.059S0,24.87,0,34.375V100h100V34.375z"/>
</g>
</g></g><g transform="translate(260,30) scale(0.1,0.1)"><g transform="" style="fill: rgb(255, 116, 48);">
<rect width="100" height="100"/>
</g></g><g transform="translate(270,30) scale(0.1,0.1)"><g transform="" style="fill: rgb(255, 116, 48);">
<polygon points="0,100 100,50 100,50 0,0 "/>
</g></g><g transform="translate(100,40) scale(0.1,0.1)"><g transform="" style="fill: rgb(255, 116, 48);">
<rect width="100" height="100"/>
</g></g><g transform="translate(150,40) scale(0.1,0.1)"><g transform="" style="fill: rgb(255, 116, 48);">
<g>
	<path d="M100,0H0v65.625c0,9.506,3.353,17.611,10.059,24.316S24.87,100,34.375,100H100V0z"/>
</g>
</g></g><g transform="translate(160,40) scale(0.1,0.1)"><g transform="" style="fill: rgb(255, 116, 48);">
<polygon points="0,100 100,50 100,50 0,0 "/>
</g></g><g transform="translate(190,40) scale(0.1,0.1)"><g transform="" style="fill: rgb(255, 116, 48);">
<polygon points="99.999,49.999 99.998,49.999 49.999,0 0,49.999 -0.001,49.999 -0.001,50 0,50 49.999,99.999 99.998,50 99.999,50 
	99.998,50 "/>
</g></g><g transform="translate(220,40) scale(0.1,0.1)"><g transform="" style="fill: rgb(255, 116, 48);">
<rect width="100" height="100"/>
</g></g><g transform="translate(250,40) scale(0.1,0.1)"><g transform="" style="fill: rgb(255, 116, 48);">
<rect width="100" height="100"/>
</g></g><g transform="translate(80,50) scale(0.1,0.1)"><g transform="" style="fill: rgb(255, 116, 48);">
<polygon points="100,100 50,0 50,0 0,100 "/>
</g></g><g transform="translate(100,50) scale(0.1,0.1)"><g transform="" style="fill: rgb(255, 116, 48);">
<rect width="100" height="100"/>
</g></g><g transform="translate(110,50) scale(0.1,0.1)"><g transform="" style="fill: rgb(255, 116, 48);">
<polygon points="0,100 100,50 100,50 0,0 "/>
</g></g><g transform="translate(180,50) scale(0.1,0.1)"><g transform="" style="fill: rgb(255, 116, 48);">
<polygon points="100,100 50,0 50,0 0,100 "/>
</g></g><g transform="translate(200,50) scale(0.1,0.1)"><g transform="" style="fill: rgb(255, 116, 48);">
<g>
	<path d="M100,34.375V0H34.375C24.87,0,16.764,3.353,10.059,10.059S0,24.87,0,34.375V100h100V34.375z"/>
</g>
</g></g><g transform="translate(210,50) scale(0.1,0.1)"><g transform="" style="fill: rgb(255, 116, 48);">
<rect width="100" height="100"/>
</g></g><g transform="translate(220,50) scale(0.1,0.1)"><g transform="" style="fill: rgb(255, 116, 48);">
<rect width="100" height="100"/>
</g></g><g transform="translate(240,50) scale(0.1,0.1)"><g transform="" style="fill: rgb(255, 116, 48);">
<g>
	<path d="M100,34.375V0H34.375C24.87,0,16.764,3.353,10.059,10.059S0,24.87,0,34.375V100h100V34.375z"/>
</g>
</g></g><g transform="translate(250,50) scale(0.1,0.1)"><g transform="" style="fill: rgb(255, 116, 48);">
<rect width="100" height="100"/>
</g></g><g transform="translate(260,50) scale(0.1,0.1)"><g transform="" style="fill: rgb(255, 116, 48);">
<rect width="100" height="100"/>
</g></g><g transform="translate(270,50) scale(0.1,0.1)"><g transform="" style="fill: rgb(255, 116, 48);">
<rect width="100" height="100"/>
</g></g><g transform="translate(280,50) scale(0.1,0.1)"><g transform="" style="fill: rgb(255, 116, 48);">
<g>
	<path d="M100,34.375c0-9.505-3.354-17.611-10.059-24.316S75.131,0,65.625,0H0v100h100V34.375z"/>
</g>
</g></g><g transform="translate(80,60) scale(0.1,0.1)"><g transform="" style="fill: rgb(255, 116, 48);">
<rect width="100" height="100"/>
</g></g><g transform="translate(100,60) scale(0.1,0.1)"><g transform="" style="fill: rgb(255, 116, 48);">
<polygon points="0,-0.001 50,99.999 50,99.999 100,-0.001 "/>
</g></g><g transform="translate(120,60) scale(0.1,0.1)"><g transform="" style="fill: rgb(255, 116, 48);">
<polygon points="99.999,49.999 99.998,49.999 49.999,0 0,49.999 -0.001,49.999 -0.001,50 0,50 49.999,99.999 99.998,50 99.999,50 
	99.998,50 "/>
</g></g><g transform="translate(140,60) scale(0.1,0.1)"><g transform="" style="fill: rgb(255, 116, 48);">
<polygon points="100,100 50,0 50,0 0,100 "/>
</g></g><g transform="translate(160,60) scale(0.1,0.1)"><g transform="" style="fill: rgb(255, 116, 48);">
<polygon points="100,100 50,0 50,0 0,100 "/>
</g></g><g transform="translate(180,60) scale(0.1,0.1)"><g transform="" style="fill: rgb(255, 116, 48);">
<polygon points="0,-0.001 50,99.999 50,99.999 100,-0.001 "/>
</g></g><g transform="translate(200,60) scale(0.1,0.1)"><g transform="" style="fill: rgb(255, 116, 48);">
<polygon points="0,-0.001 50,99.999 50,99.999 100,-0.001 "/>
</g></g><g transform="translate(220,60) scale(0.1,0.1)"><g transform="" style="fill: rgb(255, 116, 48);">
<rect width="100" height="100"/>
</g></g><g transform="translate(240,60) scale(0.1,0.1)"><g transform="" style="fill: rgb(255, 116, 48);">
<polygon points="0,-0.001 50,99.999 50,99.999 100,-0.001 "/>
</g></g><g transform="translate(260,60) scale(0.1,0.1)"><g transform="" style="fill: rgb(255, 116, 48);">
<polygon points="0,-0.001 50,99.999 50,99.999 100,-0.001 "/>
</g></g><g transform="translate(280,60) scale(0.1,0.1)"><g transform="" style="fill: rgb(255, 116, 48);">
<rect width="100" height="100"/>
</g></g><g transform="translate(80,70) scale(0.1,0.1)"><g transform="" style="fill: rgb(255, 116, 48);">
<rect width="100" height="100"/>
</g></g><g transform="translate(90,70) scale(0.1,0.1)"><g transform="" style="fill: rgb(255, 116, 48);">
<polygon points="0,100 100,50 100,50 0,0 "/>
</g></g><g transform="translate(110,70) scale(0.1,0.1)"><g transform="" style="fill: rgb(255, 116, 48);">
<polygon points="100,100 50,0 50,0 0,100 "/>
</g></g><g transform="translate(140,70) scale(0.1,0.1)"><g transform="" style="fill: rgb(255, 116, 48);">
<rect width="100" height="100"/>
</g></g><g transform="translate(150,70) scale(0.1,0.1)"><g transform="" style="fill: rgb(255, 116, 48);">
<rect width="100" height="100"/>
</g></g><g transform="translate(160,70) scale(0.1,0.1)"><g transform="" style="fill: rgb(255, 116, 48);">
<rect width="100" height="100"/>
</g></g><g transform="translate(190,70) scale(0.1,0.1)"><g transform="" style="fill: rgb(255, 116, 48);">
<polygon points="99.999,49.999 99.998,49.999 49.999,0 0,49.999 -0.001,49.999 -0.001,50 0,50 49.999,99.999 99.998,50 99.999,50 
	99.998,50 "/>
</g></g><g transform="translate(210,70) scale(0.1,0.1)"><g transform="" style="fill: rgb(255, 116, 48);">
<g>
	<path d="M100,34.375V0H34.375C24.87,0,16.764,3.353,10.059,10.059S0,24.87,0,34.375V100h100V34.375z"/>
</g>
</g></g><g transform="translate(220,70) scale(0.1,0.1)"><g transform="" style="fill: rgb(255, 116, 48);">
<rect width="100" height="100"/>
</g></g><g transform="translate(250,70) scale(0.1,0.1)"><g transform="" style="fill: rgb(255, 116, 48);">
<polygon points="99.999,49.999 99.998,49.999 49.999,0 0,49.999 -0.001,49.999 -0.001,50 0,50 49.999,99.999 99.998,50 99.999,50 
	99.998,50 "/>
</g></g><g transform="translate(280,70) scale(0.1,0.1)"><g transform="" style="fill: rgb(255, 116, 48);">
<rect width="100" height="100"/>
</g></g><g transform="translate(20,80) scale(0.1,0.1)"><g transform="" style="fill: rgb(255, 116, 48);">
<g>
	<path d="M100,34.375V0H34.375C24.87,0,16.764,3.353,10.059,10.059S0,24.87,0,34.375V100h100V34.375z"/>
</g>
</g></g><g transform="translate(30,80) scale(0.1,0.1)"><g transform="" style="fill: rgb(255, 116, 48);">
<rect width="100" height="100"/>
</g></g><g transform="translate(40,80) scale(0.1,0.1)"><g transform="" style="fill: rgb(255, 116, 48);">
<polygon points="0,100 100,50 100,50 0,0 "/>
</g></g><g transform="translate(60,80) scale(0.1,0.1)"><g transform="" style="fill: rgb(255, 116, 48);">
<polygon points="99.999,49.999 99.998,49.999 49.999,0 0,49.999 -0.001,49.999 -0.001,50 0,50 49.999,99.999 99.998,50 99.999,50 
	99.998,50 "/>
</g></g><g transform="translate(80,80) scale(0.1,0.1)"><g transform="" style="fill: rgb(255, 116, 48);">
<polygon points="0,-0.001 50,99.999 50,99.999 100,-0.001 "/>
</g></g><g transform="translate(110,80) scale(0.1,0.1)"><g transform="" style="fill: rgb(255, 116, 48);">
<rect width="100" height="100"/>
</g></g><g transform="translate(120,80) scale(0.1,0.1)"><g transform="" style="fill: rgb(255, 116, 48);">
<g>
	<path d="M100,34.375c0-9.505-3.354-17.611-10.059-24.316S75.131,0,65.625,0H0v100h100V34.375z"/>
</g>
</g></g><g transform="translate(140,80) scale(0.1,0.1)"><g transform="" style="fill: rgb(255, 116, 48);">
<rect width="100" height="100"/>
</g></g><g transform="translate(160,80) scale(0.1,0.1)"><g transform="" style="fill: rgb(255, 116, 48);">
<g>
	<path d="M100,0H0v65.625c0,9.506,3.353,17.611,10.059,24.316S24.87,100,34.375,100H100V0z"/>
</g>
</g></g><g transform="translate(170,80) scale(0.1,0.1)"><g transform="" style="fill: rgb(255, 116, 48);">
<rect width="100" height="100"/>
</g></g><g transform="translate(180,80) scale(0.1,0.1)"><g transform="" style="fill: rgb(255, 116, 48);">
<g>
	<path d="M100,34.375c0-9.505-3.354-17.611-10.059-24.316S75.131,0,65.625,0H0v100h100V34.375z"/>
</g>
</g></g><g transform="translate(210,80) scale(0.1,0.1)"><g transform="" style="fill: rgb(255, 116, 48);">
<rect width="100" height="100"/>
</g></g><g transform="translate(220,80) scale(0.1,0.1)"><g transform="" style="fill: rgb(255, 116, 48);">
<rect width="100" height="100"/>
</g></g><g transform="translate(230,80) scale(0.1,0.1)"><g transform="" style="fill: rgb(255, 116, 48);">
<polygon points="0,100 100,50 100,50 0,0 "/>
</g></g><g transform="translate(260,80) scale(0.1,0.1)"><g transform="" style="fill: rgb(255, 116, 48);">
<polygon points="99.999,49.999 99.998,49.999 49.999,0 0,49.999 -0.001,49.999 -0.001,50 0,50 49.999,99.999 99.998,50 99.999,50 
	99.998,50 "/>
</g></g><g transform="translate(280,80) scale(0.1,0.1)"><g transform="" style="fill: rgb(255, 116, 48);">
<g>
	<path d="M100,0H0v65.625c0,9.506,3.353,17.611,10.059,24.316S24.87,100,34.375,100H100V0z"/>
</g>
</g></g><g transform="translate(290,80) scale(0.1,0.1)"><g transform="" style="fill: rgb(255, 116, 48);">
<rect width="100" height="100"/>
</g></g><g transform="translate(300,80) scale(0.1,0.1)"><g transform="" style="fill: rgb(255, 116, 48);">
<rect width="100" height="100"/>
</g></g><g transform="translate(310,80) scale(0.1,0.1)"><g transform="" style="fill: rgb(255, 116, 48);">
<polygon points="0,100 100,50 100,50 0,0 "/>
</g></g><g transform="translate(340,80) scale(0.1,0.1)"><g transform="" style="fill: rgb(255, 116, 48);">
<g>
	<path d="M100,34.375V0H34.375C24.87,0,16.764,3.353,10.059,10.059S0,24.87,0,34.375V100h100V34.375z"/>
</g>
</g></g><g transform="translate(350,80) scale(0.1,0.1)"><g transform="" style="fill: rgb(255, 116, 48);">
<rect width="100" height="100"/>
</g></g><g transform="translate(360,80) scale(0.1,0.1)"><g transform="" style="fill: rgb(255, 116, 48);">
<polygon points="0,100 100,50 100,50 0,0 "/>
</g></g><g transform="translate(0,90) scale(0.1,0.1)"><g transform="" style="fill: rgb(255, 116, 48);">
<polygon points="99.999,49.999 99.998,49.999 49.999,0 0,49.999 -0.001,49.999 -0.001,50 0,50 49.999,99.999 99.998,50 99.999,50 
	99.998,50 "/>
</g></g><g transform="translate(20,90) scale(0.1,0.1)"><g transform="" style="fill: rgb(255, 116, 48);">
<rect width="100" height="100"/>
</g></g><g transform="translate(90,90) scale(0.1,0.1)"><g transform="" style="fill: rgb(255, 116, 48);">
<polygon points="100,100 50,0 50,0 0,100 "/>
</g></g><g transform="translate(110,90) scale(0.1,0.1)"><g transform="" style="fill: rgb(255, 116, 48);">
<rect width="100" height="100"/>
</g></g><g transform="translate(120,90) scale(0.1,0.1)"><g transform="" style="fill: rgb(255, 116, 48);">
<g>
	<path d="M100,0H0v100h65.625c9.506,0,17.611-3.354,24.316-10.059S100,75.131,100,65.625V0z"/>
</g>
</g></g><g transform="translate(140,90) scale(0.1,0.1)"><g transform="" style="fill: rgb(255, 116, 48);">
<rect width="100" height="100"/>
</g></g><g transform="translate(150,90) scale(0.1,0.1)"><g transform="" style="fill: rgb(255, 116, 48);">
<g>
	<path d="M100,34.375c0-9.505-3.354-17.611-10.059-24.316S75.131,0,65.625,0H0v100h100V34.375z"/>
</g>
</g></g><g transform="translate(180,90) scale(0.1,0.1)"><g transform="" style="fill: rgb(255, 116, 48);">
<g>
	<path d="M100,0H0v65.625c0,9.506,3.353,17.611,10.059,24.316S24.87,100,34.375,100H100V0z"/>
</g>
</g></g><g transform="translate(190,90) scale(0.1,0.1)"><g transform="" style="fill: rgb(255, 116, 48);">
<rect width="100" height="100"/>
</g></g><g transform="translate(200,90) scale(0.1,0.1)"><g transform="" style="fill: rgb(255, 116, 48);">
<rect width="100" height="100"/>
</g></g><g transform="translate(210,90) scale(0.1,0.1)"><g transform="" style="fill: rgb(255, 116, 48);">
<rect width="100" height="100"/>
</g></g><g transform="translate(220,90) scale(0.1,0.1)"><g transform="" style="fill: rgb(255, 116, 48);">
<rect width="100" height="100"/>
</g></g><g transform="translate(250,90) scale(0.1,0.1)"><g transform="" style="fill: rgb(255, 116, 48);">
<polygon points="100,100 50,0 50,0 0,100 "/>
</g></g><g transform="translate(270,90) scale(0.1,0.1)"><g transform="" style="fill: rgb(255, 116, 48);">
<polygon points="100,100 50,0 50,0 0,100 "/>
</g></g><g transform="translate(340,90) scale(0.1,0.1)"><g transform="" style="fill: rgb(255, 116, 48);">
<rect width="100" height="100"/>
</g></g><g transform="translate(20,100) scale(0.1,0.1)"><g transform="" style="fill: rgb(255, 116, 48);">
<rect width="100" height="100"/>
</g></g><g transform="translate(30,100) scale(0.1,0.1)"><g transform="" style="fill: rgb(255, 116, 48);">
<rect width="100" height="100"/>
</g></g><g transform="translate(40,100) scale(0.1,0.1)"><g transform="" style="fill: rgb(255, 116, 48);">
<rect width="100" height="100"/>
</g></g><g transform="translate(50,100) scale(0.1,0.1)"><g transform="" style="fill: rgb(255, 116, 48);">
<rect width="100" height="100"/>
</g></g><g transform="translate(60,100) scale(0.1,0.1)"><g transform="" style="fill: rgb(255, 116, 48);">
<polygon points="0,100 100,50 100,50 0,0 "/>
</g></g><g transform="translate(90,100) scale(0.1,0.1)"><g transform="" style="fill: rgb(255, 116, 48);">
<rect width="100" height="100"/>
</g></g><g transform="translate(100,100) scale(0.1,0.1)"><g transform="" style="fill: rgb(255, 116, 48);">
<rect width="100" height="100"/>
</g></g><g transform="translate(110,100) scale(0.1,0.1)"><g transform="" style="fill: rgb(255, 116, 48);">
<g>
	<path d="M100,0H0v100h65.625c9.506,0,17.611-3.354,24.316-10.059S100,75.131,100,65.625V0z"/>
</g>
</g></g><g transform="translate(140,100) scale(0.1,0.1)"><g transform="" style="fill: rgb(255, 116, 48);">
<rect width="100" height="100"/>
</g></g><g transform="translate(150,100) scale(0.1,0.1)"><g transform="" style="fill: rgb(255, 116, 48);">
<rect width="100" height="100"/>
</g></g><g transform="translate(170,100) scale(0.1,0.1)"><g transform="" style="fill: rgb(255, 116, 48);">
<polygon points="99.999,49.999 99.998,49.999 49.999,0 0,49.999 -0.001,49.999 -0.001,50 0,50 49.999,99.999 99.998,50 99.999,50 
	99.998,50 "/>
</g></g><g transform="translate(200,100) scale(0.1,0.1)"><g transform="" style="fill: rgb(255, 116, 48);">
<rect width="100" height="100"/>
</g></g><g transform="translate(220,100) scale(0.1,0.1)"><g transform="" style="fill: rgb(255, 116, 48);">
<polygon points="0,-0.001 50,99.999 50,99.999 100,-0.001 "/>
</g></g><g transform="translate(250,100) scale(0.1,0.1)"><g transform="" style="fill: rgb(255, 116, 48);">
<g>
	<path d="M100,0H0v65.625c0,9.506,3.353,17.611,10.059,24.316S24.87,100,34.375,100H100V0z"/>
</g>
</g></g><g transform="translate(260,100) scale(0.1,0.1)"><g transform="" style="fill: rgb(255, 116, 48);">
<rect width="100" height="100"/>
</g></g><g transform="translate(270,100) scale(0.1,0.1)"><g transform="" style="fill: rgb(255, 116, 48);">
<rect width="100" height="100"/>
</g></g><g transform="translate(280,100) scale(0.1,0.1)"><g transform="" style="fill: rgb(255, 116, 48);">
<polygon points="0,100 100,50 100,50 0,0 "/>
</g></g><g transform="translate(300,100) scale(0.1,0.1)"><g transform="" style="fill: rgb(255, 116, 48);">
<polygon points="100,100 50,0 50,0 0,100 "/>
</g></g><g transform="translate(320,100) scale(0.1,0.1)"><g transform="" style="fill: rgb(255, 116, 48);">
<polygon points="99.999,49.999 99.998,49.999 49.999,0 0,49.999 -0.001,49.999 -0.001,50 0,50 49.999,99.999 99.998,50 99.999,50 
	99.998,50 "/>
</g></g><g transform="translate(340,100) scale(0.1,0.1)"><g transform="" style="fill: rgb(255, 116, 48);">
<g>
	<path d="M100,0H0v65.625c0,9.506,3.353,17.611,10.059,24.316S24.87,100,34.375,100H100V0z"/>
</g>
</g></g><g transform="translate(350,100) scale(0.1,0.1)"><g transform="" style="fill: rgb(255, 116, 48);">
<rect width="100" height="100"/>
</g></g><g transform="translate(360,100) scale(0.1,0.1)"><g transform="" style="fill: rgb(255, 116, 48);">
<polygon points="0,100 100,50 100,50 0,0 "/>
</g></g><g transform="translate(10,110) scale(0.1,0.1)"><g transform="" style="fill: rgb(255, 116, 48);">
<polygon points="100,100 0,50 0,50 100,0 "/>
</g></g><g transform="translate(20,110) scale(0.1,0.1)"><g transform="" style="fill: rgb(255, 116, 48);">
<g>
	<path d="M100,0H0v100h65.625c9.506,0,17.611-3.354,24.316-10.059S100,75.131,100,65.625V0z"/>
</g>
</g></g><g transform="translate(40,110) scale(0.1,0.1)"><g transform="" style="fill: rgb(255, 116, 48);">
<rect width="100" height="100"/>
</g></g><g transform="translate(90,110) scale(0.1,0.1)"><g transform="" style="fill: rgb(255, 116, 48);">
<rect width="100" height="100"/>
</g></g><g transform="translate(100,110) scale(0.1,0.1)"><g transform="" style="fill: rgb(255, 116, 48);">
<rect width="100" height="100"/>
</g></g><g transform="translate(120,110) scale(0.1,0.1)"><g transform="" style="fill: rgb(255, 116, 48);">
<polygon points="100,100 0,50 0,50 100,0 "/>
</g></g><g transform="translate(130,110) scale(0.1,0.1)"><g transform="" style="fill: rgb(255, 116, 48);">
<rect width="100" height="100"/>
</g></g><g transform="translate(140,110) scale(0.1,0.1)"><g transform="" style="fill: rgb(255, 116, 48);">
<rect width="100" height="100"/>
</g></g><g transform="translate(150,110) scale(0.1,0.1)"><g transform="" style="fill: rgb(255, 116, 48);">
<g>
	<path d="M100,0H0v100h65.625c9.506,0,17.611-3.354,24.316-10.059S100,75.131,100,65.625V0z"/>
</g>
</g></g><g transform="translate(180,110) scale(0.1,0.1)"><g transform="" style="fill: rgb(255, 116, 48);">
<g>
	<path d="M100,34.375V0H34.375C24.87,0,16.764,3.353,10.059,10.059S0,24.87,0,34.375V100h100V34.375z"/>
</g>
</g></g><g transform="translate(190,110) scale(0.1,0.1)"><g transform="" style="fill: rgb(255, 116, 48);">
<rect width="100" height="100"/>
</g></g><g transform="translate(200,110) scale(0.1,0.1)"><g transform="" style="fill: rgb(255, 116, 48);">
<rect width="100" height="100"/>
</g></g><g transform="translate(210,110) scale(0.1,0.1)"><g transform="" style="fill: rgb(255, 116, 48);">
<g>
	<path d="M100,34.375c0-9.505-3.354-17.611-10.059-24.316S75.131,0,65.625,0H0v100h100V34.375z"/>
</g>
</g></g><g transform="translate(240,110) scale(0.1,0.1)"><g transform="" style="fill: rgb(255, 116, 48);">
<polygon points="100,100 50,0 50,0 0,100 "/>
</g></g><g transform="translate(260,110) scale(0.1,0.1)"><g transform="" style="fill: rgb(255, 116, 48);">
<rect width="100" height="100"/>
</g></g><g transform="translate(270,110) scale(0.1,0.1)"><g transform="" style="fill: rgb(255, 116, 48);">
<rect width="100" height="100"/>
</g></g><g transform="translate(300,110) scale(0.1,0.1)"><g transform="" style="fill: rgb(255, 116, 48);">
<rect width="100" height="100"/>
</g></g><g transform="translate(0,120) scale(0.1,0.1)"><g transform="" style="fill: rgb(255, 116, 48);">
<polygon points="100,100 50,0 50,0 0,100 "/>
</g></g><g transform="translate(40,120) scale(0.1,0.1)"><g transform="" style="fill: rgb(255, 116, 48);">
<rect width="100" height="100"/>
</g></g><g transform="translate(50,120) scale(0.1,0.1)"><g transform="" style="fill: rgb(255, 116, 48);">
<rect width="100" height="100"/>
</g></g><g transform="translate(60,120) scale(0.1,0.1)"><g transform="" style="fill: rgb(255, 116, 48);">
<polygon points="0,100 100,50 100,50 0,0 "/>
</g></g><g transform="translate(90,120) scale(0.1,0.1)"><g transform="" style="fill: rgb(255, 116, 48);">
<g>
	<path d="M100,0H0v65.625c0,9.506,3.353,17.611,10.059,24.316S24.87,100,34.375,100H100V0z"/>
</g>
</g></g><g transform="translate(100,120) scale(0.1,0.1)"><g transform="" style="fill: rgb(255, 116, 48);">
<rect width="100" height="100"/>
</g></g><g transform="translate(130,120) scale(0.1,0.1)"><g transform="" style="fill: rgb(255, 116, 48);">
<polygon points="0,-0.001 50,99.999 50,99.999 100,-0.001 "/>
</g></g><g transform="translate(160,120) scale(0.1,0.1)"><g transform="" style="fill: rgb(255, 116, 48);">
<polygon points="100,100 0,50 0,50 100,0 "/>
</g></g><g transform="translate(170,120) scale(0.1,0.1)"><g transform="" style="fill: rgb(255, 116, 48);">
<rect width="100" height="100"/>
</g></g><g transform="translate(180,120) scale(0.1,0.1)"><g transform="" style="fill: rgb(255, 116, 48);">
<rect width="100" height="100"/>
</g></g><g transform="translate(190,120) scale(0.1,0.1)"><g transform="" style="fill: rgb(255, 116, 48);">
<g>
	<path d="M100,0H0v100h65.625c9.506,0,17.611-3.354,24.316-10.059S100,75.131,100,65.625V0z"/>
</g>
</g></g><g transform="translate(210,120) scale(0.1,0.1)"><g transform="" style="fill: rgb(255, 116, 48);">
<polygon points="0,-0.001 50,99.999 50,99.999 100,-0.001 "/>
</g></g><g transform="translate(230,120) scale(0.1,0.1)"><g transform="" style="fill: rgb(255, 116, 48);">
<polygon points="100,100 0,50 0,50 100,0 "/>
</g></g><g transform="translate(240,120) scale(0.1,0.1)"><g transform="" style="fill: rgb(255, 116, 48);">
<rect width="100" height="100"/>
</g></g><g transform="translate(250,120) scale(0.1,0.1)"><g transform="" style="fill: rgb(255, 116, 48);">
<rect width="100" height="100"/>
</g></g><g transform="translate(260,120) scale(0.1,0.1)"><g transform="" style="fill: rgb(255, 116, 48);">
<rect width="100" height="100"/>
</g></g><g transform="translate(270,120) scale(0.1,0.1)"><g transform="" style="fill: rgb(255, 116, 48);">
<g>
	<path d="M100,0H0v100h65.625c9.506,0,17.611-3.354,24.316-10.059S100,75.131,100,65.625V0z"/>
</g>
</g></g><g transform="translate(290,120) scale(0.1,0.1)"><g transform="" style="fill: rgb(255, 116, 48);">
<g>
	<path d="M100,34.375V0H34.375C24.87,0,16.764,3.353,10.059,10.059S0,24.87,0,34.375V100h100V34.375z"/>
</g>
</g></g><g transform="translate(300,120) scale(0.1,0.1)"><g transform="" style="fill: rgb(255, 116, 48);">
<g>
	<path d="M100,0H0v100h65.625c9.506,0,17.611-3.354,24.316-10.059S100,75.131,100,65.625V0z"/>
</g>
</g></g><g transform="translate(320,120) scale(0.1,0.1)"><g transform="" style="fill: rgb(255, 116, 48);">
<polygon points="100,100 0,50 0,50 100,0 "/>
</g></g><g transform="translate(330,120) scale(0.1,0.1)"><g transform="" style="fill: rgb(255, 116, 48);">
<rect width="100" height="100"/>
</g></g><g transform="translate(340,120) scale(0.1,0.1)"><g transform="" style="fill: rgb(255, 116, 48);">
<rect width="100" height="100"/>
</g></g><g transform="translate(350,120) scale(0.1,0.1)"><g transform="" style="fill: rgb(255, 116, 48);">
<polygon points="0,100 100,50 100,50 0,0 "/>
</g></g><g transform="translate(0,130) scale(0.1,0.1)"><g transform="" style="fill: rgb(255, 116, 48);">
<polygon points="0,-0.001 50,99.999 50,99.999 100,-0.001 "/>
</g></g><g transform="translate(20,130) scale(0.1,0.1)"><g transform="" style="fill: rgb(255, 116, 48);">
<g>
	<path d="M100,34.375V0H34.375C24.87,0,16.764,3.353,10.059,10.059S0,24.87,0,34.375V100h100V34.375z"/>
</g>
</g></g><g transform="translate(30,130) scale(0.1,0.1)"><g transform="" style="fill: rgb(255, 116, 48);">
<rect width="100" height="100"/>
</g></g><g transform="translate(40,130) scale(0.1,0.1)"><g transform="" style="fill: rgb(255, 116, 48);">
<g>
	<path d="M100,0H0v100h65.625c9.506,0,17.611-3.354,24.316-10.059S100,75.131,100,65.625V0z"/>
</g>
</g></g><g transform="translate(80,130) scale(0.1,0.1)"><g transform="" style="fill: rgb(255, 116, 48);">
<polygon points="99.999,49.999 99.998,49.999 49.999,0 0,49.999 -0.001,49.999 -0.001,50 0,50 49.999,99.999 99.998,50 99.999,50 
	99.998,50 "/>
</g></g><g transform="translate(100,130) scale(0.1,0.1)"><g transform="" style="fill: rgb(255, 116, 48);">
<g>
	<path d="M100,0H0v65.625c0,9.506,3.353,17.611,10.059,24.316S24.87,100,34.375,100H100V0z"/>
</g>
</g></g><g transform="translate(110,130) scale(0.1,0.1)"><g transform="" style="fill: rgb(255, 116, 48);">
<rect width="100" height="100"/>
</g></g><g transform="translate(120,130) scale(0.1,0.1)"><g transform="" style="fill: rgb(255, 116, 48);">
<g>
	<path d="M100,34.375c0-9.505-3.354-17.611-10.059-24.316S75.131,0,65.625,0H0v100h100V34.375z"/>
</g>
</g></g><g transform="translate(240,130) scale(0.1,0.1)"><g transform="" style="fill: rgb(255, 116, 48);">
<polygon points="0,-0.001 50,99.999 50,99.999 100,-0.001 "/>
</g></g><g transform="translate(260,130) scale(0.1,0.1)"><g transform="" style="fill: rgb(255, 116, 48);">
<polygon points="0,-0.001 50,99.999 50,99.999 100,-0.001 "/>
</g></g><g transform="translate(280,130) scale(0.1,0.1)"><g transform="" style="fill: rgb(255, 116, 48);">
<g>
	<path d="M100,34.375V0H34.375C24.87,0,16.764,3.353,10.059,10.059S0,24.87,0,34.375V100h100V34.375z"/>
</g>
</g></g><g transform="translate(290,130) scale(0.1,0.1)"><g transform="" style="fill: rgb(255, 116, 48);">
<g>
	<path d="M100,0H0v100h65.625c9.506,0,17.611-3.354,24.316-10.059S100,75.131,100,65.625V0z"/>
</g>
</g></g><g transform="translate(330,130) scale(0.1,0.1)"><g transform="" style="fill: rgb(255, 116, 48);">
<rect width="100" height="100"/>
</g></g><g transform="translate(340,130) scale(0.1,0.1)"><g transform="" style="fill: rgb(255, 116, 48);">
<g>
	<path d="M100,0H0v100h65.625c9.506,0,17.611-3.354,24.316-10.059S100,75.131,100,65.625V0z"/>
</g>
</g></g><g transform="translate(10,140) scale(0.1,0.1)"><g transform="" style="fill: rgb(255, 116, 48);">
<g>
	<path d="M100,34.375V0H34.375C24.87,0,16.764,3.353,10.059,10.059S0,24.87,0,34.375V100h100V34.375z"/>
</g>
</g></g><g transform="translate(20,140) scale(0.1,0.1)"><g transform="" style="fill: rgb(255, 116, 48);">
<rect width="100" height="100"/>
</g></g><g transform="translate(30,140) scale(0.1,0.1)"><g transform="" style="fill: rgb(255, 116, 48);">
<rect width="100" height="100"/>
</g></g><g transform="translate(50,140) scale(0.1,0.1)"><g transform="" style="fill: rgb(255, 116, 48);">
<g>
	<path d="M100,34.375V0H34.375C24.87,0,16.764,3.353,10.059,10.059S0,24.87,0,34.375V100h100V34.375z"/>
</g>
</g></g><g transform="translate(60,140) scale(0.1,0.1)"><g transform="" style="fill: rgb(255, 116, 48);">
<rect width="100" height="100"/>
</g></g><g transform="translate(70,140) scale(0.1,0.1)"><g transform="" style="fill: rgb(255, 116, 48);">
<polygon points="0,100 100,50 100,50 0,0 "/>
</g></g><g transform="translate(90,140) scale(0.1,0.1)"><g transform="" style="fill: rgb(255, 116, 48);">
<polygon points="99.999,49.999 99.998,49.999 49.999,0 0,49.999 -0.001,49.999 -0.001,50 0,50 49.999,99.999 99.998,50 99.999,50 
	99.998,50 "/>
</g></g><g transform="translate(110,140) scale(0.1,0.1)"><g transform="" style="fill: rgb(255, 116, 48);">
<rect width="100" height="100"/>
</g></g><g transform="translate(120,140) scale(0.1,0.1)"><g transform="" style="fill: rgb(255, 116, 48);">
<g>
	<path d="M100,0H0v100h65.625c9.506,0,17.611-3.354,24.316-10.059S100,75.131,100,65.625V0z"/>
</g>
</g></g><g transform="translate(250,140) scale(0.1,0.1)"><g transform="" style="fill: rgb(255, 116, 48);">
<polygon points="99.999,49.999 99.998,49.999 49.999,0 0,49.999 -0.001,49.999 -0.001,50 0,50 49.999,99.999 99.998,50 99.999,50 
	99.998,50 "/>
</g></g><g transform="translate(270,140) scale(0.1,0.1)"><g transform="" style="fill: rgb(255, 116, 48);">
<g>
	<path d="M100,34.375V0H34.375C24.87,0,16.764,3.353,10.059,10.059S0,24.87,0,34.375V100h100V34.375z"/>
</g>
</g></g><g transform="translate(280,140) scale(0.1,0.1)"><g transform="" style="fill: rgb(255, 116, 48);">
<g>
	<path d="M100,0H0v100h65.625c9.506,0,17.611-3.354,24.316-10.059S100,75.131,100,65.625V0z"/>
</g>
</g></g><g transform="translate(300,140) scale(0.1,0.1)"><g transform="" style="fill: rgb(255, 116, 48);">
<polygon points="100,100 0,50 0,50 100,0 "/>
</g></g><g transform="translate(310,140) scale(0.1,0.1)"><g transform="" style="fill: rgb(255, 116, 48);">
<g>
	<path d="M100,34.375c0-9.505-3.354-17.611-10.059-24.316S75.131,0,65.625,0H0v100h100V34.375z"/>
</g>
</g></g><g transform="translate(330,140) scale(0.1,0.1)"><g transform="" style="fill: rgb(255, 116, 48);">
<polygon points="0,-0.001 50,99.999 50,99.999 100,-0.001 "/>
</g></g><g transform="translate(360,140) scale(0.1,0.1)"><g transform="" style="fill: rgb(255, 116, 48);">
<polygon points="99.999,49.999 99.998,49.999 49.999,0 0,49.999 -0.001,49.999 -0.001,50 0,50 49.999,99.999 99.998,50 99.999,50 
	99.998,50 "/>
</g></g><g transform="translate(0,150) scale(0.1,0.1)"><g transform="" style="fill: rgb(255, 116, 48);">
<g>
	<path d="M100,34.375V0H34.375C24.87,0,16.764,3.353,10.059,10.059S0,24.87,0,34.375V100h100V34.375z"/>
</g>
</g></g><g transform="translate(10,150) scale(0.1,0.1)"><g transform="" style="fill: rgb(255, 116, 48);">
<rect width="100" height="100"/>
</g></g><g transform="translate(30,150) scale(0.1,0.1)"><g transform="" style="fill: rgb(255, 116, 48);">
<g>
	<path d="M100,0H0v65.625c0,9.506,3.353,17.611,10.059,24.316S24.87,100,34.375,100H100V0z"/>
</g>
</g></g><g transform="translate(40,150) scale(0.1,0.1)"><g transform="" style="fill: rgb(255, 116, 48);">
<rect width="100" height="100"/>
</g></g><g transform="translate(50,150) scale(0.1,0.1)"><g transform="" style="fill: rgb(255, 116, 48);">
<rect width="100" height="100"/>
</g></g><g transform="translate(80,150) scale(0.1,0.1)"><g transform="" style="fill: rgb(255, 116, 48);">
<polygon points="100,100 50,0 50,0 0,100 "/>
</g></g><g transform="translate(110,150) scale(0.1,0.1)"><g transform="" style="fill: rgb(255, 116, 48);">
<polygon points="0,-0.001 50,99.999 50,99.999 100,-0.001 "/>
</g></g><g transform="translate(270,150) scale(0.1,0.1)"><g transform="" style="fill: rgb(255, 116, 48);">
<rect width="100" height="100"/>
</g></g><g transform="translate(290,150) scale(0.1,0.1)"><g transform="" style="fill: rgb(255, 116, 48);">
<polygon points="100,100 50,0 50,0 0,100 "/>
</g></g><g transform="translate(310,150) scale(0.1,0.1)"><g transform="" style="fill: rgb(255, 116, 48);">
<rect width="100" height="100"/>
</g></g><g transform="translate(320,150) scale(0.1,0.1)"><g transform="" style="fill: rgb(255, 116, 48);">
<g>
	<path d="M100,34.375c0-9.505-3.354-17.611-10.059-24.316S75.131,0,65.625,0H0v100h100V34.375z"/>
</g>
</g></g><g transform="translate(350,150) scale(0.1,0.1)"><g transform="" style="fill: rgb(255, 116, 48);">
<polygon points="100,100 50,0 50,0 0,100 "/>
</g></g><g transform="translate(0,160) scale(0.1,0.1)"><g transform="" style="fill: rgb(255, 116, 48);">
<rect width="100" height="100"/>
</g></g><g transform="translate(10,160) scale(0.1,0.1)"><g transform="" style="fill: rgb(255, 116, 48);">
<rect width="100" height="100"/>
</g></g><g transform="translate(20,160) scale(0.1,0.1)"><g transform="" style="fill: rgb(255, 116, 48);">
<g>
	<path d="M100,34.375c0-9.505-3.354-17.611-10.059-24.316S75.131,0,65.625,0H0v100h100V34.375z"/>
</g>
</g></g><g transform="translate(50,160) scale(0.1,0.1)"><g transform="" style="fill: rgb(255, 116, 48);">
<g>
	<path d="M100,0H0v65.625c0,9.506,3.353,17.611,10.059,24.316S24.87,100,34.375,100H100V0z"/>
</g>
</g></g><g transform="translate(60,160) scale(0.1,0.1)"><g transform="" style="fill: rgb(255, 116, 48);">
<rect width="100" height="100"/>
</g></g><g transform="translate(70,160) scale(0.1,0.1)"><g transform="" style="fill: rgb(255, 116, 48);">
<rect width="100" height="100"/>
</g></g><g transform="translate(80,160) scale(0.1,0.1)"><g transform="" style="fill: rgb(255, 116, 48);">
<rect width="100" height="100"/>
</g></g><g transform="translate(100,160) scale(0.1,0.1)"><g transform="" style="fill: rgb(255, 116, 48);">
<polygon points="99.999,49.999 99.998,49.999 49.999,0 0,49.999 -0.001,49.999 -0.001,50 0,50 49.999,99.999 99.998,50 99.999,50 
	99.998,50 "/>
</g></g><g transform="translate(240,160) scale(0.1,0.1)"><g transform="" style="fill: rgb(255, 116, 48);">
<g>
	<path d="M100,34.375V0H34.375C24.87,0,16.764,3.353,10.059,10.059S0,24.87,0,34.375V100h100V34.375z"/>
</g>
</g></g><g transform="translate(250,160) scale(0.1,0.1)"><g transform="" style="fill: rgb(255, 116, 48);">
<rect width="100" height="100"/>
</g></g><g transform="translate(260,160) scale(0.1,0.1)"><g transform="" style="fill: rgb(255, 116, 48);">
<rect width="100" height="100"/>
</g></g><g transform="translate(270,160) scale(0.1,0.1)"><g transform="" style="fill: rgb(255, 116, 48);">
<g>
	<path d="M100,0H0v100h65.625c9.506,0,17.611-3.354,24.316-10.059S100,75.131,100,65.625V0z"/>
</g>
</g></g><g transform="translate(290,160) scale(0.1,0.1)"><g transform="" style="fill: rgb(255, 116, 48);">
<rect width="100" height="100"/>
</g></g><g transform="translate(300,160) scale(0.1,0.1)"><g transform="" style="fill: rgb(255, 116, 48);">
<rect width="100" height="100"/>
</g></g><g transform="translate(310,160) scale(0.1,0.1)"><g transform="" style="fill: rgb(255, 116, 48);">
<rect width="100" height="100"/>
</g></g><g transform="translate(320,160) scale(0.1,0.1)"><g transform="" style="fill: rgb(255, 116, 48);">
<g>
	<path d="M100,0H0v100h65.625c9.506,0,17.611-3.354,24.316-10.059S100,75.131,100,65.625V0z"/>
</g>
</g></g><g transform="translate(340,160) scale(0.1,0.1)"><g transform="" style="fill: rgb(255, 116, 48);">
<g>
	<path d="M100,34.375V0H34.375C24.87,0,16.764,3.353,10.059,10.059S0,24.87,0,34.375V100h100V34.375z"/>
</g>
</g></g><g transform="translate(350,160) scale(0.1,0.1)"><g transform="" style="fill: rgb(255, 116, 48);">
<rect width="100" height="100"/>
</g></g><g transform="translate(360,160) scale(0.1,0.1)"><g transform="" style="fill: rgb(255, 116, 48);">
<polygon points="0,100 100,50 100,50 0,0 "/>
</g></g><g transform="translate(0,170) scale(0.1,0.1)"><g transform="" style="fill: rgb(255, 116, 48);">
<g>
	<path d="M100,0H0v65.625c0,9.506,3.353,17.611,10.059,24.316S24.87,100,34.375,100H100V0z"/>
</g>
</g></g><g transform="translate(10,170) scale(0.1,0.1)"><g transform="" style="fill: rgb(255, 116, 48);">
<rect width="100" height="100"/>
</g></g><g transform="translate(20,170) scale(0.1,0.1)"><g transform="" style="fill: rgb(255, 116, 48);">
<rect width="100" height="100"/>
</g></g><g transform="translate(40,170) scale(0.1,0.1)"><g transform="" style="fill: rgb(255, 116, 48);">
<polygon points="100,100 50,0 50,0 0,100 "/>
</g></g><g transform="translate(80,170) scale(0.1,0.1)"><g transform="" style="fill: rgb(255, 116, 48);">
<rect width="100" height="100"/>
</g></g><g transform="translate(240,170) scale(0.1,0.1)"><g transform="" style="fill: rgb(255, 116, 48);">
<polygon points="0,-0.001 50,99.999 50,99.999 100,-0.001 "/>
</g></g><g transform="translate(280,170) scale(0.1,0.1)"><g transform="" style="fill: rgb(255, 116, 48);">
<g>
	<path d="M100,34.375V0H34.375C24.87,0,16.764,3.353,10.059,10.059S0,24.87,0,34.375V100h100V34.375z"/>
</g>
</g></g><g transform="translate(290,170) scale(0.1,0.1)"><g transform="" style="fill: rgb(255, 116, 48);">
<rect width="100" height="100"/>
</g></g><g transform="translate(310,170) scale(0.1,0.1)"><g transform="" style="fill: rgb(255, 116, 48);">
<polygon points="0,-0.001 50,99.999 50,99.999 100,-0.001 "/>
</g></g><g transform="translate(340,170) scale(0.1,0.1)"><g transform="" style="fill: rgb(255, 116, 48);">
<rect width="100" height="100"/>
</g></g><g transform="translate(10,180) scale(0.1,0.1)"><g transform="" style="fill: rgb(255, 116, 48);">
<g>
	<path d="M100,0H0v65.625c0,9.506,3.353,17.611,10.059,24.316S24.87,100,34.375,100H100V0z"/>
</g>
</g></g><g transform="translate(20,180) scale(0.1,0.1)"><g transform="" style="fill: rgb(255, 116, 48);">
<g>
	<path d="M100,0H0v100h65.625c9.506,0,17.611-3.354,24.316-10.059S100,75.131,100,65.625V0z"/>
</g>
</g></g><g transform="translate(40,180) scale(0.1,0.1)"><g transform="" style="fill: rgb(255, 116, 48);">
<polygon points="0,-0.001 50,99.999 50,99.999 100,-0.001 "/>
</g></g><g transform="translate(60,180) scale(0.1,0.1)"><g transform="" style="fill: rgb(255, 116, 48);">
<polygon points="99.999,49.999 99.998,49.999 49.999,0 0,49.999 -0.001,49.999 -0.001,50 0,50 49.999,99.999 99.998,50 99.999,50 
	99.998,50 "/>
</g></g><g transform="translate(80,180) scale(0.1,0.1)"><g transform="" style="fill: rgb(255, 116, 48);">
<rect width="100" height="100"/>
</g></g><g transform="translate(100,180) scale(0.1,0.1)"><g transform="" style="fill: rgb(255, 116, 48);">
<polygon points="99.999,49.999 99.998,49.999 49.999,0 0,49.999 -0.001,49.999 -0.001,50 0,50 49.999,99.999 99.998,50 99.999,50 
	99.998,50 "/>
</g></g><g transform="translate(120,180) scale(0.1,0.1)"><g transform="" style="fill: rgb(255, 116, 48);">
<polygon points="100,100 50,0 50,0 0,100 "/>
</g></g><g transform="translate(270,180) scale(0.1,0.1)"><g transform="" style="fill: rgb(255, 116, 48);">
<g>
	<path d="M100,34.375V0H34.375C24.87,0,16.764,3.353,10.059,10.059S0,24.87,0,34.375V100h100V34.375z"/>
</g>
</g></g><g transform="translate(280,180) scale(0.1,0.1)"><g transform="" style="fill: rgb(255, 116, 48);">
<rect width="100" height="100"/>
</g></g><g transform="translate(290,180) scale(0.1,0.1)"><g transform="" style="fill: rgb(255, 116, 48);">
<rect width="100" height="100"/>
</g></g><g transform="translate(320,180) scale(0.1,0.1)"><g transform="" style="fill: rgb(255, 116, 48);">
<g>
	<path d="M100,34.375V0H34.375C24.87,0,16.764,3.353,10.059,10.059S0,24.87,0,34.375V100h100V34.375z"/>
</g>
</g></g><g transform="translate(330,180) scale(0.1,0.1)"><g transform="" style="fill: rgb(255, 116, 48);">
<rect width="100" height="100"/>
</g></g><g transform="translate(340,180) scale(0.1,0.1)"><g transform="" style="fill: rgb(255, 116, 48);">
<rect width="100" height="100"/>
</g></g><g transform="translate(350,180) scale(0.1,0.1)"><g transform="" style="fill: rgb(255, 116, 48);">
<rect width="100" height="100"/>
</g></g><g transform="translate(360,180) scale(0.1,0.1)"><g transform="" style="fill: rgb(255, 116, 48);">
<polygon points="0,100 100,50 100,50 0,0 "/>
</g></g><g transform="translate(0,190) scale(0.1,0.1)"><g transform="" style="fill: rgb(255, 116, 48);">
<polygon points="99.999,49.999 99.998,49.999 49.999,0 0,49.999 -0.001,49.999 -0.001,50 0,50 49.999,99.999 99.998,50 99.999,50 
	99.998,50 "/>
</g></g><g transform="translate(30,190) scale(0.1,0.1)"><g transform="" style="fill: rgb(255, 116, 48);">
<polygon points="100,100 50,0 50,0 0,100 "/>
</g></g><g transform="translate(50,190) scale(0.1,0.1)"><g transform="" style="fill: rgb(255, 116, 48);">
<polygon points="99.999,49.999 99.998,49.999 49.999,0 0,49.999 -0.001,49.999 -0.001,50 0,50 49.999,99.999 99.998,50 99.999,50 
	99.998,50 "/>
</g></g><g transform="translate(80,190) scale(0.1,0.1)"><g transform="" style="fill: rgb(255, 116, 48);">
<rect width="100" height="100"/>
</g></g><g transform="translate(120,190) scale(0.1,0.1)"><g transform="" style="fill: rgb(255, 116, 48);">
<polygon points="0,-0.001 50,99.999 50,99.999 100,-0.001 "/>
</g></g><g transform="translate(240,190) scale(0.1,0.1)"><g transform="" style="fill: rgb(255, 116, 48);">
<polygon points="99.999,49.999 99.998,49.999 49.999,0 0,49.999 -0.001,49.999 -0.001,50 0,50 49.999,99.999 99.998,50 99.999,50 
	99.998,50 "/>
</g></g><g transform="translate(260,190) scale(0.1,0.1)"><g transform="" style="fill: rgb(255, 116, 48);">
<g>
	<path d="M100,34.375V0H34.375C24.87,0,16.764,3.353,10.059,10.059S0,24.87,0,34.375V100h100V34.375z"/>
</g>
</g></g><g transform="translate(270,190) scale(0.1,0.1)"><g transform="" style="fill: rgb(255, 116, 48);">
<rect width="100" height="100"/>
</g></g><g transform="translate(290,190) scale(0.1,0.1)"><g transform="" style="fill: rgb(255, 116, 48);">
<rect width="100" height="100"/>
</g></g><g transform="translate(310,190) scale(0.1,0.1)"><g transform="" style="fill: rgb(255, 116, 48);">
<g>
	<path d="M100,34.375V0H34.375C24.87,0,16.764,3.353,10.059,10.059S0,24.87,0,34.375V100h100V34.375z"/>
</g>
</g></g><g transform="translate(320,190) scale(0.1,0.1)"><g transform="" style="fill: rgb(255, 116, 48);">
<rect width="100" height="100"/>
</g></g><g transform="translate(20,200) scale(0.1,0.1)"><g transform="" style="fill: rgb(255, 116, 48);">
<g>
	<path d="M100,34.375V0H34.375C24.87,0,16.764,3.353,10.059,10.059S0,24.87,0,34.375V100h100V34.375z"/>
</g>
</g></g><g transform="translate(30,200) scale(0.1,0.1)"><g transform="" style="fill: rgb(255, 116, 48);">
<rect width="100" height="100"/>
</g></g><g transform="translate(60,200) scale(0.1,0.1)"><g transform="" style="fill: rgb(255, 116, 48);">
<polygon points="100,100 0,50 0,50 100,0 "/>
</g></g><g transform="translate(70,200) scale(0.1,0.1)"><g transform="" style="fill: rgb(255, 116, 48);">
<rect width="100" height="100"/>
</g></g><g transform="translate(80,200) scale(0.1,0.1)"><g transform="" style="fill: rgb(255, 116, 48);">
<rect width="100" height="100"/>
</g></g><g transform="translate(90,200) scale(0.1,0.1)"><g transform="" style="fill: rgb(255, 116, 48);">
<polygon points="0,100 100,50 100,50 0,0 "/>
</g></g><g transform="translate(110,200) scale(0.1,0.1)"><g transform="" style="fill: rgb(255, 116, 48);">
<polygon points="99.999,49.999 99.998,49.999 49.999,0 0,49.999 -0.001,49.999 -0.001,50 0,50 49.999,99.999 99.998,50 99.999,50 
	99.998,50 "/>
</g></g><g transform="translate(250,200) scale(0.1,0.1)"><g transform="" style="fill: rgb(255, 116, 48);">
<polygon points="100,100 0,50 0,50 100,0 "/>
</g></g><g transform="translate(260,200) scale(0.1,0.1)"><g transform="" style="fill: rgb(255, 116, 48);">
<rect width="100" height="100"/>
</g></g><g transform="translate(270,200) scale(0.1,0.1)"><g transform="" style="fill: rgb(255, 116, 48);">
<g>
	<path d="M100,0H0v100h65.625c9.506,0,17.611-3.354,24.316-10.059S100,75.131,100,65.625V0z"/>
</g>
</g></g><g transform="translate(290,200) scale(0.1,0.1)"><g transform="" style="fill: rgb(255, 116, 48);">
<g>
	<path d="M100,0H0v65.625c0,9.506,3.353,17.611,10.059,24.316S24.87,100,34.375,100H100V0z"/>
</g>
</g></g><g transform="translate(300,200) scale(0.1,0.1)"><g transform="" style="fill: rgb(255, 116, 48);">
<rect width="100" height="100"/>
</g></g><g transform="translate(310,200) scale(0.1,0.1)"><g transform="" style="fill: rgb(255, 116, 48);">
<rect width="100" height="100"/>
</g></g><g transform="translate(320,200) scale(0.1,0.1)"><g transform="" style="fill: rgb(255, 116, 48);">
<rect width="100" height="100"/>
</g></g><g transform="translate(330,200) scale(0.1,0.1)"><g transform="" style="fill: rgb(255, 116, 48);">
<rect width="100" height="100"/>
</g></g><g transform="translate(340,200) scale(0.1,0.1)"><g transform="" style="fill: rgb(255, 116, 48);">
<rect width="100" height="100"/>
</g></g><g transform="translate(350,200) scale(0.1,0.1)"><g transform="" style="fill: rgb(255, 116, 48);">
<rect width="100" height="100"/>
</g></g><g transform="translate(360,200) scale(0.1,0.1)"><g transform="" style="fill: rgb(255, 116, 48);">
<polygon points="0,100 100,50 100,50 0,0 "/>
</g></g><g transform="translate(10,210) scale(0.1,0.1)"><g transform="" style="fill: rgb(255, 116, 48);">
<g>
	<path d="M100,34.375V0H34.375C24.87,0,16.764,3.353,10.059,10.059S0,24.87,0,34.375V100h100V34.375z"/>
</g>
</g></g><g transform="translate(20,210) scale(0.1,0.1)"><g transform="" style="fill: rgb(255, 116, 48);">
<rect width="100" height="100"/>
</g></g><g transform="translate(30,210) scale(0.1,0.1)"><g transform="" style="fill: rgb(255, 116, 48);">
<rect width="100" height="100"/>
</g></g><g transform="translate(40,210) scale(0.1,0.1)"><g transform="" style="fill: rgb(255, 116, 48);">
<rect width="100" height="100"/>
</g></g><g transform="translate(50,210) scale(0.1,0.1)"><g transform="" style="fill: rgb(255, 116, 48);">
<polygon points="0,100 100,50 100,50 0,0 "/>
</g></g><g transform="translate(240,210) scale(0.1,0.1)"><g transform="" style="fill: rgb(255, 116, 48);">
<polygon points="99.999,49.999 99.998,49.999 49.999,0 0,49.999 -0.001,49.999 -0.001,50 0,50 49.999,99.999 99.998,50 99.999,50 
	99.998,50 "/>
</g></g><g transform="translate(310,210) scale(0.1,0.1)"><g transform="" style="fill: rgb(255, 116, 48);">
<polygon points="0,-0.001 50,99.999 50,99.999 100,-0.001 "/>
</g></g><g transform="translate(330,210) scale(0.1,0.1)"><g transform="" style="fill: rgb(255, 116, 48);">
<polygon points="0,-0.001 50,99.999 50,99.999 100,-0.001 "/>
</g></g><g transform="translate(0,220) scale(0.1,0.1)"><g transform="" style="fill: rgb(255, 116, 48);">
<polygon points="100,100 0,50 0,50 100,0 "/>
</g></g><g transform="translate(10,220) scale(0.1,0.1)"><g transform="" style="fill: rgb(255, 116, 48);">
<rect width="100" height="100"/>
</g></g><g transform="translate(40,220) scale(0.1,0.1)"><g transform="" style="fill: rgb(255, 116, 48);">
<rect width="100" height="100"/>
</g></g><g transform="translate(60,220) scale(0.1,0.1)"><g transform="" style="fill: rgb(255, 116, 48);">
<polygon points="99.999,49.999 99.998,49.999 49.999,0 0,49.999 -0.001,49.999 -0.001,50 0,50 49.999,99.999 99.998,50 99.999,50 
	99.998,50 "/>
</g></g><g transform="translate(120,220) scale(0.1,0.1)"><g transform="" style="fill: rgb(255, 116, 48);">
<polygon points="99.999,49.999 99.998,49.999 49.999,0 0,49.999 -0.001,49.999 -0.001,50 0,50 49.999,99.999 99.998,50 99.999,50 
	99.998,50 "/>
</g></g><g transform="translate(270,220) scale(0.1,0.1)"><g transform="" style="fill: rgb(255, 116, 48);">
<polygon points="99.999,49.999 99.998,49.999 49.999,0 0,49.999 -0.001,49.999 -0.001,50 0,50 49.999,99.999 99.998,50 99.999,50 
	99.998,50 "/>
</g></g><g transform="translate(290,220) scale(0.1,0.1)"><g transform="" style="fill: rgb(255, 116, 48);">
<polygon points="100,100 50,0 50,0 0,100 "/>
</g></g><g transform="translate(340,220) scale(0.1,0.1)"><g transform="" style="fill: rgb(255, 116, 48);">
<polygon points="100,100 0,50 0,50 100,0 "/>
</g></g><g transform="translate(350,220) scale(0.1,0.1)"><g transform="" style="fill: rgb(255, 116, 48);">
<rect width="100" height="100"/>
</g></g><g transform="translate(360,220) scale(0.1,0.1)"><g transform="" style="fill: rgb(255, 116, 48);">
<polygon points="0,100 100,50 100,50 0,0 "/>
</g></g><g transform="translate(10,230) scale(0.1,0.1)"><g transform="" style="fill: rgb(255, 116, 48);">
<rect width="100" height="100"/>
</g></g><g transform="translate(20,230) scale(0.1,0.1)"><g transform="" style="fill: rgb(255, 116, 48);">
<rect width="100" height="100"/>
</g></g><g transform="translate(30,230) scale(0.1,0.1)"><g transform="" style="fill: rgb(255, 116, 48);">
<rect width="100" height="100"/>
</g></g><g transform="translate(40,230) scale(0.1,0.1)"><g transform="" style="fill: rgb(255, 116, 48);">
<rect width="100" height="100"/>
</g></g><g transform="translate(90,230) scale(0.1,0.1)"><g transform="" style="fill: rgb(255, 116, 48);">
<polygon points="100,100 50,0 50,0 0,100 "/>
</g></g><g transform="translate(110,230) scale(0.1,0.1)"><g transform="" style="fill: rgb(255, 116, 48);">
<polygon points="100,100 50,0 50,0 0,100 "/>
</g></g><g transform="translate(260,230) scale(0.1,0.1)"><g transform="" style="fill: rgb(255, 116, 48);">
<polygon points="99.999,49.999 99.998,49.999 49.999,0 0,49.999 -0.001,49.999 -0.001,50 0,50 49.999,99.999 99.998,50 99.999,50 
	99.998,50 "/>
</g></g><g transform="translate(290,230) scale(0.1,0.1)"><g transform="" style="fill: rgb(255, 116, 48);">
<polygon points="0,-0.001 50,99.999 50,99.999 100,-0.001 "/>
</g></g><g transform="translate(310,230) scale(0.1,0.1)"><g transform="" style="fill: rgb(255, 116, 48);">
<polygon points="100,100 50,0 50,0 0,100 "/>
</g></g><g transform="translate(350,230) scale(0.1,0.1)"><g transform="" style="fill: rgb(255, 116, 48);">
<polygon points="0,-0.001 50,99.999 50,99.999 100,-0.001 "/>
</g></g><g transform="translate(10,240) scale(0.1,0.1)"><g transform="" style="fill: rgb(255, 116, 48);">
<rect width="100" height="100"/>
</g></g><g transform="translate(40,240) scale(0.1,0.1)"><g transform="" style="fill: rgb(255, 116, 48);">
<polygon points="0,-0.001 50,99.999 50,99.999 100,-0.001 "/>
</g></g><g transform="translate(60,240) scale(0.1,0.1)"><g transform="" style="fill: rgb(255, 116, 48);">
<polygon points="100,100 0,50 0,50 100,0 "/>
</g></g><g transform="translate(70,240) scale(0.1,0.1)"><g transform="" style="fill: rgb(255, 116, 48);">
<polygon points="0,100 100,50 100,50 0,0 "/>
</g></g><g transform="translate(90,240) scale(0.1,0.1)"><g transform="" style="fill: rgb(255, 116, 48);">
<polygon points="0,-0.001 50,99.999 50,99.999 100,-0.001 "/>
</g></g><g transform="translate(110,240) scale(0.1,0.1)"><g transform="" style="fill: rgb(255, 116, 48);">
<g>
	<path d="M100,0H0v65.625c0,9.506,3.353,17.611,10.059,24.316S24.87,100,34.375,100H100V0z"/>
</g>
</g></g><g transform="translate(120,240) scale(0.1,0.1)"><g transform="" style="fill: rgb(255, 116, 48);">
<rect width="100" height="100"/>
</g></g><g transform="translate(130,240) scale(0.1,0.1)"><g transform="" style="fill: rgb(255, 116, 48);">
<polygon points="0,100 100,50 100,50 0,0 "/>
</g></g><g transform="translate(160,240) scale(0.1,0.1)"><g transform="" style="fill: rgb(255, 116, 48);">
<g>
	<path d="M100,34.375V0H34.375C24.87,0,16.764,3.353,10.059,10.059S0,24.87,0,34.375V100h100V34.375z"/>
</g>
</g></g><g transform="translate(170,240) scale(0.1,0.1)"><g transform="" style="fill: rgb(255, 116, 48);">
<g>
	<path d="M100,34.375c0-9.505-3.354-17.611-10.059-24.316S75.131,0,65.625,0H0v100h100V34.375z"/>
</g>
</g></g><g transform="translate(190,240) scale(0.1,0.1)"><g transform="" style="fill: rgb(255, 116, 48);">
<polygon points="100,100 0,50 0,50 100,0 "/>
</g></g><g transform="translate(200,240) scale(0.1,0.1)"><g transform="" style="fill: rgb(255, 116, 48);">
<g>
	<path d="M100,34.375c0-9.505-3.354-17.611-10.059-24.316S75.131,0,65.625,0H0v100h100V34.375z"/>
</g>
</g></g><g transform="translate(300,240) scale(0.1,0.1)"><g transform="" style="fill: rgb(255, 116, 48);">
<g>
	<path d="M100,34.375V0H34.375C24.87,0,16.764,3.353,10.059,10.059S0,24.87,0,34.375V100h100V34.375z"/>
</g>
</g></g><g transform="translate(310,240) scale(0.1,0.1)"><g transform="" style="fill: rgb(255, 116, 48);">
<rect width="100" height="100"/>
</g></g><g transform="translate(320,240) scale(0.1,0.1)"><g transform="" style="fill: rgb(255, 116, 48);">
<rect width="100" height="100"/>
</g></g><g transform="translate(330,240) scale(0.1,0.1)"><g transform="" style="fill: rgb(255, 116, 48);">
<rect width="100" height="100"/>
</g></g><g transform="translate(340,240) scale(0.1,0.1)"><g transform="" style="fill: rgb(255, 116, 48);">
<polygon points="0,100 100,50 100,50 0,0 "/>
</g></g><g transform="translate(360,240) scale(0.1,0.1)"><g transform="" style="fill: rgb(255, 116, 48);">
<polygon points="99.999,49.999 99.998,49.999 49.999,0 0,49.999 -0.001,49.999 -0.001,50 0,50 49.999,99.999 99.998,50 99.999,50 
	99.998,50 "/>
</g></g><g transform="translate(0,250) scale(0.1,0.1)"><g transform="" style="fill: rgb(255, 116, 48);">
<g>
	<path d="M100,34.375V0H34.375C24.87,0,16.764,3.353,10.059,10.059S0,24.87,0,34.375V100h100V34.375z"/>
</g>
</g></g><g transform="translate(10,250) scale(0.1,0.1)"><g transform="" style="fill: rgb(255, 116, 48);">
<rect width="100" height="100"/>
</g></g><g transform="translate(20,250) scale(0.1,0.1)"><g transform="" style="fill: rgb(255, 116, 48);">
<g>
	<path d="M100,34.375c0-9.505-3.354-17.611-10.059-24.316S75.131,0,65.625,0H0v100h100V34.375z"/>
</g>
</g></g><g transform="translate(50,250) scale(0.1,0.1)"><g transform="" style="fill: rgb(255, 116, 48);">
<polygon points="99.999,49.999 99.998,49.999 49.999,0 0,49.999 -0.001,49.999 -0.001,50 0,50 49.999,99.999 99.998,50 99.999,50 
	99.998,50 "/>
</g></g><g transform="translate(100,250) scale(0.1,0.1)"><g transform="" style="fill: rgb(255, 116, 48);">
<polygon points="100,100 50,0 50,0 0,100 "/>
</g></g><g transform="translate(120,250) scale(0.1,0.1)"><g transform="" style="fill: rgb(255, 116, 48);">
<rect width="100" height="100"/>
</g></g><g transform="translate(150,250) scale(0.1,0.1)"><g transform="" style="fill: rgb(255, 116, 48);">
<g>
	<path d="M100,34.375V0H34.375C24.87,0,16.764,3.353,10.059,10.059S0,24.87,0,34.375V100h100V34.375z"/>
</g>
</g></g><g transform="translate(160,250) scale(0.1,0.1)"><g transform="" style="fill: rgb(255, 116, 48);">
<rect width="100" height="100"/>
</g></g><g transform="translate(170,250) scale(0.1,0.1)"><g transform="" style="fill: rgb(255, 116, 48);">
<rect width="100" height="100"/>
</g></g><g transform="translate(180,250) scale(0.1,0.1)"><g transform="" style="fill: rgb(255, 116, 48);">
<polygon points="0,100 100,50 100,50 0,0 "/>
</g></g><g transform="translate(200,250) scale(0.1,0.1)"><g transform="" style="fill: rgb(255, 116, 48);">
<g>
	<path d="M100,0H0v65.625c0,9.506,3.353,17.611,10.059,24.316S24.87,100,34.375,100H100V0z"/>
</g>
</g></g><g transform="translate(210,250) scale(0.1,0.1)"><g transform="" style="fill: rgb(255, 116, 48);">
<rect width="100" height="100"/>
</g></g><g transform="translate(220,250) scale(0.1,0.1)"><g transform="" style="fill: rgb(255, 116, 48);">
<polygon points="0,100 100,50 100,50 0,0 "/>
</g></g><g transform="translate(240,250) scale(0.1,0.1)"><g transform="" style="fill: rgb(255, 116, 48);">
<polygon points="99.999,49.999 99.998,49.999 49.999,0 0,49.999 -0.001,49.999 -0.001,50 0,50 49.999,99.999 99.998,50 99.999,50 
	99.998,50 "/>
</g></g><g transform="translate(260,250) scale(0.1,0.1)"><g transform="" style="fill: rgb(255, 116, 48);">
<g>
	<path d="M100,34.375V0H34.375C24.87,0,16.764,3.353,10.059,10.059S0,24.87,0,34.375V100h100V34.375z"/>
</g>
</g></g><g transform="translate(270,250) scale(0.1,0.1)"><g transform="" style="fill: rgb(255, 116, 48);">
<rect width="100" height="100"/>
</g></g><g transform="translate(280,250) scale(0.1,0.1)"><g transform="" style="fill: rgb(255, 116, 48);">
<polygon points="0,100 100,50 100,50 0,0 "/>
</g></g><g transform="translate(300,250) scale(0.1,0.1)"><g transform="" style="fill: rgb(255, 116, 48);">
<rect width="100" height="100"/>
</g></g><g transform="translate(310,250) scale(0.1,0.1)"><g transform="" style="fill: rgb(255, 116, 48);">
<rect width="100" height="100"/>
</g></g><g transform="translate(0,260) scale(0.1,0.1)"><g transform="" style="fill: rgb(255, 116, 48);">
<rect width="100" height="100"/>
</g></g><g transform="translate(20,260) scale(0.1,0.1)"><g transform="" style="fill: rgb(255, 116, 48);">
<polygon points="0,-0.001 50,99.999 50,99.999 100,-0.001 "/>
</g></g><g transform="translate(40,260) scale(0.1,0.1)"><g transform="" style="fill: rgb(255, 116, 48);">
<polygon points="99.999,49.999 99.998,49.999 49.999,0 0,49.999 -0.001,49.999 -0.001,50 0,50 49.999,99.999 99.998,50 99.999,50 
	99.998,50 "/>
</g></g><g transform="translate(60,260) scale(0.1,0.1)"><g transform="" style="fill: rgb(255, 116, 48);">
<polygon points="99.999,49.999 99.998,49.999 49.999,0 0,49.999 -0.001,49.999 -0.001,50 0,50 49.999,99.999 99.998,50 99.999,50 
	99.998,50 "/>
</g></g><g transform="translate(100,260) scale(0.1,0.1)"><g transform="" style="fill: rgb(255, 116, 48);">
<rect width="100" height="100"/>
</g></g><g transform="translate(110,260) scale(0.1,0.1)"><g transform="" style="fill: rgb(255, 116, 48);">
<rect width="100" height="100"/>
</g></g><g transform="translate(120,260) scale(0.1,0.1)"><g transform="" style="fill: rgb(255, 116, 48);">
<rect width="100" height="100"/>
</g></g><g transform="translate(130,260) scale(0.1,0.1)"><g transform="" style="fill: rgb(255, 116, 48);">
<g>
	<path d="M100,34.375c0-9.505-3.354-17.611-10.059-24.316S75.131,0,65.625,0H0v100h100V34.375z"/>
</g>
</g></g><g transform="translate(150,260) scale(0.1,0.1)"><g transform="" style="fill: rgb(255, 116, 48);">
<polygon points="0,-0.001 50,99.999 50,99.999 100,-0.001 "/>
</g></g><g transform="translate(210,260) scale(0.1,0.1)"><g transform="" style="fill: rgb(255, 116, 48);">
<polygon points="0,-0.001 50,99.999 50,99.999 100,-0.001 "/>
</g></g><g transform="translate(250,260) scale(0.1,0.1)"><g transform="" style="fill: rgb(255, 116, 48);">
<polygon points="100,100 0,50 0,50 100,0 "/>
</g></g><g transform="translate(260,260) scale(0.1,0.1)"><g transform="" style="fill: rgb(255, 116, 48);">
<rect width="100" height="100"/>
</g></g><g transform="translate(300,260) scale(0.1,0.1)"><g transform="" style="fill: rgb(255, 116, 48);">
<g>
	<path d="M100,0H0v65.625c0,9.506,3.353,17.611,10.059,24.316S24.87,100,34.375,100H100V0z"/>
</g>
</g></g><g transform="translate(310,260) scale(0.1,0.1)"><g transform="" style="fill: rgb(255, 116, 48);">
<rect width="100" height="100"/>
</g></g><g transform="translate(330,260) scale(0.1,0.1)"><g transform="" style="fill: rgb(255, 116, 48);">
<polygon points="99.999,49.999 99.998,49.999 49.999,0 0,49.999 -0.001,49.999 -0.001,50 0,50 49.999,99.999 99.998,50 99.999,50 
	99.998,50 "/>
</g></g><g transform="translate(360,260) scale(0.1,0.1)"><g transform="" style="fill: rgb(255, 116, 48);">
<polygon points="100,100 50,0 50,0 0,100 "/>
</g></g><g transform="translate(0,270) scale(0.1,0.1)"><g transform="" style="fill: rgb(255, 116, 48);">
<rect width="100" height="100"/>
</g></g><g transform="translate(80,270) scale(0.1,0.1)"><g transform="" style="fill: rgb(255, 116, 48);">
<polygon points="99.999,49.999 99.998,49.999 49.999,0 0,49.999 -0.001,49.999 -0.001,50 0,50 49.999,99.999 99.998,50 99.999,50 
	99.998,50 "/>
</g></g><g transform="translate(100,270) scale(0.1,0.1)"><g transform="" style="fill: rgb(255, 116, 48);">
<rect width="100" height="100"/>
</g></g><g transform="translate(130,270) scale(0.1,0.1)"><g transform="" style="fill: rgb(255, 116, 48);">
<rect width="100" height="100"/>
</g></g><g transform="translate(140,270) scale(0.1,0.1)"><g transform="" style="fill: rgb(255, 116, 48);">
<polygon points="0,100 100,50 100,50 0,0 "/>
</g></g><g transform="translate(160,270) scale(0.1,0.1)"><g transform="" style="fill: rgb(255, 116, 48);">
<polygon points="100,100 0,50 0,50 100,0 "/>
</g></g><g transform="translate(170,270) scale(0.1,0.1)"><g transform="" style="fill: rgb(255, 116, 48);">
<g>
	<path d="M100,34.375c0-9.505-3.354-17.611-10.059-24.316S75.131,0,65.625,0H0v100h100V34.375z"/>
</g>
</g></g><g transform="translate(200,270) scale(0.1,0.1)"><g transform="" style="fill: rgb(255, 116, 48);">
<polygon points="99.999,49.999 99.998,49.999 49.999,0 0,49.999 -0.001,49.999 -0.001,50 0,50 49.999,99.999 99.998,50 99.999,50 
	99.998,50 "/>
</g></g><g transform="translate(220,270) scale(0.1,0.1)"><g transform="" style="fill: rgb(255, 116, 48);">
<polygon points="100,100 50,0 50,0 0,100 "/>
</g></g><g transform="translate(240,270) scale(0.1,0.1)"><g transform="" style="fill: rgb(255, 116, 48);">
<polygon points="100,100 50,0 50,0 0,100 "/>
</g></g><g transform="translate(260,270) scale(0.1,0.1)"><g transform="" style="fill: rgb(255, 116, 48);">
<rect width="100" height="100"/>
</g></g><g transform="translate(280,270) scale(0.1,0.1)"><g transform="" style="fill: rgb(255, 116, 48);">
<g>
	<path d="M100,34.375V0H34.375C24.87,0,16.764,3.353,10.059,10.059S0,24.87,0,34.375V100h100V34.375z"/>
</g>
</g></g><g transform="translate(290,270) scale(0.1,0.1)"><g transform="" style="fill: rgb(255, 116, 48);">
<g>
	<path d="M100,34.375c0-9.505-3.354-17.611-10.059-24.316S75.131,0,65.625,0H0v100h100V34.375z"/>
</g>
</g></g><g transform="translate(310,270) scale(0.1,0.1)"><g transform="" style="fill: rgb(255, 116, 48);">
<rect width="100" height="100"/>
</g></g><g transform="translate(350,270) scale(0.1,0.1)"><g transform="" style="fill: rgb(255, 116, 48);">
<g>
	<path d="M100,34.375V0H34.375C24.87,0,16.764,3.353,10.059,10.059S0,24.87,0,34.375V100h100V34.375z"/>
</g>
</g></g><g transform="translate(360,270) scale(0.1,0.1)"><g transform="" style="fill: rgb(255, 116, 48);">
<g>
	<path d="M100,0H0v100h65.625c9.506,0,17.611-3.354,24.316-10.059S100,75.131,100,65.625V0z"/>
</g>
</g></g><g transform="translate(0,280) scale(0.1,0.1)"><g transform="" style="fill: rgb(255, 116, 48);">
<polygon points="0,-0.001 50,99.999 50,99.999 100,-0.001 "/>
</g></g><g transform="translate(30,280) scale(0.1,0.1)"><g transform="" style="fill: rgb(255, 116, 48);">
<polygon points="99.999,49.999 99.998,49.999 49.999,0 0,49.999 -0.001,49.999 -0.001,50 0,50 49.999,99.999 99.998,50 99.999,50 
	99.998,50 "/>
</g></g><g transform="translate(60,280) scale(0.1,0.1)"><g transform="" style="fill: rgb(255, 116, 48);">
<polygon points="100,100 0,50 0,50 100,0 "/>
</g></g><g transform="translate(70,280) scale(0.1,0.1)"><g transform="" style="fill: rgb(255, 116, 48);">
<polygon points="0,100 100,50 100,50 0,0 "/>
</g></g><g transform="translate(90,280) scale(0.1,0.1)"><g transform="" style="fill: rgb(255, 116, 48);">
<g>
	<path d="M100,34.375V0H34.375C24.87,0,16.764,3.353,10.059,10.059S0,24.87,0,34.375V100h100V34.375z"/>
</g>
</g></g><g transform="translate(100,280) scale(0.1,0.1)"><g transform="" style="fill: rgb(255, 116, 48);">
<rect width="100" height="100"/>
</g></g><g transform="translate(120,280) scale(0.1,0.1)"><g transform="" style="fill: rgb(255, 116, 48);">
<polygon points="100,100 0,50 0,50 100,0 "/>
</g></g><g transform="translate(130,280) scale(0.1,0.1)"><g transform="" style="fill: rgb(255, 116, 48);">
<rect width="100" height="100"/>
</g></g><g transform="translate(170,280) scale(0.1,0.1)"><g transform="" style="fill: rgb(255, 116, 48);">
<rect width="100" height="100"/>
</g></g><g transform="translate(180,280) scale(0.1,0.1)"><g transform="" style="fill: rgb(255, 116, 48);">
<g>
	<path d="M100,34.375c0-9.505-3.354-17.611-10.059-24.316S75.131,0,65.625,0H0v100h100V34.375z"/>
</g>
</g></g><g transform="translate(210,280) scale(0.1,0.1)"><g transform="" style="fill: rgb(255, 116, 48);">
<polygon points="100,100 0,50 0,50 100,0 "/>
</g></g><g transform="translate(220,280) scale(0.1,0.1)"><g transform="" style="fill: rgb(255, 116, 48);">
<rect width="100" height="100"/>
</g></g><g transform="translate(240,280) scale(0.1,0.1)"><g transform="" style="fill: rgb(255, 116, 48);">
<g>
	<path d="M100,0H0v65.625c0,9.506,3.353,17.611,10.059,24.316S24.87,100,34.375,100H100V0z"/>
</g>
</g></g><g transform="translate(250,280) scale(0.1,0.1)"><g transform="" style="fill: rgb(255, 116, 48);">
<rect width="100" height="100"/>
</g></g><g transform="translate(260,280) scale(0.1,0.1)"><g transform="" style="fill: rgb(255, 116, 48);">
<rect width="100" height="100"/>
</g></g><g transform="translate(280,280) scale(0.1,0.1)"><g transform="" style="fill: rgb(255, 116, 48);">
<rect width="100" height="100"/>
</g></g><g transform="translate(290,280) scale(0.1,0.1)"><g transform="" style="fill: rgb(255, 116, 48);">
<rect width="100" height="100"/>
</g></g><g transform="translate(300,280) scale(0.1,0.1)"><g transform="" style="fill: rgb(255, 116, 48);">
<rect width="100" height="100"/>
</g></g><g transform="translate(310,280) scale(0.1,0.1)"><g transform="" style="fill: rgb(255, 116, 48);">
<rect width="100" height="100"/>
</g></g><g transform="translate(320,280) scale(0.1,0.1)"><g transform="" style="fill: rgb(255, 116, 48);">
<rect width="100" height="100"/>
</g></g><g transform="translate(330,280) scale(0.1,0.1)"><g transform="" style="fill: rgb(255, 116, 48);">
<rect width="100" height="100"/>
</g></g><g transform="translate(340,280) scale(0.1,0.1)"><g transform="" style="fill: rgb(255, 116, 48);">
<rect width="100" height="100"/>
</g></g><g transform="translate(350,280) scale(0.1,0.1)"><g transform="" style="fill: rgb(255, 116, 48);">
<rect width="100" height="100"/>
</g></g><g transform="translate(80,290) scale(0.1,0.1)"><g transform="" style="fill: rgb(255, 116, 48);">
<polygon points="100,100 0,50 0,50 100,0 "/>
</g></g><g transform="translate(90,290) scale(0.1,0.1)"><g transform="" style="fill: rgb(255, 116, 48);">
<rect width="100" height="100"/>
</g></g><g transform="translate(100,290) scale(0.1,0.1)"><g transform="" style="fill: rgb(255, 116, 48);">
<rect width="100" height="100"/>
</g></g><g transform="translate(110,290) scale(0.1,0.1)"><g transform="" style="fill: rgb(255, 116, 48);">
<polygon points="0,100 100,50 100,50 0,0 "/>
</g></g><g transform="translate(130,290) scale(0.1,0.1)"><g transform="" style="fill: rgb(255, 116, 48);">
<polygon points="0,-0.001 50,99.999 50,99.999 100,-0.001 "/>
</g></g><g transform="translate(170,290) scale(0.1,0.1)"><g transform="" style="fill: rgb(255, 116, 48);">
<g>
	<path d="M100,0H0v65.625c0,9.506,3.353,17.611,10.059,24.316S24.87,100,34.375,100H100V0z"/>
</g>
</g></g><g transform="translate(180,290) scale(0.1,0.1)"><g transform="" style="fill: rgb(255, 116, 48);">
<g>
	<path d="M100,0H0v100h65.625c9.506,0,17.611-3.354,24.316-10.059S100,75.131,100,65.625V0z"/>
</g>
</g></g><g transform="translate(200,290) scale(0.1,0.1)"><g transform="" style="fill: rgb(255, 116, 48);">
<polygon points="99.999,49.999 99.998,49.999 49.999,0 0,49.999 -0.001,49.999 -0.001,50 0,50 49.999,99.999 99.998,50 99.999,50 
	99.998,50 "/>
</g></g><g transform="translate(220,290) scale(0.1,0.1)"><g transform="" style="fill: rgb(255, 116, 48);">
<rect width="100" height="100"/>
</g></g><g transform="translate(230,290) scale(0.1,0.1)"><g transform="" style="fill: rgb(255, 116, 48);">
<polygon points="0,100 100,50 100,50 0,0 "/>
</g></g><g transform="translate(260,290) scale(0.1,0.1)"><g transform="" style="fill: rgb(255, 116, 48);">
<g>
	<path d="M100,0H0v65.625c0,9.506,3.353,17.611,10.059,24.316S24.87,100,34.375,100H100V0z"/>
</g>
</g></g><g transform="translate(270,290) scale(0.1,0.1)"><g transform="" style="fill: rgb(255, 116, 48);">
<rect width="100" height="100"/>
</g></g><g transform="translate(280,290) scale(0.1,0.1)"><g transform="" style="fill: rgb(255, 116, 48);">
<rect width="100" height="100"/>
</g></g><g transform="translate(320,290) scale(0.1,0.1)"><g transform="" style="fill: rgb(255, 116, 48);">
<rect width="100" height="100"/>
</g></g><g transform="translate(350,290) scale(0.1,0.1)"><g transform="" style="fill: rgb(255, 116, 48);">
<rect width="100" height="100"/>
</g></g><g transform="translate(90,300) scale(0.1,0.1)"><g transform="" style="fill: rgb(255, 116, 48);">
<rect width="100" height="100"/>
</g></g><g transform="translate(120,300) scale(0.1,0.1)"><g transform="" style="fill: rgb(255, 116, 48);">
<polygon points="99.999,49.999 99.998,49.999 49.999,0 0,49.999 -0.001,49.999 -0.001,50 0,50 49.999,99.999 99.998,50 99.999,50 
	99.998,50 "/>
</g></g><g transform="translate(150,300) scale(0.1,0.1)"><g transform="" style="fill: rgb(255, 116, 48);">
<polygon points="100,100 0,50 0,50 100,0 "/>
</g></g><g transform="translate(160,300) scale(0.1,0.1)"><g transform="" style="fill: rgb(255, 116, 48);">
<polygon points="0,100 100,50 100,50 0,0 "/>
</g></g><g transform="translate(190,300) scale(0.1,0.1)"><g transform="" style="fill: rgb(255, 116, 48);">
<polygon points="100,100 50,0 50,0 0,100 "/>
</g></g><g transform="translate(210,300) scale(0.1,0.1)"><g transform="" style="fill: rgb(255, 116, 48);">
<g>
	<path d="M100,34.375V0H34.375C24.87,0,16.764,3.353,10.059,10.059S0,24.87,0,34.375V100h100V34.375z"/>
</g>
</g></g><g transform="translate(220,300) scale(0.1,0.1)"><g transform="" style="fill: rgb(255, 116, 48);">
<rect width="100" height="100"/>
</g></g><g transform="translate(280,300) scale(0.1,0.1)"><g transform="" style="fill: rgb(255, 116, 48);">
<rect width="100" height="100"/>
</g></g><g transform="translate(300,300) scale(0.1,0.1)"><g transform="" style="fill: rgb(255, 116, 48);">
<polygon points="99.999,49.999 99.998,49.999 49.999,0 0,49.999 -0.001,49.999 -0.001,50 0,50 49.999,99.999 99.998,50 99.999,50 
	99.998,50 "/>
</g></g><g transform="translate(320,300) scale(0.1,0.1)"><g transform="" style="fill: rgb(255, 116, 48);">
<rect width="100" height="100"/>
</g></g><g transform="translate(330,300) scale(0.1,0.1)"><g transform="" style="fill: rgb(255, 116, 48);">
<polygon points="0,100 100,50 100,50 0,0 "/>
</g></g><g transform="translate(350,300) scale(0.1,0.1)"><g transform="" style="fill: rgb(255, 116, 48);">
<rect width="100" height="100"/>
</g></g><g transform="translate(360,300) scale(0.1,0.1)"><g transform="" style="fill: rgb(255, 116, 48);">
<polygon points="0,100 100,50 100,50 0,0 "/>
</g></g><g transform="translate(90,310) scale(0.1,0.1)"><g transform="" style="fill: rgb(255, 116, 48);">
<polygon points="0,-0.001 50,99.999 50,99.999 100,-0.001 "/>
</g></g><g transform="translate(110,310) scale(0.1,0.1)"><g transform="" style="fill: rgb(255, 116, 48);">
<polygon points="99.999,49.999 99.998,49.999 49.999,0 0,49.999 -0.001,49.999 -0.001,50 0,50 49.999,99.999 99.998,50 99.999,50 
	99.998,50 "/>
</g></g><g transform="translate(130,310) scale(0.1,0.1)"><g transform="" style="fill: rgb(255, 116, 48);">
<polygon points="100,100 50,0 50,0 0,100 "/>
</g></g><g transform="translate(190,310) scale(0.1,0.1)"><g transform="" style="fill: rgb(255, 116, 48);">
<rect width="100" height="100"/>
</g></g><g transform="translate(200,310) scale(0.1,0.1)"><g transform="" style="fill: rgb(255, 116, 48);">
<rect width="100" height="100"/>
</g></g><g transform="translate(210,310) scale(0.1,0.1)"><g transform="" style="fill: rgb(255, 116, 48);">
<rect width="100" height="100"/>
</g></g><g transform="translate(220,310) scale(0.1,0.1)"><g transform="" style="fill: rgb(255, 116, 48);">
<g>
	<path d="M100,0H0v100h65.625c9.506,0,17.611-3.354,24.316-10.059S100,75.131,100,65.625V0z"/>
</g>
</g></g><g transform="translate(240,310) scale(0.1,0.1)"><g transform="" style="fill: rgb(255, 116, 48);">
<polygon points="100,100 50,0 50,0 0,100 "/>
</g></g><g transform="translate(260,310) scale(0.1,0.1)"><g transform="" style="fill: rgb(255, 116, 48);">
<polygon points="100,100 50,0 50,0 0,100 "/>
</g></g><g transform="translate(280,310) scale(0.1,0.1)"><g transform="" style="fill: rgb(255, 116, 48);">
<rect width="100" height="100"/>
</g></g><g transform="translate(320,310) scale(0.1,0.1)"><g transform="" style="fill: rgb(255, 116, 48);">
<rect width="100" height="100"/>
</g></g><g transform="translate(350,310) scale(0.1,0.1)"><g transform="" style="fill: rgb(255, 116, 48);">
<rect width="100" height="100"/>
</g></g><g transform="translate(80,320) scale(0.1,0.1)"><g transform="" style="fill: rgb(255, 116, 48);">
<polygon points="100,100 50,0 50,0 0,100 "/>
</g></g><g transform="translate(100,320) scale(0.1,0.1)"><g transform="" style="fill: rgb(255, 116, 48);">
<polygon points="99.999,49.999 99.998,49.999 49.999,0 0,49.999 -0.001,49.999 -0.001,50 0,50 49.999,99.999 99.998,50 99.999,50 
	99.998,50 "/>
</g></g><g transform="translate(120,320) scale(0.1,0.1)"><g transform="" style="fill: rgb(255, 116, 48);">
<polygon points="100,100 0,50 0,50 100,0 "/>
</g></g><g transform="translate(130,320) scale(0.1,0.1)"><g transform="" style="fill: rgb(255, 116, 48);">
<g>
	<path d="M100,0H0v100h65.625c9.506,0,17.611-3.354,24.316-10.059S100,75.131,100,65.625V0z"/>
</g>
</g></g><g transform="translate(150,320) scale(0.1,0.1)"><g transform="" style="fill: rgb(255, 116, 48);">
<g>
	<path d="M100,34.375V0H34.375C24.87,0,16.764,3.353,10.059,10.059S0,24.87,0,34.375V100h100V34.375z"/>
</g>
</g></g><g transform="translate(160,320) scale(0.1,0.1)"><g transform="" style="fill: rgb(255, 116, 48);">
<rect width="100" height="100"/>
</g></g><g transform="translate(170,320) scale(0.1,0.1)"><g transform="" style="fill: rgb(255, 116, 48);">
<rect width="100" height="100"/>
</g></g><g transform="translate(180,320) scale(0.1,0.1)"><g transform="" style="fill: rgb(255, 116, 48);">
<rect width="100" height="100"/>
</g></g><g transform="translate(190,320) scale(0.1,0.1)"><g transform="" style="fill: rgb(255, 116, 48);">
<g>
	<path d="M100,0H0v100h65.625c9.506,0,17.611-3.354,24.316-10.059S100,75.131,100,65.625V0z"/>
</g>
</g></g><g transform="translate(240,320) scale(0.1,0.1)"><g transform="" style="fill: rgb(255, 116, 48);">
<g>
	<path d="M100,0H0v65.625c0,9.506,3.353,17.611,10.059,24.316S24.87,100,34.375,100H100V0z"/>
</g>
</g></g><g transform="translate(250,320) scale(0.1,0.1)"><g transform="" style="fill: rgb(255, 116, 48);">
<rect width="100" height="100"/>
</g></g><g transform="translate(260,320) scale(0.1,0.1)"><g transform="" style="fill: rgb(255, 116, 48);">
<rect width="100" height="100"/>
</g></g><g transform="translate(270,320) scale(0.1,0.1)"><g transform="" style="fill: rgb(255, 116, 48);">
<rect width="100" height="100"/>
</g></g><g transform="translate(280,320) scale(0.1,0.1)"><g transform="" style="fill: rgb(255, 116, 48);">
<rect width="100" height="100"/>
</g></g><g transform="translate(290,320) scale(0.1,0.1)"><g transform="" style="fill: rgb(255, 116, 48);">
<rect width="100" height="100"/>
</g></g><g transform="translate(300,320) scale(0.1,0.1)"><g transform="" style="fill: rgb(255, 116, 48);">
<rect width="100" height="100"/>
</g></g><g transform="translate(310,320) scale(0.1,0.1)"><g transform="" style="fill: rgb(255, 116, 48);">
<rect width="100" height="100"/>
</g></g><g transform="translate(320,320) scale(0.1,0.1)"><g transform="" style="fill: rgb(255, 116, 48);">
<rect width="100" height="100"/>
</g></g><g transform="translate(340,320) scale(0.1,0.1)"><g transform="" style="fill: rgb(255, 116, 48);">
<g>
	<path d="M100,34.375V0H34.375C24.87,0,16.764,3.353,10.059,10.059S0,24.87,0,34.375V100h100V34.375z"/>
</g>
</g></g><g transform="translate(350,320) scale(0.1,0.1)"><g transform="" style="fill: rgb(255, 116, 48);">
<rect width="100" height="100"/>
</g></g><g transform="translate(360,320) scale(0.1,0.1)"><g transform="" style="fill: rgb(255, 116, 48);">
<polygon points="0,100 100,50 100,50 0,0 "/>
</g></g><g transform="translate(80,330) scale(0.1,0.1)"><g transform="" style="fill: rgb(255, 116, 48);">
<rect width="100" height="100"/>
</g></g><g transform="translate(110,330) scale(0.1,0.1)"><g transform="" style="fill: rgb(255, 116, 48);">
<polygon points="100,100 50,0 50,0 0,100 "/>
</g></g><g transform="translate(150,330) scale(0.1,0.1)"><g transform="" style="fill: rgb(255, 116, 48);">
<polygon points="0,-0.001 50,99.999 50,99.999 100,-0.001 "/>
</g></g><g transform="translate(170,330) scale(0.1,0.1)"><g transform="" style="fill: rgb(255, 116, 48);">
<rect width="100" height="100"/>
</g></g><g transform="translate(280,330) scale(0.1,0.1)"><g transform="" style="fill: rgb(255, 116, 48);">
<polygon points="0,-0.001 50,99.999 50,99.999 100,-0.001 "/>
</g></g><g transform="translate(300,330) scale(0.1,0.1)"><g transform="" style="fill: rgb(255, 116, 48);">
<polygon points="0,-0.001 50,99.999 50,99.999 100,-0.001 "/>
</g></g><g transform="translate(320,330) scale(0.1,0.1)"><g transform="" style="fill: rgb(255, 116, 48);">
<g>
	<path d="M100,0H0v65.625c0,9.506,3.353,17.611,10.059,24.316S24.87,100,34.375,100H100V0z"/>
</g>
</g></g><g transform="translate(330,330) scale(0.1,0.1)"><g transform="" style="fill: rgb(255, 116, 48);">
<rect width="100" height="100"/>
</g></g><g transform="translate(340,330) scale(0.1,0.1)"><g transform="" style="fill: rgb(255, 116, 48);">
<g>
	<path d="M100,0H0v100h65.625c9.506,0,17.611-3.354,24.316-10.059S100,75.131,100,65.625V0z"/>
</g>
</g></g><g transform="translate(80,340) scale(0.1,0.1)"><g transform="" style="fill: rgb(255, 116, 48);">
<g>
	<path d="M100,0H0v65.625c0,9.506,3.353,17.611,10.059,24.316S24.87,100,34.375,100H100V0z"/>
</g>
</g></g><g transform="translate(90,340) scale(0.1,0.1)"><g transform="" style="fill: rgb(255, 116, 48);">
<polygon points="0,100 100,50 100,50 0,0 "/>
</g></g><g transform="translate(110,340) scale(0.1,0.1)"><g transform="" style="fill: rgb(255, 116, 48);">
<polygon points="0,-0.001 50,99.999 50,99.999 100,-0.001 "/>
</g></g><g transform="translate(130,340) scale(0.1,0.1)"><g transform="" style="fill: rgb(255, 116, 48);">
<polygon points="100,100 50,0 50,0 0,100 "/>
</g></g><g transform="translate(160,340) scale(0.1,0.1)"><g transform="" style="fill: rgb(255, 116, 48);">
<g>
	<path d="M100,34.375V0H34.375C24.87,0,16.764,3.353,10.059,10.059S0,24.87,0,34.375V100h100V34.375z"/>
</g>
</g></g><g transform="translate(170,340) scale(0.1,0.1)"><g transform="" style="fill: rgb(255, 116, 48);">
<rect width="100" height="100"/>
</g></g><g transform="translate(180,340) scale(0.1,0.1)"><g transform="" style="fill: rgb(255, 116, 48);">
<g>
	<path d="M100,34.375c0-9.505-3.354-17.611-10.059-24.316S75.131,0,65.625,0H0v100h100V34.375z"/>
</g>
</g></g><g transform="translate(210,340) scale(0.1,0.1)"><g transform="" style="fill: rgb(255, 116, 48);">
<polygon points="99.999,49.999 99.998,49.999 49.999,0 0,49.999 -0.001,49.999 -0.001,50 0,50 49.999,99.999 99.998,50 99.999,50 
	99.998,50 "/>
</g></g><g transform="translate(230,340) scale(0.1,0.1)"><g transform="" style="fill: rgb(255, 116, 48);">
<g>
	<path d="M100,34.375V0H34.375C24.87,0,16.764,3.353,10.059,10.059S0,24.87,0,34.375V100h100V34.375z"/>
</g>
</g></g><g transform="translate(240,340) scale(0.1,0.1)"><g transform="" style="fill: rgb(255, 116, 48);">
<polygon points="0,100 100,50 100,50 0,0 "/>
</g></g><g transform="translate(260,340) scale(0.1,0.1)"><g transform="" style="fill: rgb(255, 116, 48);">
<polygon points="100,100 0,50 0,50 100,0 "/>
</g></g><g transform="translate(270,340) scale(0.1,0.1)"><g transform="" style="fill: rgb(255, 116, 48);">
<g>
	<path d="M100,34.375c0-9.505-3.354-17.611-10.059-24.316S75.131,0,65.625,0H0v100h100V34.375z"/>
</g>
</g></g><g transform="translate(290,340) scale(0.1,0.1)"><g transform="" style="fill: rgb(255, 116, 48);">
<polygon points="100,100 50,0 50,0 0,100 "/>
</g></g><g transform="translate(310,340) scale(0.1,0.1)"><g transform="" style="fill: rgb(255, 116, 48);">
<polygon points="100,100 50,0 50,0 0,100 "/>
</g></g><g transform="translate(360,340) scale(0.1,0.1)"><g transform="" style="fill: rgb(255, 116, 48);">
<polygon points="100,100 50,0 50,0 0,100 "/>
</g></g><g transform="translate(100,350) scale(0.1,0.1)"><g transform="" style="fill: rgb(255, 116, 48);">
<polygon points="100,100 50,0 50,0 0,100 "/>
</g></g><g transform="translate(130,350) scale(0.1,0.1)"><g transform="" style="fill: rgb(255, 116, 48);">
<g>
	<path d="M100,0H0v65.625c0,9.506,3.353,17.611,10.059,24.316S24.87,100,34.375,100H100V0z"/>
</g>
</g></g><g transform="translate(140,350) scale(0.1,0.1)"><g transform="" style="fill: rgb(255, 116, 48);">
<rect width="100" height="100"/>
</g></g><g transform="translate(150,350) scale(0.1,0.1)"><g transform="" style="fill: rgb(255, 116, 48);">
<rect width="100" height="100"/>
</g></g><g transform="translate(160,350) scale(0.1,0.1)"><g transform="" style="fill: rgb(255, 116, 48);">
<rect width="100" height="100"/>
</g></g><g transform="translate(180,350) scale(0.1,0.1)"><g transform="" style="fill: rgb(255, 116, 48);">
<rect width="100" height="100"/>
</g></g><g transform="translate(220,350) scale(0.1,0.1)"><g transform="" style="fill: rgb(255, 116, 48);">
<g>
	<path d="M100,34.375V0H34.375C24.87,0,16.764,3.353,10.059,10.059S0,24.87,0,34.375V100h100V34.375z"/>
</g>
</g></g><g transform="translate(230,350) scale(0.1,0.1)"><g transform="" style="fill: rgb(255, 116, 48);">
<rect width="100" height="100"/>
</g></g><g transform="translate(270,350) scale(0.1,0.1)"><g transform="" style="fill: rgb(255, 116, 48);">
<g>
	<path d="M100,0H0v65.625c0,9.506,3.353,17.611,10.059,24.316S24.87,100,34.375,100H100V0z"/>
</g>
</g></g><g transform="translate(280,350) scale(0.1,0.1)"><g transform="" style="fill: rgb(255, 116, 48);">
<rect width="100" height="100"/>
</g></g><g transform="translate(290,350) scale(0.1,0.1)"><g transform="" style="fill: rgb(255, 116, 48);">
<rect width="100" height="100"/>
</g></g><g transform="translate(300,350) scale(0.1,0.1)"><g transform="" style="fill: rgb(255, 116, 48);">
<rect width="100" height="100"/>
</g></g><g transform="translate(310,350) scale(0.1,0.1)"><g transform="" style="fill: rgb(255, 116, 48);">
<rect width="100" height="100"/>
</g></g><g transform="translate(320,350) scale(0.1,0.1)"><g transform="" style="fill: rgb(255, 116, 48);">
<g>
	<path d="M100,34.375c0-9.505-3.354-17.611-10.059-24.316S75.131,0,65.625,0H0v100h100V34.375z"/>
</g>
</g></g><g transform="translate(360,350) scale(0.1,0.1)"><g transform="" style="fill: rgb(255, 116, 48);">
<rect width="100" height="100"/>
</g></g><g transform="translate(90,360) scale(0.1,0.1)"><g transform="" style="fill: rgb(255, 116, 48);">
<polygon points="100,100 0,50 0,50 100,0 "/>
</g></g><g transform="translate(100,360) scale(0.1,0.1)"><g transform="" style="fill: rgb(255, 116, 48);">
<rect width="100" height="100"/>
</g></g><g transform="translate(110,360) scale(0.1,0.1)"><g transform="" style="fill: rgb(255, 116, 48);">
<polygon points="0,100 100,50 100,50 0,0 "/>
</g></g><g transform="translate(160,360) scale(0.1,0.1)"><g transform="" style="fill: rgb(255, 116, 48);">
<polygon points="0,-0.001 50,99.999 50,99.999 100,-0.001 "/>
</g></g><g transform="translate(180,360) scale(0.1,0.1)"><g transform="" style="fill: rgb(255, 116, 48);">
<polygon points="0,-0.001 50,99.999 50,99.999 100,-0.001 "/>
</g></g><g transform="translate(200,360) scale(0.1,0.1)"><g transform="" style="fill: rgb(255, 116, 48);">
<polygon points="100,100 0,50 0,50 100,0 "/>
</g></g><g transform="translate(210,360) scale(0.1,0.1)"><g transform="" style="fill: rgb(255, 116, 48);">
<rect width="100" height="100"/>
</g></g><g transform="translate(220,360) scale(0.1,0.1)"><g transform="" style="fill: rgb(255, 116, 48);">
<rect width="100" height="100"/>
</g></g><g transform="translate(230,360) scale(0.1,0.1)"><g transform="" style="fill: rgb(255, 116, 48);">
<rect width="100" height="100"/>
</g></g><g transform="translate(240,360) scale(0.1,0.1)"><g transform="" style="fill: rgb(255, 116, 48);">
<rect width="100" height="100"/>
</g></g><g transform="translate(250,360) scale(0.1,0.1)"><g transform="" style="fill: rgb(255, 116, 48);">
<rect width="100" height="100"/>
</g></g><g transform="translate(260,360) scale(0.1,0.1)"><g transform="" style="fill: rgb(255, 116, 48);">
<polygon points="0,100 100,50 100,50 0,0 "/>
</g></g><g transform="translate(300,360) scale(0.1,0.1)"><g transform="" style="fill: rgb(255, 116, 48);">
<g>
	<path d="M100,0H0v65.625c0,9.506,3.353,17.611,10.059,24.316S24.87,100,34.375,100H100V0z"/>
</g>
</g></g><g transform="translate(310,360) scale(0.1,0.1)"><g transform="" style="fill: rgb(255, 116, 48);">
<rect width="100" height="100"/>
</g></g><g transform="translate(320,360) scale(0.1,0.1)"><g transform="" style="fill: rgb(255, 116, 48);">
<rect width="100" height="100"/>
</g></g><g transform="translate(330,360) scale(0.1,0.1)"><g transform="" style="fill: rgb(255, 116, 48);">
<rect width="100" height="100"/>
</g></g><g transform="translate(340,360) scale(0.1,0.1)"><g transform="" style="fill: rgb(255, 116, 48);">
<rect width="100" height="100"/>
</g></g><g transform="translate(350,360) scale(0.1,0.1)"><g transform="" style="fill: rgb(255, 116, 48);">
<rect width="100" height="100"/>
</g></g><g transform="translate(360,360) scale(0.1,0.1)"><g transform="" style="fill: rgb(255, 116, 48);">
<g>
	<path d="M100,0H0v100h65.625c9.506,0,17.611-3.354,24.316-10.059S100,75.131,100,65.625V0z"/>
</g>
</g></g><g transform="translate(0,0) scale(0.7, 0.7)"><g transform=" translate(100, 0) scale(-1,1) " style="fill: rgb(255, 116, 48);">
<g>
	<path style="fill:none;" d="M85,66.221V33.75C85,23.411,76.414,15,65.859,15H34.14C23.586,15,15,23.411,15,33.75v51.246
		l50.855-0.016C76.414,84.98,85,76.564,85,66.221z"/>
	<path d="M100,66.221V33.75C100,15.141,84.68,0,65.859,0H34.14C15.32,0,0,15.141,0,33.75V100l65.859-0.02
		C84.68,99.98,100,84.84,100,66.221z M85,66.221c0,10.344-8.586,18.76-19.145,18.76L15,84.996V33.75C15,23.411,23.586,15,34.14,15
		h31.719C76.414,15,85,23.411,85,33.75V66.221z"/>
</g>
</g></g><g transform="translate(300,0) scale(0.7, 0.7)"><g transform="" style="fill: rgb(255, 116, 48);">
<g>
	<path style="fill:none;" d="M85,66.221V33.75C85,23.411,76.414,15,65.859,15H34.14C23.586,15,15,23.411,15,33.75v51.246
		l50.855-0.016C76.414,84.98,85,76.564,85,66.221z"/>
	<path d="M100,66.221V33.75C100,15.141,84.68,0,65.859,0H34.14C15.32,0,0,15.141,0,33.75V100l65.859-0.02
		C84.68,99.98,100,84.84,100,66.221z M85,66.221c0,10.344-8.586,18.76-19.145,18.76L15,84.996V33.75C15,23.411,23.586,15,34.14,15
		h31.719C76.414,15,85,23.411,85,33.75V66.221z"/>
</g>
</g></g><g transform="translate(0,300) scale(0.7, 0.7)"><g transform=" translate(100, 0) scale(-1,1)  translate(0,100) scale(1,-1) " style="fill: rgb(255, 116, 48);">
<g>
	<path style="fill:none;" d="M85,66.221V33.75C85,23.411,76.414,15,65.859,15H34.14C23.586,15,15,23.411,15,33.75v51.246
		l50.855-0.016C76.414,84.98,85,76.564,85,66.221z"/>
	<path d="M100,66.221V33.75C100,15.141,84.68,0,65.859,0H34.14C15.32,0,0,15.141,0,33.75V100l65.859-0.02
		C84.68,99.98,100,84.84,100,66.221z M85,66.221c0,10.344-8.586,18.76-19.145,18.76L15,84.996V33.75C15,23.411,23.586,15,34.14,15
		h31.719C76.414,15,85,23.411,85,33.75V66.221z"/>
</g>
</g></g><g transform="translate(20,20) scale(0.3, 0.3)"><g transform="" style="fill: rgb(255, 116, 48);">
<polygon points="51.156,100 0,49.844 0,0 49.844,0 100,51.156 100,100 "/>
</g></g><g transform="translate(320,20) scale(0.3, 0.3)"><g transform=" translate(100, 0) scale(-1,1) " style="fill: rgb(255, 116, 48);">
<polygon points="51.156,100 0,49.844 0,0 49.844,0 100,51.156 100,100 "/>
</g></g><g transform="translate(20,320) scale(0.3, 0.3)"><g transform=" translate(0,100) scale(1,-1) " style="fill: rgb(255, 116, 48);">
<polygon points="51.156,100 0,49.844 0,0 49.844,0 100,51.156 100,100 "/>
</g></g><g transform="translate(130,130) scale(0.11,0.11)" width="110" height="110"><svg
   xmlns:dc="http://purl.org/dc/elements/1.1/"
   xmlns:cc="http://creativecommons.org/ns#"
   xmlns:rdf="http://www.w3.org/1999/02/22-rdf-syntax-ns#"
   xmlns:svg="http://www.w3.org/2000/svg"
   xmlns="http://www.w3.org/2000/svg"
   version="1.1"
   width="1000"
   height="1000"
   viewBox="0 0 1000 1000"
   id="Layer_1"
   xml:space="preserve"><metadata
     id="metadata30"><rdf:RDF><cc:Work
         rdf:about=""><dc:format>image/svg+xml</dc:format><dc:type
           rdf:resource="http://purl.org/dc/dcmitype/StillImage" /><dc:title></dc:title></cc:Work></rdf:RDF></metadata><defs
     id="defs28" /><g
     transform="scale(7.8125,7.8125)"
     id="g3"><linearGradient
       x1="-566.71143"
       y1="516.56927"
       x2="-493.28751"
       y2="621.42963"
       id="SVGID_1_"
       gradientUnits="userSpaceOnUse"
       gradientTransform="matrix(1,0,0,-1,594,633)"><stop
         id="stop6"
         style="stop-color:#ffb900;stop-opacity:1"
         offset="0" /><stop
         id="stop8"
         style="stop-color:#9100eb;stop-opacity:1"
         offset="1" /></linearGradient><circle
       cx="64"
       cy="64"
       r="64"
       id="circle10"
       style="fill:url(#SVGID_1_)" /></g><g
     transform="scale(7.8125,7.8125)"
     id="g12"><g
       id="g14"><path
         d="M 82.333,104 H 45.667 C 33.72,104 24,94.281 24,82.333 V 45.667 C 24,33.719 33.72,24 45.667,24 H 82.333 C 94.281,24 104,33.719 104,45.667 V 82.334 C 104,94.281 94.281,104 82.333,104 z M 45.667,30.667 c -8.271,0 -15,6.729 -15,15 v 36.667 c 0,8.271 6.729,15 15,15 h 36.666 c 8.271,0 15,-6.729 15,-15 V 45.667 c 0,-8.271 -6.729,-15 -15,-15 H 45.667 z"
         id="path16"
         style="fill:#ffffff" /></g><g
       id="g18"><path
         d="M 64,84 C 52.972,84 44,75.027 44,64 44,52.971 52.972,44 64,44 c 11.028,0 20,8.971 20,20 0,11.027 -8.972,20 -20,20 z m 0,-33.333 c -7.352,0 -13.333,5.981 -13.333,13.333 0,7.353 5.981,13.333 13.333,13.333 7.352,0 13.333,-5.98 13.333,-13.333 0,-7.352 -5.98,-13.333 -13.333,-13.333 z"
         id="path20"
         style="fill:#ffffff" /></g><g
       id="g22"><circle
         cx="85.25"
         cy="42.75"
         r="4.5830002"
         id="circle24"
         style="fill:#ffffff" /></g></g></svg></g></g></svg>