<?xml version="1.0" encoding="UTF-8" standalone="no"?>
<svg
   xmlns:dc="http://purl.org/dc/elements/1.1/"
   xmlns:cc="http://creativecommons.org/ns#"
   xmlns:rdf="http://www.w3.org/1999/02/22-rdf-syntax-ns#"
   xmlns:svg="http://www.w3.org/2000/svg"
   xmlns="http://www.w3.org/2000/svg"
   xmlns:sodipodi="http://sodipodi.sourceforge.net/DTD/sodipodi-0.dtd"
   xmlns:inkscape="http://www.inkscape.org/namespaces/inkscape"
   width="2500"
   height="2500"
   viewBox="0 0 377.764 377.764"
   version="1.1"
   id="svg8"
   sodipodi:docname="gsfc-logo-linemessenger-1.svg"
   inkscape:export-filename="C:\Users\t1tmbit\Desktop\GORDONSTEVENSCA\Site2\img\gsfc-logo-linemessenger-1-300x300.png"
   inkscape:export-xdpi="11.52"
   inkscape:export-ydpi="11.52"
   inkscape:version="0.92.1 r15371">
  <metadata
     id="metadata14">
    <rdf:RDF>
      <cc:Work
         rdf:about="">
        <dc:format>image/svg+xml</dc:format>
        <dc:type
           rdf:resource="http://purl.org/dc/dcmitype/StillImage" />
      </cc:Work>
    </rdf:RDF>
  </metadata>
  <defs
     id="defs12" />
  <sodipodi:namedview
     pagecolor="#ffffff"
     bordercolor="#666666"
     borderopacity="1"
     objecttolerance="10"
     gridtolerance="10"
     guidetolerance="10"
     inkscape:pageopacity="0"
     inkscape:pageshadow="2"
     inkscape:window-width="701"
     inkscape:window-height="480"
     id="namedview10"
     showgrid="false"
     inkscape:zoom="0.0944"
     inkscape:cx="1250"
     inkscape:cy="1250"
     inkscape:window-x="0"
     inkscape:window-y="0"
     inkscape:window-maximized="0"
     inkscape:current-layer="svg8" />
  <path
     fill-rule="evenodd"
     clip-rule="evenodd"
     fill="#3ACE01"
     d="M77.315 0h223.133c42.523 0 77.315 34.792 77.315 77.315v223.133c0 42.523-34.792 77.315-77.315 77.315H77.315C34.792 377.764 0 342.972 0 300.448V77.315C0 34.792 34.792 0 77.315 0z"
     id="path2" />
  <path
     fill-rule="evenodd"
     clip-rule="evenodd"
     fill="#FFF"
     d="M188.515 62.576c76.543 0 138.593 49.687 138.593 110.979 0 21.409-7.576 41.398-20.691 58.351-.649.965-1.497 2.031-2.566 3.209l-.081.088c-4.48 5.36-9.525 10.392-15.072 15.037-38.326 35.425-101.41 77.601-109.736 71.094-7.238-5.656 11.921-33.321-10.183-37.925-1.542-.177-3.08-.367-4.605-.583l-.029-.002v-.002c-64.921-9.223-114.222-54.634-114.222-109.267-.002-61.292 62.049-110.979 138.592-110.979z"
     id="path4" />
  <path
     fill-rule="evenodd"
     clip-rule="evenodd"
     fill="#3ACE01"
     d="M108.103 208.954h27.952c3.976 0 7.228-3.253 7.228-7.229v-.603c0-3.976-3.252-7.228-7.228-7.228h-20.121v-45.779c0-3.976-3.252-7.228-7.228-7.228h-.603c-3.976 0-7.228 3.252-7.228 7.228v53.609c0 3.977 3.252 7.23 7.228 7.23zm173.205-33.603v-.603c0-3.976-3.253-7.228-7.229-7.228h-20.12v-11.445h20.12c3.976 0 7.229-3.252 7.229-7.228v-.603c0-3.976-3.253-7.228-7.229-7.228h-27.952c-3.976 0-7.228 3.252-7.228 7.228v53.609c0 3.976 3.252 7.229 7.228 7.229h27.952c3.976 0 7.229-3.253 7.229-7.229v-.603c0-3.976-3.253-7.228-7.229-7.228h-20.12v-11.445h20.12c3.976.002 7.229-3.251 7.229-7.226zm-53.755 31.448l.002-.003a7.207 7.207 0 0 0 2.09-5.07v-53.609c0-3.976-3.252-7.228-7.229-7.228h-.603c-3.976 0-7.228 3.252-7.228 7.228v31.469l-26.126-35.042c-1.248-2.179-3.598-3.655-6.276-3.655h-.603c-3.976 0-7.229 3.252-7.229 7.228v53.609c0 3.976 3.252 7.229 7.229 7.229h.603c3.976 0 7.228-3.253 7.228-7.229v-32.058l26.314 35.941c.162.252.339.494.53.724l.001.002c.723.986 1.712 1.662 2.814 2.075.847.35 1.773.544 2.742.544h.603a7.162 7.162 0 0 0 3.377-.844c.723-.344 1.332-.788 1.761-1.311zm-71.208 2.155h.603c3.976 0 7.228-3.253 7.228-7.229v-53.609c0-3.976-3.252-7.228-7.228-7.228h-.603c-3.976 0-7.229 3.252-7.229 7.228v53.609c0 3.976 3.253 7.229 7.229 7.229z"
     id="path6" />
</svg>
