<svg height="414.529" width="528.015" xmlns="http://www.w3.org/2000/svg" xmlns:xlink="http://www.w3.org/1999/xlink">
    <linearGradient id="a" gradientUnits="objectBoundingBox" x2="1" y1=".5" y2=".5">
        <stop offset=".476" stop-color="#9bb8df"/>
        <stop offset=".952" stop-color="#fff"/>
    </linearGradient>
    <linearGradient id="d" x1="16.011" x2="17.011" xlink:href="#a" y1=".5" y2=".5"/>
    <linearGradient id="b" gradientUnits="objectBoundingBox" x1=".65" x2=".358" y1=".086" y2=".881">
        <stop offset="0" stop-color="#326ebd"/>
        <stop offset=".062" stop-color="#4c81c5"/>
        <stop offset=".182" stop-color="#7ba2d4"/>
        <stop offset=".307" stop-color="#a4bee1"/>
        <stop offset=".434" stop-color="#c5d6ec"/>
        <stop offset=".564" stop-color="#dee8f4"/>
        <stop offset=".699" stop-color="#f0f4fa"/>
        <stop offset=".84" stop-color="#fbfcfd"/>
        <stop offset="1" stop-color="#fff"/>
    </linearGradient>
    <linearGradient id="e" x1=".567" x2=".341" xlink:href="#b" y1=".283" y2=".778"/>
    <linearGradient id="f" gradientUnits="objectBoundingBox" x2="1" y1=".5" y2=".5">
        <stop offset=".261" stop-color="#9bb8df"/>
        <stop offset=".952" stop-color="#fff"/>
    </linearGradient>
    <linearGradient id="g" x1="12.754" x2="13.754" xlink:href="#a" y1=".5" y2=".5"/>
    <linearGradient id="c" gradientUnits="objectBoundingBox" x1=".735" x2=".304" y1="-.105" y2="1.061">
        <stop offset="0" stop-color="#326ebd"/>
        <stop offset=".252" stop-color="#739cd1"/>
        <stop offset=".509" stop-color="#aec6e5"/>
        <stop offset=".729" stop-color="#dae5f3"/>
        <stop offset=".9" stop-color="#f5f7fb"/>
        <stop offset="1" stop-color="#fff"/>
    </linearGradient>
    <linearGradient id="h" x1=".726" x2=".303" xlink:href="#c" y1="-.098" y2="1.064"/>
    <linearGradient id="i" gradientUnits="objectBoundingBox" x2="1" y1=".5" y2=".5">
        <stop offset=".449" stop-color="#d6e2f2"/>
        <stop offset=".521" stop-color="#c8d8ed"/>
        <stop offset=".64" stop-color="#b9cde8"/>
        <stop offset=".778" stop-color="#afc7e5"/>
        <stop offset=".972" stop-color="#adc5e5"/>
    </linearGradient>
    <linearGradient id="j" gradientUnits="objectBoundingBox" x1=".043" x2=".966" y1=".5" y2=".5">
        <stop offset=".028" stop-color="#c1d4eb"/>
        <stop offset=".069" stop-color="#c7d8ed"/>
        <stop offset=".239" stop-color="#dde7f6"/>
        <stop offset=".402" stop-color="#eaf0fc"/>
        <stop offset=".551" stop-color="#eff4fe"/>
    </linearGradient>
    <linearGradient id="k" x1=".649" x2=".359" xlink:href="#b" y1=".09" y2=".89"/>
    <linearGradient id="l" gradientUnits="objectBoundingBox" x1=".519" x2=".485" y1=".56" y2=".46">
        <stop offset="0" stop-color="#326ebd"/>
        <stop offset=".088" stop-color="#5b8bca"/>
        <stop offset=".194" stop-color="#86a9d8"/>
        <stop offset=".306" stop-color="#abc4e4"/>
        <stop offset=".422" stop-color="#cad9ed"/>
        <stop offset=".544" stop-color="#e1eaf5"/>
        <stop offset=".674" stop-color="#f2f5fa"/>
        <stop offset=".817" stop-color="#fbfcfd"/>
        <stop offset="1" stop-color="#fff"/>
    </linearGradient>
    <linearGradient id="m" gradientUnits="objectBoundingBox" x1=".514" x2=".482" y1=".531" y2=".437">
        <stop offset=".219"/>
        <stop offset=".302" stop-color="#020407"/>
        <stop offset=".429" stop-color="#07101c"/>
        <stop offset=".583" stop-color="#10253f"/>
        <stop offset=".76" stop-color="#1d416f"/>
        <stop offset=".953" stop-color="#2d64ac"/>
        <stop offset="1" stop-color="#326ebd"/>
    </linearGradient>
    <linearGradient id="n" gradientUnits="objectBoundingBox" x1="-33.796" x2="-32.796" y1=".5" y2=".5">
        <stop offset=".004" stop-color="#c5d2f4"/>
        <stop offset=".153" stop-color="#ced9f5"/>
        <stop offset="1" stop-color="#fff"/>
    </linearGradient>
    <radialGradient id="o" cx=".5" cy=".5" gradientTransform="matrix(-.577 0 0 .517 76.358 100.522)" gradientUnits="objectBoundingBox" r=".875">
        <stop offset=".091" stop-color="#feb423"/>
        <stop offset=".225" stop-color="#fec34f"/>
        <stop offset=".429" stop-color="#fed88d"/>
        <stop offset=".617" stop-color="#fee8be"/>
        <stop offset=".78" stop-color="#fef4e1"/>
        <stop offset=".913" stop-color="#fefcf7"/>
        <stop offset="1" stop-color="#fff"/>
    </radialGradient>
    <path d="M1074.91 541.415a.331.331 0 0 1-.162-.619L1204.8 467.8a3.347 3.347 0 0 0-.01-5.843l-12.06-6.713a4.089 4.089 0 0 1-.061-7.111l39.157-22.692a.331.331 0 0 1 .332.573L1193 448.709a3.427 3.427 0 0 0 .051 5.959l12.06 6.714a4.009 4.009 0 0 1 .012 7l-130.056 72.992a.326.326 0 0 1-.157.041z" fill="url(#a)" transform="translate(-805.09 -343.648)"/>
    <path d="M939.525 495.815a.331.331 0 0 1-.162-.043L809.308 422.78a4.009 4.009 0 0 1 .012-7l12.06-6.713a3.427 3.427 0 0 0 .052-5.959l-39.157-22.692a.331.331 0 1 1 .332-.573l39.157 22.692a4.089 4.089 0 0 1-.062 7.11l-12.06 6.714a3.347 3.347 0 0 0-.01 5.843L939.687 495.2a.331.331 0 0 1-.162.619z" fill="url(#d)" transform="translate(-713.489 -329.366)"/>
    <path d="m145.657 106.303-45.454 26.243a4.453 4.453 0 0 0 .042 7.737l45.5 25.617a9.338 9.338 0 0 0 9.161 0l45.5-25.617a4.453 4.453 0 0 0 .042-7.737l-45.455-26.243a9.339 9.339 0 0 0-9.336 0z" fill="#26538e" opacity=".1"/>
    <path d="m145.657 95.336-47.681 21.509v7.9a5.176 5.176 0 0 0 2.616 4.5l45.153 25.687a9.338 9.338 0 0 0 9.161 0l45.017-25.369a5.174 5.174 0 0 0 2.635-4.509v-7.279L154.99 95.337a9.335 9.335 0 0 0-9.333-.001z" fill="#c1d4eb"/>
    <path d="m145.657 86.7-45.454 26.243a4.453 4.453 0 0 0 .042 7.737l45.5 25.617a9.338 9.338 0 0 0 9.161 0l45.5-25.617a4.453 4.453 0 0 0 .042-7.737L154.993 86.7a9.339 9.339 0 0 0-9.336 0z" fill="#f1f4fc"/>
    <path d="m150.27 133.015 28.258-16.314-28.258-16.314-28.258 16.314z" fill="#326ebd" opacity=".3"/>
    <path d="M124.853 81.329v29.35l25.415 14.675v-29.35z" fill="#cad9ee"/>
    <path d="M175.687 81.329v29.35l-25.417 14.675v-29.35z" fill="#abc4e4"/>
    <path d="m150.267 96.004 25.417-14.675-25.417-14.674L124.85 81.33z" fill="#eff4fe"/>
    <path d="m150.251 87.11 17.661-10.2-17.927-10.2-17.204 10.089z" fill="#26538e" opacity=".3"/>
    <path d="M129.129 44.113v24.41l21.14 12.205V56.323z" fill="#fd8f46"/>
    <path d="M171.409 44.113v24.41l-21.14 12.205V56.323z" fill="#fc7318"/>
    <path d="m150.269 56.323 21.14-12.2-21.14-12.2-21.14 12.2z" fill="#fdab74"/>
    <path d="m150.27 46.205 12.332-7.119-12.517-7.119-12.014 7.043z" fill="#bd5612" opacity=".3"/>
    <path d="M132.572 10.218v20.435l17.7 10.218V20.435z" fill="#cad9ee"/>
    <path d="M167.967 10.218v20.435l-17.7 10.218V20.435z" fill="#abc4e4"/>
    <path d="m150.27 20.432 17.7-10.218-17.7-10.217-17.7 10.217z" fill="#eff4fe"/>
    <path d="M874.286 652.983 948.07 697.2l98.922-56.617-73.916-43.085z" fill="url(#b)" opacity=".4" transform="translate(-742.359 -397.547)"/>
    <path d="m682.2 759.648 120.3 77.429 101.6-56.806-160.8-102.619-61.1 34.319z" fill="url(#e)" opacity=".4" transform="translate(-682.197 -422.652)"/>
    <path d="M1276.193 733.083a9.723 9.723 0 0 1-4.855-1.293l-147.3-84.78a.331.331 0 1 1 .33-.574l147.3 84.78a9.1 9.1 0 0 0 9.06 0l35.5-20.486a7.975 7.975 0 0 1 8.046.049l24.111 14.311a.331.331 0 0 1-.338.569l-24.111-14.311a7.312 7.312 0 0 0-7.377-.045l-35.5 20.486a9.726 9.726 0 0 1-4.866 1.294z" fill="url(#f)" transform="translate(-820.529 -412.861)"/>
    <path d="M748.14 741.314a11.937 11.937 0 0 1-5.968-1.593l-34.664-20.006a6.863 6.863 0 0 0-6.841 0l-16.122 9.308a.331.331 0 0 1-.331-.573l16.122-9.308a7.524 7.524 0 0 1 7.5 0l34.664 20.005a11.309 11.309 0 0 0 11.285-.006l166.6-95.762a.331.331 0 1 1 .33.573l-166.6 95.762a11.933 11.933 0 0 1-5.975 1.6z" fill="url(#g)" transform="translate(-682.776 -411.904)"/>
    <path d="m1195.5 841.786 10.979 6.256 53.2-28.8-7.436-8.548z" fill="url(#c)" opacity=".4" transform="translate(-842.963 -464.319)"/>
    <path d="m722.793 598.66 9.852 5.614 47.737-25.848-7.7-7.108z" fill="url(#h)" opacity=".4" transform="translate(-694.912 -389.349)"/>
    <path d="m1278.747 489.187 8.1 4.617 39.261-21.259-5.488-6.309z" fill="url(#c)" opacity=".4" transform="translate(-869.035 -356.438)"/>
    <path d="m732.425 886.64 10.975 6.26 53.2-28.8-7.436-8.548z" fill="url(#c)" opacity=".4" transform="translate(-697.928 -478.367)"/>
    <path d="M410.444 207.727a5.741 5.741 0 0 1-2.872-.767l-43.063-24.862a3.307 3.307 0 0 1 0-5.728l43.063-24.862a5.762 5.762 0 0 1 5.745 0l43.063 24.862a3.307 3.307 0 0 1 0 5.728l-43.063 24.862a5.742 5.742 0 0 1-2.873.767zm0-56.3a5.053 5.053 0 0 0-2.529.676l-43.063 24.862a2.62 2.62 0 0 0 0 4.538l43.063 24.863a5.07 5.07 0 0 0 5.058 0l43.061-24.864a2.62 2.62 0 0 0 0-4.538l-43.063-24.862a5.056 5.056 0 0 0-2.527-.676zM301.67 403.17a5.548 5.548 0 0 1-2.774-.741l-41.486-23.952a3.2 3.2 0 0 1 0-5.54l41.486-23.952a5.563 5.563 0 0 1 5.547 0l41.487 23.952a3.2 3.2 0 0 1 0 5.54l-41.487 23.949a5.545 5.545 0 0 1-2.773.744zm-2.431-53.591-41.49 23.952a2.511 2.511 0 0 0 0 4.349l41.486 23.953a4.871 4.871 0 0 0 4.861 0l41.487-23.953a2.511 2.511 0 0 0 0-4.349l-41.487-23.952a4.873 4.873 0 0 0-4.861 0zM127.397 218.699a4.571 4.571 0 0 1-2.289-.611l-33.742-19.482a2.665 2.665 0 0 1 0-4.617l33.743-19.481a4.587 4.587 0 0 1 4.576 0l33.743 19.481a2.666 2.666 0 0 1 0 4.617l-33.743 19.481a4.567 4.567 0 0 1-2.288.612zm0-44.115a3.894 3.894 0 0 0-1.945.519l-33.743 19.481a1.978 1.978 0 0 0 0 3.427l33.743 19.481a3.9 3.9 0 0 0 3.889 0l33.743-19.481a1.979 1.979 0 0 0 0-3.427l-33.738-19.481a3.889 3.889 0 0 0-1.949-.519zM338.704 108.713a3.44 3.44 0 0 1-1.72-.459l-24.692-14.255a2.043 2.043 0 0 1 0-3.538l24.692-14.255a3.45 3.45 0 0 1 3.44 0l24.692 14.255a2.043 2.043 0 0 1 0 3.538l-24.692 14.255a3.439 3.439 0 0 1-1.72.459zm0-32.282a2.752 2.752 0 0 0-1.377.368l-24.692 14.255a1.356 1.356 0 0 0 0 2.348l24.692 14.256a2.761 2.761 0 0 0 2.754 0l24.692-14.256a1.356 1.356 0 0 0 0-2.348l-24.692-14.255a2.753 2.753 0 0 0-1.378-.368z" fill="#c1d4eb"/>
    <path d="M1118 594.433V535.2l-147.123 1.339-.321 58.194v.124a4.579 4.579 0 0 0 2.31 3.949l67.2 38.8a8.428 8.428 0 0 0 8.43 0l67.2-38.8a4.59 4.59 0 0 0 2.304-4.373z" fill="url(#i)" transform="translate(-772.509 -378.038)"/>
    <path d="M345.491 213.034a4.568 4.568 0 0 1-2.3 3.661l-67.2 38.8a8.428 8.428 0 0 1-8.43 0l-67.2-38.8a4.568 4.568 0 0 1-2.291-3.584l-.019 3.585v.124a4.579 4.579 0 0 0 2.31 3.949l67.2 38.8a8.428 8.428 0 0 0 8.43 0l67.2-38.8a4.59 4.59 0 0 0 2.3-4.374z" fill="#98b7de"/>
    <path d="m267.56 114.729-67.2 38.8a4.624 4.624 0 0 0 0 8.01l67.2 38.8a8.432 8.432 0 0 0 8.43 0l67.2-38.8a4.625 4.625 0 0 0 0-8.01l-67.2-38.8a8.428 8.428 0 0 0-8.43 0z" fill="#eaf1f8"/>
    <path d="m343.191 160.932-67.2 38.8a8.431 8.431 0 0 1-8.43 0l-67.2-38.8a4.575 4.575 0 0 1-2.3-3.7 4.589 4.589 0 0 0 2.3 4.306l67.2 38.8a8.431 8.431 0 0 0 8.43 0l67.2-38.8a4.59 4.59 0 0 0 2.3-4.307 4.574 4.574 0 0 1-2.3 3.701z" fill="#fff"/>
    <path d="M1111.288 488.306v-88.26l-122.5 1.114-.267 87.4v.1a3.812 3.812 0 0 0 1.924 3.288l55.957 32.307a7.021 7.021 0 0 0 7.019 0l55.956-32.307a3.822 3.822 0 0 0 1.911-3.642z" fill="url(#i)" transform="translate(-778.136 -335.707)"/>
    <path d="m268.264 29.004-55.957 32.307a3.851 3.851 0 0 0 0 6.669l55.957 32.307a7.017 7.017 0 0 0 7.019 0l55.956-32.307a3.85 3.85 0 0 0 0-6.669l-55.955-32.307a7.021 7.021 0 0 0-7.02 0z" fill="#eaf1f8"/>
    <path d="m331.24 67.366-55.956 32.307a7.021 7.021 0 0 1-7.019 0l-55.957-32.307a3.805 3.805 0 0 1-1.911-3.027 3.821 3.821 0 0 0 1.911 3.641l55.957 32.307a7.017 7.017 0 0 0 7.019 0L331.24 67.98a3.821 3.821 0 0 0 1.912-3.641 3.807 3.807 0 0 1-1.912 3.027z" fill="#fff"/>
    <path d="M205.794 173.089c-.848-.489-1.541-.089-1.541.889a3.416 3.416 0 0 0 1.541 2.668c.848.49 1.54.089 1.54-.889a3.417 3.417 0 0 0-1.54-2.668z" fill="#fc7318"/>
    <g fill="#eaf1f8">
        <path d="M216.087 119.752c-.631-.365-1.147-.067-1.147.662a2.545 2.545 0 0 0 1.147 1.987c.631.364 1.147.066 1.147-.663a2.544 2.544 0 0 0-1.147-1.986zM223.606 124.01c-.631-.364-1.147-.066-1.147.662a2.544 2.544 0 0 0 1.147 1.987c.631.364 1.147.067 1.147-.662a2.543 2.543 0 0 0-1.147-1.987zM231.127 128.269c-.631-.364-1.147-.066-1.147.663a2.543 2.543 0 0 0 1.147 1.986c.63.365 1.147.067 1.147-.662a2.547 2.547 0 0 0-1.147-1.987zM238.649 132.689c-.631-.365-1.147-.067-1.147.662a2.545 2.545 0 0 0 1.147 1.987c.631.364 1.147.066 1.147-.663a2.545 2.545 0 0 0-1.147-1.986zM246.168 136.975c-.631-.364-1.147-.067-1.147.662a2.543 2.543 0 0 0 1.147 1.987c.63.364 1.147.066 1.147-.662a2.545 2.545 0 0 0-1.147-1.987zM253.691 141.287c-.631-.364-1.148-.067-1.148.662a2.544 2.544 0 0 0 1.148 1.987c.631.364 1.147.066 1.147-.662a2.545 2.545 0 0 0-1.147-1.987zM261.208 145.653c-.63-.365-1.147-.067-1.147.662a2.548 2.548 0 0 0 1.147 1.987c.631.364 1.148.066 1.148-.663a2.544 2.544 0 0 0-1.148-1.986zM216.087 109.305c-.631-.364-1.147-.066-1.147.662a2.543 2.543 0 0 0 1.147 1.991c.631.365 1.147.067 1.147-.662a2.544 2.544 0 0 0-1.147-1.991zM223.606 113.564c-.631-.364-1.147-.066-1.147.663a2.546 2.546 0 0 0 1.147 1.987c.631.364 1.147.066 1.147-.663a2.546 2.546 0 0 0-1.147-1.987zM231.127 117.824c-.631-.365-1.147-.067-1.147.662a2.545 2.545 0 0 0 1.147 1.987c.63.364 1.147.066 1.147-.662a2.545 2.545 0 0 0-1.147-1.987zM238.649 122.243c-.631-.364-1.147-.066-1.147.662a2.544 2.544 0 0 0 1.147 1.987c.631.365 1.147.067 1.147-.662a2.545 2.545 0 0 0-1.147-1.987zM246.168 126.528c-.631-.364-1.147-.066-1.147.663a2.543 2.543 0 0 0 1.147 1.986c.63.365 1.147.067 1.147-.662a2.547 2.547 0 0 0-1.147-1.987zM253.691 130.838c-.631-.364-1.148-.066-1.148.663a2.544 2.544 0 0 0 1.148 1.986c.631.365 1.147.067 1.147-.662a2.546 2.546 0 0 0-1.147-1.987zM261.208 135.207c-.63-.364-1.147-.066-1.147.662a2.546 2.546 0 0 0 1.147 1.987c.631.364 1.148.066 1.148-.662a2.544 2.544 0 0 0-1.148-1.987zM216.087 129.916c-.631-.364-1.147-.066-1.147.663a2.543 2.543 0 0 0 1.147 1.986c.631.365 1.147.067 1.147-.662a2.546 2.546 0 0 0-1.147-1.987zM223.606 134.176c-.631-.365-1.147-.067-1.147.662a2.545 2.545 0 0 0 1.147 1.987c.631.364 1.147.066 1.147-.662a2.543 2.543 0 0 0-1.147-1.987zM231.127 138.435c-.631-.364-1.147-.066-1.147.662a2.543 2.543 0 0 0 1.147 1.987c.63.364 1.147.067 1.147-.662a2.545 2.545 0 0 0-1.147-1.987zM238.649 142.854c-.631-.364-1.147-.066-1.147.663a2.543 2.543 0 0 0 1.147 1.986c.631.365 1.147.067 1.147-.662a2.546 2.546 0 0 0-1.147-1.987zM246.168 147.14c-.631-.365-1.147-.067-1.147.662a2.545 2.545 0 0 0 1.147 1.987c.63.364 1.147.066 1.147-.663a2.545 2.545 0 0 0-1.147-1.986zM253.691 151.453c-.631-.365-1.148-.067-1.148.662a2.546 2.546 0 0 0 1.148 1.987c.631.364 1.147.066 1.147-.663a2.545 2.545 0 0 0-1.147-1.986zM261.208 155.818c-.63-.364-1.147-.066-1.147.662a2.546 2.546 0 0 0 1.147 1.987c.631.365 1.148.067 1.148-.662a2.545 2.545 0 0 0-1.148-1.987zM216.087 140.223c-.631-.365-1.147-.067-1.147.662a2.545 2.545 0 0 0 1.147 1.987c.631.364 1.147.066 1.147-.663a2.544 2.544 0 0 0-1.147-1.986zM223.606 144.481c-.631-.364-1.147-.067-1.147.662a2.544 2.544 0 0 0 1.147 1.987c.631.364 1.147.066 1.147-.662a2.543 2.543 0 0 0-1.147-1.987zM231.127 148.74c-.631-.364-1.147-.066-1.147.662a2.543 2.543 0 0 0 1.147 1.987c.63.365 1.147.067 1.147-.662a2.547 2.547 0 0 0-1.147-1.987zM238.649 153.16c-.631-.365-1.147-.067-1.147.662a2.545 2.545 0 0 0 1.147 1.987c.631.364 1.147.066 1.147-.663a2.545 2.545 0 0 0-1.147-1.986zM246.168 157.446c-.631-.365-1.147-.067-1.147.662a2.544 2.544 0 0 0 1.147 1.987c.63.364 1.147.066 1.147-.663a2.545 2.545 0 0 0-1.147-1.986zM253.691 161.758c-.631-.365-1.148-.067-1.148.662a2.546 2.546 0 0 0 1.148 1.987c.631.364 1.147.066 1.147-.663a2.545 2.545 0 0 0-1.147-1.986zM261.208 166.123c-.63-.364-1.147-.066-1.147.663a2.546 2.546 0 0 0 1.147 1.986c.631.365 1.148.067 1.148-.662a2.545 2.545 0 0 0-1.148-1.987zM216.087 150.528c-.631-.365-1.147-.067-1.147.662a2.544 2.544 0 0 0 1.147 1.987c.631.364 1.147.066 1.147-.663a2.543 2.543 0 0 0-1.147-1.986zM223.606 154.787c-.631-.364-1.147-.066-1.147.662a2.544 2.544 0 0 0 1.147 1.987c.631.364 1.147.066 1.147-.662a2.543 2.543 0 0 0-1.147-1.987zM231.127 159.046c-.631-.364-1.147-.066-1.147.663a2.543 2.543 0 0 0 1.147 1.986c.63.365 1.147.067 1.147-.662a2.547 2.547 0 0 0-1.147-1.987zM238.649 163.46c-.631-.365-1.147-.067-1.147.662a2.545 2.545 0 0 0 1.147 1.987c.631.364 1.147.066 1.147-.663a2.545 2.545 0 0 0-1.147-1.986zM246.168 167.751c-.631-.365-1.147-.067-1.147.662a2.543 2.543 0 0 0 1.147 1.987c.63.364 1.147.066 1.147-.662a2.545 2.545 0 0 0-1.147-1.987zM253.691 172.063c-.631-.364-1.148-.067-1.148.662a2.545 2.545 0 0 0 1.148 1.987c.631.364 1.147.066 1.147-.662a2.545 2.545 0 0 0-1.147-1.987zM261.208 176.429c-.63-.364-1.147-.066-1.147.663a2.548 2.548 0 0 0 1.147 1.987c.631.364 1.148.066 1.148-.663a2.546 2.546 0 0 0-1.148-1.987zM216.087 98.86c-.631-.365-1.147-.067-1.147.662a2.546 2.546 0 0 0 1.147 1.987c.631.364 1.147.066 1.147-.663a2.544 2.544 0 0 0-1.147-1.986zM223.606 103.119c-.631-.364-1.147-.067-1.147.662a2.544 2.544 0 0 0 1.147 1.987c.631.364 1.147.066 1.147-.662a2.544 2.544 0 0 0-1.147-1.987zM231.127 107.377c-.631-.364-1.147-.066-1.147.662a2.543 2.543 0 0 0 1.147 1.987c.63.365 1.147.067 1.147-.662a2.547 2.547 0 0 0-1.147-1.987zM238.649 111.796c-.631-.364-1.147-.066-1.147.663a2.546 2.546 0 0 0 1.147 1.987c.631.364 1.147.066 1.147-.663a2.547 2.547 0 0 0-1.147-1.987zM246.168 116.083c-.631-.365-1.147-.067-1.147.662a2.544 2.544 0 0 0 1.147 1.987c.63.364 1.147.066 1.147-.663a2.545 2.545 0 0 0-1.147-1.986zM253.691 120.395c-.631-.365-1.148-.067-1.148.662a2.546 2.546 0 0 0 1.148 1.987c.631.364 1.147.066 1.147-.663a2.545 2.545 0 0 0-1.147-1.986zM261.208 124.76c-.63-.364-1.147-.066-1.147.663a2.546 2.546 0 0 0 1.147 1.987c.631.365 1.148.067 1.148-.662a2.545 2.545 0 0 0-1.148-1.988zM216.087 88.413c-.631-.364-1.147-.066-1.147.662a2.543 2.543 0 0 0 1.147 1.987c.631.364 1.147.066 1.147-.662a2.544 2.544 0 0 0-1.147-1.987zM223.606 92.672c-.631-.364-1.147-.066-1.147.663a2.543 2.543 0 0 0 1.147 1.986c.631.365 1.147.067 1.147-.662a2.545 2.545 0 0 0-1.147-1.987zM231.127 96.932c-.631-.365-1.147-.067-1.147.662a2.545 2.545 0 0 0 1.147 1.987c.63.364 1.147.066 1.147-.663a2.545 2.545 0 0 0-1.147-1.986zM238.649 101.351c-.631-.364-1.147-.066-1.147.662a2.544 2.544 0 0 0 1.147 1.987c.631.364 1.147.066 1.147-.662a2.545 2.545 0 0 0-1.147-1.987zM246.168 105.636c-.631-.364-1.147-.066-1.147.662a2.543 2.543 0 0 0 1.147 1.987c.63.364 1.147.067 1.147-.662a2.545 2.545 0 0 0-1.147-1.987zM253.691 109.949c-.631-.364-1.148-.066-1.148.662a2.544 2.544 0 0 0 1.148 1.987c.631.365 1.147.067 1.147-.662a2.545 2.545 0 0 0-1.147-1.987zM261.208 114.315c-.63-.365-1.147-.067-1.147.662a2.547 2.547 0 0 0 1.147 1.987c.631.364 1.148.066 1.148-.662a2.544 2.544 0 0 0-1.148-1.987zM216.087 77.967c-.631-.364-1.147-.066-1.147.663a2.543 2.543 0 0 0 1.147 1.986c.631.365 1.147.067 1.147-.662a2.545 2.545 0 0 0-1.147-1.987zM223.606 82.227c-.631-.365-1.147-.067-1.147.662a2.545 2.545 0 0 0 1.147 1.987c.631.364 1.147.066 1.147-.663a2.543 2.543 0 0 0-1.147-1.986zM231.127 86.486c-.631-.364-1.147-.066-1.147.662a2.543 2.543 0 0 0 1.147 1.987c.63.364 1.147.066 1.147-.662a2.546 2.546 0 0 0-1.147-1.987zM238.649 90.904c-.631-.364-1.147-.066-1.147.663a2.544 2.544 0 0 0 1.147 1.986c.631.365 1.147.067 1.147-.662a2.546 2.546 0 0 0-1.147-1.987zM246.168 95.195c-.631-.365-1.147-.067-1.147.662a2.546 2.546 0 0 0 1.147 1.987c.63.364 1.147.066 1.147-.663a2.545 2.545 0 0 0-1.147-1.986zM253.691 99.502c-.631-.364-1.148-.066-1.148.663a2.547 2.547 0 0 0 1.148 1.987c.631.364 1.147.066 1.147-.663a2.547 2.547 0 0 0-1.147-1.987zM261.208 103.869c-.63-.364-1.147-.066-1.147.662a2.546 2.546 0 0 0 1.147 1.987c.631.365 1.148.067 1.148-.662a2.545 2.545 0 0 0-1.148-1.987z"/>
    </g>
    <path d="M326.087 119.752c.631-.365 1.147-.067 1.147.662a2.546 2.546 0 0 1-1.147 1.987c-.631.364-1.147.066-1.147-.663a2.544 2.544 0 0 1 1.147-1.986zM318.566 124.01c.63-.364 1.147-.066 1.147.662a2.545 2.545 0 0 1-1.147 1.987c-.631.364-1.147.067-1.147-.662a2.544 2.544 0 0 1 1.147-1.987zM311.045 128.269c.631-.364 1.147-.066 1.147.663a2.544 2.544 0 0 1-1.147 1.986c-.631.365-1.147.067-1.147-.662a2.544 2.544 0 0 1 1.147-1.987zM303.523 132.689c.631-.365 1.147-.067 1.147.662a2.545 2.545 0 0 1-1.147 1.987c-.631.364-1.147.066-1.147-.663a2.543 2.543 0 0 1 1.147-1.986zM296.002 136.975c.631-.364 1.147-.067 1.147.662a2.544 2.544 0 0 1-1.147 1.987c-.63.364-1.147.066-1.147-.662a2.546 2.546 0 0 1 1.147-1.987zM288.481 141.287c.631-.364 1.147-.067 1.147.662a2.543 2.543 0 0 1-1.147 1.987c-.63.364-1.147.066-1.147-.662a2.545 2.545 0 0 1 1.147-1.987zM280.96 145.653c.631-.365 1.148-.067 1.148.662a2.546 2.546 0 0 1-1.148 1.987c-.63.364-1.147.066-1.147-.663a2.545 2.545 0 0 1 1.147-1.986zM326.087 109.305c.631-.364 1.147-.066 1.147.662a2.545 2.545 0 0 1-1.147 1.987c-.631.365-1.147.067-1.147-.662a2.544 2.544 0 0 1 1.147-1.987zM318.566 113.564c.63-.364 1.147-.066 1.147.663a2.547 2.547 0 0 1-1.147 1.987c-.631.364-1.147.066-1.147-.663a2.546 2.546 0 0 1 1.147-1.987zM311.045 117.824c.631-.365 1.147-.067 1.147.662a2.545 2.545 0 0 1-1.147 1.987c-.631.364-1.147.066-1.147-.662a2.543 2.543 0 0 1 1.147-1.987zM303.523 122.243c.631-.364 1.147-.066 1.147.662a2.544 2.544 0 0 1-1.147 1.987c-.631.365-1.147.067-1.147-.662a2.543 2.543 0 0 1 1.147-1.987zM296.002 126.528c.631-.364 1.147-.066 1.147.663a2.543 2.543 0 0 1-1.147 1.986c-.63.365-1.147.067-1.147-.662a2.547 2.547 0 0 1 1.147-1.987zM288.481 130.838c.631-.364 1.147-.066 1.147.663a2.543 2.543 0 0 1-1.147 1.986c-.63.365-1.147.067-1.147-.662a2.547 2.547 0 0 1 1.147-1.987zM280.96 135.207c.631-.364 1.148-.066 1.148.662a2.544 2.544 0 0 1-1.148 1.987c-.63.364-1.147.066-1.147-.662a2.545 2.545 0 0 1 1.147-1.987zM326.087 129.916c.631-.364 1.147-.066 1.147.663a2.545 2.545 0 0 1-1.147 1.986c-.631.365-1.147.067-1.147-.662a2.546 2.546 0 0 1 1.147-1.987zM318.566 134.176c.63-.365 1.147-.067 1.147.662a2.546 2.546 0 0 1-1.147 1.987c-.631.364-1.147.066-1.147-.662a2.544 2.544 0 0 1 1.147-1.987zM311.045 138.435c.631-.364 1.147-.066 1.147.662a2.544 2.544 0 0 1-1.147 1.987c-.631.364-1.147.067-1.147-.662a2.543 2.543 0 0 1 1.147-1.987zM303.523 142.854c.631-.364 1.147-.066 1.147.663a2.543 2.543 0 0 1-1.147 1.986c-.631.365-1.147.067-1.147-.662a2.544 2.544 0 0 1 1.147-1.987zM296.002 147.14c.631-.365 1.147-.067 1.147.662a2.545 2.545 0 0 1-1.147 1.987c-.63.364-1.147.066-1.147-.663a2.546 2.546 0 0 1 1.147-1.986zM288.481 151.453c.631-.365 1.147-.067 1.147.662a2.544 2.544 0 0 1-1.147 1.987c-.63.364-1.147.066-1.147-.663a2.545 2.545 0 0 1 1.147-1.986zM280.96 155.818c.631-.364 1.148-.066 1.148.662a2.544 2.544 0 0 1-1.148 1.987c-.63.365-1.147.067-1.147-.662a2.546 2.546 0 0 1 1.147-1.987zM326.087 140.223c.631-.365 1.147-.067 1.147.662a2.547 2.547 0 0 1-1.147 1.987c-.631.364-1.147.066-1.147-.663a2.544 2.544 0 0 1 1.147-1.986zM318.566 144.481c.63-.364 1.147-.067 1.147.662a2.545 2.545 0 0 1-1.147 1.987c-.631.364-1.147.066-1.147-.662a2.544 2.544 0 0 1 1.147-1.987zM311.045 148.74c.631-.364 1.147-.066 1.147.662a2.544 2.544 0 0 1-1.147 1.987c-.631.365-1.147.067-1.147-.662a2.544 2.544 0 0 1 1.147-1.987zM303.523 153.16c.631-.365 1.147-.067 1.147.662a2.545 2.545 0 0 1-1.147 1.987c-.631.364-1.147.066-1.147-.663a2.544 2.544 0 0 1 1.147-1.986zM296.002 157.446c.631-.365 1.147-.067 1.147.662a2.545 2.545 0 0 1-1.147 1.987c-.63.364-1.147.066-1.147-.663a2.546 2.546 0 0 1 1.147-1.986zM288.481 161.758c.631-.365 1.147-.067 1.147.662a2.544 2.544 0 0 1-1.147 1.987c-.63.364-1.147.066-1.147-.663a2.545 2.545 0 0 1 1.147-1.986zM280.96 166.123c.631-.364 1.148-.066 1.148.663a2.544 2.544 0 0 1-1.148 1.986c-.63.365-1.147.067-1.147-.662a2.546 2.546 0 0 1 1.147-1.987zM326.087 150.528c.631-.365 1.147-.067 1.147.662a2.546 2.546 0 0 1-1.147 1.987c-.631.364-1.147.066-1.147-.663a2.543 2.543 0 0 1 1.147-1.986zM318.566 154.787c.63-.364 1.147-.066 1.147.662a2.545 2.545 0 0 1-1.147 1.987c-.631.364-1.147.066-1.147-.662a2.544 2.544 0 0 1 1.147-1.987zM311.045 159.046c.631-.364 1.147-.066 1.147.663a2.543 2.543 0 0 1-1.147 1.986c-.631.365-1.147.067-1.147-.662a2.544 2.544 0 0 1 1.147-1.987zM303.523 163.46c.631-.365 1.147-.067 1.147.662a2.545 2.545 0 0 1-1.147 1.987c-.631.364-1.147.066-1.147-.663a2.543 2.543 0 0 1 1.147-1.986zM296.002 167.751c.631-.365 1.147-.067 1.147.662a2.544 2.544 0 0 1-1.147 1.987c-.63.364-1.147.066-1.147-.662a2.546 2.546 0 0 1 1.147-1.987zM288.481 172.063c.631-.364 1.147-.067 1.147.662a2.543 2.543 0 0 1-1.147 1.987c-.63.364-1.147.066-1.147-.662a2.545 2.545 0 0 1 1.147-1.987zM280.96 176.429c.631-.364 1.148-.066 1.148.663a2.546 2.546 0 0 1-1.148 1.987c-.63.364-1.147.066-1.147-.663a2.547 2.547 0 0 1 1.147-1.987zM326.087 98.86c.631-.365 1.147-.067 1.147.662a2.547 2.547 0 0 1-1.147 1.987c-.631.364-1.147.066-1.147-.663a2.544 2.544 0 0 1 1.147-1.986zM318.566 103.119c.63-.364 1.147-.067 1.147.662a2.545 2.545 0 0 1-1.147 1.987c-.631.364-1.147.066-1.147-.662a2.544 2.544 0 0 1 1.147-1.987zM311.045 107.377c.631-.364 1.147-.066 1.147.662a2.544 2.544 0 0 1-1.147 1.987c-.631.365-1.147.067-1.147-.662a2.544 2.544 0 0 1 1.147-1.987zM303.523 111.796c.631-.364 1.147-.066 1.147.663a2.546 2.546 0 0 1-1.147 1.987c-.631.364-1.147.066-1.147-.663a2.545 2.545 0 0 1 1.147-1.987zM296.002 116.083c.631-.365 1.147-.067 1.147.662a2.545 2.545 0 0 1-1.147 1.987c-.63.364-1.147.066-1.147-.663a2.546 2.546 0 0 1 1.147-1.986zM288.481 120.395c.631-.365 1.147-.067 1.147.662a2.544 2.544 0 0 1-1.147 1.987c-.63.364-1.147.066-1.147-.663a2.545 2.545 0 0 1 1.147-1.986zM280.96 124.76c.631-.364 1.148-.066 1.148.663a2.544 2.544 0 0 1-1.148 1.986c-.63.365-1.147.067-1.147-.662a2.546 2.546 0 0 1 1.147-1.987zM326.087 88.413c.631-.364 1.147-.066 1.147.662a2.545 2.545 0 0 1-1.147 1.987c-.631.364-1.147.066-1.147-.662a2.544 2.544 0 0 1 1.147-1.987zM318.566 92.672c.63-.364 1.147-.066 1.147.663a2.545 2.545 0 0 1-1.147 1.986c-.631.365-1.147.067-1.147-.662a2.545 2.545 0 0 1 1.147-1.987zM311.045 96.932c.631-.365 1.147-.067 1.147.662a2.545 2.545 0 0 1-1.147 1.987c-.631.364-1.147.066-1.147-.663a2.543 2.543 0 0 1 1.147-1.986zM303.523 101.351c.631-.364 1.147-.066 1.147.662a2.544 2.544 0 0 1-1.147 1.987c-.631.364-1.147.066-1.147-.662a2.543 2.543 0 0 1 1.147-1.987zM296.002 105.636c.631-.364 1.147-.066 1.147.662a2.544 2.544 0 0 1-1.147 1.987c-.63.364-1.147.067-1.147-.662a2.545 2.545 0 0 1 1.147-1.987zM288.481 109.949c.631-.364 1.147-.066 1.147.662a2.543 2.543 0 0 1-1.147 1.987c-.63.365-1.147.067-1.147-.662a2.545 2.545 0 0 1 1.147-1.987zM280.96 114.315c.631-.365 1.148-.067 1.148.662a2.545 2.545 0 0 1-1.148 1.987c-.63.364-1.147.066-1.147-.662a2.545 2.545 0 0 1 1.147-1.987zM326.087 77.967c.631-.364 1.147-.066 1.147.663a2.545 2.545 0 0 1-1.147 1.986c-.631.365-1.147.067-1.147-.662a2.545 2.545 0 0 1 1.147-1.987zM318.566 82.227c.63-.365 1.147-.067 1.147.662a2.546 2.546 0 0 1-1.147 1.987c-.631.364-1.147.066-1.147-.663a2.544 2.544 0 0 1 1.147-1.986zM311.045 86.486c.631-.364 1.147-.066 1.147.662a2.544 2.544 0 0 1-1.147 1.987c-.631.364-1.147.066-1.147-.662a2.543 2.543 0 0 1 1.147-1.987zM303.523 90.904c.631-.364 1.147-.066 1.147.663a2.543 2.543 0 0 1-1.147 1.986c-.631.365-1.147.067-1.147-.662a2.544 2.544 0 0 1 1.147-1.987zM296.002 95.195c.631-.365 1.147-.067 1.147.662a2.546 2.546 0 0 1-1.147 1.987c-.63.364-1.147.066-1.147-.663a2.546 2.546 0 0 1 1.147-1.986zM288.481 99.502c.631-.364 1.147-.066 1.147.663a2.546 2.546 0 0 1-1.147 1.987c-.63.364-1.147.066-1.147-.663a2.547 2.547 0 0 1 1.147-1.987zM280.96 103.869c.631-.364 1.148-.066 1.148.662a2.544 2.544 0 0 1-1.148 1.987c-.63.365-1.147.067-1.147-.662a2.546 2.546 0 0 1 1.147-1.987z" fill="#d6e2f2"/>
    <path d="m269.541 41.332-35.2 20.322a2.422 2.422 0 0 0 0 4.2l35.2 20.322a4.417 4.417 0 0 0 4.415 0l35.2-20.322a2.421 2.421 0 0 0 0-4.2l-35.2-20.322a4.417 4.417 0 0 0-4.415 0z" fill="#326ebd"/>
    <path d="m269.541 40.257-35.2 20.321a2.422 2.422 0 0 0 0 4.195l35.2 20.322a4.417 4.417 0 0 0 4.415 0l35.2-20.322a2.421 2.421 0 0 0 0-4.195l-35.2-20.321a4.414 4.414 0 0 0-4.415 0z" fill="#26538e"/>
    <path d="m1022.853 388.99 1.117.644 34.081-19.677a4.417 4.417 0 0 1 4.415 0l34.081 19.677 1.116-.644a2.421 2.421 0 0 0 0-4.2l-35.2-20.322a4.417 4.417 0 0 0-4.415 0l-35.2 20.322a2.422 2.422 0 0 0 .005 4.2z" fill="url(#j)" transform="translate(-788.51 -324.381)"/>
    <path d="m271.569 6.898 13.64 7.875-13.64 7.875-13.64-7.875z" fill="#fdab74"/>
    <path d="M285.209 14.773v39.545l-13.538 7.934v-39.6z" fill="#fc7318"/>
    <path d="M257.929 14.773v39.545l13.743 7.934v-39.6z" fill="#fd8f46"/>
    <path d="m288.865 34.385 13.64 7.875-13.64 7.875-13.64-7.875z" fill="#5b8bca"/>
    <path d="M302.505 42.261v22.114l-13.537 7.934V50.135z" fill="#26538e"/>
    <path d="M275.225 42.261v22.114l13.743 7.934V50.135z" fill="#326ebd"/>
    <path d="m254.584 29.021 13.64 7.875-13.64 7.875-13.64-7.875z" fill="#5b8bca"/>
    <path d="M268.224 36.896v27.478l-13.537 7.934V44.771z" fill="#26538e"/>
    <path d="M240.944 36.897v27.478l13.743 7.934V44.772z" fill="#326ebd"/>
    <path d="m271.672 48.569 13.64 7.875-13.64 7.875-13.64-7.875z" fill="#5b8bca"/>
    <path d="M285.312 56.444v18.092l-13.537 7.934V64.319z" fill="#26538e"/>
    <path d="M258.036 56.444v18.092l13.742 7.934V64.319zM338.698 171.907l-11.075 6.084v3.155l11.075-6.084zM338.698 177.942l-11.075 6.084v3.155l11.075-6.084zM333.165 187.02l-5.538 3.042v3.155l5.538-3.042z" fill="#326ebd"/>
    <path d="M224.271 192.553a1.2 1.2 0 0 1-.6-.162l-5.449-3.146a1.207 1.207 0 0 1 1.207-2.091l5.449 3.146a1.207 1.207 0 0 1-.6 2.253zM247.441 205.99a1.2 1.2 0 0 1-.6-.162l-19.051-11a1.207 1.207 0 0 1 1.207-2.091l19.052 11a1.207 1.207 0 0 1-.605 2.253zM224.271 199.586a1.2 1.2 0 0 1-.6-.162l-5.449-3.146a1.207 1.207 0 0 1 1.207-2.091l5.449 3.146a1.207 1.207 0 0 1-.6 2.252zM247.441 213.022a1.206 1.206 0 0 1-.6-.161l-19.051-11a1.207 1.207 0 0 1 1.207-2.09l19.052 11a1.207 1.207 0 0 1-.605 2.252zM224.271 213.653a1.2 1.2 0 0 1-.6-.162l-5.449-3.146a1.207 1.207 0 0 1 1.207-2.091l5.449 3.145a1.207 1.207 0 0 1-.6 2.253zM247.441 227.093a1.2 1.2 0 0 1-.6-.162l-19.051-11a1.207 1.207 0 0 1 1.207-2.091l19.052 11a1.207 1.207 0 0 1-.605 2.252zM224.271 220.687a1.2 1.2 0 0 1-.6-.162l-5.449-3.146a1.207 1.207 0 0 1 1.207-2.091l5.449 3.146a1.207 1.207 0 0 1-.6 2.253zM247.441 234.123a1.2 1.2 0 0 1-.6-.162l-19.051-11a1.207 1.207 0 0 1 1.207-2.091l19.052 11a1.207 1.207 0 0 1-.605 2.253z" fill="#6f9ad1"/>
    <path d="m997.155 772.455 76.022 44.467 101.6-56.807-76.022-44.73z" fill="url(#k)" opacity=".4" transform="translate(-780.841 -434.47)"/>
    <path d="M285.987 295.705v-2.535l135.254-79.449c2.54-1.466 5.527-2.361 8.066-.9l71.011 40.767a3.9 3.9 0 0 1 1.564 1.677l.4.815a6.564 6.564 0 0 1-2.623 8.553l-132.76 76.621a10.245 10.245 0 0 1-9.233 0l-67.949-39.11a7.437 7.437 0 0 1-3.73-6.439z" fill="#e0e9f5"/>
    <path d="m499.655 262.654-132.76 76.621a10.245 10.245 0 0 1-9.233 0l-67.949-39.11a7.438 7.438 0 0 1-3.727-6.446v1.985a7.437 7.437 0 0 0 3.727 6.446l67.949 39.11a10.245 10.245 0 0 0 9.233 0l132.76-76.621a6.565 6.565 0 0 0 3.207-6.679 6.554 6.554 0 0 1-3.207 4.694z" fill="#98b7de"/>
    <path d="M287.888 295.113c-2.539-1.466-2.539-3.865 0-5.331l132.975-76.774a10.245 10.245 0 0 1 9.234 0l69.771 40.282c2.54 1.466 2.54 3.865 0 5.331l-132.972 76.776a10.241 10.241 0 0 1-9.234 0z" fill="#fff"/>
    <path d="M362.278 335.907a8.8 8.8 0 0 1-4.322-1.021l-69.772-40.282a2.248 2.248 0 0 1 0-4.312l132.975-76.774a9.663 9.663 0 0 1 8.645 0l69.771 40.282a2.248 2.248 0 0 1 0 4.312L366.6 334.886a8.8 8.8 0 0 1-4.322 1.021z" fill="#326ebd"/>
    <path d="M1200.745 755.39a9.663 9.663 0 0 0 8.645 0l132.975-76.774a2.248 2.248 0 0 0 0-4.312l-6.087-3.514-141.331 81.252z" fill="url(#l)" transform="translate(-842.788 -420.504)"/>
    <path d="M1242.686 616.79a9.663 9.663 0 0 0-8.645 0l-132.975 76.774a2.248 2.248 0 0 0 0 4.312l6.172 3.563a7.052 7.052 0 0 0 1.03-.49l138.872-81.587z" fill="url(#m)" transform="translate(-812.881 -403.271)"/>
    <path d="m311.047 293.249 56.2-32.447a7.722 7.722 0 0 1 7.723 0l40.173 23.092a3.016 3.016 0 0 1 0 5.224l-56.2 32.448a7.725 7.725 0 0 1-7.723 0l-40.173-23.092a3.016 3.016 0 0 1 0-5.225z" fill="#326ebd"/>
    <path d="m311.045 294.984 56.2-32.447a7.722 7.722 0 0 1 7.723 0l40.172 23.092a2.965 2.965 0 0 1 1.378 1.745 3.005 3.005 0 0 0-1.378-3.48l-40.172-23.092a7.722 7.722 0 0 0-7.723 0l-56.2 32.447a3.006 3.006 0 0 0-1.378 3.48 2.967 2.967 0 0 1 1.378-1.745z" fill="#447bc3"/>
    <g fill="#326ebd" opacity=".4">
        <path d="m311.047 293.249 56.2-32.447a7.722 7.722 0 0 1 7.723 0l40.173 23.092a3.016 3.016 0 0 1 0 5.224l-56.2 32.448a7.725 7.725 0 0 1-7.723 0l-40.173-23.092a3.016 3.016 0 0 1 0-5.225z"/>
        <path d="m311.047 292.659 56.2-32.447a7.722 7.722 0 0 1 7.723 0l40.173 23.092a3.016 3.016 0 0 1 0 5.224l-56.2 32.447a7.722 7.722 0 0 1-7.723 0l-40.173-23.091a3.016 3.016 0 0 1 0-5.225z" opacity=".976"/>
        <path d="m311.047 292.071 56.2-32.447a7.722 7.722 0 0 1 7.723 0l40.173 23.091a3.016 3.016 0 0 1 0 5.225l-56.2 32.447a7.722 7.722 0 0 1-7.723 0l-40.173-23.091a3.016 3.016 0 0 1 0-5.225z" opacity=".951"/>
        <path d="m311.047 291.479 56.2-32.447a7.722 7.722 0 0 1 7.723 0l40.173 23.092a3.016 3.016 0 0 1 0 5.224l-56.2 32.447a7.725 7.725 0 0 1-7.723 0l-40.173-23.087a3.016 3.016 0 0 1 0-5.229z" opacity=".927"/>
        <path d="m311.047 290.895 56.2-32.448a7.726 7.726 0 0 1 7.723 0l40.173 23.092a3.016 3.016 0 0 1 0 5.225l-56.2 32.447a7.722 7.722 0 0 1-7.723 0l-40.173-23.092a3.016 3.016 0 0 1 0-5.224z" opacity=".902"/>
        <path d="m311.047 290.307 56.2-32.447a7.722 7.722 0 0 1 7.723 0l40.173 23.092a3.016 3.016 0 0 1 0 5.224l-56.2 32.447a7.722 7.722 0 0 1-7.723 0l-40.173-23.092a3.016 3.016 0 0 1 0-5.224z" opacity=".878"/>
        <path d="m311.047 289.719 56.2-32.447a7.722 7.722 0 0 1 7.723 0l40.173 23.092a3.016 3.016 0 0 1 0 5.225l-56.2 32.447a7.722 7.722 0 0 1-7.723 0l-40.173-23.093a3.016 3.016 0 0 1 0-5.224z" opacity=".854"/>
        <path d="m311.047 289.13 56.2-32.447a7.724 7.724 0 0 1 7.723 0l40.173 23.092a3.016 3.016 0 0 1 0 5.224l-56.2 32.447a7.722 7.722 0 0 1-7.723 0l-40.173-23.094a3.016 3.016 0 0 1 0-5.222z" opacity=".829"/>
        <path d="m311.047 288.541 56.2-32.447a7.722 7.722 0 0 1 7.723 0l40.173 23.092a3.016 3.016 0 0 1 0 5.225l-56.2 32.447a7.725 7.725 0 0 1-7.723 0l-40.173-23.092a3.016 3.016 0 0 1 0-5.225z" opacity=".805"/>
        <path d="m311.047 287.954 56.2-32.447a7.722 7.722 0 0 1 7.723 0l40.173 23.092a3.016 3.016 0 0 1 0 5.224l-56.2 32.447a7.722 7.722 0 0 1-7.723 0l-40.173-23.092a3.016 3.016 0 0 1 0-5.224z" opacity=".78"/>
        <path d="m311.047 287.365 56.2-32.447a7.722 7.722 0 0 1 7.723 0l40.173 23.091a3.016 3.016 0 0 1 0 5.225l-56.2 32.447a7.722 7.722 0 0 1-7.723 0l-40.173-23.091a3.016 3.016 0 0 1 0-5.225z" opacity=".756"/>
        <path d="m311.047 286.776 56.2-32.447a7.722 7.722 0 0 1 7.723 0l40.177 23.096a3.016 3.016 0 0 1 0 5.224l-56.2 32.447a7.722 7.722 0 0 1-7.723 0l-40.177-23.095a3.016 3.016 0 0 1 0-5.225z" opacity=".732"/>
        <path d="m311.047 286.193 56.2-32.448a7.726 7.726 0 0 1 7.723 0l40.173 23.092a3.016 3.016 0 0 1 0 5.224l-56.2 32.447a7.722 7.722 0 0 1-7.723 0l-40.173-23.096a3.016 3.016 0 0 1 0-5.219z" opacity=".707"/>
        <path d="m311.047 285.6 56.2-32.447a7.722 7.722 0 0 1 7.723 0l40.173 23.092a3.016 3.016 0 0 1 0 5.224l-56.2 32.448a7.726 7.726 0 0 1-7.723 0l-40.173-23.092a3.016 3.016 0 0 1 0-5.225z" opacity=".683"/>
        <path d="m311.047 285.011 56.2-32.447a7.722 7.722 0 0 1 7.723 0l40.173 23.092a3.016 3.016 0 0 1 0 5.224l-56.196 32.45a7.722 7.722 0 0 1-7.723 0l-40.177-23.094a3.016 3.016 0 0 1 0-5.225z" opacity=".659"/>
        <path d="m311.047 284.423 56.2-32.447a7.722 7.722 0 0 1 7.723 0l40.173 23.091a3.016 3.016 0 0 1 0 5.224l-56.2 32.447a7.722 7.722 0 0 1-7.723 0l-40.173-23.09a3.016 3.016 0 0 1 0-5.225z" opacity=".634"/>
        <path d="m311.047 283.836 56.2-32.447a7.722 7.722 0 0 1 7.723 0l40.173 23.092a3.016 3.016 0 0 1 0 5.225l-56.2 32.447a7.726 7.726 0 0 1-7.723 0l-40.173-23.093a3.016 3.016 0 0 1 0-5.224z" opacity=".61"/>
        <path d="m311.047 283.247 56.2-32.448a7.726 7.726 0 0 1 7.723 0l40.173 23.092a3.016 3.016 0 0 1 0 5.224l-56.2 32.447a7.722 7.722 0 0 1-7.723 0l-40.173-23.091a3.016 3.016 0 0 1 0-5.224z" opacity=".585"/>
        <path d="m311.047 282.658 56.2-32.447a7.722 7.722 0 0 1 7.723 0l40.177 23.092a3.016 3.016 0 0 1 0 5.224l-56.2 32.447a7.722 7.722 0 0 1-7.723 0l-40.177-23.091a3.016 3.016 0 0 1 0-5.225z" opacity=".561"/>
        <path d="m311.047 282.072 56.2-32.447a7.722 7.722 0 0 1 7.723 0l40.173 23.092a3.016 3.016 0 0 1 0 5.225l-56.2 32.447a7.722 7.722 0 0 1-7.723 0l-40.173-23.094a3.016 3.016 0 0 1 0-5.223z" opacity=".537"/>
        <path d="m311.047 281.483 56.2-32.447a7.722 7.722 0 0 1 7.723 0l40.173 23.091a3.016 3.016 0 0 1 0 5.224l-56.2 32.447a7.722 7.722 0 0 1-7.723 0l-40.173-23.091a3.016 3.016 0 0 1 0-5.224z" opacity=".512"/>
        <path d="m311.047 280.893 56.2-32.447a7.722 7.722 0 0 1 7.723 0l40.177 23.092a3.016 3.016 0 0 1 0 5.224l-56.2 32.446a7.726 7.726 0 0 1-7.723 0l-40.177-23.09a3.016 3.016 0 0 1 0-5.225z" opacity=".488"/>
        <path d="m311.047 280.305 56.2-32.447a7.725 7.725 0 0 1 7.723 0l40.173 23.092a3.016 3.016 0 0 1 0 5.225l-56.2 32.447a7.722 7.722 0 0 1-7.723 0l-40.173-23.093a3.016 3.016 0 0 1 0-5.224z" opacity=".463"/>
        <path d="m311.047 279.716 56.2-32.447a7.722 7.722 0 0 1 7.723 0l40.173 23.091a3.016 3.016 0 0 1 0 5.224l-56.2 32.448a7.722 7.722 0 0 1-7.723 0l-40.173-23.088a3.016 3.016 0 0 1 0-5.228z" opacity=".439"/>
        <path d="m311.047 279.129 56.2-32.447a7.722 7.722 0 0 1 7.723 0l40.177 23.091a3.016 3.016 0 0 1 0 5.224l-56.2 32.447a7.722 7.722 0 0 1-7.723 0l-40.177-23.091a3.016 3.016 0 0 1 0-5.224z" opacity=".415"/>
        <path d="m311.047 278.54 56.2-32.448a7.726 7.726 0 0 1 7.723 0l40.177 23.089a3.016 3.016 0 0 1 0 5.225l-56.2 32.447a7.722 7.722 0 0 1-7.723 0l-40.177-23.089a3.016 3.016 0 0 1 0-5.224z" opacity=".39"/>
        <path d="m311.047 277.949 56.2-32.447a7.722 7.722 0 0 1 7.723 0l40.173 23.092a3.016 3.016 0 0 1 0 5.224l-56.2 32.448a7.726 7.726 0 0 1-7.723 0l-40.173-23.09a3.016 3.016 0 0 1 0-5.227z" opacity=".366"/>
        <path d="m311.047 277.363 56.2-32.447a7.722 7.722 0 0 1 7.723 0l40.177 23.092a3.016 3.016 0 0 1 0 5.224l-56.2 32.447a7.722 7.722 0 0 1-7.723 0l-40.177-23.091a3.016 3.016 0 0 1 0-5.225z" opacity=".341"/>
        <path d="m311.047 276.775 56.2-32.447a7.722 7.722 0 0 1 7.723 0l40.173 23.091a3.016 3.016 0 0 1 0 5.224l-56.196 32.443a7.722 7.722 0 0 1-7.723 0L311.047 282a3.016 3.016 0 0 1 0-5.225z" opacity=".317"/>
        <path d="m311.047 276.186 56.2-32.447a7.722 7.722 0 0 1 7.723 0l40.173 23.092a3.016 3.016 0 0 1 0 5.225l-56.2 32.447a7.726 7.726 0 0 1-7.723 0l-40.173-23.092a3.016 3.016 0 0 1 0-5.225z" opacity=".293"/>
        <path d="m311.047 275.599 56.2-32.448a7.726 7.726 0 0 1 7.723 0l40.177 23.092a3.016 3.016 0 0 1 0 5.225l-56.2 32.447a7.722 7.722 0 0 1-7.723 0l-40.177-23.092a3.016 3.016 0 0 1 0-5.224z" opacity=".268"/>
        <path d="m311.047 275.01 56.2-32.447a7.722 7.722 0 0 1 7.723 0l40.173 23.092a3.016 3.016 0 0 1 0 5.224l-56.2 32.447a7.722 7.722 0 0 1-7.723 0l-40.173-23.091a3.016 3.016 0 0 1 0-5.225z" opacity=".244"/>
        <path d="m311.047 274.422 56.2-32.447a7.722 7.722 0 0 1 7.723 0l40.173 23.092a3.016 3.016 0 0 1 0 5.225l-56.2 32.447a7.722 7.722 0 0 1-7.723 0l-40.173-23.093a3.016 3.016 0 0 1 0-5.224z" opacity=".22"/>
        <path d="m311.047 273.834 56.2-32.447a7.722 7.722 0 0 1 7.723 0l40.177 23.09a3.016 3.016 0 0 1 0 5.224l-56.2 32.447a7.722 7.722 0 0 1-7.723 0l-40.177-23.09a3.016 3.016 0 0 1 0-5.224z" opacity=".195"/>
        <path d="m311.047 273.245 56.2-32.447a7.722 7.722 0 0 1 7.723 0l40.173 23.092a3.016 3.016 0 0 1 0 5.224l-56.2 32.447a7.726 7.726 0 0 1-7.723 0l-40.173-23.091a3.016 3.016 0 0 1 0-5.225z" opacity=".171"/>
        <path d="m311.047 272.657 56.2-32.447a7.726 7.726 0 0 1 7.723 0l40.173 23.092a3.016 3.016 0 0 1 0 5.225l-56.2 32.447a7.722 7.722 0 0 1-7.723 0l-40.173-23.093a3.016 3.016 0 0 1 0-5.224z" opacity=".146"/>
        <path d="m311.047 272.069 56.2-32.447a7.722 7.722 0 0 1 7.723 0l40.177 23.09a3.016 3.016 0 0 1 0 5.224l-56.2 32.447a7.722 7.722 0 0 1-7.723 0l-40.177-23.09a3.016 3.016 0 0 1 0-5.224z" opacity=".122"/>
        <path d="m311.047 271.48 56.2-32.447a7.722 7.722 0 0 1 7.723 0l40.173 23.092a3.016 3.016 0 0 1 0 5.224l-56.196 32.452a7.722 7.722 0 0 1-7.723 0l-40.177-23.1a3.016 3.016 0 0 1 0-5.221z" opacity=".098"/>
        <path d="m311.047 270.892 56.2-32.448a7.726 7.726 0 0 1 7.723 0l40.173 23.092a3.016 3.016 0 0 1 0 5.224l-56.2 32.447a7.722 7.722 0 0 1-7.723 0l-40.173-23.091a3.016 3.016 0 0 1 0-5.224z" opacity=".073"/>
        <path d="m311.047 270.304 56.2-32.447a7.722 7.722 0 0 1 7.723 0l40.173 23.092a3.016 3.016 0 0 1 0 5.224l-56.2 32.448a7.726 7.726 0 0 1-7.723 0l-40.173-23.093a3.016 3.016 0 0 1 0-5.224z" opacity=".049"/>
        <path d="m311.047 269.715 56.2-32.447a7.722 7.722 0 0 1 7.723 0l40.173 23.092a3.016 3.016 0 0 1 0 5.225l-56.2 32.447a7.722 7.722 0 0 1-7.723 0l-40.173-23.092a3.016 3.016 0 0 1 0-5.225z" opacity=".024"/>
    </g>
    <path d="m394.463 240.035 30.81-17.788 5.135 2.965L399.598 243z" fill="#fc7318"/>
    <path d="m410.436 249.212 30.81-17.788 3.429 2.051-30.81 17.788zM418.82 254.083l30.81-17.788 3.429 2.052-30.81 17.788zM427.203 258.956l30.81-17.788 3.428 2.051-30.81 17.788zM435.586 263.826l30.81-17.788 3.429 2.051-30.81 17.788zM443.97 268.697l16.687-9.743 3.429 2.052-16.687 9.743z" fill="#26538e"/>
    <path d="m311.047 269.122 56.2-32.447a7.724 7.724 0 0 1 7.723 0l40.177 23.091a3.016 3.016 0 0 1 0 5.225l-56.2 32.447a7.722 7.722 0 0 1-7.723 0l-40.177-23.091a3.016 3.016 0 0 1 0-5.225z" fill="#bbcfe9" opacity=".4"/>
    <path d="m415.147 262.832-56.2 32.443a7.722 7.722 0 0 1-7.723 0l-40.177-23.087a2.971 2.971 0 0 1-1.31-1.532 3.013 3.013 0 0 0 1.31 3.692l40.172 23.091a7.722 7.722 0 0 0 7.723 0l56.2-32.447a3.014 3.014 0 0 0 1.311-3.692 2.974 2.974 0 0 1-1.306 1.532z" fill="#bbcfe9" opacity=".4"/>
    <path d="m336.045 259.528 38.1 22.182.548-.311-38.259-22.089zM351.186 250.893l38.1 22.182.548-.311-38.259-22.089z" fill="#326ebd"/>
    <path d="M353.891 286.528a9.526 9.526 0 0 1 .712-8.31 8.1 8.1 0 0 1 3-3.038 23.429 23.429 0 0 1 5.286-1.834 17.473 17.473 0 0 0 4.692-1.991 15.89 15.89 0 0 0 6.129-7.286 18.594 18.594 0 0 0 1.163-4.738c.219-1.652.342-3.318.633-4.961a11.969 11.969 0 0 1 1.576-4.464 7.477 7.477 0 0 1 .683-.9c.251-.284-.166-.7-.418-.418-2.249 2.544-2.527 6.077-2.89 9.3a24.969 24.969 0 0 1-.895 4.88 14.978 14.978 0 0 1-2.207 4.275 15.21 15.21 0 0 1-3.422 3.365 15.528 15.528 0 0 1-4.547 2.179 38.057 38.057 0 0 0-5.424 1.743 8.7 8.7 0 0 0-3.481 2.969 10.369 10.369 0 0 0-1.479 8.493 8.638 8.638 0 0 0 .375 1.035.3.3 0 0 0 .4.106.3.3 0 0 0 .106-.4z" fill="#feb423"/>
    <path d="M356.074 287.906a68.411 68.411 0 0 1-5.56-11.994c-.363-1.01-.72-2.027-1.016-3.059a12.136 12.136 0 0 1-.543-3.239 5.772 5.772 0 0 1 .735-2.974 6.5 6.5 0 0 1 1.9-2 12.845 12.845 0 0 1 5.383-2 32.109 32.109 0 0 1 5.942-.261c3.946.107 8.048.529 11.886-.644a13.942 13.942 0 0 0 5.122-2.911 31.2 31.2 0 0 0 4.112-4.582q.444-.581.878-1.17a.3.3 0 0 0-.106-.4.3.3 0 0 0-.4.106c-2.379 3.207-5.033 6.625-8.886 8.093-3.759 1.431-7.895 1.078-11.829.945-3.915-.133-8.175-.152-11.68 1.859a6.824 6.824 0 0 0-3.512 4.5c-.422 2.194.262 4.418.958 6.479a72.908 72.908 0 0 0 5.338 12.207q.378.677.775 1.341a.3.3 0 0 0 .51-.3z" fill="#fc7318"/>
    <path d="m320.903 268.162 38.1 22.182.548-.311-38.262-22.089zM366.328 242.258l38.1 22.182.548-.311-38.259-22.089z" fill="#326ebd"/>
    <path d="M275.938 321.095v-2.936l-156.621-92c-2.94-1.7-6.4-2.734-9.34-1.036L27.75 272.329a4.523 4.523 0 0 0-1.812 1.942l-.459.944a7.6 7.6 0 0 0 3.037 9.9l153.731 88.724a11.864 11.864 0 0 0 10.692 0l78.682-45.288a8.613 8.613 0 0 0 4.317-7.456z" fill="#e0e9f5"/>
    <path d="m271.622 325.955-78.682 45.287a11.859 11.859 0 0 1-10.692 0L28.517 282.519a7.589 7.589 0 0 1-3.688-5.285 7.6 7.6 0 0 0 3.688 7.888l153.731 88.724a11.864 11.864 0 0 0 10.692 0l78.682-45.288a8.613 8.613 0 0 0 4.316-7.464v-2.6a8.615 8.615 0 0 1-4.316 7.461z" fill="#98b7de"/>
    <path d="M273.733 320.41c2.94-1.7 2.94-4.475 0-6.172l-153.98-88.9a11.858 11.858 0 0 0-10.691 0L28.27 271.983c-2.941 1.7-2.941 4.476 0 6.173l153.979 88.9a11.859 11.859 0 0 0 10.692 0z" fill="#fff"/>
    <path d="M187.594 367.645a10.184 10.184 0 0 0 5-1.182l80.793-46.646a2.6 2.6 0 0 0 0-4.992l-153.98-88.9a11.188 11.188 0 0 0-10.01 0l-80.791 46.647a2.6 2.6 0 0 0 0 4.992l153.979 88.9a10.189 10.189 0 0 0 5.009 1.181z" fill="#326ebd"/>
    <path d="m69.643 264.937 37.123 21.433-5.606 3.242-37.123-21.433zM172.128 265.72l91.293 52.35-10.971 5.947-91.293-52.35zM153.099 276.436l92.727 53.627-5.606 3.241-92.727-53.631zM137.85 285.241l32.06 18.009-5.606 3.242-32.06-18.009zM122.6 294.043l44.507 25.756-5.606 3.244-44.507-25.756zM107.351 302.851l57.788 33.087-5.606 3.242-57.788-33.087zM55.853 273.136l37.123 21.433-5.606 3.242-37.123-21.433z" fill="#26538e"/>
    <path d="m112.17 237.997-31.907 18.421a3.126 3.126 0 0 0 .03 5.431l31.939 17.982a6.555 6.555 0 0 0 6.431 0l31.939-17.982a3.126 3.126 0 0 0 .03-5.431l-31.907-18.421a6.553 6.553 0 0 0-6.555 0z" fill="#26538e" opacity=".3"/>
    <path d="m112.17 230.299-33.469 15.1v5.548a3.634 3.634 0 0 0 1.836 3.158l31.695 18.031a6.555 6.555 0 0 0 6.431 0l31.6-17.809a3.634 3.634 0 0 0 1.849-3.165v-5.109l-33.39-15.75a6.553 6.553 0 0 0-6.552-.004z" fill="#c1d4eb"/>
    <path d="m112.17 224.236-31.907 18.421a3.126 3.126 0 0 0 .03 5.431l31.939 17.982a6.552 6.552 0 0 0 6.431 0l31.939-17.982a3.126 3.126 0 0 0 .03-5.431l-31.907-18.421a6.557 6.557 0 0 0-6.555 0z" fill="#f1f4fc"/>
    <path d="m112.067 184.79-6.938-4.006-6.768 4.006 6.768 4.006z" fill="#fec34f"/>
    <path d="M112.062 184.795v55.66l-6.938 3.789V188.8z" fill="#feb423"/>
    <path d="M98.361 184.795v55.444l6.768 4.005V188.8z" fill="#febb39"/>
    <path d="m123.158 210.233-6.938-4.005-6.767 4.005 6.767 4.006z" fill="#5b8bca"/>
    <path d="M123.158 210.232v36.575l-6.938 3.789v-36.358z" fill="#26538e"/>
    <path d="M109.453 210.232v36.358l6.767 4.006v-36.358z" fill="#326ebd"/>
    <path d="m134.25 203.635-6.938-4.006-6.768 4.006 6.768 4.005z" fill="#fd8f46"/>
    <path d="M134.246 203.635v49.526l-6.938 3.789v-49.31z" fill="#fc7318"/>
    <path d="M120.544 203.635v49.309l6.768 4.006v-49.31z" fill="#fc812f"/>
    <path d="M167.962 343.132h2.3a14.993 14.993 0 0 1 3.7-2.92c8-4.621 21.1-4.621 29.1 0a15 15 0 0 1 3.7 2.92h2.3v5.439c.019 3.059-1.98 6.123-6 8.444-8 4.62-21.1 4.62-29.1 0-4.021-2.321-6.019-5.385-6-8.444z" fill="#26538e" opacity=".3"/>
    <path d="M924.226 789.389h2.5a16.262 16.262 0 0 1 4.013-3.167c8.679-5.01 22.88-5.01 31.559 0a16.266 16.266 0 0 1 4.014 3.167h2.5v5.9c.021 3.318-2.147 6.64-6.507 9.157-8.678 5.01-22.88 5.01-31.559 0-4.36-2.517-6.527-5.839-6.507-9.157z" fill="url(#n)" transform="translate(-758 -455.478)"/>
    <path d="M204.294 324.801c-8.678-5.011-22.879-5.011-31.559 0s-8.678 13.209 0 18.22 22.88 5.011 31.559 0 8.678-13.21 0-18.22z" fill="#fff"/>
    <path d="M166.231 334.03v-5.118h1.731a15.158 15.158 0 0 1 4.773-4.111c6.132-3.54 2.015 9.978 0 18.22v5.941c-4.25-2.454-6.413-5.673-6.5-8.907z" fill="#bd5612"/>
    <path d="M172.735 319.802c-8.678 5.01-8.678 13.209 0 18.22l15.78-7.444z" fill="#fd8f46"/>
    <path d="M188.515 330.578v5l-15.78 7.444v-5z" fill="#fc7318"/>
    <path d="M962.072 756.923c-8.336-4.812-21.976-4.812-30.311 0s-8.335 12.688 0 17.5 21.976 4.812 30.311 0 8.335-12.687 0-17.5z" fill="url(#o)" transform="translate(-758.402 -446.349)"/>
    <path d="M172.732 304.588c8.679-5.011 22.88-5.011 31.559 0l-15.779 10.776z" fill="#fec34f"/>
    <path d="M204.294 304.588v10l-15.779 10.776v-10z" fill="#febb39"/>
    <path d="m188.515 315.364-15.783-10.776v10l15.78 10.776z" fill="#feb423"/>
    <path d="m410.024 301.127-.511-1.788a4.308 4.308 0 0 0 .211-.427l-1.379-9.59q-.149-1.042-.237-2.089l6.477-1.071a2.178 2.178 0 0 0 1.626-3.054l-7.135-15.623a3.12 3.12 0 0 0-.6-.87 6.985 6.985 0 0 0-4.076-2.75c-.115-.418-.333-.7-.564-.731a2.264 2.264 0 0 0-1.751.311v-.4a4.788 4.788 0 0 0 1.59-1.594 9.511 9.511 0 0 0 .808-1.928 10.1 10.1 0 0 0 .714-3.341 8.875 8.875 0 0 0-.289-1.889 5.434 5.434 0 0 0-1.4-2.905 5.823 5.823 0 0 0-1.553-.893l-2.895-1.288a13.579 13.579 0 0 0-2.375-.883 6.8 6.8 0 0 0-3.734.185 3.65 3.65 0 0 0-1.116.575c-2.07 1.657-.978 4.066.891 5.11a1.662 1.662 0 0 0-.231.839v4.583a1.414 1.414 0 0 0-.36.685 3.889 3.889 0 0 0 .016 2.572 2.707 2.707 0 0 0 2.138 1.452 3.945 3.945 0 0 0 1.714-.2v2.407c-.167-.044-.262-.074-.262-.074l-2.288 2.086c.089.012.175.021.262.032a9.847 9.847 0 0 0-.517.659 3.361 3.361 0 0 0-1.516 1.808l-3.521 10.008a.852.852 0 0 1-1.286.419l-4.413-3.038a1.024 1.024 0 0 0-1.1.093l-2.158-1.332-.387-.359-.325-2.382a.705.705 0 1 0-1.393.19l.084.619a.832.832 0 0 0-.065-.062l-.4-.312-.116-.107c-.032-.023-.067-.041-.1-.062l-3.922-3.071a.705.705 0 1 0-.874 1.1l2.234 1.749a2.81 2.81 0 0 0-.526 4.915l3.973 2.089 1.24.914a1.085 1.085 0 0 0 .288 1.163l9.712 6.686a2.177 2.177 0 0 0 3.289-1.071l.472-1.341c0 .76-.008 1.521-.038 2.28q-.065 1.623-.225 3.24l-.922 9.359c.084.049.171.1.26.141l.082.041c.065.032.13.064.2.095l.065.03-.411 23 .137 1 16.834-9.715.218-8.576a13.369 13.369 0 0 0 1.436-7.619z" fill="#19375f" opacity=".3"/>
    <path d="M422.169 283.11a2.178 2.178 0 0 1-1.626 3.053l-11.632 1.923c-1.7.282-2.721-5.883-1.019-6.163l5.286-.874a.852.852 0 0 0 .636-1.194l-4.408-9.65a3.215 3.215 0 0 1 1.216-4.121 3.125 3.125 0 0 1 4.412 1.4z" fill="#eff4fe"/>
    <path d="m400.932 354.708-2.187-.236a10.65 10.65 0 0 1-2.672-.645l-1.482-.256a1.276 1.276 0 0 0-.744-.052c-.54.124-.942.264-1 .815l-.109 1.015a2.527 2.527 0 0 0 .67 1.843c1.137 1.1 3.138 2.683 5.016 2.959l1.9.251a2.236 2.236 0 0 0 1.133.709l2.018.586a2.326 2.326 0 0 0 2.828-2.167l.071-1.595a3.5 3.5 0 0 0-.633-2.168l-.251-.356-3.046-.846z" fill="#326ebd"/>
    <path d="M406.297 358.591a2.327 2.327 0 0 1-2.828 2.167l-2.018-.586a2.235 2.235 0 0 1-1.133-.708l-1.9-.251c-1.878-.276-3.88-1.858-5.016-2.96a2.52 2.52 0 0 1-.632-1.259l-.038.353a2.527 2.527 0 0 0 .67 1.843c1.137 1.1 3.138 2.683 5.016 2.959l1.9.251a2.236 2.236 0 0 0 1.133.709l2.018.586a2.326 2.326 0 0 0 2.828-2.167l.071-1.595a3.481 3.481 0 0 0-.019-.509z" fill="#f6f8fb"/>
    <path d="M415.041 347.679a21.419 21.419 0 0 0-4.151-1.937 1.731 1.731 0 0 0-2.216 1.516 4.322 4.322 0 0 0 3.307 4.884s-.064 2.359 1.849 3h2.158a1.457 1.457 0 0 0 1.457-1.457v-3.339z" fill="#326ebd"/>
    <path d="M415.988 354.201h-2.158c-1.913-.637-1.849-3-1.849-3a4.146 4.146 0 0 1-3.306-3.948 4.322 4.322 0 0 0 3.307 4.884s-.064 2.359 1.849 3h2.158a1.457 1.457 0 0 0 1.457-1.457v-.937a1.457 1.457 0 0 1-1.458 1.458z" fill="#f6f8fb"/>
    <path d="M402.439 353.027h3.046v3.241a1.523 1.523 0 0 1-1.523 1.523 1.523 1.523 0 0 1-1.523-1.523v-3.241zM415.515 351.64a1.558 1.558 0 0 1-1.558-1.558v-3.206h3.046v3.274a1.488 1.488 0 0 1-1.488 1.49z" fill="#e7ad99"/>
    <path d="M415.047 348.156c-1.773.017-2.1.857-2.392-.966l-6.233-25.791.625-25.146a3.749 3.749 0 0 1 3.749-3.749c2.07 0 4.061 2.615 4.061 4.685l1.126 3.937a13.37 13.37 0 0 1-1.438 7.621l-.312 12.338 3.014 24.91c.33 2.043.5 1.782-1.539 2.111a4.5 4.5 0 0 1-.661.05z" fill="#fc7318"/>
    <path d="M407.102 295.626a3.763 3.763 0 0 0-.056.626l-.625 25.146 5.01 20.73-.674-17.755 1.177-22.811c.076-1.854-2.754-5.202-4.832-5.936z" fill="#8e410e" opacity=".3"/>
    <path d="M403.422 354.042c-1.879 0-2.256.422-2.448-1.5l-3.619-26.5.424-23.744c.084-2.069 2.525-6.9 4.578-6.821 2.069.085 11.685 1.677 11.6 3.746l-2.348 8.953-1.837 1.362a2.631 2.631 0 0 0-1.027 1.676l-2.325 13.78-.486 26.8c.205 2.059-.047 2.023-2.1 2.229z" fill="#fc7318"/>
    <path d="M403.002 301.153a43.068 43.068 0 0 0-1.613-5.394c-1.783 1.058-3.54 4.787-3.611 6.536l-.424 23.743 3.619 26.5c.163 1.629.459 1.578 1.688 1.523 1.908-11.253-4.393-22.888-2.736-34.3.911-6.267 4.209-12.373 3.077-18.608z" fill="#fd8f46" opacity=".3"/>
    <path d="m397.162 275.358.685 5.06a55.758 55.758 0 0 1 .237 12.954l-.922 9.359c4.63 2.673 16.425 1.1 18.518-3.819l-1.378-9.59a35.73 35.73 0 0 1 .092-10.771l1.286-7.976a6.888 6.888 0 0 0-10.332-5.965l-2.972 1.716a10.43 10.43 0 0 0-5.214 9.032z" fill="#eff4fe"/>
    <path d="M401.959 255.728h6.087v12.117h-6.087z" fill="#e7ad99"/>
    <path d="M401.697 266.46s6.245 2 6.349-3.013a2.264 2.264 0 0 1 1.751-.311c1.2.168 2.078 7-10.389 5.41z" fill="#fc7318"/>
    <path d="M398.453 255.033v6.93a2.125 2.125 0 0 0 2.617 2.067l3.644-.867a3.31 3.31 0 0 0 2.364-2.144l1.931-5.61a.843.843 0 0 0-.146-.81 6.228 6.228 0 0 0-6.718-1.973l-2.534.817a1.669 1.669 0 0 0-1.158 1.59z" fill="#e7ad99"/>
    <path d="M410.869 254.294a5.436 5.436 0 0 0-1.4-2.905 5.842 5.842 0 0 0-1.553-.893l-2.9-1.288a13.579 13.579 0 0 0-2.375-.883 6.8 6.8 0 0 0-3.733.185 3.659 3.659 0 0 0-1.116.575c-2.157 1.727-.88 4.273 1.133 5.236a5.029 5.029 0 0 1 1.251.688 2.928 2.928 0 0 1 .758 2.2c0 .81-.055 1.69-.13 2.5a1.4 1.4 0 0 1-.189.672c-.837 1.218-1.176-.876-1.82-.9-.39-.016-.606.439-.7.817a3.884 3.884 0 0 0 .015 2.572 2.708 2.708 0 0 0 2.138 1.452 4.437 4.437 0 0 0 2.594-.575 1.538 1.538 0 0 0 .756-.7.886.886 0 0 0-.228-.974c-.3-.268-.527-.311-.712-.679a6.764 6.764 0 0 1-.447-1.341 3.744 3.744 0 0 1-.131-.777 2.913 2.913 0 0 1 .658-1.819c.381-.505 1.281-.673 1.6-.126a1.359 1.359 0 0 1 .139.617c.1 1.744-.373 3.1.589 4.7a2.075 2.075 0 0 0 .712.781 1.94 1.94 0 0 0 1.685-.074 4.794 4.794 0 0 0 2.174-1.9 9.555 9.555 0 0 0 .809-1.928 10.139 10.139 0 0 0 .714-3.341 8.853 8.853 0 0 0-.291-1.892z" fill="#151617"/>
    <path d="M402.065 285.67a17.685 17.685 0 0 0-1.408-14.7 3.8 3.8 0 0 0-1.572-1.644 10.424 10.424 0 0 0-1.923 6.034l.685 5.06a55.758 55.758 0 0 1 .237 12.954l-.922 9.359a12.861 12.861 0 0 0 6.072 1.291 15.088 15.088 0 0 0-.231-2.869c-.692-3.813-3.026-7.455-2.368-11.275a25.961 25.961 0 0 1 1.43-4.21z" fill="#5b8bca" opacity=".5"/>
    <path d="M383.415 277.263a.705.705 0 1 0 1.393-.19l-.357-2.619a.705.705 0 1 0-1.393.19z" fill="#e7ad99"/>
    <path d="M382.203 276.302a.705.705 0 1 0 .874-1.1l-4.537-3.553a.705.705 0 1 0-.874 1.1z" fill="#e7ad99"/>
    <path d="m393.446 288.941-10.1-7.439-3.973-2.089a2.812 2.812 0 0 1 3.189-4.632l2.6 2.414 8.744 5.4 4.071-11.569a2.812 2.812 0 0 1 5.3 1.866l-5.14 14.608a3.056 3.056 0 0 1-4.691 1.441z" fill="#e7ad99"/>
    <path d="M397.876 289.193a2.178 2.178 0 0 1-3.29 1.072l-9.712-6.686c-1.421-.978 2.122-6.124 3.543-5.146l4.413 3.038a.853.853 0 0 0 1.287-.419l3.521-10.008a3.215 3.215 0 0 1 3.735-2.124 3.125 3.125 0 0 1 2.2 4.071z" fill="#eff4fe"/>
    <path d="m87.202 375.921-1.274 3.083.827 1.642h3.621l2.609-1.131-1.3-3.349-1.312-.586z" fill="#e7ad99"/>
    <path d="M86.256 379.103a.415.415 0 0 0-.68.214 13.8 13.8 0 0 0-.47 3.374v.365a1.531 1.531 0 0 0 1.528 1.541h.181a4.988 4.988 0 0 0 1.981-.409c1.81-.783 5.744-2.453 7.379-2.9a3.317 3.317 0 0 0 1.082-.52c.993-.714 2.86-2.187 2.86-3.162a4.377 4.377 0 0 0 .1-1.01 1.6 1.6 0 0 0-1.87-1.518l-6.659 1.084s1.022 2.252-.24 2.887c0 0-4.264 1.377-4.437.717z" fill="#326ebd"/>
    <path d="M100.118 376.673c0 .975-1.867 2.448-2.86 3.162a3.317 3.317 0 0 1-1.082.52c-1.635.442-5.569 2.113-7.379 2.9a4.987 4.987 0 0 1-1.981.409h-.181a1.531 1.531 0 0 1-1.531-1.54v-.01a3.855 3.855 0 0 0 0 .58v.365a1.531 1.531 0 0 0 1.531 1.54h.181a4.988 4.988 0 0 0 1.981-.409c1.81-.783 5.745-2.453 7.379-2.9a3.317 3.317 0 0 0 1.082-.52c.993-.714 2.86-2.187 2.86-3.162a4.378 4.378 0 0 0 .1-1.01 1.5 1.5 0 0 0-.036-.291c-.03.221-.064.366-.064.366z" fill="#eaedff"/>
    <path d="m92.58 378.678-.447 2.64v2.085h3.621l3.986-1.029-1.8-3-2.187-1.034z" fill="#e7ad99"/>
    <path d="M92.509 382.31a.414.414 0 0 0-.679.214 13.792 13.792 0 0 0-.47 3.374v.365a1.53 1.53 0 0 0 1.53 1.541h.182a4.977 4.977 0 0 0 1.982-.409c1.81-.782 5.744-2.453 7.379-2.895a3.33 3.33 0 0 0 1.082-.52c.992-.714 2.86-2.187 2.86-3.162a4.381 4.381 0 0 0 .1-1.01 1.6 1.6 0 0 0-1.87-1.517l-6.659 1.084s1.021 2.252-.24 2.887c0 0-4.264 1.377-4.437.717z" fill="#326ebd"/>
    <path d="M106.371 379.88c0 .975-1.867 2.448-2.86 3.162a3.32 3.32 0 0 1-1.082.52c-1.635.442-5.569 2.113-7.379 2.895a4.976 4.976 0 0 1-1.982.41h-.182a1.53 1.53 0 0 1-1.53-1.54v-.01a3.848 3.848 0 0 0 0 .58v.365a1.53 1.53 0 0 0 1.53 1.541h.182a4.978 4.978 0 0 0 1.982-.409c1.81-.782 5.744-2.453 7.379-2.895a3.33 3.33 0 0 0 1.082-.52c.992-.714 2.86-2.187 2.86-3.162a4.381 4.381 0 0 0 .1-1.01 1.494 1.494 0 0 0-.036-.291c-.03.219-.064.364-.064.364z" fill="#eaedff"/>
    <path d="M88.803 377.176h-.082c-1.481-.045-2.049-.685-2-2.166l-.216-12.213a26.789 26.789 0 0 1 .889-7.337l.243-2.619-.508-9.408a15.82 15.82 0 0 0-.942-4.917l-.252-.7c-.782-2.155-.508-4.428-.513-6.72l.339-5.689a2.455 2.455 0 0 1 2.174-2.861c1.475-.093 8.406 1.051 8.488 2.529l-1.841 27.891-3.4 22.2c-.041 1.457-.935 2.01-2.379 2.01z" fill="#fc7318"/>
    <path d="M96.283 326.501a3.862 3.862 0 0 0-1.331-.207c-1.479.082-1.056 2.916-.974 4.4l-5.047 4.687c1.4 3.706 1.793 10.449 1.843 12.128l.283 9.408-.693 2.618a26.8 26.8 0 0 0-.889 7.338l.181 10.22a1.8 1.8 0 0 0 1.527-1.918l2.51-22.265z" fill="#bd5612" opacity=".3"/>
    <path d="M94.419 381.249h-.082c-1.481-.044-2.049-.685-2-2.165l-.216-12.213a26.779 26.779 0 0 1 .89-7.338l.693-2.618-.283-9.409a15.823 15.823 0 0 0-.941-4.917l-.253-.7c-.782-2.154-3.423-4.085-3.409-7.893l-.012-5.724c-.082-1.479 3.271-1.571 4.75-1.652s8.025 1.035 8.108 2.514l.777 4.281a62.827 62.827 0 0 1-1.281 15.612l-1.094 8.295-3.26 21.92c-.05 1.454-.943 2.007-2.387 2.007z" fill="#fc7318"/>
    <path d="M101.658 329.135c-.049-.878-2.379-1.632-4.572-2.081a24.911 24.911 0 0 0-.63 2.852c-.86 5.7 1.165 11.378 2 17.078a41.535 41.535 0 0 1-.418 14.351c-.6 2.9-1.5 5.722-2.139 8.611a47.411 47.411 0 0 0-1.006 7.088 14.69 14.69 0 0 0 .237 4.159 1.817 1.817 0 0 0 1.674-1.951l3.26-21.92 1.094-8.295a62.824 62.824 0 0 0 1.281-15.612z" fill="#fd8f46" opacity=".3"/>
    <path d="m86.264 327.677-.518 1.332a1.508 1.508 0 0 0 .451.428l.138.09a11.685 11.685 0 0 0 2.1.94l.271.1c.367.126.757.252 1.166.376q.306.093.626.184c.745.212 1.536.413 2.345.6q.52.119 1.047.229.35.073.7.14.527.1 1.047.19c.81.137 1.6.248 2.348.326.427.045.837.078 1.227.1a17.107 17.107 0 0 0 1.354.022c.165-.006.323-.016.473-.029a3.444 3.444 0 0 0 1.389-.348l-.346-1.652c-2.886.964-13.248-1.351-15.818-3.028z" fill="#02126a"/>
    <path d="M96.308 311.95a7.126 7.126 0 0 1-2.078-.313 6.907 6.907 0 0 1-4.885-5.785l-.967-7.492a2.4 2.4 0 1 1 4.761-.614l.966 7.492a2.183 2.183 0 0 0 3.8 1.162l6.945-7.9a2.4 2.4 0 1 1 3.6 3.17l-6.945 7.9a6.9 6.9 0 0 1-5.197 2.38z" fill="#e7ad99"/>
    <path d="M109.292 299.574a2.9 2.9 0 1 1-2.9-2.9 2.9 2.9 0 0 1 2.9 2.9z" fill="#e7ad99"/>
    <path d="m121.777 299.727-11.227 11.437a2.061 2.061 0 0 1-1.99.552l-9.588-2.479a.569.569 0 0 1-.264-.949l11.294-11.544a2.064 2.064 0 0 1 2.018-.548l9.919 2.2s.143 1.02-.162 1.331z" fill="#e6eef7"/>
    <path d="m121.777 298.796-11.227 11.437a2.063 2.063 0 0 1-1.99.552l-9.588-2.48a.569.569 0 0 1-.264-.949l11.294-11.543a2.065 2.065 0 0 1 2.018-.549l9.5 2.584a.569.569 0 0 1 .257.948z" fill="#fff"/>
    <path d="m121.074 299.054-10.542 10.74a1.937 1.937 0 0 1-1.869.519l-9-2.329a.535.535 0 0 1-.249-.891l10.607-10.841a1.939 1.939 0 0 1 1.894-.515l8.921 2.426a.535.535 0 0 1 .238.891z" fill="#fff"/>
    <path d="m114.959 298.106-3.9 3.971a.716.716 0 0 1-.691.192l-3.328-.861a.2.2 0 0 1-.092-.33l3.922-4.008a.717.717 0 0 1 .7-.19l3.3.9a.2.2 0 0 1 .089.326z" fill="#fc7318"/>
    <path d="m110.629 302.841-.7.706-4.06-1.05.726-.751zM113.75 305.115l-.7.706-8.258-2.169.726-.751zM112.728 306.408l-.7.706-8.258-2.169.726-.752zM111.706 307.701l-.7.706-8.258-2.169.726-.751z" fill="#326ebd"/>
    <path d="m119.633 299.289-3.9 3.97a.717.717 0 0 1-.692.192l-3.328-.861a.2.2 0 0 1-.092-.33l3.922-4.008a.718.718 0 0 1 .7-.19l3.3.9a.2.2 0 0 1 .09.327z" fill="#feb423"/>
    <path d="m104.388 300.252.523-.595a1.1 1.1 0 0 1 1.647 1.448l-.635.722z" fill="#e7ad99"/>
    <path d="m93.535 295.698 1.405.811c4.594 2.652 7.424 5.775 7.424 11.08l.6 1.419a8.316 8.316 0 0 1 .282 5.693l-.881 2.845v17.761c-4.206 2.943-15.524-1.159-17.784-5.768l.676-4.086a32.24 32.24 0 0 0 .38-6.546l-.671-18.048a5.716 5.716 0 0 1 8.569-5.161z" fill="#eff4fe"/>
    <path d="m93.531 295.698 1.405.811q.59.341 1.141.694a13.744 13.744 0 0 1 5.157 5.274 11.184 11.184 0 0 1 1.126 5.113v13.139l1.124 14.448c-4.206 2.944-17.146.121-19.406-4.488l1.174-5.234a32.249 32.249 0 0 0 .38-6.546l-.671-18.048a5.716 5.716 0 0 1 8.57-5.163z" fill="#eff4fe"/>
    <path d="M93.368 295.782a3.9 3.9 0 0 1-3.895-3.9v-9.2h11.341v5.65a7.446 7.446 0 0 1-7.446 7.45z" fill="#e7ad99"/>
    <path d="M93.262 299.061a2.371 2.371 0 0 1-2.371-2.371v-6.3a.814.814 0 0 1 .814-.815h3.114a.814.814 0 0 1 .814.815v6.3a2.371 2.371 0 0 1-2.371 2.371z" fill="#e7ad99"/>
    <path d="M102.36 315.825a2.121 2.121 0 0 1-1.353-1.745l-.967-7.491a2.4 2.4 0 0 0-2.687-2.073c-1.315.17-1.379 1.549-1.21 2.865l.1 7.314a6.907 6.907 0 0 0 4.885 5.785 7.181 7.181 0 0 0 1.228.249z" fill="#326ebd" opacity=".3"/>
    <path d="M103.21 319.477a7.1 7.1 0 0 1-2.078-.313 6.905 6.905 0 0 1-4.885-5.787l-.967-7.492a2.4 2.4 0 1 1 4.76-.614l.967 7.491a2.183 2.183 0 0 0 3.8 1.162l6.946-7.9a2.4 2.4 0 1 1 3.6 3.169l-6.945 7.9a6.9 6.9 0 0 1-5.198 2.384z" fill="#e7ad99"/>
    <path d="M100.256 304.93a2.672 2.672 0 1 0-5.3.684l1.076 8.341 5.3-.684z" fill="#eff4fe"/>
    <path d="m110.612 307.329 1.145-1.3a2.4 2.4 0 1 1 3.6 3.169l-1.39 1.582z" fill="#e7ad99"/>
    <path d="M116.19 307.098a2.9 2.9 0 1 1-2.9-2.9 2.9 2.9 0 0 1 2.9 2.9z" fill="#e7ad99"/>
    <path d="M101.627 280.391c-1.959-2.32-6.542-1.63-9.082-.817-3.509 1.124-5.893 3.424-5.733 7.389a9.485 9.485 0 0 0 2.569 6.113 3.616 3.616 0 0 0 5.665-.7c.614-.863.973-1.976 1.881-2.52.716-.429 1.751-.5 2.086-1.266a2.453 2.453 0 0 0-.291-1.818c-.233-.587-.336-1.372.17-1.75s1.23-.164 1.737-.577a12.237 12.237 0 0 0 1.1-1.221 1.94 1.94 0 0 0-.102-2.833z" fill="#feb423"/>
    <path d="m90.405 287.847-.464-.2a4.7 4.7 0 0 0-2.979-3.094 5.8 5.8 0 0 0-6.68 2.826c-1.067 2.151.18 5.8 1.163 7.845 1.822 3.788 5.67 7.209 3.587 11.751-.207.453-.463.993-.2 1.413.641 1.009 2.115-2.764 2.294-3.126.922-1.868 1.819-3.665 1.591-5.823a44.368 44.368 0 0 0-1.107-4.3 4.278 4.278 0 0 1 .957-4.126c.591-.51 1.41-.776 1.83-1.435a1.655 1.655 0 0 0 .008-1.731z" fill="#feb423"/>
    <path d="M90.446 288.21c-.529.656-1.268-.145-1.965.332-1.32.906-2.589 2.616-2.439 4.21s.824 3.426.814 5.028c-.013 1.979-.334 6.047-1.328 7.639.092 1.012.019.426-.5 1.553-.207.453-.463.993-.2 1.413.641 1.009 2.115-2.764 2.294-3.126.922-1.868 1.819-3.665 1.591-5.823a44.369 44.369 0 0 0-1.106-4.3 4.278 4.278 0 0 1 .957-4.126c.591-.51 1.41-.776 1.83-1.435a1.646 1.646 0 0 0 .114-1.479c-.02.037-.033.08-.062.114z" fill="#bf871a" opacity=".3"/>
    <path d="m90.851 288.544-.119.069c-.367.209-.44-.172-.617-.556a10.862 10.862 0 0 0-.894-1.569c-.239-.348-.53-.605-.163-.814l.119-.068a.706.706 0 0 1 .923.19 10.843 10.843 0 0 1 1.059 1.857.706.706 0 0 1-.308.891z" fill="#fc7318"/>
    <path d="M435.138 61.989a1.984 1.984 0 0 0 1.937-.054l8.421-2.163a1.7 1.7 0 0 0 1.278-1.624l.177-12.347a1.987 1.987 0 1 0-3.928-.6l-.468 10.218a1.58 1.58 0 0 1-1.172 1.454l-5.7 1.509a1.943 1.943 0 0 0-1.609 1.788 1.909 1.909 0 0 0 .162.858 1.988 1.988 0 0 0 .902.961z" fill="#eff4fe"/>
    <path d="m451.562 110.441.556 1.619.109 1.37a1.616 1.616 0 0 1-.717 1.473l-1.249.829a1.824 1.824 0 0 1-.861.3l-.641.05-.694.482-.281.46a2.154 2.154 0 0 1-.988.858 20.582 20.582 0 0 1-5.4 1.556s-1.65-.182-1.591-1.239l5.054-4.44 1.663-2.918z" fill="#212121"/>
    <path d="m452.335 68.233-.9 23.93.131 18.159a1.608 1.608 0 0 1-1.516 1.617l-2.01.116a1.608 1.608 0 0 1-1.7-1.493l-2.451-44.145z" fill="#fc7318"/>
    <path d="M447.746 85.034c-.111-2.058-.095-4.125-.078-6.185l.078-9.238c0-.505-1.04-2.1-.773-2.53 0 0 3.334.681 4.2.8a.891.891 0 0 1 .936 1.087c.291 7.7-.379 15.495-.674 23.2l.131 18.159a1.608 1.608 0 0 1-1.516 1.617l-.622.036c-.188-.874-.38-1.748-.5-2.634-.646-4.807.908-9.672.549-14.509-.186-2.508-1.267-4.931-1.547-7.483a51.987 51.987 0 0 1-.184-2.32z" fill="#bd5612"/>
    <path d="m443.893 66.416 12.024 2.056-1.98-24.957-10.044.637z" fill="#eff4fe"/>
    <path d="M457.937 68.473c-.856 1.231-14.044-2.056-14.044-2.056v-1.4s10.429 2.968 14.044 1.619c.341-.132.211 1.535 0 1.837z" fill="#326ebd"/>
    <path d="m449.541 67.632-2.568-.553v-1.445l2.568.577z" fill="#fff"/>
    <path d="m448.017 46.179 1.247-.39 3.314.118 1.358-2.392-.215-4.436h-5.7z" fill="#e7ad99"/>
    <path d="m449.576 48.517.782-1.171-1.094-1.557h-.192l-.814 1.039.422 1.377zM449.576 48.517l-.273 15.8-1.55 1.874-1.02-2.347 1.948-15.635z" fill="#fc7318"/>
    <path d="M453.89 42.56s-1.937 3-4.626 3.23l1.354 1.929s3.778-2.183 3.407-4.661z" fill="#5b8bca"/>
    <path d="m456.439 44.969-2.4-1.453a5.229 5.229 0 0 1-.861 2.7l-.693 1.126a30.265 30.265 0 0 0-1.938 9.251l-.591 9.71 8.149.781c.981-1.513-.839-6.091-.711-7.158l2.025-9.777a5.984 5.984 0 0 0-2.98-5.18zM448.68 42.283a3.768 3.768 0 0 0-5.67 3.253V64.76l2.581.874-.223-7.29a30.467 30.467 0 0 1 1.5-9.211l1.223-3.747z" fill="#eff4fe"/>
    <path d="m448.54 43.024 1.278-.468-1.49 1.593z" fill="#231f20" opacity=".3"/>
    <path d="M436.975 59.668a1.6 1.6 0 0 0-1.8-.883l-1.848.419a1.268 1.268 0 0 0-1.015.337l-3.168.524c-.949.242 1.365 3.064 2.567 2.721l2.584-.455 1.648-.442a1.6 1.6 0 0 0 1.035-2.222z" fill="#6e8fe4"/>
    <path d="M436.98 59.705a1.762 1.762 0 0 0-1.987-.973l.321-.107a1.763 1.763 0 0 1 .846 3.422l-.081.022a1.762 1.762 0 0 0 .901-2.364z" fill="#becaf7"/>
    <rect fill="#6e8fe4" height="1.022" rx=".511" transform="rotate(133.894 204.754 123.619)" width="2.728"/>
    <path d="M447.282 65.646a1.985 1.985 0 0 0 1.937-.054l8.421-2.163a1.7 1.7 0 0 0 1.277-1.624l.176-12.347a1.987 1.987 0 1 0-3.929-.6l-.468 10.218a1.579 1.579 0 0 1-1.172 1.454l-5.7 1.51a1.943 1.943 0 0 0-1.609 1.788 1.912 1.912 0 0 0 .162.858 1.989 1.989 0 0 0 .905.96z" fill="#eff4fe"/>
    <path d="M449.125 63.358a1.763 1.763 0 0 0-1.987-.973l.321-.106a1.763 1.763 0 0 1 .846 3.422l-.081.022a1.762 1.762 0 0 0 .901-2.365z" fill="#becaf7"/>
    <path d="m449.264 45.79-1.605 1.657s-2.533-3.273-.105-4.817c.282-.179 1.153-.134.985.4-.473 1.497.027 2.649.725 2.76z" fill="#5b8bca"/>
    <path d="M446.517 34.761v7.023a1.063 1.063 0 0 0 .533.922l.016.009a2.347 2.347 0 0 0 1.84.215l2.938-.875a1.976 1.976 0 0 0 1.31-1.268l1.492-4.476a1.448 1.448 0 0 0-.187-1.288l-1.1-1.571a2.541 2.541 0 0 0-2.545-1.042l-2.765.511a1.872 1.872 0 0 0-1.532 1.84z" fill="#e7ad99"/>
    <path d="m453.729 41.236.014-.018c.018.041.033.083.053.124zM445.907 32.962a3.606 3.606 0 0 1 1.611-1.038 11.721 11.721 0 0 1 2.956-1.359 5.334 5.334 0 0 1 1.449.014 4.872 4.872 0 0 1 3.141 1.263 4.069 4.069 0 0 1 .828 3.1c-.1 1.1-.431 2.159-.593 3.249a5.316 5.316 0 0 1-.225 1.111 4.235 4.235 0 0 1-.674 1.07l-.658.844a2.954 2.954 0 0 1-.03-2.271 3.1 3.1 0 0 0 .279-.775.62.62 0 0 0-.348-.679.711.711 0 0 0-.621.172 1.857 1.857 0 0 0-.707 1.229l-.617-.026a6.7 6.7 0 0 0 .055-2.087 2.262 2.262 0 0 0-1.144-1.664 3.727 3.727 0 0 0-2.25-.015 2.643 2.643 0 0 1-2.194-.3 1.45 1.45 0 0 1-.258-1.838z" fill="#191c3c"/>
    <path d="M451.547 34.225a2.5 2.5 0 0 1 .554-.093 5.993 5.993 0 0 0 1.944-.7 1.359 1.359 0 0 1 .9-.217.9.9 0 0 1 .609.692c.051.211.042 1.62-.411.967a.5.5 0 0 0-.216-.213c-.2-.073-.387.158-.439.367a.283.283 0 0 1-.047.117.187.187 0 0 1-.238.012c-.161-.1-.215-.318-.374-.42a.471.471 0 0 0-.606.182 1.37 1.37 0 0 0-.171.672.539.539 0 0 0-.807-.361 1.036 1.036 0 0 0-.327.629 1.773 1.773 0 0 1-.28-.7.723.723 0 0 0-.468-.551.555.555 0 0 1 .377-.383zM448.149 33.772c.058-.047.143-.013.209.02a2.425 2.425 0 0 0 2.587-.321.2.2 0 0 0 .077-.1.223.223 0 0 0-.03-.143l-.324-.7a1.2 1.2 0 0 0 .887.287l.8.034a.765.765 0 0 0-.053-.643 1.541 1.541 0 0 1 1.119.337 1.511 1.511 0 0 0-.36-1 3.425 3.425 0 0 1 1.124.227c.273.123.864.4.775.771-.077.323-.643.4-.907.5-.438.165-.88.323-1.328.458a9.854 9.854 0 0 0-1.168.388 7.042 7.042 0 0 1-1.633.72 2.608 2.608 0 0 1-1.245-.147c-.272-.092-.58-.272-.576-.558a.151.151 0 0 1 .046-.13z" fill="#474963"/>
    <path d="m457.164 111.656.556 1.62.108 1.371a1.613 1.613 0 0 1-.716 1.472l-1.249.83a1.818 1.818 0 0 1-.861.3l-.641.051-.694.481-.282.461a2.143 2.143 0 0 1-.988.857 20.541 20.541 0 0 1-5.4 1.556s-1.65-.182-1.591-1.24l5.055-4.439 1.663-2.917z" fill="#212121"/>
    <path d="m457.937 68.472-.9 24.906.131 18.158a1.608 1.608 0 0 1-1.515 1.617l-2.011.116a1.608 1.608 0 0 1-1.7-1.493l-1.032-18.593-2.234-16.1-1.948-10.052z" fill="#fc7318"/>
    <path d="m423.777 46.541 16.7 9.639a4.028 4.028 0 0 1 1.032.853l1.274 1.474a6.962 6.962 0 0 1 1.694 4.546l.035 47.558a21.883 21.883 0 0 1-10.8 18.868l-14.479 8.506a4.253 4.253 0 0 1-2.014.584 2.2 2.2 0 0 0-1.78 1.014l-.027.042a4.768 4.768 0 0 1-1.6 1.548l-.32.188a3.276 3.276 0 0 1-1.911.442l-.24-.019a1.99 1.99 0 0 0-1.977 1.192l-.078.181a3.028 3.028 0 0 1-1.243 1.405l-.995.584-18.733-10.816 1.819-1.05a3.816 3.816 0 0 0 1.141-1.011 2.37 2.37 0 0 1 1.939-.944 1.058 1.058 0 0 0 .552-.142l.969-.559a5.084 5.084 0 0 0 1.25-1.017l.292-.328a2.369 2.369 0 0 1 1.49-.775 3.627 3.627 0 0 0 1.389-.46l15.667-9.029a21.882 21.882 0 0 0 10.956-18.959v-43.6a15.412 15.412 0 0 0-1.479-6.588l-1.253-2.65a.523.523 0 0 1 .73-.677z" fill="#eff4fe"/>
    <path d="M444.473 63.054a6.962 6.962 0 0 0-1.694-4.546l-1.274-1.474a4.028 4.028 0 0 0-1.032-.853l-16.7-9.639a.523.523 0 0 0-.273-.071l16.616 9.593a4.022 4.022 0 0 1 1.031.852l1.274 1.475a6.96 6.96 0 0 1 1.695 4.546l.035 47.558a21.884 21.884 0 0 1-10.8 18.868l-14.478 8.506a4.252 4.252 0 0 1-2.015.584 2.2 2.2 0 0 0-1.779 1.014l-.027.042a4.766 4.766 0 0 1-1.6 1.548l-.32.188a3.278 3.278 0 0 1-1.911.442l-.239-.019a1.989 1.989 0 0 0-1.977 1.192l-.078.181a3.022 3.022 0 0 1-1.243 1.405l-.92.54.279.161.995-.585a3.026 3.026 0 0 0 1.243-1.405l.078-.181a1.989 1.989 0 0 1 1.977-1.192l.24.019a3.277 3.277 0 0 0 1.911-.442l.32-.188a4.768 4.768 0 0 0 1.6-1.548l.027-.042a2.2 2.2 0 0 1 1.779-1.014 4.253 4.253 0 0 0 2.015-.584l14.478-8.506a21.883 21.883 0 0 0 10.8-18.868z" fill="#326ebd"/>
    <path d="M449.118 63.321a1.6 1.6 0 0 0-1.8-.883l-1.847.419a1.266 1.266 0 0 0-1.014.337l-3.169.525c-.949.242 1.365 3.063 2.567 2.72l2.584-.455 1.648-.442a1.6 1.6 0 0 0 1.035-2.222z" fill="#e7ad99"/>
    <path d="m444.508 63.525 1.755.8a.394.394 0 0 0 .52-.2l.1-.215a.393.393 0 0 0-.2-.52l-2.173-.975z" fill="#e7ad99"/>
    <path d="M442.12 69.193a.355.355 0 0 1-.168-.043l-6.737-3.66a.352.352 0 1 1 .336-.619l6.737 3.66a.353.353 0 0 1-.168.663zM440.169 63.716a.347.347 0 0 1-.168-.043l-4.281-2.29a.352.352 0 0 1 .337-.619l4.281 2.29a.353.353 0 0 1-.168.663zM442.12 74.208a.354.354 0 0 1-.168-.043l-6.737-3.66a.353.353 0 1 1 .336-.62l6.737 3.66a.352.352 0 0 1-.168.662zM442.117 79.222a.357.357 0 0 1-.176-.047l-15.266-8.814a.353.353 0 0 1 .353-.611l15.266 8.814a.353.353 0 0 1-.177.658zM433.01 78.98a.359.359 0 0 1-.177-.047l-6.16-3.557a.353.353 0 0 1 .353-.611l6.161 3.557a.353.353 0 0 1-.177.658zM442.117 99.281a.351.351 0 0 1-.176-.047l-15.266-8.814a.353.353 0 0 1 .353-.611l15.266 8.814a.353.353 0 0 1-.177.658zM442.117 104.296a.35.35 0 0 1-.176-.047l-15.266-8.814a.352.352 0 1 1 .353-.61l15.266 8.813a.353.353 0 0 1-.177.658zM435.38 105.425a.349.349 0 0 1-.176-.047l-8.529-4.924a.353.353 0 0 1 .353-.611l8.529 4.924a.353.353 0 0 1-.177.658zM434.164 114.471a.349.349 0 0 1-.176-.047l-8.524-4.926a.353.353 0 0 1 .353-.611l8.529 4.924a.353.353 0 0 1-.176.658zM441.31 113.86a.349.349 0 0 1-.18-.049l-14.461-8.6a.353.353 0 0 1 .361-.606l14.46 8.6a.352.352 0 0 1-.18.655zM438.236 122.067a.35.35 0 0 1-.176-.047l-14.621-8.442a.353.353 0 1 1 .352-.611l14.621 8.441a.353.353 0 0 1-.176.658zM428.815 131.349a.349.349 0 0 1-.176-.047l-15.264-8.814a.353.353 0 1 1 .352-.611l15.266 8.814a.353.353 0 0 1-.176.658zM424.042 133.54a.35.35 0 0 1-.177-.047l-15.266-8.814a.353.353 0 1 1 .352-.611l15.266 8.814a.353.353 0 0 1-.177.658zM419.545 136.095a.349.349 0 0 1-.176-.047l-15.266-8.813a.353.353 0 1 1 .352-.611l15.266 8.813a.353.353 0 0 1-.177.658zM414.902 138.652a.346.346 0 0 1-.176-.047l-15.266-8.814a.353.353 0 0 1 .353-.611l15.266 8.814a.353.353 0 0 1-.176.658zM410.663 141.208a.356.356 0 0 1-.176-.047l-15.266-8.814a.353.353 0 0 1 .353-.611l15.266 8.814a.353.353 0 0 1-.177.658z" fill="#adc5e5"/>
    <path d="M426.849 56.642v10.1l7.23 4.177v-10.1z" fill="#fec7a3"/>
    <path d="M434.486 87.024v-5.869c-2.8-1.614-5.082-.293-5.082 2.935a11.276 11.276 0 0 0 5.082 8.8c2.784 1.607 5.062.3 5.082-2.893z" fill="#ffe1a7"/>
    <path d="m421.527 116.408 14.089 8.2-5.871 4.255-14.835-8.636z" fill="#fec7a3"/>
    <path d="m73.804 132.062 9.727 9.176 3 4.172a1.924 1.924 0 0 0 2.785-2.655l-3.468-2.856-7.915-9.082 2.126-12a1.924 1.924 0 0 0-3.788-.671z" fill="#e7ad99"/>
    <path d="M74.894 125.699a2.245 2.245 0 0 0 4.306-.4l1.17-6.422a2.244 2.244 0 0 0-4.416-.8l-1.17 6.422a2.236 2.236 0 0 0 .11 1.2z" fill="#2e5266"/>
    <path d="m76.933 183.493-.14 2.012a1.617 1.617 0 0 0 .9 1.448l2.835 1.909a5.84 5.84 0 0 0 3.192.58l1.1-.111a.684.684 0 0 0 .514-.324.957.957 0 0 0-.157-1.194l-5.353-4.321z" fill="#326ebd"/>
    <path d="M78.376 184.936a1.443 1.443 0 0 1-1.442-1.443v-2.965h2.885v2.965a1.443 1.443 0 0 1-1.443 1.443z" fill="#e7ad99"/>
    <path d="M78.965 182.853c1.179 0 1.212-.624 1.282-1.817l2.407-18.994-1.473-23.426c-.041-.3-.5-2.564-1.2-2.73-1.309-.311-1.177 1.9-1.657 1.609-1.83-1.124-3.444.933-3.224 2.56l-.486 3.391a16.528 16.528 0 0 0 .5 7L77.1 162.51l-.22 4.773a7.975 7.975 0 0 0-.05.9l-.3 12.759c-.072 1.237.344 1.783 1.582 1.856.043.004.809.055.853.055z" fill="#fc7318"/>
    <path d="m74.612 143.446.486-3.391c-.219-1.627 1.395-3.684 3.224-2.56.48.3.348-1.92 1.657-1.609.322.077.747.6 1.116 1.175-.127.361-.226.633-.42.514-1.918-1.179-3.611.979-3.381 2.685l-.51 3.558c-1.374 2.836-.173 4.957.525 7.338l2.083 12.652-.817 5.461a8.272 8.272 0 0 0-.053.948l.277 12.626-.691-.044c-1.238-.073-1.654-.619-1.582-1.856l.3-12.759a7.975 7.975 0 0 1 .05-.9l.22-4.773-1.985-12.064a16.517 16.517 0 0 1-.499-7.001z" fill="#bd5612" opacity=".3"/>
    <path d="m73.611 186.013 2.42 6.435v.317a1.372 1.372 0 0 1-1.372 1.372h-1.407a1.977 1.977 0 0 1-1.1-.332l-1.127-.751a2.393 2.393 0 0 1-1.066-1.992l.765-5.048 2.7.47z" fill="#326ebd"/>
    <path d="M72.168 187.455a1.443 1.443 0 0 1-1.442-1.443v-2.965h2.885v2.965a1.443 1.443 0 0 1-1.443 1.443z" fill="#e7ad99"/>
    <path d="M72.874 184.295c1.179 0 1.212-.624 1.282-1.817l2.039-21.671.579-20.193c-.115-.856-3.806-1.225-4.543-1.677-1.83-1.124-3.444.934-3.224 2.561l-.486 3.391a16.512 16.512 0 0 0 .5 7l2.3 9.273-.857 7.564a7.788 7.788 0 0 0-.051.9l.021 12.758c-.072 1.238.345 1.784 1.582 1.856.047.005.817.055.858.055z" fill="#fc7318"/>
    <path d="m76.956 116.062-5.792 3.391a4.1 4.1 0 0 0-2.029 3.54l-.613 21.9c8.253 2.271 13.262-4.475 13.262-4.475l-.628-11.077a3.584 3.584 0 0 1 .665-2.078l.144-.2a2.87 2.87 0 0 0 .357-3.21l-1.589-3a10.554 10.554 0 0 1-.383-2.823 2.265 2.265 0 0 0-3.394-1.968z" fill="#eff4fe"/>
    <path d="m79.949 131.025-10.043-5.463.691 16.939 10.036 5.3z" fill="#fff"/>
    <path d="m79.59 131.004-9.61-6.192-.566 16.944 9.615 6.03z" fill="#f1f2f2"/>
    <path d="m79.225 131.255-9.811-5.868v16.953l9.811 5.706z" fill="#fff"/>
    <path d="M79.904 141.929a1.925 1.925 0 0 0 1.878-1.514 2 2 0 0 0-1.45-2.288L77.658 138l-8.6-3.111 4.006-11.9a1.922 1.922 0 0 0-1.308-2.467 2 2 0 0 0-2.372 1.342l-4.665 13.86a1.769 1.769 0 0 0 1.188 2.265l10.707 2.435 2.753 1.433a1.937 1.937 0 0 0 .537.072z" fill="#e7ad99"/>
    <path d="m71.604 128.553 1.775-5.468a2.245 2.245 0 0 0-4.255-1.432l-1.775 5.468c-.398 1.178 3.935 2.373 4.255 1.432z" fill="#eff4fe"/>
    <path d="M86.069 140.987a.521.521 0 1 1-.1-1.019l2.2-.225a.521.521 0 1 1 .1 1.019zM78.189 138.979a.521.521 0 1 1-.76-.687l1.479-1.637a.521.521 0 1 1 .76.687z" fill="#e7ad99"/>
    <path d="M76.794 118.572a12.856 12.856 0 0 0 .405-4.47 6.732 6.732 0 0 1 1.106-4.286c1.052.525 2.933.979 3.081 2.295.246 2.194-1.319 4.761-1.534 6.972a11.553 11.553 0 0 0-3.058-.511z" fill="#326ebd"/>
    <path d="m80.263 111.354-.856 4.843a1.5 1.5 0 0 1-1.828 1.2l-3.814-.922v-5.931a1.261 1.261 0 0 1 1.411-1.253l3.9.463a1.374 1.374 0 0 1 1.187 1.6z" fill="#e7ad99"/>
    <path d="m73.058 118.667 4.59 5.251.722-7.815-1.306-1.672h-3.3z" fill="#e7ad99"/>
    <path d="M71.253 108.253a8.75 8.75 0 0 1 1.1-1.374 3.928 3.928 0 0 1 3.074-1.051c2.092.151 6.773 2.457 5.971 5.245-.358 1.241-3.04.547-4.054.428-.8-.094-1.667-.585-1.729-1.384a14.121 14.121 0 0 0-1.832 5.736 10.31 10.31 0 0 0 .964 4.224 4.811 4.811 0 0 1 .586 2.15c-2.315-.2-4.08-2.1-5.838-3.439a.933.933 0 0 1-.438-1.032c.157-3.177.416-6.761 2.196-9.503z" fill="#326ebd"/>
    <path d="m78.251 117.399-2.536-.517 2.333 2.718z" fill="#a58877" opacity=".4"/>
</svg>
