<?xml version="1.0" encoding="UTF-8" standalone="no"?>
<!-- Svg Vector Icons : http://www.onlinewebfonts.com/icon -->

<svg
   xmlns:dc="http://purl.org/dc/elements/1.1/"
   xmlns:cc="http://creativecommons.org/ns#"
   xmlns:rdf="http://www.w3.org/1999/02/22-rdf-syntax-ns#"
   xmlns:svg="http://www.w3.org/2000/svg"
   xmlns="http://www.w3.org/2000/svg"
   xmlns:sodipodi="http://sodipodi.sourceforge.net/DTD/sodipodi-0.dtd"
   xmlns:inkscape="http://www.inkscape.org/namespaces/inkscape"
   version="1.1"
   x="0px"
   y="0px"
   viewBox="0 0 1000 1000"
   enable-background="new 0 0 1000 1000"
   xml:space="preserve"
   id="svg46"
   sodipodi:docname="gsfc-icon-blog-1.svg"
   inkscape:version="0.92.1 r15371"
   inkscape:export-filename="C:\Users\t1tmbit\Desktop\GORDONSTEVENSCA\Site2\img\gsfc-icon-blog-1-77x75.png"
   inkscape:export-xdpi="7.5428572"
   inkscape:export-ydpi="7.5428572"><defs
   id="defs50" /><sodipodi:namedview
   pagecolor="#000000"
   bordercolor="#666666"
   borderopacity="1"
   objecttolerance="10"
   gridtolerance="10"
   guidetolerance="10"
   inkscape:pageopacity="0"
   inkscape:pageshadow="2"
   inkscape:window-width="1366"
   inkscape:window-height="715"
   id="namedview48"
   showgrid="false"
   inkscape:zoom="0.236"
   inkscape:cx="500"
   inkscape:cy="500"
   inkscape:window-x="-8"
   inkscape:window-y="-8"
   inkscape:window-maximized="1"
   inkscape:current-layer="g10" />
<metadata
   id="metadata2"> Svg Vector Icons : http://www.onlinewebfonts.com/icon <rdf:RDF><cc:Work
     rdf:about=""><dc:format>image/svg+xml</dc:format><dc:type
       rdf:resource="http://purl.org/dc/dcmitype/StillImage" /><dc:title></dc:title></cc:Work></rdf:RDF></metadata>
<g
   id="g44"><g
     id="g12"><g
       id="g10"><path
         d="M961.8,452.9l-74.6-74.6C876.9,367.9,862.7,362,848,362c-14.7,0-28.8,5.8-39.2,16.3l-20.6,20.6V10H21.9v980h766.3V707.8l173.7-176.4C983.5,509.7,983.5,474.5,961.8,452.9z M705,906.8H105.1V93.2H705v390.7l-72.9,72.9V500H184.9v57.2h446.8l-131.9,132c-6.5,6.5-11.3,14.6-13.9,23.4l-31.7,106.7c-5.8,19.5-0.4,40.6,14,55c10.5,10.6,24.7,16.3,39.2,16.3c5.3,0,10.6-0.7,15.8-2.3l106.7-31.7c8.8-2.6,16.9-7.4,23.4-13.9l51.7-51.7L705,906.8L705,906.8z M611.7,805l-106.7,31.7L536.7,730l239.4-239.5l75.1,75.1L611.7,805z M875.7,538.3l-74.6-74.6l44.5-44.5l74.6,74.6L875.7,538.3z"
         id="path4"
         style="fill:#ffffff" /><rect
         x="184.9"
         y="194"
         width="447.2"
         height="57.2"
         id="rect6"
         style="fill:#ffffff" /><rect
         x="184.9"
         y="344.9"
         width="447.2"
         height="57.2"
         id="rect8"
         style="fill:#ffffff" /></g></g><g
     id="g14" /><g
     id="g16" /><g
     id="g18" /><g
     id="g20" /><g
     id="g22" /><g
     id="g24" /><g
     id="g26" /><g
     id="g28" /><g
     id="g30" /><g
     id="g32" /><g
     id="g34" /><g
     id="g36" /><g
     id="g38" /><g
     id="g40" /><g
     id="g42" /></g>
</svg>