<?xml version="1.0" encoding="UTF-8" standalone="no"?>
<!-- Created with Inkscape (http://www.inkscape.org/) -->

<svg
   xmlns:dc="http://purl.org/dc/elements/1.1/"
   xmlns:cc="http://creativecommons.org/ns#"
   xmlns:rdf="http://www.w3.org/1999/02/22-rdf-syntax-ns#"
   xmlns:svg="http://www.w3.org/2000/svg"
   xmlns="http://www.w3.org/2000/svg"
   xmlns:sodipodi="http://sodipodi.sourceforge.net/DTD/sodipodi-0.dtd"
   xmlns:inkscape="http://www.inkscape.org/namespaces/inkscape"
   version="1.1"
   id="svg25"
   width="160"
   height="375"
   viewBox="0 0 160 375"
   sodipodi:docname="gsfc-icon-businessman-1.svg"
   inkscape:version="0.92.1 r15371">
  <metadata
     id="metadata31">
    <rdf:RDF>
      <cc:Work
         rdf:about="">
        <dc:format>image/svg+xml</dc:format>
        <dc:type
           rdf:resource="http://purl.org/dc/dcmitype/StillImage" />
        <dc:title></dc:title>
      </cc:Work>
    </rdf:RDF>
  </metadata>
  <defs
     id="defs29" />
  <sodipodi:namedview
     pagecolor="#000000"
     bordercolor="#666666"
     borderopacity="1"
     objecttolerance="10"
     gridtolerance="10"
     guidetolerance="10"
     inkscape:pageopacity="0"
     inkscape:pageshadow="2"
     inkscape:window-width="1366"
     inkscape:window-height="715"
     id="namedview27"
     showgrid="false"
     inkscape:zoom="1.2912621"
     inkscape:cx="252.83524"
     inkscape:cy="178.41485"
     inkscape:window-x="-8"
     inkscape:window-y="-8"
     inkscape:window-maximized="1"
     inkscape:current-layer="svg25" />
  <path
     style="fill:#ffffff;stroke-width:1.33333337"
     d="m 41.040212,370.35983 c -3.15792,-5.38858 -3.41974,-6.66639 -2.11727,-10.33334 1.20196,-3.38393 0.98588,-5.96976 -1.12955,-13.5177 -3.02236,-10.78394 -4.77509,-29.02794 -5.95646,-62 -0.70312,-19.62407 -3.50958,-44.66888 -6.76418,-60.36368 -0.53313,-2.57096 -2.34322,-4.50134 -5.94278,-6.3377 -2.84688,-1.45237 -5.72438,-3.6887 -6.39442,-4.96965 -1.25377,-2.39684 0.97364,-25.82539 4.30394,-45.26996 1.65564,-9.66671 1.61212,-10.21144 -0.97902,-12.25437 -1.49142,-1.17588 -5.65376,-4.8627 -9.2496404,-8.19291 L 0.27287161,141.06559 1.8444616,113.12052 c 1.81931,-32.349964 3.18751,-44.001854 5.49307,-46.779874 1.83209,-2.207546 6.1331304,-4.180057 21.8604604,-10.025509 6.07678,-2.258584 12.47968,-5.714211 14.88,-8.0307 3.85658,-3.721861 4.09211,-4.420801 2.7816,-8.254251 -0.78745,-2.303445 -1.99878,-4.563872 -2.69186,-5.023173 -1.92826,-1.277864 -2.96044,-13.164908 -1.14314,-13.164908 0.82871,0 1.50674,-1.519271 1.50674,-3.376159 0,-10.1148999 7.83421,-17.95717391 17.9387,-17.95717391 11.76546,0 18.0613,6.22396501 18.0613,17.85509691 0,3.293139 0.58034,6.346199 1.28966,6.784577 1.94666,1.203103 0.1375,8.733274 -3.44329,14.331739 -1.74884,2.734277 -3.17971,6.097996 -3.17971,7.474929 0,2.415192 -8.60657,14.886991 -10.27325,14.886991 -2.06159,0 -15.06008,-10.97 -15.06008,-12.70986 0,-1.076244 -0.6,-1.956807 -1.33333,-1.956807 -2.04336,0 -1.65766,2.395279 2.5849,16.05301 4.98436,16.045678 9.4151,33.080488 9.4151,36.198108 0,1.328564 0.45,2.415014 1,2.414344 0.92576,-0.001 0.98516,-29.316594 0.0716,-35.331484 -0.27684,-1.82273 0.43857,-2.786482 2.26174,-3.046852 2.87935,-0.411207 4.1576,2.269702 8.44544,17.712872 l 2.22123,8 0.40373,-8.66666 c 0.22207,-4.76667 0.97207,-9.23667 1.66667,-9.93334 1.61337,-1.61814 1.62521,-9.48776 0.0227,-15.075467 -1.22768,-4.280635 -0.47624,-5.463081 1.97358,-3.105625 0.69667,0.670397 6.62404,3.366677 13.17194,5.991733 6.54789,2.625055 13.253018,6.038987 14.900288,7.586509 3.68467,3.46157 5.19532,9.96616 7.80267,33.59684 1.77401,16.078184 3.48264,23.606024 5.35794,23.606024 0.29647,0 7.9103,-1.8 16.91964,-4 16.65868,-4.0679 23.78086,-4.9204 23.78086,-2.84648 0,0.63444 -1.2,2.67908 -2.66667,4.54364 -1.46667,1.86456 -2.66667,4.94548 -2.66667,6.84648 0,1.901 -0.63061,3.45636 -1.40137,3.45636 -0.77075,0 -2.29141,2.13018 -3.37924,4.73374 -1.45588,3.4844 -3.47604,5.37592 -7.65447,7.167 -4.32326,1.85317 -6.25994,3.72694 -8.12357,7.85974 -1.34585,2.98458 -3.73509,6.63658 -5.3094,8.11558 l -2.8624,2.68908 -6.41329,-5.48192 -6.4133,-5.48192 -6.22148,1.95462 -6.22148,1.95463 0.37626,12.57805 c 0.20694,6.91794 1.52632,20.07807 2.93193,29.24474 1.40563,9.16666 3.23233,21.46666 4.05935,27.33333 0.82701,5.86667 2.7147,16.79359 4.19486,24.28204 l 2.6912,13.61539 -2.935,17.05128 c -2.35734,13.69533 -2.76097,19.70252 -2.05076,30.52194 1.06839,16.27579 3.99344,31.02872 6.68587,33.72115 1.08824,1.08824 6.04385,4.11528 11.01247,6.72675 15.16372,7.96994 12.27373,14.75465 -5.09347,11.95774 -9.01449,-1.45174 -11.95901,-2.68106 -17.54161,-7.32352 -2.84804,-2.36841 -4.7076,-2.8825 -8.311318,-2.29769 -2.55332,0.41435 -6.36415,0.0401 -8.4685,-0.83147 l -3.8261,-1.58482 -0.9419,-24.9194 c -1.84768,-48.8838 -2.77357,-56.8578 -8.55616,-73.68688 -2.87869,-8.37788 -6.13364,-17.33251 -7.23321,-19.89918 l -1.99921,-4.66666 -1.66175,4 c -1.85529,4.46588 -3.28476,14.66965 -5.51032,39.33333 -1.33911,14.84013 -1.16763,19.83864 1.56472,45.61009 2.5016,23.59507 2.78013,29.9064 1.50732,34.1547 -0.85873,2.8662 -1.56133,9.09866 -1.56133,13.84992 0,10.41505 -2.09752,13.05196 -10.38212,13.05196 -5.13495,0 -5.74799,-0.41383 -9.109,-6.14896 z m 26.15778,-205.18438 c -0.91292,-1.1 -1.82218,-2 -2.02061,-2 -0.19841,0 -0.70611,0.9 -1.12823,2 -0.5314,1.38483 0.0901,2 2.02062,2 2.32712,0 2.51365,-0.33066 1.12822,-2 z"
     id="path35"
     inkscape:connector-curvature="0"
     inkscape:export-xdpi="87.829781"
     inkscape:export-ydpi="87.829781" />
</svg>
