<?xml version="1.0" encoding="UTF-8" standalone="no"?>
<svg
   xmlns:dc="http://purl.org/dc/elements/1.1/"
   xmlns:cc="http://creativecommons.org/ns#"
   xmlns:rdf="http://www.w3.org/1999/02/22-rdf-syntax-ns#"
   xmlns:svg="http://www.w3.org/2000/svg"
   xmlns="http://www.w3.org/2000/svg"
   xmlns:sodipodi="http://sodipodi.sourceforge.net/DTD/sodipodi-0.dtd"
   xmlns:inkscape="http://www.inkscape.org/namespaces/inkscape"
   height="6.82666in"
   style="shape-rendering:geometricPrecision; text-rendering:geometricPrecision; image-rendering:optimizeQuality; fill-rule:evenodd; clip-rule:evenodd"
   viewBox="0 0 6.82666 6.82666"
   width="6.82666in"
   xml:space="preserve"
   version="1.1"
   id="svg11"
   sodipodi:docname="gsfc-logo-vimeo-1.svg"
   inkscape:export-filename="C:\Users\t1tmbit\Desktop\GORDONSTEVENSCA\Site2\img\gsfc-logo-vimeo-1-300x300.png"
   inkscape:export-xdpi="43.945354"
   inkscape:export-ydpi="43.945354"
   inkscape:version="0.92.1 r15371"><metadata
     id="metadata15"><rdf:RDF><cc:Work
         rdf:about=""><dc:format>image/svg+xml</dc:format><dc:type
           rdf:resource="http://purl.org/dc/dcmitype/StillImage" /></cc:Work></rdf:RDF></metadata><sodipodi:namedview
     pagecolor="#ffffff"
     bordercolor="#666666"
     borderopacity="1"
     objecttolerance="10"
     gridtolerance="10"
     guidetolerance="10"
     inkscape:pageopacity="0"
     inkscape:pageshadow="2"
     inkscape:window-width="701"
     inkscape:window-height="480"
     id="namedview13"
     showgrid="false"
     inkscape:zoom="0.36010777"
     inkscape:cx="327.67969"
     inkscape:cy="327.67969"
     inkscape:window-x="0"
     inkscape:window-y="0"
     inkscape:window-maximized="0"
     inkscape:current-layer="svg11" /><defs
     id="defs4"><style
       type="text/css"
       id="style2">
   <![CDATA[
    .fil0 {fill:#00BCD4}
    .fil1 {fill:white}
   ]]>
  </style></defs><g
     id="Layer_x0020_1"><rect
       class="fil0"
       height="6.82667"
       rx="1.45635"
       ry="1.45635"
       width="6.82667"
       id="rect6" /><path
       class="fil1"
       d="M4.90076 1.59237c-0.584402,-0.0190669 -0.97989,0.308756 -1.18695,0.98389 0.106626,-0.0439567 0.210232,-0.0661181 0.311366,-0.0661181 0.213118,-3.93701e-006 0.307425,0.119575 0.282256,0.359476 -0.0125315,0.145303 -0.106705,0.356594 -0.282256,0.633988 -0.176398,0.277752 -0.308071,0.41652 -0.395488,0.41652 -0.113594,0 -0.21698,-0.214661 -0.311366,-0.643425 -0.0317283,-0.126232 -0.0882638,-0.447811 -0.169358,-0.965323 -0.0760394,-0.479394 -0.276835,-0.703331 -0.603327,-0.671819 -0.138138,0.0126575 -0.344984,0.139114 -0.621185,0.378528 -0.201445,0.183008 -0.405555,0.366016 -0.613106,0.548949l0.19772 0.255244c0.188697,-0.132571 0.299051,-0.198543 0.329642,-0.198543 0.144673,0 0.279862,0.226957 0.405484,0.680752 0.112728,0.416803 0.226327,0.833035 0.339559,1.24926 0.168732,0.45415 0.376638,0.681331 0.621193,0.681331 0.395634,-3.93701e-006 0.879941,-0.371992 1.45112,-1.11641 0.55261,-0.712693 0.837882,-1.27417 0.85715,-1.68449 0.0253937,-0.548465 -0.178646,-0.829291 -0.612453,-0.841807z"
       id="path8" /></g></svg>