<?xml version="1.0" encoding="UTF-8" standalone="no"?>
<!-- Generator: Adobe Illustrator 16.0.0, SVG Export Plug-In . SVG Version: 6.00 Build 0)  -->

<svg
   xmlns:dc="http://purl.org/dc/elements/1.1/"
   xmlns:cc="http://creativecommons.org/ns#"
   xmlns:rdf="http://www.w3.org/1999/02/22-rdf-syntax-ns#"
   xmlns:svg="http://www.w3.org/2000/svg"
   xmlns="http://www.w3.org/2000/svg"
   xmlns:sodipodi="http://sodipodi.sourceforge.net/DTD/sodipodi-0.dtd"
   xmlns:inkscape="http://www.inkscape.org/namespaces/inkscape"
   version="1.1"
   id="Layer_1"
   x="0px"
   y="0px"
   width="560"
   height="800"
   viewBox="0 0 560 800"
   enable-background="new 0 0 800 800"
   xml:space="preserve"
   sodipodi:docname="gsfc-icon-business-1.svg"
   inkscape:version="0.92.1 r15371"
   inkscape:export-filename="C:\Users\t1tmbit\Desktop\GORDONSTEVENSCA\Site2\img\gsfc-icon-business-1-110x77.png"
   inkscape:export-xdpi="13.199981"
   inkscape:export-ydpi="13.199981"><metadata
   id="metadata9"><rdf:RDF><cc:Work
       rdf:about=""><dc:format>image/svg+xml</dc:format><dc:type
         rdf:resource="http://purl.org/dc/dcmitype/StillImage" /><dc:title></dc:title></cc:Work></rdf:RDF></metadata><defs
   id="defs7" /><sodipodi:namedview
   pagecolor="#000000"
   bordercolor="#666666"
   borderopacity="1"
   objecttolerance="10"
   gridtolerance="10"
   guidetolerance="10"
   inkscape:pageopacity="0"
   inkscape:pageshadow="2"
   inkscape:window-width="1366"
   inkscape:window-height="715"
   id="namedview5"
   showgrid="false"
   inkscape:zoom="0.59"
   inkscape:cx="489.61308"
   inkscape:cy="440.33412"
   inkscape:window-x="-8"
   inkscape:window-y="-8"
   inkscape:window-maximized="1"
   inkscape:current-layer="Layer_1" />
<path
   d="m 80.512932,86.525915 c 0,-46.853 36.053008,-84.8309997 80.540008,-84.8309997 44.487,0 80.603,37.9779997 80.603,84.8309997 0,46.854005 -36.116,84.787005 -80.603,84.787005 -44.487,0 -80.540008,-37.933 -80.540008,-84.787005 z M 462.49394,326.95492 c -2.756,-20.963 -1.43,-48.134 21.202,-59.071 0,0 -2.797,-10.113 -15.985,-1.453 -13.146,8.658 -21.498,6.466 -25.662,1.453 -2.418,-2.973 -9.381,-13.086 -17.542,-13.411 -8.099,-0.37 -15.061,10.438 -17.438,13.411 -4.206,5.014 -12.556,7.206 -25.703,-1.453 -13.188,-8.661 -15.923,1.453 -15.923,1.453 12.452,6.033 18.09,17.209 20.509,29.362 1.389,6.966 -40.386,16.493 -46.886,16.146 -17.941,-0.911 -23.222,-16.97 -31.089,-31.445 -5.951,-10.98 -12.641,-21.505 -20.171,-31.359 -12.6,-16.428 -27.555,-30.902 -44.677,-42.057 -13.23,-8.616 -27.681,-15.212 -42.763,-19.4 -2.293,-0.629 -32.666,-5.838 -32.604,-5.122 0.021,0.13 17.27,189.41 17.27,189.41 l -25.242,30.902 -28.879,-30.902 c 0,0 21.833,-189.323 21.56,-189.323 -22.17,-0.544 -94.591008,6.575 -145.2620078,115.928 -23.6850002,51.063 29.8259998,132.855 65.6889998,158.528 5.027,3.624 10.748,5.317 16.344,5.317 1.157,0 2.166,-0.65 3.323,-0.825 l -0.525,10.113 -30.121,286.763 c -2.167,20.681 12.178,39.258 32.014,41.534 1.324,0.197 2.65,0.24 3.975,0.24 18.216008,0 33.907008,-14.257 35.885008,-33.594 l 31.089,-295.877 46.759,297.895 c 2.902,18.448 18.236,31.577 35.631,31.577 1.936,0 3.913,-0.13 5.911,-0.499 19.708,-3.343 33.045,-22.721 29.827,-43.272 l -46.254,-294.487 c 0,-0.327 0.146,-0.563 0.146,-0.891 l -15.207,-195.877 c 14.555,11.98 29.489,30.123 42.257,57.639 10.792,23.396 29.679,39.801 53.048,46.333 7.7,2.104 15.65,3.168 23.853,3.168 0.948,0 1.936,-0.26 2.903,-0.303 -29.32,38.997 -51.533,90.667 -51.533,133.594 0,79.014 60.284,143.121 134.535,143.121 74.335,0 134.599,-64.107 134.599,-143.121 -10e-4,-62.48 -49.391,-148.764 -98.863,-180.145 z m -366.773008,73.003 c -21.077,-21.962 -40.617,-62.131 -36.432,-73.72 13.946,-30.229 29.238,-49.217 43.247008,-61.284 z m 337.408008,149.198 v 24.436 h -14.197 v -23.741 c -13.083,-0.261 -26.629,-4.493 -34.496,-10.396 l 5.405,-15.712 c 8.056,5.643 19.836,10.092 32.478,10.092 15.985,0 26.882,-9.657 26.882,-23.046 0,-12.956 -8.792,-20.898 -25.535,-27.952 -23.012,-9.439 -37.209,-20.227 -37.209,-40.669 0,-19.51 13.313,-34.331 34.032,-37.847 v -23.806 h 14.009 v 22.852 c 13.567,0.455 22.759,4.231 29.322,8.182 l -5.637,15.537 c -4.754,-2.82 -14.01,-7.965 -28.439,-7.965 -17.354,0 -23.895,10.765 -23.895,20.248 0,12.174 8.351,18.316 28.018,26.758 23.18,9.874 34.938,22.137 34.938,43.077 0,18.532 -12.453,35.936 -35.676,39.952 z"
   id="path2"
   inkscape:connector-curvature="0"
   style="fill:#ffffff" />
</svg>