<?xml version="1.0" encoding="UTF-8" standalone="no"?>
<!-- Generator: Adobe Illustrator 15.0.1, SVG Export Plug-In . SVG Version: 6.00 Build 0)  -->

<svg
   xmlns:dc="http://purl.org/dc/elements/1.1/"
   xmlns:cc="http://creativecommons.org/ns#"
   xmlns:rdf="http://www.w3.org/1999/02/22-rdf-syntax-ns#"
   xmlns:svg="http://www.w3.org/2000/svg"
   xmlns="http://www.w3.org/2000/svg"
   xmlns:sodipodi="http://sodipodi.sourceforge.net/DTD/sodipodi-0.dtd"
   xmlns:inkscape="http://www.inkscape.org/namespaces/inkscape"
   version="1.1"
   id="svg2"
   inkscape:version="0.92.1 r15371"
   sodipodi:version="0.32"
   inkscape:output_extension="org.inkscape.output.svg.inkscape"
   sodipodi:docname="gsfc-logo-skype-1.svg"
   x="0px"
   y="0px"
   width="273.06668"
   height="273.06668"
   viewBox="0 0 256 256"
   enable-background="new 0 0 256 256"
   xml:space="preserve"
   inkscape:export-filename="C:\Users\t1tmbit\Desktop\GORDONSTEVENSCA\Site2\img\gsfc-logo-skype-1-300x300.png"
   inkscape:export-xdpi="105.46874"
   inkscape:export-ydpi="105.46874"><metadata
   id="metadata19"><rdf:RDF><cc:Work
       rdf:about=""><dc:format>image/svg+xml</dc:format><dc:type
         rdf:resource="http://purl.org/dc/dcmitype/StillImage" /></cc:Work></rdf:RDF></metadata>
<defs
   id="defs3">
	
	
		<inkscape:perspective
   sodipodi:type="inkscape:persp3d"
   inkscape:vp_y="0 : 999.99995 : 0"
   inkscape:vp_z="255.99999 : 127.99999 : 1"
   inkscape:persp3d-origin="127.99999 : 85.333329 : 1"
   inkscape:vp_x="0 : 127.99999 : 1"
   id="perspective2915">
		</inkscape:perspective>
</defs>
<sodipodi:namedview
   pagecolor="#ffffff"
   inkscape:current-layer="layer1"
   inkscape:window-height="538"
   inkscape:document-units="px"
   showgrid="false"
   inkscape:zoom="0.98994948"
   inkscape:pageshadow="2"
   inkscape:pageopacity="0.0"
   bordercolor="#666666"
   inkscape:window-width="1047"
   inkscape:window-y="0"
   id="base"
   inkscape:cx="-24.348149"
   inkscape:cy="121.5759"
   inkscape:window-maximized="0"
   inkscape:window-x="0"
   borderopacity="1.0">
	</sodipodi:namedview>
<g
   id="layer1"
   transform="translate(-373.642,-318.344)"
   inkscape:groupmode="layer"
   inkscape:label="Layer 1">
	
		<path
   id="rect1942"
   inkscape:export-filename="C:\Documents and Settings\Molumen\Desktop\path3511111.png"
   inkscape:export-xdpi="7.7063322"
   inkscape:export-ydpi="7.7063322"
   d="M 590.2692,319.37882 H 413.01489 c -21.17858,0 -38.34707,17.16859 -38.34707,38.3473 v 177.23484 c 0,21.17871 17.16849,38.34622 38.34707,38.34622 H 590.2681 c 21.17858,0 38.34708,-17.1686 38.34708,-38.34622 V 357.7272 c 10e-4,-21.1787 -17.1685,-38.34838 -38.34598,-38.34838 z"
   inkscape:connector-curvature="0"
   style="fill:#a8ebff;stroke-width:1.08059824" />
	
		<linearGradient
   id="path1950_1_"
   gradientUnits="userSpaceOnUse"
   x1="-899.77802"
   y1="287.97339"
   x2="-951.47443"
   y2="137.2845"
   gradientTransform="matrix(-0.5915,0,0,-0.5915,-88.3092,464.6428)">
		<stop
   offset="0"
   style="stop-color:#FFFFFF"
   id="stop7" />
		<stop
   offset="1"
   style="stop-color:#FFFFFF;stop-opacity:0"
   id="stop9" />
	</linearGradient>
	
		<path
   id="path1950"
   inkscape:export-filename="C:\Documents and Settings\Molumen\Desktop\path3511111.png"
   inkscape:export-xdpi="7.7063322"
   inkscape:export-ydpi="7.7063322"
   sodipodi:nodetypes="ccccsssc"
   d="M 557.056,338.895 H 446.227 c -29.336,0 -52.955,23.81 -52.955,53.385 v 108.127 c 0.95,23.086 4.603,8.491 11.555,-17.075 8.081,-29.713 34.396,-55.682 66.445,-75.145 24.461,-14.855 51.84,-24.341 101.679,-25.244 28.265,-0.511 25.77,-36.683 -15.895,-44.048 z"
   inkscape:connector-curvature="0"
   style="fill:url(#path1950_1_)" />
	
		<ellipse
   id="path24965"
   cx="544.34595"
   cy="495.02734"
   rx="46.467018"
   ry="45.961941"
   style="fill:#00c3ff" />
	
		<ellipse
   id="path24965-8"
   cx="469.53149"
   cy="406.95465"
   rx="46.467018"
   ry="45.961941"
   style="fill:#00c3ff" />
	
		<ellipse
   id="path24989"
   cx="506.65463"
   cy="452.34842"
   rx="76.266518"
   ry="85.357887"
   style="fill:#00c3ff" />
	<path
   id="path24997"
   sodipodi:nodetypes="ccccccc"
   d="m 536.46609,423.95725 c -9.05,-9.342 -19.685,-14.506 -32.325,-16.163 -11.584,-0.575 -27.216,4.729 -28.285,19.193 -0.916,15.696 8.749,21.047 29.295,26.264 17.763,4.64 34.399,7.71 33.335,25.253 -0.377,15.747 -15.618,22.79 -32.325,22.224 -16.549,-0.758 -27.077,-9.137 -33.335,-17.173"
   inkscape:connector-curvature="0"
   style="fill:none;stroke:#ffffff;stroke-width:23;stroke-linecap:round" />
</g>
</svg>