<?xml version="1.0" encoding="UTF-8" standalone="no"?>
<svg
   xmlns:dc="http://purl.org/dc/elements/1.1/"
   xmlns:cc="http://creativecommons.org/ns#"
   xmlns:rdf="http://www.w3.org/1999/02/22-rdf-syntax-ns#"
   xmlns:svg="http://www.w3.org/2000/svg"
   xmlns="http://www.w3.org/2000/svg"
   xmlns:sodipodi="http://sodipodi.sourceforge.net/DTD/sodipodi-0.dtd"
   xmlns:inkscape="http://www.inkscape.org/namespaces/inkscape"
   height="6.82666in"
   style="shape-rendering:geometricPrecision; text-rendering:geometricPrecision; image-rendering:optimizeQuality; fill-rule:evenodd; clip-rule:evenodd"
   viewBox="0 0 6.82666 6.82666"
   width="6.82666in"
   xml:space="preserve"
   version="1.1"
   id="svg17"
   sodipodi:docname="gsfc-logo-googleplus-1.svg"
   inkscape:export-filename="C:\Users\t1tmbit\Desktop\GORDONSTEVENSCA\Site2\img\gsfc-logo-googleplus-1-300x300.png"
   inkscape:export-xdpi="43.945354"
   inkscape:export-ydpi="43.945354"
   inkscape:version="0.92.1 r15371"><metadata
     id="metadata21"><rdf:RDF><cc:Work
         rdf:about=""><dc:format>image/svg+xml</dc:format><dc:type
           rdf:resource="http://purl.org/dc/dcmitype/StillImage" /></cc:Work></rdf:RDF></metadata><sodipodi:namedview
     pagecolor="#ffffff"
     bordercolor="#666666"
     borderopacity="1"
     objecttolerance="10"
     gridtolerance="10"
     guidetolerance="10"
     inkscape:pageopacity="0"
     inkscape:pageshadow="2"
     inkscape:window-width="701"
     inkscape:window-height="480"
     id="namedview19"
     showgrid="false"
     inkscape:zoom="0.36010777"
     inkscape:cx="327.67969"
     inkscape:cy="327.67969"
     inkscape:window-x="0"
     inkscape:window-y="0"
     inkscape:window-maximized="0"
     inkscape:current-layer="svg17" /><defs
     id="defs4"><style
       type="text/css"
       id="style2">
   <![CDATA[
    .fil0 {fill:#DC4E41}
    .fil1 {fill:white}
   ]]>
  </style></defs><g
     id="Layer_x0020_1"><rect
       class="fil0"
       height="6.82667"
       rx="1.45635"
       ry="1.45635"
       width="6.82667"
       id="rect6" /><path
       class="fil0"
       d="M1.41413 3.4149c-0.011,0.530413 0.354382,1.03637 0.856917,1.20135 0.473193,0.159134 1.05512,0.0402402 1.37008,-0.365106 0.229882,-0.284122 0.282213,-0.662681 0.257272,-1.01624 -0.405346,-0.00377559 -0.810756,-0.00241339 -1.21529,-0.00192913 -0.000814961,0.144358 0,0.288189 0.000488189,0.432488 0.242575,0.00671654 0.485362,0.00377559 0.728134,0.00856693 -0.061189,0.210102 -0.200953,0.405425 -0.41261,0.481315 -0.409126,0.18 -0.930681,-0.0552913 -1.05946,-0.484256 -0.15528,-0.410992 0.0990354,-0.906772 0.518866,-1.02615 0.260232,-0.0914803 0.528508,0.0115472 0.751224,0.146772 0.112642,-0.105421 0.218335,-0.218394 0.322181,-0.332402 -0.253283,-0.211677 -0.578421,-0.341551 -0.912693,-0.313106 -0.655945,0.00782677 -1.23004,0.613307 -1.20511,1.26871z"
       id="path8" /><path
       class="fil0"
       d="M4.68711 2.8687c-0.0010315,0.121012 -0.00239764,0.24222 -0.00294094,0.362965 -0.1215,0.00111024 -0.242244,0.00185039 -0.362984,0.00241339l0 0.361661c0.12074,0.000547244 0.24224,0.0010315 0.362984,0.0023937 0.00109055,0.120744 0.00109055,0.241488 0.0023937,0.362988 0.120197,0 0.240941,-0.000838583 0.361661,0 0.000566929,-0.1215 0.00111024,-0.242244 0.00241732,-0.363531 0.12074,-0.000543307 0.242028,-0.00130315 0.362693,-0.00185039l0 -0.361681c-0.120665,-0.000543307 -0.241953,-0.00109055 -0.362693,-0.0023937 -0.000838583,-0.120744 -0.00185039,-0.241953 -0.00241732,-0.362693 -0.12072,-0.000271654 -0.240917,-0.000271654 -0.361114,-0.000271654z"
       id="path10" /><path
       class="fil1"
       d="M1.41413 3.4149c-0.024937,-0.655402 0.549161,-1.26088 1.20511,-1.26871 0.334272,-0.0284449 0.659409,0.101429 0.912693,0.313106 -0.103846,0.114008 -0.209539,0.22698 -0.322181,0.332402 -0.222992,-0.135224 -0.490992,-0.238524 -0.751496,-0.146772 -0.419835,0.119362 -0.674146,0.615181 -0.518594,1.02588 0.128508,0.429236 0.650339,0.664528 1.05946,0.484252 0.211657,-0.0756142 0.351146,-0.270937 0.41261,-0.481039 -0.242772,-0.00481102 -0.485559,-0.00185039 -0.728134,-0.00856693 -0.000759843,-0.144299 -0.00130315,-0.28813 -0.000759843,-0.432488 0.404803,-0.000759843 0.810213,-0.00184646 1.21556,0.00165748 0.0246693,0.353835 -0.0273898,0.732394 -0.257543,1.01652 -0.314685,0.405346 -0.896614,0.52424 -1.3701,0.365106 -0.50224,-0.164972 -0.867622,-0.670933 -0.856622,-1.20135z"
       id="path12" /><path
       class="fil1"
       d="M4.68711 2.8687l0.361114 0c0.000566929,0.121012 0.00157874,0.24222 0.00241732,0.362965 0.12074,0.00111024 0.242028,0.00185039 0.362693,0.00241339l0 0.361661c-0.120665,0.000547244 -0.241953,0.0010315 -0.362693,0.00185039 -0.00130709,0.121287 -0.00185039,0.242031 -0.00241732,0.36324 -0.12072,-0.000547244 -0.241677,0 -0.361661,0 -0.00130315,-0.121209 -0.00130315,-0.241953 -0.0023937,-0.362697 -0.120744,-0.0013622 -0.242244,-0.00184646 -0.362984,-0.0023937l0 -0.361681c0.12074,-0.000814961 0.241484,-0.00128346 0.362984,-0.0023937 0.000543307,-0.120744 0.00163386,-0.241953 0.00294094,-0.362965z"
       id="path14" /></g></svg>