<?xml version="1.0" encoding="UTF-8" standalone="no"?>
<!-- Generator: Adobe Illustrator 16.0.0, SVG Export Plug-In . SVG Version: 6.00 Build 0)  -->

<svg
   xmlns:dc="http://purl.org/dc/elements/1.1/"
   xmlns:cc="http://creativecommons.org/ns#"
   xmlns:rdf="http://www.w3.org/1999/02/22-rdf-syntax-ns#"
   xmlns:svg="http://www.w3.org/2000/svg"
   xmlns="http://www.w3.org/2000/svg"
   xmlns:sodipodi="http://sodipodi.sourceforge.net/DTD/sodipodi-0.dtd"
   xmlns:inkscape="http://www.inkscape.org/namespaces/inkscape"
   version="1.1"
   id="Layer_1"
   x="0px"
   y="0px"
   width="512px"
   height="512px"
   viewBox="0 0 512 512"
   enable-background="new 0 0 512 512"
   xml:space="preserve"
   sodipodi:docname="gsfc-icon-computer-repair-1.svg"
   inkscape:version="0.92.1 r15371"><metadata
   id="metadata9"><rdf:RDF><cc:Work
       rdf:about=""><dc:format>image/svg+xml</dc:format><dc:type
         rdf:resource="http://purl.org/dc/dcmitype/StillImage" /><dc:title></dc:title></cc:Work></rdf:RDF></metadata><defs
   id="defs7" /><sodipodi:namedview
   pagecolor="#000000"
   bordercolor="#666666"
   borderopacity="1"
   objecttolerance="10"
   gridtolerance="10"
   guidetolerance="10"
   inkscape:pageopacity="0"
   inkscape:pageshadow="2"
   inkscape:window-width="1366"
   inkscape:window-height="715"
   id="namedview5"
   showgrid="false"
   inkscape:zoom="0.4609375"
   inkscape:cx="172.47458"
   inkscape:cy="256"
   inkscape:window-x="-8"
   inkscape:window-y="-8"
   inkscape:window-maximized="1"
   inkscape:current-layer="Layer_1" />
<path
   d="M480,112h-64V80c0-17.656-14.313-32-32-32H32C14.313,48,0,62.344,0,80v256c0,17.688,14.313,32,32,32h144l-32,64h128l-32-64  h112v64c0,17.688,14.313,32,32,32h96c17.688,0,32-14.313,32-32V144C512,126.344,497.688,112,480,112z M32,304V80h352v32  c-17.688,0-32,14.344-32,32v160H32z M432,432c-8.844,0-16-7.156-16-16s7.156-16,16-16s16,7.156,16,16S440.844,432,432,432z M432,368  c-8.844,0-16-7.156-16-16s7.156-16,16-16s16,7.156,16,16S440.844,368,432,368z M480,240h-64h-32v-32h96V240z M480,176h-96v-32h96  V176z"
   id="path2"
   style="fill:#ffffff"
   inkscape:export-xdpi="17.76923"
   inkscape:export-ydpi="17.76923" />
</svg>