<?xml version="1.0" encoding="UTF-8" standalone="no"?>
<svg
   xmlns:dc="http://purl.org/dc/elements/1.1/"
   xmlns:cc="http://creativecommons.org/ns#"
   xmlns:rdf="http://www.w3.org/1999/02/22-rdf-syntax-ns#"
   xmlns:svg="http://www.w3.org/2000/svg"
   xmlns="http://www.w3.org/2000/svg"
   xmlns:sodipodi="http://sodipodi.sourceforge.net/DTD/sodipodi-0.dtd"
   xmlns:inkscape="http://www.inkscape.org/namespaces/inkscape"
   viewBox="0 0 999.9 999.9"
   width="2500"
   height="2500"
   version="1.1"
   id="svg4"
   sodipodi:docname="gsfc-logo-pinterest-1.svg"
   inkscape:version="0.92.1 r15371"
   inkscape:export-filename="C:\Users\t1tmbit\Desktop\GORDONSTEVENSCA\Site2\img\gsfc-logo-pinterest-1-300x300.png"
   inkscape:export-xdpi="11.52"
   inkscape:export-ydpi="11.52">
  <metadata
     id="metadata10">
    <rdf:RDF>
      <cc:Work
         rdf:about="">
        <dc:format>image/svg+xml</dc:format>
        <dc:type
           rdf:resource="http://purl.org/dc/dcmitype/StillImage" />
      </cc:Work>
    </rdf:RDF>
  </metadata>
  <defs
     id="defs8" />
  <sodipodi:namedview
     pagecolor="#ffffff"
     bordercolor="#666666"
     borderopacity="1"
     objecttolerance="10"
     gridtolerance="10"
     guidetolerance="10"
     inkscape:pageopacity="0"
     inkscape:pageshadow="2"
     inkscape:window-width="1366"
     inkscape:window-height="715"
     id="namedview6"
     showgrid="false"
     inkscape:zoom="0.0944"
     inkscape:cx="-545.55085"
     inkscape:cy="1255.2966"
     inkscape:window-x="-8"
     inkscape:window-y="-8"
     inkscape:window-maximized="1"
     inkscape:current-layer="svg4" />
  <path
     d="M0 500c2.6-141.9 52.7-260.4 150.4-355.4S364.6 1.3 500 0c145.8 2.6 265.3 52.4 358.4 149.4 93.1 97 140.3 213.9 141.6 350.6-2.6 140.6-52.7 258.8-150.4 354.5-97.7 95.6-214.2 144.1-349.6 145.4-46.9 0-93.7-7.2-140.6-21.5 9.1-14.3 18.2-30.6 27.3-48.8 10.4-22.1 23.4-63.8 39.1-125 3.9-16.9 9.8-39.7 17.6-68.4 9.1 15.6 24.7 29.9 46.9 43 58.6 27.3 120.4 24.7 185.5-7.8 67.7-39.1 114.6-99.6 140.6-181.6 23.4-85.9 20.5-165.7-8.8-239.2C778.3 277 725.9 224 650.4 191.4c-95-27.3-187.5-24.4-277.3 8.8s-152.3 90.2-187.5 170.9C176.5 401 171 430.7 169 460c-2 29.3-1 57.9 2.9 85.9s13.7 53.1 29.3 75.2 36.5 39.1 62.5 50.8c6.5 2.6 11.7 2.6 15.6 0 5.2-2.6 10.4-13 15.6-31.2 5.2-18.2 7.2-30.6 5.9-37.1-1.3-2.6-3.9-7.2-7.8-13.7-27.3-44.3-36.5-90.8-27.3-139.6 9.1-48.8 29.3-90.2 60.5-124 48.2-43 104.5-66.4 168.9-70.3 64.4-3.9 119.5 13.7 165 52.7 24.7 28.6 40.7 63.1 47.8 103.5s7.2 79.1 0 116.2c-7.2 37.1-19.9 71.9-38.1 104.5-32.6 50.8-71 76.8-115.2 78.1-26-1.3-47.2-11.4-63.5-30.3s-21.2-40.7-14.6-65.4c2.6-14.3 10.4-42.3 23.4-84 13-41.7 20.2-72.9 21.5-93.7-3.9-49.5-26.7-74.9-68.4-76.2-32.6 3.9-56.6 18.6-72.3 43.9s-24.1 54.4-25.4 86.9c3.9 37.8 9.8 63.8 17.6 78.1-14.3 58.6-25.4 105.5-33.2 140.6-2.6 9.1-9.8 37.1-21.5 84s-18.2 82.7-19.5 107.4V957C206.3 914 133.3 851.9 80 770.5 26.7 689.1 0 598.9 0 500z"
     id="path2" />
  <path
     style="fill:#cb2027;stroke:none;stroke-width:10.59322071;fill-opacity:1"
     d="m 1130.2966,2489.6593 c -70.6206,-8.8627 -201.83334,-37.2514 -210.28048,-45.4954 -4.95511,-4.8359 3.17096,-29.5767 18.05793,-54.9794 40.76856,-69.5663 77.69125,-175.1504 125.13155,-357.826 23.5438,-90.6582 44.8051,-166.9289 47.2476,-169.4906 2.4425,-2.5615 11.3404,5.193 19.7732,17.2324 24.9554,35.6288 112.2097,85.808 179.8371,103.4227 120.8732,31.4835 241.9141,15.7428 376.3772,-48.9458 49.7275,-23.9233 93.9895,-58.4378 159.3287,-124.2413 137.6938,-138.672 204.6456,-286.6392 232.6487,-514.1663 26.1722,-212.6502 -42.9673,-463.44456 -169.3518,-614.30215 C 1752.7914,494.33149 1565.6112,422.89042 1262.7119,434.17328 1088.8292,440.65033 992.96444,464.20023 844.27966,536.96426 666.9818,623.73109 560.75328,725.23293 483.85063,881.35593 c -85.4806,173.53737 -91.20203,470.71057 -12.06907,626.87197 46.74709,92.2509 177.28919,197.6773 223.03416,180.1233 22.25031,-8.5383 47.16245,-66.2486 55.79947,-129.2625 5.62272,-41.0223 1.13187,-58.0615 -33.05412,-125.4132 -76.79801,-151.304 -73.05128,-313.7777 11.07486,-480.25241 67.22513,-133.02975 188.72872,-229.31035 353.99117,-280.50596 109.2534,-33.84493 292.6587,-33.71682 385.7974,0.26949 161.1322,58.79703 241.7707,148.55855 287.6158,320.15448 25.9933,97.292 24.0563,276.5531 -4.1281,382.0365 -87.8382,328.7443 -342.5126,495.3846 -506.4884,331.4089 -73.2807,-73.2808 -72.2255,-106.5326 12.4109,-391.1085 20.7937,-69.9153 40.6125,-156.8244 44.042,-193.1314 25.7393,-272.49949 -287.1444,-303.93682 -388.74399,-39.0594 -29.79234,77.6707 -32.36589,193.8577 -6.31625,285.1569 l 18.13486,63.5593 -42.38993,180.0847 c -23.31446,99.0466 -62.11797,258.7394 -86.23002,354.8729 -33.0757,131.8711 -45.28905,204.0498 -49.74127,293.9619 -3.24565,65.5455 -8.22463,119.1737 -11.06441,119.1737 -13.62751,0 -167.11279,-90.704 -221.65494,-130.9897 C 266.28747,2066.4379 89.842892,1791.7032 29.917451,1495.7627 -48.403052,1108.9786 66.054174,702.1193 334.14423,414.33263 594.35932,134.99948 924.34776,-3.7566992 1294.4915,10.518115 c 263.4293,10.159306 445.3258,67.315948 654.7848,205.750495 177.0179,116.99381 359.3316,336.89625 443.4383,534.86458 115.8854,272.76841 130.5762,605.52321 39.1045,885.73901 -125.878,385.6166 -479.1007,717.5348 -868.984,816.5717 -142.8166,36.2777 -316.3002,50.8031 -432.5385,36.2154 z"
     id="path4487"
     inkscape:connector-curvature="0"
     transform="scale(0.39996)" />
</svg>
