<?xml version="1.0" encoding="UTF-8" standalone="no"?>
<!-- Created with Inkscape (http://www.inkscape.org/) -->

<svg
   xmlns:dc="http://purl.org/dc/elements/1.1/"
   xmlns:cc="http://creativecommons.org/ns#"
   xmlns:rdf="http://www.w3.org/1999/02/22-rdf-syntax-ns#"
   xmlns:svg="http://www.w3.org/2000/svg"
   xmlns="http://www.w3.org/2000/svg"
   xmlns:sodipodi="http://sodipodi.sourceforge.net/DTD/sodipodi-0.dtd"
   xmlns:inkscape="http://www.inkscape.org/namespaces/inkscape"
   width="90"
   height="90"
   viewBox="0 0 23.812499 23.812501"
   version="1.1"
   id="svg8"
   inkscape:version="0.92.1 r15371"
   sodipodi:docname="gsfc-icon-spiral-in-circle-1.svg"
   inkscape:export-filename="C:\Users\t1tmbit\Desktop\GORDONSTEVENSCA\Site2\img2\gsfc-icon-spiral-in-circle-1-30x30.png"
   inkscape:export-xdpi="32"
   inkscape:export-ydpi="32">
  <defs
     id="defs2" />
  <sodipodi:namedview
     id="base"
     pagecolor="#000000"
     bordercolor="#666666"
     borderopacity="1.0"
     inkscape:pageopacity="0"
     inkscape:pageshadow="2"
     inkscape:zoom="1.979899"
     inkscape:cx="115.4815"
     inkscape:cy="91.64394"
     inkscape:document-units="mm"
     inkscape:current-layer="layer1"
     showgrid="false"
     units="px"
     inkscape:window-width="1366"
     inkscape:window-height="715"
     inkscape:window-x="-8"
     inkscape:window-y="-8"
     inkscape:window-maximized="1" />
  <metadata
     id="metadata5">
    <rdf:RDF>
      <cc:Work
         rdf:about="">
        <dc:format>image/svg+xml</dc:format>
        <dc:type
           rdf:resource="http://purl.org/dc/dcmitype/StillImage" />
        <dc:title />
      </cc:Work>
    </rdf:RDF>
  </metadata>
  <g
     inkscape:label="Layer 1"
     inkscape:groupmode="layer"
     id="layer1"
     transform="translate(0,-273.18748)">
    <ellipse
       style="fill:#ffffff;fill-opacity:1;stroke:#ffffff;stroke-width:0.56067389;stroke-linecap:square;stroke-linejoin:bevel;stroke-miterlimit:0;stroke-dasharray:none;stroke-opacity:1"
       id="path10"
       cx="11.893493"
       cy="285.10651"
       rx="11.547387"
       ry="11.681022" />
    <path
       sodipodi:type="spiral"
       style="fill:none;fill-rule:evenodd;stroke:#000000;stroke-width:0.26458332"
       id="path12"
       sodipodi:cx="11.091685"
       sodipodi:cy="285.10648"
       sodipodi:expansion="1"
       sodipodi:revolution="3"
       sodipodi:radius="11.008454"
       sodipodi:argument="-17.856661"
       sodipodi:t0="0"
       d="m 11.091685,285.10648 c 0.301511,0.46231 -0.474438,0.63452 -0.7684,0.50113 -0.7966173,-0.36148 -0.7056096,-1.46017 -0.233859,-2.03793 0.84385,-1.03349 2.429729,-0.84151 3.30746,0.0334 1.288105,1.28397 0.98447,3.41355 -0.300682,4.57699 -1.712905,1.55068 -4.4025732,1.13063 -5.8465196,-0.56796 -1.8170591,-2.1375 -1.278496,-5.39411 0.8352221,-7.11605 2.5599955,-2.08549 6.3870785,-1.42734 8.3855805,1.1025 2.355165,2.98132 1.576805,7.38093 -1.369763,9.65511 -3.40193,2.62563 -8.3753781,1.72668 -10.9246403,-1.63704 -2.8966337,-3.82207 -1.8768526,-9.37024 1.9043036,-12.19417 4.2418857,-3.16802 10.3654067,-2.02723 13.4636997,2.17158 3.439693,4.66147 2.177765,11.3608 -2.438844,14.73323" />
  </g>
</svg>
