<?xml version="1.0" encoding="UTF-8" standalone="no"?>
<svg
   xmlns:dc="http://purl.org/dc/elements/1.1/"
   xmlns:cc="http://creativecommons.org/ns#"
   xmlns:rdf="http://www.w3.org/1999/02/22-rdf-syntax-ns#"
   xmlns:svg="http://www.w3.org/2000/svg"
   xmlns="http://www.w3.org/2000/svg"
   xmlns:sodipodi="http://sodipodi.sourceforge.net/DTD/sodipodi-0.dtd"
   xmlns:inkscape="http://www.inkscape.org/namespaces/inkscape"
   height="512"
   id="Layer_1"
   version="1.1"
   viewBox="0 0 512 512"
   width="512"
   xml:space="preserve"
   sodipodi:docname="gsfc-logo-telegram-1.svg"
   inkscape:export-filename="C:\Users\t1tmbit\Desktop\GORDONSTEVENSCA\Site2\img\gsfc-logo-telegram-1-300x300.png"
   inkscape:export-xdpi="56.25"
   inkscape:export-ydpi="56.25"
   inkscape:version="0.92.1 r15371"><metadata
     id="metadata10"><rdf:RDF><cc:Work
         rdf:about=""><dc:format>image/svg+xml</dc:format><dc:type
           rdf:resource="http://purl.org/dc/dcmitype/StillImage" /></cc:Work></rdf:RDF></metadata><sodipodi:namedview
     pagecolor="#ffffff"
     bordercolor="#666666"
     borderopacity="1"
     objecttolerance="10"
     gridtolerance="10"
     guidetolerance="10"
     inkscape:pageopacity="0"
     inkscape:pageshadow="2"
     inkscape:window-width="701"
     inkscape:window-height="480"
     id="namedview8"
     showgrid="false"
     inkscape:zoom="0.4609375"
     inkscape:cx="-68.338983"
     inkscape:cy="256"
     inkscape:window-x="0"
     inkscape:window-y="0"
     inkscape:window-maximized="0"
     inkscape:current-layer="Layer_1" /><defs
     id="defs12" /><g
     id="g3885"
     transform="translate(297.22034,0)"><rect
       height="512"
       id="rect2987"
       rx="64"
       ry="64"
       style="fill:#64a9dc;fill-opacity:1;fill-rule:nonzero;stroke:none"
       width="512"
       x="-297.22034"
       y="5.6843419e-014" /><path
       d="M 127.88103,94.198045 -218.4667,227.78507 c -23.63879,9.48433 -23.4986,22.66901 -4.30871,28.54816 l 86.38017,26.96101 33.05108,101.33207 c 4.018041,11.09077 2.03732,15.48953 13.683731,15.48953 8.98786,0 12.97504,-4.09778 17.98087,-8.98786 3.1833,-3.11513 22.08378,-21.49087 43.18752,-42.00936 l 89.85158,66.38643 c 16.5339,9.12161 28.47227,4.39617 32.58935,-15.35577 L 152.92948,122.20987 C 158.96812,98.000015 143.69981,87.018565 127.88103,94.198045 z M -122.83885,277.09998 71.862531,154.2616 c 9.71969,-5.89458 18.63166,-2.72542 11.31455,3.76981 l -166.71528,150.41932 -6.49136,69.23533 -32.809291,-100.58608 z"
       id="path9"
       style="fill:#ffffff" /></g><path
     d="m 18.69574,493.28751 c 11.56798,11.5679 27.57606,18.7125 45.30404,18.7125 l 384.01255,-0.029 c 35.456,0 63.9877,-28.5316 63.9877,-63.98759 l 0,-383.983685 c 0,-17.72798 -7.1446,-33.73603 -18.7126,-45.30403 L 18.69574,493.28751 z"
     id="rect2984-1"
     style="fill:#000000;fill-opacity:0.30196078;fill-rule:nonzero;stroke:none" /></svg>