<?xml version="1.0" encoding="UTF-8" standalone="no"?>
<!-- Created with Inkscape (http://www.inkscape.org/) -->

<svg
   xmlns:dc="http://purl.org/dc/elements/1.1/"
   xmlns:cc="http://creativecommons.org/ns#"
   xmlns:rdf="http://www.w3.org/1999/02/22-rdf-syntax-ns#"
   xmlns:svg="http://www.w3.org/2000/svg"
   xmlns="http://www.w3.org/2000/svg"
   xmlns:sodipodi="http://sodipodi.sourceforge.net/DTD/sodipodi-0.dtd"
   xmlns:inkscape="http://www.inkscape.org/namespaces/inkscape"
   width="300"
   height="345"
   viewBox="0 0 79.37537 91.281308"
   version="1.1"
   id="svg8"
   inkscape:version="0.92.1 r15371"
   sodipodi:docname="gsfc-icon-electronics-1.svg"
   inkscape:export-filename="C:\Users\t1tmbit\Desktop\GORDONSTEVENSCA\Site2\img\gsfc-icon-electronics-1.png"
   inkscape:export-xdpi="21.705278"
   inkscape:export-ydpi="21.705278">
  <defs
     id="defs2" />
  <sodipodi:namedview
     id="base"
     pagecolor="#000000"
     bordercolor="#666666"
     borderopacity="1.0"
     inkscape:pageopacity="0"
     inkscape:pageshadow="2"
     inkscape:zoom="0.35"
     inkscape:cx="-27.142857"
     inkscape:cy="390.87692"
     inkscape:document-units="mm"
     inkscape:current-layer="layer1"
     showgrid="false"
     inkscape:window-width="1366"
     inkscape:window-height="715"
     inkscape:window-x="-8"
     inkscape:window-y="-8"
     inkscape:window-maximized="1"
     units="px" />
  <metadata
     id="metadata5">
    <rdf:RDF>
      <cc:Work
         rdf:about="">
        <dc:format>image/svg+xml</dc:format>
        <dc:type
           rdf:resource="http://purl.org/dc/dcmitype/StillImage" />
        <dc:title></dc:title>
      </cc:Work>
    </rdf:RDF>
  </metadata>
  <g
     inkscape:label="Layer 1"
     inkscape:groupmode="layer"
     id="layer1"
     transform="translate(0,-205.7177)">
    <path
       style="fill:#ffffff;stroke-width:0.35277775"
       d="m 10.154957,296.79925 c -1.1826096,-0.72108 -1.9898236,-1.76999 -2.3874566,-3.10232 -0.200787,-0.67277 -0.104156,-0.79375 0.633976,-0.79375 0.618535,0 1.0784542,0.35182 1.5872892,1.21423 0.5157784,0.87418 1.0442284,1.27338 1.8869284,1.4254 0.643781,0.11613 14.162108,0.16504 30.040718,0.10868 l 28.87022,-0.10248 0.85131,-0.98981 c 0.81343,-0.94576 0.85131,-1.21266 0.85131,-5.99722 v -5.00741 h 0.88195 0.88194 v 5.25002 c 0,4.64799 -0.0815,5.38198 -0.71111,6.40064 -1.47944,2.39378 0.0893,2.2842 -32.6797,2.28274 -28.697382,-0.001 -29.613654,-0.0218 -30.707375,-0.68872 z m 31.525375,-3.25745 -0.9992,-0.36402 1.09593,-0.66646 c 0.97492,-0.59289 1.85164,-0.66648 7.94095,-0.66648 h 6.84504 l 0.73116,-0.92952 c 0.61823,-0.78595 0.73116,-1.42615 0.73116,-4.14514 0,-3.1948 0.006,-3.21561 0.88194,-3.21561 h 0.88195 l -10e-4,3.52777 c -0.001,4.08836 -0.59314,5.51562 -2.64091,6.37123 -1.45788,0.60914 -13.84288,0.67979 -15.4667,0.0882 z M 6.9510904,290.59012 c -0.683961,-0.47907 -0.784051,-0.86621 -0.784051,-3.03267 0,-2.38713 -0.05373,-2.54455 -1.384616,-4.05651 -1.721948,-1.95624 -2.498766,-4.11743 -2.706968,-7.5311 -0.08875,-1.4552 -0.480913,-15.24331 -0.871464,-30.64022 -0.80884503,-31.88758 -0.90208003,-30.30256 1.970396,-33.49744 0.878413,-0.97701 2.268298,-2.10122 3.088633,-2.49825 2.797426,-1.35391 8.4211456,-1.96736 17.8956816,-1.9521 9.27145,0.0149 14.52209,0.57599 17.43049,1.86251 3.03642,1.34315 5.40765,4.62374 5.74257,7.94483 0.28726,2.84839 -1.26913,59.83041 -1.68259,61.6029 -0.47393,2.03168 -1.80774,4.32153 -2.95518,5.07336 -0.83356,0.54617 -0.8964,0.7808 -0.8964,3.34676 0,3.03579 -0.48891,3.9271 -2.15414,3.9271 -1.51993,0 -2.43197,-0.9336 -2.43197,-2.48945 0,-0.76511 -0.13606,-1.39111 -0.30236,-1.39111 -0.1663,0 -2.19036,0.59275 -4.49791,1.31722 -3.88918,1.22103 -4.50471,1.31623 -8.4289,1.30372 -3.878206,-0.0124 -4.580719,-0.12286 -8.374495,-1.31722 -2.277643,-0.71704 -4.301706,-1.30372 -4.497918,-1.30372 -0.196212,0 -0.356749,0.70879 -0.356749,1.57509 0,1.19619 -0.164147,1.66294 -0.682363,1.94028 -0.9781356,0.52348 -2.2136806,0.45062 -3.1196966,-0.18398 z m 17.9131716,-12.68 c 0.35037,-0.42217 0.35037,-0.63616 0,-1.05833 -0.88158,-1.06224 -2.13818,-0.2495 -1.63632,1.05833 0.11169,0.29104 0.42673,0.52917 0.70011,0.52917 0.27337,0 0.69467,-0.23813 0.93621,-0.52917 z m 5.39415,-4.50816 c 9.00453,-4.32474 11.43699,-15.58405 4.99316,-23.11221 -5.5383,-6.47027 -15.670287,-6.81775 -21.742366,-0.74567 -5.6028136,5.60281 -5.7414196,14.80428 -0.309519,20.54772 4.52295,4.78235 11.268245,6.09124 17.058725,3.31016 z m -8.921928,-0.37691 c -9.546583,-2.11711 -13.7302516,-13.15279 -7.964142,-21.0078 5.754599,-7.83933 18.20654,-6.72975 22.50326,2.00525 1.08822,2.21228 1.15942,2.58521 1.15833,6.06684 -10e-4,3.40557 -0.0864,3.8782 -1.04081,5.76558 -2.72823,5.39504 -8.94564,8.43663 -14.656638,7.17013 z m 0.352958,-11.07812 c 1.6e-4,-7.87629 0.0692,-8.91298 0.70555,-10.58712 0.94918,-2.49732 0.92028,-2.65319 -0.44115,-2.37901 -7.143859,1.43871 -11.179956,9.52046 -7.93596,15.89071 1.427862,2.80389 5.011931,5.74719 7.054018,5.79286 0.571702,0.0128 0.617372,-0.63196 0.617542,-8.71744 z m 7.46213,7.99815 c 2.1471,-1.09536 4.38223,-3.58784 5.21617,-5.81676 0.79293,-2.11929 0.94534,-5.17372 0.36283,-7.27103 -0.51755,-1.86338 -2.39153,-4.49225 -4.15711,-5.8317 -1.43781,-1.09079 -5.1929,-2.50075 -5.59343,-2.10023 -0.10157,0.10158 0.14832,1.07472 0.55533,2.16254 0.67891,1.81455 0.74001,2.70496 0.74001,10.78407 0,8.62835 0.0145,8.80621 0.71961,8.80621 0.39578,0 1.36625,-0.3299 2.15659,-0.7331 z m -4.28731,-16.07266 c 0,-0.66433 -1.0033,-1.02928 -1.49043,-0.54215 -0.27771,0.27771 -0.26394,0.53014 0.0495,0.90782 0.50395,0.60722 1.44092,0.36944 1.44092,-0.36567 z m -12.06496,18.28126 c -0.150037,-0.78753 -1.63113,-0.98986 -1.910807,-0.26103 -0.117854,0.30712 -0.0211,0.79117 0.215009,1.07566 0.556604,0.67067 1.859525,0.0448 1.695798,-0.81463 z m 24.41218,0.0743 c 0,-0.65523 -0.18897,-0.8442 -0.8442,-0.8442 -1.03562,0 -1.4276,0.8528 -0.7181,1.5623 0.7095,0.7095 1.5623,0.31752 1.5623,-0.7181 z M 7.4017624,260.09001 c 0,-0.62527 -0.215012,-0.90779 -0.74885,-0.98396 -0.896643,-0.12793 -1.388423,0.85553 -0.788984,1.57781 0.632518,0.76213 1.537834,0.41254 1.537834,-0.59385 z m 34.7448796,0.53849 c 0.62858,-0.75739 0.16319,-1.66377 -0.78484,-1.52854 -0.90414,0.12898 -1.28313,1.28843 -0.56906,1.74096 0.66136,0.41912 0.85498,0.38874 1.3539,-0.21242 z m -29.666713,-12.307 c 0.545541,-0.65733 0.11714,-1.63221 -0.717261,-1.63221 -0.75782,0 -1.191542,0.7807 -0.881944,1.5875 0.253827,0.66146 1.068446,0.68424 1.599205,0.0447 z m 24.668103,-0.49087 c 0.13465,-0.94394 -0.77001,-1.41437 -1.52113,-0.79099 -0.39052,0.3241 -0.4268,0.59831 -0.14809,1.11909 0.47883,0.89471 1.52409,0.68926 1.66922,-0.3281 z m -12.16012,-4.8353 c 0.10953,-0.28542 -0.0368,-0.75493 -0.32524,-1.04334 -0.7095,-0.7095 -1.5623,-0.31752 -1.5623,0.7181 0,0.65523 0.18897,0.8442 0.8442,0.8442 0.46431,0 0.93382,-0.23353 1.04334,-0.51896 z m 14.49143,-9.56041 c 0.85047,-0.85047 0.82428,-15.14321 -0.0295,-16.0866 -0.54796,-0.6055 -1.49456,-0.64514 -15.40624,-0.64514 -13.29734,0 -14.8887806,0.0601 -15.4675416,0.58384 -0.586015,0.53034 -0.645139,1.26331 -0.645139,7.99792 0,6.40381 0.07956,7.50198 0.583843,8.05921 0.548077,0.60562 1.4974006,0.64514 15.4970176,0.64514 13.08707,0 14.98107,-0.0679 15.46755,-0.55437 z m -29.431747,-2.20151 c 0,-0.59212 2.12886,-1.83023 3.146972,-1.83023 0.981404,0 2.497473,1.11113 2.497473,1.83041 0,0.15744 -1.27,0.28625 -2.822223,0.28625 -1.552222,0 -2.822222,-0.12889 -2.822222,-0.28643 z m 9.671429,-0.58928 c -0.293627,-1.16991 0.485396,-4.31217 1.130428,-4.5597 1.22191,-0.46889 1.00213,2.54858 -0.285446,3.91915 -0.418892,0.44589 -0.599804,0.81071 -0.402026,0.81071 0.197778,0 0.646929,-0.3175 0.998115,-0.70556 0.955247,-1.05553 3.100967,-0.9639 3.839977,0.16398 0.31336,0.47824 0.56974,0.95449 0.56974,1.05833 0,0.10384 -1.26697,0.1888 -2.8155,0.1888 -2.703644,0 -2.824229,-0.0348 -3.035288,-0.87571 z m 10.436898,0.54854 c 0,-0.66861 1.89552,-1.78949 3.02619,-1.78949 1.0776,0 2.26548,0.96603 2.26548,1.84238 0,0.15086 -1.19062,0.27428 -2.64583,0.27428 -1.45521,0 -2.64584,-0.14722 -2.64584,-0.32717 z m -14.529679,-1.16112 c -0.380992,-0.59634 -0.436529,-1.16638 -0.21444,-2.20107 0.327524,-1.5259 0.905414,-2.10818 1.55623,-1.56805 0.32118,0.26655 0.313362,0.79557 -0.03383,2.28914 -0.552161,2.37532 -0.658829,2.49602 -1.30796,1.47998 z m 9.952199,-0.0831 c -0.84527,-1.5794 0.52023,-5.12096 1.42567,-3.6976 0.1772,0.27856 0.24413,0.7188 0.14874,0.97829 -0.0954,0.2595 -0.27333,1.09646 -0.39541,1.8599 -0.2744,1.71595 -0.59537,1.94992 -1.179,0.85941 z m 3.88035,0.32864 c 0.0289,-2.39833 1.42422,-5.15513 2.07577,-4.10129 0.46527,0.75254 -0.18406,2.8987 -1.17762,3.89226 -0.8309,0.8309 -0.90587,0.84834 -0.89815,0.20903 z M 9.7032336,229.84414 c 0.01693,-1.24152 0.6580454,-3.37378 1.0957554,-3.6443 0.787598,-0.48676 1.095336,0.0742 0.85731,1.56272 -0.315903,1.97556 -1.9757364,3.74461 -1.9530654,2.08158 z m 25.7544884,0.1004 c -0.90841,-1.09457 0.45929,-4.79918 1.41789,-3.84057 0.37861,0.3786 -0.28611,4.35753 -0.72797,4.35753 -0.14348,0 -0.45395,-0.23263 -0.68992,-0.51696 z m -23.436285,-4.36762 c -0.292312,-0.47297 0.649371,-0.75986 2.494132,-0.75986 1.112755,0 1.544551,0.13198 1.442723,0.44097 -0.173433,0.52627 -3.635375,0.8067 -3.936855,0.31889 z m 10.106815,-0.1425 c 0.1577,-0.47956 2.81981,-0.79606 3.73662,-0.44425 0.97602,0.37453 -0.25895,0.87374 -2.17654,0.87982 -1.208,0.004 -1.66281,-0.12316 -1.56008,-0.43557 z m 9.87778,0 c 0.1577,-0.47956 2.81981,-0.79606 3.73662,-0.44425 0.97601,0.37453 -0.25896,0.87374 -2.17654,0.87982 -1.208,0.004 -1.66282,-0.12316 -1.56008,-0.43557 z m -20.779377,-0.99053 c -0.257176,-0.25717 -0.273223,-0.90709 -0.05015,-2.03099 0.521267,-2.62621 0.555465,-2.68711 1.205818,-2.14737 0.416303,0.34551 0.517102,0.86956 0.387839,2.01637 -0.196017,1.73906 -0.933479,2.77203 -1.543511,2.16199 z m 5.309583,-0.12715 c -0.348085,-0.9071 0.149513,-2.73681 0.986612,-3.62786 0.418892,-0.44589 0.594638,-0.81071 0.390546,-0.81071 -0.204092,0 -0.568702,0.23812 -0.810245,0.52916 -0.678044,0.817 -3.271923,0.69105 -4.076436,-0.19792 -0.899305,-0.99372 -0.241317,-1.37712 2.375543,-1.38417 2.962605,-0.008 3.593633,0.89229 2.75122,3.92516 -0.444846,1.60154 -1.289725,2.41983 -1.61724,1.56634 z m 4.571429,0.13039 c -0.264771,-0.26477 -0.24136,-0.94973 0.07966,-2.33072 0.547915,-2.35704 0.590375,-2.40949 1.308405,-1.61608 1.00265,1.10791 -0.35804,4.97683 -1.388068,3.9468 z m 5.350295,0.0272 c -0.48148,-0.77906 0.21656,-3.17031 1.13676,-3.89413 0.49776,-0.39155 0.94578,-0.66999 0.99558,-0.61876 0.0498,0.0512 -0.0735,0.91979 -0.27401,1.93015 -0.37397,1.8844 -1.40463,3.31684 -1.85833,2.58274 z m 4.51719,-0.22265 c -0.11681,-0.30442 -0.0174,-1.42489 0.22096,-2.48992 0.42283,-1.88939 0.45006,-1.92131 1.12106,-1.31407 0.669,0.60544 0.68637,1.24074 0.092,3.36665 -0.22916,0.81971 -1.17647,1.10861 -1.43406,0.43734 z m 5.3682,0.23497 c -0.45731,-0.73995 0.27069,-3.23119 1.14526,-3.91913 0.48891,-0.38457 0.94171,-0.64642 1.00625,-0.58189 0.0645,0.0645 -0.0747,1.03272 -0.30935,2.15153 -0.40696,1.94018 -1.35099,3.14421 -1.84216,2.34949 z m -13.39393,-4.32642 c -0.73945,-1.05572 -0.22686,-1.3282 2.51138,-1.33497 2.47841,-0.006 3.09378,0.47876 1.83544,1.44627 -1.23617,0.95046 -3.64636,0.88875 -4.34682,-0.1113 z m 10.03246,0.25162 c -0.89327,-1.07632 -0.16203,-1.592 2.25743,-1.592 2.50081,0 3.07541,0.38695 2.12844,1.43334 -0.77386,0.85511 -3.71944,0.96166 -4.38587,0.15866 z m 24.77148,60.96634 c -0.24662,-0.0992 -0.68318,-0.63444 -0.97014,-1.18936 -0.44029,-0.85142 -0.52174,-3.7931 -0.52174,-18.84173 v -17.8328 h 2.83141 2.83141 l -0.0974,18.37579 -0.0974,18.37579 -0.83283,0.67421 c -0.79094,0.64029 -2.16487,0.83178 -3.14334,0.4381 z m 13.70317,-0.69341 c -0.71815,-0.91297 -0.73116,-1.25217 -0.73116,-19.05 V 243.5143 h 2.64583 2.64583 v 18.12048 c 0,17.79783 -0.013,18.13703 -0.73116,19.05 -0.5303,0.67417 -1.05629,0.92952 -1.91467,0.92952 -0.85839,0 -1.38438,-0.25535 -1.91467,-0.92952 z m -17.06677,-39.51257 c -0.13472,-0.13472 -0.24495,-0.53599 -0.24495,-0.89171 0,-0.48343 0.26726,-0.64676 1.05833,-0.64676 h 1.05834 v -2.44424 c 0,-3.02197 0.42179,-3.55298 2.82222,-3.55298 2.40043,0 2.82222,0.53101 2.82222,3.55298 v 2.44424 h 1.08287 c 0.92119,0 1.06604,0.11851 0.97014,0.79375 -0.1095,0.77099 -0.24479,0.79656 -4.71848,0.89171 -2.53316,0.0539 -4.71597,-0.0123 -4.85069,-0.14699 z m 14.00406,-0.27685 c -0.30985,-0.80744 0.156,-1.26162 1.29403,-1.26162 h 1.03752 v -2.57527 c 0,-1.53263 0.17139,-2.74668 0.42333,-2.99862 0.23283,-0.23283 1.23296,-0.42333 2.2225,-0.42333 0.98954,0 1.98967,0.1905 2.2225,0.42333 0.25126,0.25126 0.42333,1.46102 0.42333,2.97626 v 2.55293 l 1.14653,0.11055 c 0.87449,0.0843 1.14653,0.27795 1.14653,0.8161 0,0.66664 -0.26792,0.71097 -4.85793,0.80375 -4.02746,0.0814 -4.89219,0.009 -5.05834,-0.42408 z M 58.102702,227.5511 c 0.0929,-4.05332 0.14284,-4.32152 0.80461,-4.32152 0.66177,0 0.71171,0.2682 0.80461,4.32152 l 0.0991,4.32153 h -0.90366 -0.90366 z m 14.46389,0 c 0.0929,-4.05332 0.14284,-4.32152 0.80461,-4.32152 0.66177,0 0.7117,0.2682 0.80461,4.32152 l 0.0991,4.32153 h -0.90366 -0.90366 z"
       id="path21"
       inkscape:connector-curvature="0" />
  </g>
</svg>
